<svg xmlns="http://www.w3.org/2000/svg" width="796" height="721" viewBox="0 0 796 721">
  <g id="Group_3257" data-name="Group 3257" transform="translate(-960 -313)">
    <ellipse id="Ellipse_125" data-name="Ellipse 125" cx="360" cy="360.5" rx="360" ry="360.5" transform="translate(1036 313)" fill="#f7f7e8"/>
    <g id="pixeltrue-vision" transform="translate(883.612 363.217)">
      <g id="background" transform="translate(76.387 62.349)">
        <g id="Group_2776" data-name="Group 2776" transform="translate(0 480.184)">
          <g id="Group_2775" data-name="Group 2775">
            <path id="Path_2080" data-name="Path 2080" d="M77.718,929.124c39.979-17.832,85.364-15.531,127.3-6.673,44.35,9.376,87.032,25.713,131.785,33.306,24.792,4.2,50.1,5.695,75.068,1.783,1.093-.173.633-1.841-.46-1.668-46.364,7.19-92.727-4.314-137.077-16.854C231.88,927,188.91,913.65,144.272,914c-23.124.173-46.191,4.2-67.417,13.633-1.035.46-.173,1.956.863,1.5Z" transform="translate(-76.387 -913.989)" fill="#6d9773"/>
          </g>
        </g>
        <g id="Group_2778" data-name="Group 2778" transform="translate(224.354 479.901)">
          <g id="Group_2777" data-name="Group 2777">
            <path id="Path_2081" data-name="Path 2081" d="M467.268,943.756c54.187,1.093,106.648-13.921,159.627-22.837,15.474-2.589,31.063-4.659,46.766-5.695,1.093-.057,1.093-1.783,0-1.726-54.244,3.566-106.533,19.788-160.374,26.115a340.88,340.88,0,0,1-45.961,2.474.836.836,0,1,0-.058,1.668Z" transform="translate(-466.412 -913.497)" fill="#6d9773"/>
          </g>
        </g>
        <g id="Group_2780" data-name="Group 2780" transform="translate(477.411 485.462)">
          <g id="Group_2779" data-name="Group 2779">
            <path id="Path_2082" data-name="Path 2082" d="M907.408,928.535a162.607,162.607,0,0,1,58.731-1.841c17.947,2.761,35.147,8.686,52.116,15.013,16.739,6.213,33.363,12.828,50.735,17.257,17.947,4.544,36.182,5.695,54.7,5.695,21.859,0,43.89-.863,65.346,3.969,1.093.23,1.553-1.438.46-1.668-37.908-8.513-77.2.115-115.1-8.513-35.377-8.053-67.7-26.173-103.484-32.673a164.8,164.8,0,0,0-63.908,1.093c-1.15.23-.69,1.9.4,1.668Z" transform="translate(-906.335 -923.165)" fill="#6d9773"/>
          </g>
        </g>
        <g id="Group_2782" data-name="Group 2782" transform="translate(150.933 237.884)">
          <g id="Group_2781" data-name="Group 2781">
            <path id="Path_2083" data-name="Path 2083" d="M352.134,524.539c-4.947-1.5-14.668-5.58-11.044-12.483,2.589-4.947,10.3-5.35,15.071-5.177,16.106.46,32.213,1.841,48.319.518,15.129-1.266,29.567-5.58,44.293-9.031,14.956-3.566,30.775-6.155,45.846-1.783,6.615,1.9,12.77,5.062,19.27,7.248a45.612,45.612,0,0,0,9.606,2.186c3.912.4,7.823-.173,11.677-.345,3.969-.173,8.053-.058,11.447,2.3,3.106,2.128,5.695,6.155,3.681,9.894-2.876,5.407-11.274,3.912-16.106,2.876a127.469,127.469,0,0,0-43.315-1.956,131.712,131.712,0,0,0-22.607,5.292c-7.938,2.531-15.646,4.774-24.1,3.624-7.881-1.093-15.416-3.624-23.412-3.912-8-.345-15.934.69-23.815,1.726-15.3,2.071-31.638,4.717-45.961-2.7-.978-.518-1.841.978-.863,1.5,13.4,6.96,28.531,5.35,43.027,3.451a204.018,204.018,0,0,1,22.952-2.3c8.456-.173,16.337,1.783,24.562,3.394,8.4,1.611,15.991.748,24.16-1.783,8.111-2.531,16.106-5,24.5-6.27a117.769,117.769,0,0,1,26.231-1.035c7.766.518,15.186,2.589,22.837,3.451,4.544.518,10.354.345,13.173-3.912,3.221-4.889-.23-10.584-4.659-13.288-6.73-4.084-15.071-1.208-22.377-1.668-8.053-.518-15.474-4.257-22.894-7.133-15.416-5.982-31.178-5.235-47.111-1.841-16.854,3.566-33.248,9.031-50.505,10.412a248.112,248.112,0,0,1-29.97.23l-15.589-.69a40.775,40.775,0,0,0-9.549.46c-4.889.978-10.469,3.854-10.124,9.664.4,6.385,7.766,9.319,12.943,10.872.978.23,1.438-1.438.4-1.783Z" transform="translate(-338.773 -492.767)" fill="#6d9773"/>
          </g>
        </g>
        <g id="Group_2784" data-name="Group 2784" transform="translate(572.42 26.879)">
          <g id="Group_2783" data-name="Group 2783">
            <path id="Path_2084" data-name="Path 2084" d="M1087.894,156.524c-4.947-.69-13.058-2.473-14.5-8.111-2.071-7.823,9.089-10.3,14.5-11.275,15.819-2.7,32.04-.23,47.974-.23,31.58-.058,62.7-6.04,94.108-8.283,15.7-1.15,31.523-1.323,47.169.69a67.807,67.807,0,0,1,10.757,1.841,10.166,10.166,0,0,1,4.142,2.128c2.646,2.589.057,4.947-2.359,6.212-6.213,3.279-13.288,4.6-20.248,4.889-13.921.633-27.784-2.243-41.7-1.726a61.624,61.624,0,0,0-19.04,3.566c-7.19,2.646-13.863,6.385-21.111,8.859a80.814,80.814,0,0,1-26.173,4.314c-9.031,0-17.947-1.381-26.863-2.416a218.974,218.974,0,0,0-54.187.4c-1.093.173-1.093,1.9,0,1.726a215.759,215.759,0,0,1,53.094-.518c8.744.978,17.487,2.358,26.346,2.531a82.513,82.513,0,0,0,24.275-3.106c8.053-2.3,15.416-6.27,23.182-9.376a62.507,62.507,0,0,1,23.354-4.314c14.841-.115,29.74,3.221,44.58,1.266a48.1,48.1,0,0,0,10.584-2.531c2.646-.978,6.213-2.186,8.111-4.429,3.566-4.314-1.611-8.111-5.465-9.2-7.593-2.243-16.164-2.646-24.045-3.106a239.622,239.622,0,0,0-25.713-.058c-34.687,1.668-68.97,8.916-103.772,8.8-9.894,0-19.788-.92-29.682-.978-8.4-.058-18,.115-25.885,3.394-4.947,2.071-9.779,6.9-7.018,12.6,2.589,5.35,9.894,7.19,15.186,7.938,1.035.345,1.5-1.323.4-1.5Z" transform="translate(-1071.5 -125.95)" fill="#6d9773"/>
          </g>
        </g>
        <g id="Group_2786" data-name="Group 2786" transform="translate(31.215 125.23)">
          <g id="Group_2785" data-name="Group 2785">
            <path id="Path_2085" data-name="Path 2085" d="M131.945,307.668c47.974-20.823,100.55-1.381,144.786,19.5,22.549,10.642,44.753,22.031,68.28,30.43A352.963,352.963,0,0,0,416.4,374.8c48.837,6.615,98.825,3.681,146.856-7.075,50.333-11.275,98.019-31.753,147.949-44.58a390.165,390.165,0,0,1,159.224-7.651c6.443,1.035,12.828,2.243,19.213,3.624,1.093.23,1.553-1.438.46-1.668a389.193,389.193,0,0,0-156.405-1.208c-51.541,10.239-100.033,31.178-150.6,44.81-49.067,13.23-100.32,18.58-151,13.806a359.8,359.8,0,0,1-74.32-14.841c-24.965-7.823-48.377-19.213-71.9-30.487-42.51-20.421-90.484-41.129-138.573-28.992a101.943,101.943,0,0,0-16.222,5.58c-.978.518-.115,2.013.863,1.553Z" transform="translate(-130.652 -296.926)" fill="#6d9773"/>
          </g>
        </g>
        <g id="Group_2788" data-name="Group 2788" transform="translate(228.958 92.666)">
          <g id="Group_2787" data-name="Group 2787">
            <path id="Path_2086" data-name="Path 2086" d="M474.809,263.028c56.2,31.35,123.1,33.709,185.454,24.965,70.581-9.894,138.573-33.191,209.269-42.279,39.346-5.062,79.5-5.695,118.44,2.934,1.093.23,1.553-1.438.46-1.668C919.578,231.793,848.94,245.2,781.523,260.9c-66.439,15.474-133.626,33.536-202.481,29.107-35.952-2.3-71.731-10.872-103.369-28.474-.92-.575-1.783.92-.863,1.5Z" transform="translate(-474.416 -240.315)" fill="#6d9773"/>
          </g>
        </g>
        <g id="Group_2790" data-name="Group 2790" transform="translate(60.472)">
          <g id="Group_2789" data-name="Group 2789">
            <path id="Path_2087" data-name="Path 2087" d="M182.6,87.2A231.635,231.635,0,0,1,328.017,100.09c22.376,9.721,43.372,22.376,65.346,32.9a232.639,232.639,0,0,0,69.66,21.169c27.9,3.739,56.142,3.106,84.1,1.266,1.093-.058,1.093-1.783,0-1.726-25.253,1.668-50.735,2.358-75.93-.288a231.537,231.537,0,0,1-73.227-20.133c-22.146-10.3-43.085-22.952-65.346-32.961a230.276,230.276,0,0,0-68.913-19.443,233.009,233.009,0,0,0-81.568,4.659c-1.093.23-.633,1.9.46,1.668Z" transform="translate(-181.514 -79.222)" fill="#6d9773"/>
          </g>
        </g>
        <g id="Group_2792" data-name="Group 2792" transform="translate(536.284 329.326)">
          <g id="Group_2791" data-name="Group 2791">
            <path id="Path_2088" data-name="Path 2088" d="M1024.05,679.037c-5.062-1.035-13.345-3.624-13.748-9.894-.23-3.854,2.991-6.673,6.385-7.708,4.084-1.323,8.4-.115,12.367,1.035,7.248,2.128,14.553,3.854,22.146,4.142a69.72,69.72,0,0,0,20.938-2.589c7.363-1.956,14.553-4.6,21.859-6.673a91.054,91.054,0,0,1,23.642-3.451c15.359-.23,30.545,2.531,45.846,3.164a119.959,119.959,0,0,0,22.722-1.266c8.168-1.266,16.509-3.164,24.85-2.186,5.982.69,15.589,4.717,13.633,12.425-1.726,6.73-11.275,10.527-17.142,12.425-29.452,9.549-59.824-6.328-89.678-2.128-17.2,2.416-33.421,9.664-50.793,11.044-7.938.633-16.106.115-23.642-2.7-6.9-2.646-13.115-8.4-21-7.018-1.093.173-.633,1.841.46,1.668,4.717-.805,8.859,1.438,12.828,3.624a52.812,52.812,0,0,0,9.952,4.372,58.66,58.66,0,0,0,22.376,1.783c16.452-1.553,31.925-8.053,48.2-10.7,17.947-2.876,35.607,1.266,53.324,3.624,14.438,1.9,29.912,2.358,43.487-3.681,5.177-2.3,12.08-5.982,13.4-12.08,1.208-5.465-2.991-9.836-7.535-12.08-6.73-3.279-14.841-2.646-21.974-1.668-8.686,1.15-17.142,2.991-25.943,3.106-17.142.288-34.054-3.221-51.138-3.279a95.649,95.649,0,0,0-24.217,2.991c-7.881,2.071-15.531,4.947-23.354,7.075a69.942,69.942,0,0,1-29.279,1.841,122.1,122.1,0,0,1-14.381-3.566c-3.566-1.035-7.421-1.9-11.16-1.093-5.58,1.208-10.642,6.5-8.168,12.425,2.243,5.407,9.089,7.766,14.381,8.859.92.058,1.38-1.611.345-1.841Z" transform="translate(-1008.68 -651.732)" fill="#6d9773"/>
          </g>
        </g>
        <g id="Group_2794" data-name="Group 2794" transform="translate(292.462 545.118)">
          <g id="Group_2793" data-name="Group 2793" transform="translate(0)">
            <path id="Path_2089" data-name="Path 2089" d="M585.9,1065.544a384.339,384.339,0,0,0,62.873-21.053c10.527-4.6,20.823-9.837,32.04-12.6a122.426,122.426,0,0,1,33.018-3.221c12.828.288,25.54,2.013,38.2,4.027,1.093.172,1.553-1.5.46-1.668-21.571-3.394-43.775-6.155-65.461-2.243-11.159,2.013-21.4,6.27-31.638,10.929-10.757,4.89-21.629,9.319-32.788,13.23a376.925,376.925,0,0,1-37.16,10.929c-1.093.23-.633,1.9.46,1.668Z" transform="translate(-584.814 -1026.873)" fill="#6d9773"/>
          </g>
        </g>
        <g id="Group_2796" data-name="Group 2796" transform="translate(428.662 535.868)">
          <g id="Group_2795" data-name="Group 2795" transform="translate(0)">
            <path id="Path_2090" data-name="Path 2090" d="M822.4,1022.474a111.611,111.611,0,0,0,28.531-4.314c9.491-2.7,18.868-6.5,28.934-5.522,5.12.46,10.124,1.9,15.071,3.164,5.177,1.323,10.3,2.646,15.474,3.969,9.951,2.531,19.845,5.062,29.8,7.593a.865.865,0,0,0,.46-1.668c-10.3-2.646-20.593-5.235-30.89-7.881-9.434-2.416-19.1-5.637-28.762-6.788-9.491-1.093-18.465,1.841-27.438,4.6a117.082,117.082,0,0,1-31.12,5.177.835.835,0,1,0-.058,1.668Z" transform="translate(-821.587 -1010.793)" fill="#6d9773"/>
          </g>
        </g>
        <g id="Group_2798" data-name="Group 2798" transform="translate(529.1 548.433)">
          <g id="Group_2797" data-name="Group 2797">
            <path id="Path_2091" data-name="Path 2091" d="M997.289,1040.668c22.607-5,46.364-9.319,69.315-4.027,11.39,2.646,22.089,7.708,32.731,12.367,11.16,4.947,22.377,9.836,33.536,14.783,1.036.46,1.9-1.035.863-1.5-17.487-7.708-34.8-16.049-52.634-22.894-17.257-6.615-35.2-7.938-53.5-5.867a295.825,295.825,0,0,0-30.832,5.522c-1.035.173-.575,1.841.518,1.611Z" transform="translate(-996.191 -1032.636)" fill="#6d9773"/>
          </g>
        </g>
        <g id="Group_2800" data-name="Group 2800" transform="translate(324.733 595.771)">
          <g id="Group_2799" data-name="Group 2799" transform="translate(0)">
            <path id="Path_2092" data-name="Path 2092" d="M642,1122.908c5.925-1.035,11.907-2.071,17.832-3.106s11.907-2.358,17.89-2.991c5.522-.575,11.159.4,16.624.92,6.04.633,12.137,1.208,18.177,1.841,1.093.115,1.093-1.611,0-1.726-6.04-.633-12.137-1.208-18.177-1.841-5.867-.575-11.792-1.553-17.717-.805-11.735,1.438-23.412,4.027-35.089,6.04-1.093.23-.633,1.9.46,1.668Z" transform="translate(-640.914 -1114.929)" fill="#6d9773"/>
          </g>
        </g>
      </g>
      <g id="details" transform="translate(178.419 39.5)">
        <circle id="Ellipse_102" data-name="Ellipse 102" cx="7.133" cy="7.133" r="7.133" transform="translate(57.775 352.904)" fill="#3f3f3f"/>
        <circle id="Ellipse_103" data-name="Ellipse 103" cx="3.739" cy="3.739" r="3.739" transform="translate(80.439 375.338)" fill="#3f3f3f"/>
        <circle id="Ellipse_104" data-name="Ellipse 104" cx="8.801" cy="8.801" r="8.801" transform="translate(476.543)" fill="#3f3f3f"/>
        <circle id="Ellipse_105" data-name="Ellipse 105" cx="5.005" cy="5.005" r="5.005" transform="translate(500.818 17.545)" fill="#3f3f3f"/>
        <circle id="Ellipse_106" data-name="Ellipse 106" cx="8.341" cy="8.341" r="8.341" transform="translate(494.145 8.801)" fill="#2d2d2d"/>
        <circle id="Ellipse_107" data-name="Ellipse 107" cx="11.275" cy="11.275" r="11.275" transform="translate(471.251 432.171)" fill="#2d2d2d"/>
        <circle id="Ellipse_108" data-name="Ellipse 108" cx="7.19" cy="7.19" r="7.19" transform="translate(66.001 8.801)" fill="#2d2d2d"/>
        <circle id="Ellipse_109" data-name="Ellipse 109" cx="8.801" cy="8.801" r="8.801" transform="translate(178.171 497.287)" fill="#2d2d2d"/>
        <g id="Group_2802" data-name="Group 2802" transform="translate(248.233 326.548)">
          <g id="Group_2801" data-name="Group 2801" transform="translate(0 0)">
            <path id="Path_2093" data-name="Path 2093" d="M687.543,629.971c-1.208-.518.173-2.646.805-2.934.748-.345,2.243.115,3.049.345,1.266.4,2.358,1.093,3.624,1.438a6.344,6.344,0,0,0,4.372-.115c4.6-2.358-.863-10.3,5.867-10.3,3.682,0,6.788,5.465,9.836,1.381a16.846,16.846,0,0,0,2.128-5,11.39,11.39,0,0,1,1.9-4.257c1.208-1.381,4.89-2.761,5.292.23.115,1.093,1.9,1.093,1.726,0a3.981,3.981,0,0,0-3.911-3.566c-2.531-.173-4.372,1.726-5.407,3.8a31.092,31.092,0,0,0-1.611,4.6c-.345,1.093-.805,2.991-1.783,3.682-1.035.69-1.841-.057-2.7-.575-2.243-1.5-4.947-2.646-7.651-1.668-2.473.92-3.451,3.049-3.336,5.58,0,.748.23,1.668.173,2.416-.4,2.646-2.186,2.761-4.027,2.358s-3.394-1.553-5.292-1.9c-2.013-.4-4.027.115-4.947,2.128-.748,1.726-.288,3.451,1.438,4.142,1.035.288,1.5-1.381.46-1.783Z" transform="translate(-685.299 -607.181)" fill="#727272"/>
          </g>
        </g>
        <g id="Group_2804" data-name="Group 2804" transform="translate(277.844 327.827)">
          <g id="Group_2803" data-name="Group 2803" transform="translate(0 0)">
            <path id="Path_2094" data-name="Path 2094" d="M739.09,633.677a3.815,3.815,0,0,1,.057-4.314c1.323-1.9,3.164-1.611,5.177-1.323,1.5.23,3.336.518,4.429-.805.748-.863.633-1.9.92-2.876a6.627,6.627,0,0,1,2.531-3.566,7.252,7.252,0,0,1,8.628-.173.9.9,0,0,0,1.5-.633,10.291,10.291,0,0,1,11.735-8.744c1.093.173,1.553-1.5.46-1.668A12.065,12.065,0,0,0,760.6,619.986c.518-.23.978-.4,1.5-.633a8.527,8.527,0,0,0-8.168-1.323c-3.221,1.093-4.717,3.221-5.925,6.212-.575,1.5-1.266,2.416-2.934,2.186-.92-.115-1.783-.345-2.7-.4a4.9,4.9,0,0,0-3.509,1.15,5.69,5.69,0,0,0-1.208,7.421.854.854,0,0,0,1.438-.92Z" transform="translate(-736.775 -609.405)" fill="#727272"/>
          </g>
        </g>
        <g id="Group_2806" data-name="Group 2806" transform="translate(306.998 24.226)">
          <g id="Group_2805" data-name="Group 2805">
            <path id="Path_2095" data-name="Path 2095" d="M789.725,94.664c-.978-.92-.69-1.5.805-1.783.633-.863,1.323-1.035,2.071-.46a5.959,5.959,0,0,1,2.474,1.841,21.385,21.385,0,0,0,2.761,2.358,5.1,5.1,0,0,0,4.717.4c1.841-.92,1.9-2.761,2.531-4.487a5.826,5.826,0,0,1,10.354-1.15c.345.46,1.208.633,1.5,0,1.093-2.589,2.474-5.522,4.947-7.075s6.615-1.381,7.708,1.841c.345,1.035,2.013.575,1.668-.46-1.093-3.106-4.257-4.487-7.42-3.969-4.372.748-6.788,5.12-8.4,8.8h1.5c-2.013-2.876-5.465-4.429-8.916-3.164a7.4,7.4,0,0,0-3.624,2.876,9.97,9.97,0,0,0-1.035,2.243,7.421,7.421,0,0,1-.46,1.611,3.3,3.3,0,0,1-4.142,1.035c-2.819-1.553-5.58-6.5-9.491-4.487a3.2,3.2,0,0,0-.4,5.522.863.863,0,0,0,.863-1.5Z" transform="translate(-787.457 -81.615)" fill="#494949"/>
          </g>
        </g>
        <g id="Group_2808" data-name="Group 2808" transform="translate(344.46 27.785)">
          <g id="Group_2807" data-name="Group 2807">
            <path id="Path_2096" data-name="Path 2096" d="M854.319,96.832c-.4-5.752,6.96-3.854,9.894-2.416,1.5.748,3.336,2.128,4.947.863a3.411,3.411,0,0,0,.978-1.553c.863-1.9,1.438-3.279,3.739-3.969,3.566-1.035,7.018,1.208,9.894,3.049.92.575,1.783-.92.863-1.5-3.049-1.9-6.5-4.027-10.239-3.394A7.339,7.339,0,0,0,871,89.3c-1.5,1.093-1.783,2.991-3.279,3.912-1.438.863-2.013,0-3.451-.69-.748-.345-1.5-.69-2.3-.978a8.6,8.6,0,0,0-4.659-.4c-2.7.633-4.889,2.819-4.717,5.695.058,1.093,1.783,1.093,1.726,0Z" transform="translate(-852.583 -87.802)" fill="#494949"/>
          </g>
        </g>
        <g id="Group_2810" data-name="Group 2810" transform="translate(510.433 265.008)">
          <g id="Group_2809" data-name="Group 2809" transform="translate(0 0)">
            <path id="Path_2097" data-name="Path 2097" d="M1143.35,510.266c-3.8-8.341,10.584-12.022,11.562-3.279a6.215,6.215,0,0,1-4.257,6.845,6.677,6.677,0,0,1-7.823-4.6.865.865,0,0,0-1.668.46,8.413,8.413,0,0,0,9.951,5.81c4.2-1.093,6.27-5.752,5.292-9.779-1.035-4.257-5.465-6.328-9.549-5.235a7.653,7.653,0,0,0-5,10.757c.46.92,1.956,0,1.5-.978Z" transform="translate(-1141.116 -500.199)" fill="#494949"/>
          </g>
        </g>
        <g id="Group_2812" data-name="Group 2812" transform="translate(518.384 272.122)">
          <g id="Group_2811" data-name="Group 2811" transform="translate(0 0)">
            <path id="Path_2098" data-name="Path 2098" d="M1159.92,522.134c-3.106-.288-4.257-4.429-2.128-6.5a5.22,5.22,0,0,1,6.73-.173c1.956,1.553,3.854,6.1,1.668,8.283-2.876,2.876-6.385-1.783-7.766-3.854-.633-.92-2.128-.058-1.5.863,2.013,3.106,6.615,8,10.469,4.2,3.049-2.991.863-9.031-2.128-11.159-3.049-2.186-8.053-1.438-9.779,2.128a5.614,5.614,0,0,0,4.487,7.938c1.035.115,1.035-1.611-.057-1.726Z" transform="translate(-1154.937 -512.566)" fill="#494949"/>
          </g>
        </g>
        <g id="Group_2814" data-name="Group 2814" transform="translate(0 202.912)">
          <g id="Group_2813" data-name="Group 2813">
            <path id="Path_2099" data-name="Path 2099" d="M254.589,398.721c2.3-.115,3.509-1.668,5.12-3.106,3.8-3.394,8.168-.173,10.584,3.164,2.3,3.164,5.637,5.407,8.571,1.611,1.381-1.783,2.071-4.429,3.969-5.695,3.854-2.589,7.133,2.531,9.549,4.774,2.761,2.531,8.456,3.681,9.721-1.035a.865.865,0,0,0-1.668-.46c-.633,2.473-3.624,2.416-5.407,1.381a18.059,18.059,0,0,1-3.451-3.164c-1.611-1.726-3.394-3.394-5.81-3.854-3.969-.69-5.752,2.876-7.536,5.752a5.863,5.863,0,0,1-1.9,2.358c-2.071,1.093-3.566-1.093-4.659-2.531a13.057,13.057,0,0,0-5.177-4.659,7.349,7.349,0,0,0-5.925-.345c-2.186.92-3.566,4.027-6.04,4.142a.835.835,0,0,0,.058,1.668Z" transform="translate(-253.762 -392.249)" fill="#494949"/>
          </g>
        </g>
        <g id="Group_2816" data-name="Group 2816" transform="translate(40.829 195.516)">
          <g id="Group_2815" data-name="Group 2815">
            <path id="Path_2100" data-name="Path 2100" d="M324.947,381.41c2.416,2.876,6.73,6.73,10.527,3.566.92-.805,1.438-1.956,2.416-2.761a5.57,5.57,0,0,1,5-.805c3.624.978,5.752,4.429,7.651,7.363a.864.864,0,0,0,1.5,0c2.474-5.407,9.089-6.73,14.266-4.659,1.035.4,1.5-1.266.46-1.668-5.81-2.358-13.46-.633-16.221,5.407h1.5c-2.589-4.027-5.867-8.628-11.275-8.456a6.853,6.853,0,0,0-4.889,2.243c-1.5,1.726-2.761,3.106-5.235,2.358-1.9-.575-3.279-2.358-4.544-3.854-.633-.805-1.841.4-1.15,1.266Z" transform="translate(-324.741 -379.392)" fill="#494949"/>
          </g>
        </g>
        <g id="Group_2818" data-name="Group 2818" transform="translate(139.77 245.127)">
          <g id="Group_2817" data-name="Group 2817">
            <path id="Path_2101" data-name="Path 2101" d="M501.608,478.213c-.748-1.5-1.611-3.049-2.3-4.6-.748-1.611-.4-2.243.575-3.624,1.266-1.783,3.221-3.394,5.465-2.186a7.332,7.332,0,0,1,3.106,4.487c.805,2.819.115,6.845-3.164,7.766-2.7.748-6.213-.92-6.1-4.027a.864.864,0,0,0-1.726,0c-.115,3.854,3.739,6.27,7.305,5.867,4.372-.518,6.212-5.12,5.58-9.031-.633-3.8-4.142-8.628-8.513-6.845-2.128.863-3.739,3.106-4.717,5.12-.575,1.208-.46,1.266.115,2.474.92,1.841,1.841,3.681,2.761,5.465a.916.916,0,0,0,1.611-.863Z" transform="translate(-496.743 -465.636)" fill="#727272"/>
          </g>
        </g>
        <g id="Group_2820" data-name="Group 2820" transform="translate(145.442 254.988)">
          <g id="Group_2819" data-name="Group 2819">
            <path id="Path_2102" data-name="Path 2102" d="M512.181,496.769c-2.186-2.589-5.925-7.651-2.7-10.872,2.3-2.3,6.443-1.438,8.341.863,1.956,2.358,2.358,6.96-.69,8.686-2.589,1.5-6.328.058-6.788-2.934-.173-1.093-1.841-.633-1.668.46.69,3.912,5.465,5.752,8.916,4.2,4.2-1.956,4.372-7.766,1.9-11.159-2.358-3.279-7.536-4.429-10.757-1.726-4.659,3.854-.633,10.182,2.3,13.633.633.92,1.841-.288,1.151-1.15Z" transform="translate(-506.603 -482.78)" fill="#494949"/>
          </g>
        </g>
        <g id="Group_2822" data-name="Group 2822" transform="translate(489.427 133.724)">
          <g id="Group_2821" data-name="Group 2821">
            <path id="Path_2103" data-name="Path 2103" d="M1106.325,290.8c.057-5.062,7.018-3.566,10.009-3.221a11.751,11.751,0,0,0,7.248-1.323c2.531-1.323,4.6-3.394,7.075-4.832a11.073,11.073,0,0,1,5.465-1.841c2.013.058,3.279,1.266,5.062,2.013,4.142,1.668,6.788-2.186,9.376-4.717,5.12-5,12.425-2.934,18.407-.863,1.036.345,1.5-1.323.46-1.668-5.35-1.841-12.137-3.854-17.43-.805-2.531,1.438-4.027,4.084-6.327,5.752-3.279,2.358-6.04-1.381-9.491-1.438-7.42-.115-11.332,8.456-18.81,8.053-3.221-.173-6.328-1.381-9.434.058a5.233,5.233,0,0,0-3.336,4.774.864.864,0,0,0,1.726.058Z" transform="translate(-1104.598 -271.97)" fill="#727272"/>
          </g>
        </g>
        <g id="Group_2824" data-name="Group 2824" transform="translate(532.596 137.573)">
          <g id="Group_2823" data-name="Group 2823">
            <path id="Path_2104" data-name="Path 2104" d="M1181.229,291.684a15.6,15.6,0,0,1,16.8-5.982c2.7.805,5.235,2.991,8.226,2.819,2.474-.173,3.8-2.186,5.465-3.739,2.7-2.473,6.213-4.487,10.009-4.372a9.076,9.076,0,0,1,5.867,2.416,4.474,4.474,0,0,0,1.841,1.208,4.931,4.931,0,0,0,3.221-.69,37.256,37.256,0,0,1,5.522-2.013,31.645,31.645,0,0,1,11.85-.633c1.093.115,1.093-1.611,0-1.726a31.288,31.288,0,0,0-11.332.46,37.89,37.89,0,0,0-4.947,1.553,7.374,7.374,0,0,1-3.336.863c-1.553,0-1.438-.23-2.474-1.035-4.89-3.739-11.447-2.013-15.876,1.5-1.208.92-2.186,2.186-3.336,3.106-2.761,2.186-4.947.805-7.766-.46a16.466,16.466,0,0,0-7.593-1.5,17.3,17.3,0,0,0-13.518,7.363c-.748.92.748,1.783,1.381.863Z" transform="translate(-1179.644 -278.661)" fill="#727272"/>
          </g>
        </g>
      </g>
      <g id="girl" transform="translate(380.966 105.688)">
        <g id="leg_right" transform="translate(154.878 238.799)">
          <path id="Path_2105" data-name="Path 2105" d="M942.59,969.621c1.093,6.9,2.186,13.863,3.221,20.766q-34.082,11.044-33.421,13.978c.575,2.416,18.753.633,54.532-5.177-2.071-10.929-4.084-21.859-6.155-32.788C954.669,967.435,948.629,968.528,942.59,969.621Z" transform="translate(-890.947 -738.206)" fill="#fff" stroke="#000" stroke-width="1"/>
          <path id="Path_2106" data-name="Path 2106" d="M878.238,569.988c-.4,7.823-.978,18.983-1.5,32.5-.518,14.323-.805,21.8-.748,31,0,3.969.172,20.133,2.243,40.956,1.726,17.545,4.429,43.775,14.036,76.046a356.353,356.353,0,0,0,18.81,49.47,77.947,77.947,0,0,0,14.783.748,76.4,76.4,0,0,0,25.08-5.522c-1.726-5.637-4.142-13.633-6.673-23.239a585.685,585.685,0,0,1-16.969-104.807,611.2,611.2,0,0,1,.748-97.444Q903.2,569.786,878.238,569.988Z" transform="translate(-875.49 -569.7)" fill="#6d9773"/>
          <path id="Path_2107" data-name="Path 2107" d="M955.23,577.9c-1.093,4.142-2.531,10.124-4.084,17.372-4.027,19.155-8.168,46.479-7.766,92.67A793.719,793.719,0,0,0,952.986,803.1c2.876-.288,5.81-.633,8.859-1.093a167.945,167.945,0,0,0,17.717-3.682c-2.416-7.823-5.752-19.443-9.2-33.594a598.9,598.9,0,0,1-16.624-121.489A608.714,608.714,0,0,1,955.23,577.9Z" transform="translate(-904.105 -573.183)" fill="#606060" opacity="0.09"/>
          <g id="Group_2826" data-name="Group 2826" transform="translate(48.629 0.956)">
            <g id="Group_2825" data-name="Group 2825">
              <path id="Path_2108" data-name="Path 2108" d="M962.33,572.189A553.634,553.634,0,0,0,972.856,746.6q5.436,24.332,13,48.032c.345,1.035,2.013.575,1.668-.46a554.287,554.287,0,0,1-26.115-172.339c.115-16.567,1.035-33.191,2.646-49.7.115-1.035-1.611-1.035-1.726.058Z" transform="translate(-959.661 -571.362)" fill="#161616"/>
            </g>
          </g>
          <g id="Group_2828" data-name="Group 2828" transform="translate(0 52.54)">
            <g id="Group_2827" data-name="Group 2827">
              <path id="Path_2109" data-name="Path 2109" d="M875.512,661.879A388.759,388.759,0,0,0,894.84,801.315a368.187,368.187,0,0,0,14.438,36.872c.46,1.035,1.956.115,1.5-.863a386.733,386.733,0,0,1-33.306-136.042,391.32,391.32,0,0,1-.23-39.4c.058-1.15-1.668-1.093-1.726,0Z" transform="translate(-875.123 -661.037)" fill="#161616"/>
            </g>
          </g>
          <g id="Group_2830" data-name="Group 2830" transform="translate(34.611 224.114)">
            <g id="Group_2829" data-name="Group 2829">
              <path id="Path_2110" data-name="Path 2110" d="M935.527,965.4c1.956,2.186,6.443,1.668,9.089,1.726a77.128,77.128,0,0,0,12.08-.92c4.314-.633,8.629-1.553,12.885-2.589,2.128-.518,6.558-.633,7.651-2.991.46-.978-1.035-1.9-1.5-.863-.518,1.208-3.394,1.438-4.487,1.668-1.611.4-3.164.748-4.774,1.15-3.049.69-6.04,1.323-9.089,1.783a75.829,75.829,0,0,1-9.491.978c-2.416.115-9.319.863-11.1-1.15-.805-.863-2.013.4-1.266,1.208Z" transform="translate(-935.292 -959.308)" fill="#161616"/>
            </g>
          </g>
        </g>
        <g id="leg_left" transform="translate(110.099 211.851)">
          <path id="Path_2111" data-name="Path 2111" d="M831.533,549.743a121.532,121.532,0,0,0-5.522,16.624c-2.013,7.766-2.531,12.425-3.682,19.213-2.128,12.54-3.566,14.668-6.673,28.416-3.279,14.726-4.774,26.058-5.925,35.089-.92,7.018-2.589,21.341-3.336,39.864-.345,8-.518,12.713-.345,19.213a213.516,213.516,0,0,0,5.177,42.452,207.793,207.793,0,0,0,15.129,43.545,48.13,48.13,0,0,0,11.447,4.084c6.1,1.323,13.921,3.049,21.4-.748a24.169,24.169,0,0,0,10.354-10.7,221.865,221.865,0,0,1-8.859-31.35c-6.673-32.558-4.257-58.328-2.589-74.55,3.106-30.66,10.239-53.669,22.491-93.36,4.142-13.345,7.823-24.16,10.354-31.35.863-5.695,2.876-22.779-6.27-29.912C871.281,515.689,840.046,531.393,831.533,549.743Z" transform="translate(-800.975 -522.852)" fill="#6d9773"/>
          <path id="Path_2112" data-name="Path 2112" d="M911.87,622.8a224.986,224.986,0,0,0-14.036,25.828c-6.328,13.69-15.646,37.735-20.651,85.652a532.6,532.6,0,0,0-.345,107.05c1.783.173,9.376.805,15.876-4.429a20.777,20.777,0,0,0,5.925-7.766,223.9,223.9,0,0,1-9.2-33.248c-8.168-41.072-3.049-74.09.748-97.1A340.339,340.339,0,0,1,911.87,622.8Z" transform="translate(-830.002 -565.307)" fill="#6d9773" opacity="0.08"/>
          <path id="Path_2113" data-name="Path 2113" d="M836.866,1000.678c1.956,7.018,3.912,14.093,5.867,21.111q-46.249,14.065-45.443,17.545.863,3.969,62.988-5.867c-1.093-11.275-2.186-22.491-3.221-33.766C850.269,999.988,843.539,1000.333,836.866,1000.678Z" transform="translate(-797.278 -725.403)" fill="#feeff1" stroke="#000" stroke-width="1"/>
          <g id="Group_2832" data-name="Group 2832" transform="translate(4.381 26.997)">
            <g id="Group_2831" data-name="Group 2831">
              <path id="Path_2114" data-name="Path 2114" d="M830.438,570.369c-6.1,15.416-9.2,31.753-12.482,47.974-3.451,16.969-6.788,33.939-9.2,51.08-4.487,31.753-5.867,64.253.288,95.891a174.865,174.865,0,0,0,16.912,48.895c.518.978,2.013.115,1.5-.863-30.775-58.5-21.456-126.953-8.916-189.021,3.624-18,6.845-36.355,13.633-53.5.345-1.035-1.323-1.5-1.726-.46Z" transform="translate(-804.894 -569.785)" fill="#6d9773"/>
            </g>
          </g>
          <g id="Group_2834" data-name="Group 2834" transform="translate(54.287 56.774)">
            <g id="Group_2833" data-name="Group 2833">
              <path id="Path_2115" data-name="Path 2115" d="M918.486,622.154c-19.27,51.368-32.155,106.59-24.677,161.64A211.228,211.228,0,0,0,904.8,828.259c.4,1.035,2.071.575,1.668-.46-19.155-51.713-15.244-108.431-.863-160.835,4.142-15.014,9.089-29.8,14.553-44.408.4-1.035-1.266-1.438-1.668-.4Z" transform="translate(-891.653 -621.55)" fill="#6d9773"/>
            </g>
          </g>
          <g id="Group_2836" data-name="Group 2836" transform="translate(25.182 262.548)">
            <g id="Group_2835" data-name="Group 2835">
              <path id="Path_2116" data-name="Path 2116" d="M841.484,988.09a43.4,43.4,0,0,0,26.633,5.177c7.536-1.035,16.279-4.487,17.027-13.173.115-1.093-1.611-1.093-1.726,0-.805,9.031-11.735,11.447-19.155,11.792a40.935,40.935,0,0,1-21.859-5.292c-1.035-.518-1.9.978-.92,1.5Z" transform="translate(-841.055 -979.275)" fill="#6d9773"/>
            </g>
          </g>
        </g>
        <g id="torso" transform="translate(136.86 77.935)">
          <path id="Path_2117" data-name="Path 2117" d="M859.446,300.95a52.278,52.278,0,0,0-5.81,8.4c-7.075,12.425-7.536,24.62-7.651,35.319-.115,15.589-.23,23.412,1.438,40.381,1.553,15.876,1.956,38.656-3.624,67.7a60.051,60.051,0,0,0,21.859,10.182c27.5,6.443,50.275-9.606,54.589-12.713-5.465-32.04-8.456-57.7-10.182-75.7-1.093-11.39-5.12-27.956-13.115-61.147-2.416-10.124-4.89-19.788-12.367-22.549C874.23,286.914,861.517,298.937,859.446,300.95Z" transform="translate(-843.8 -290.049)" fill="#feeff1" stroke="#000" stroke-width="1"/>
          <path id="Path_2118" data-name="Path 2118" d="M914.2,292.8c.92,3.739,2.243,9.376,3.566,16.337a377.548,377.548,0,0,1,5.637,42.74c1.668,20.823,3.567,59.882,4.142,110.387a67.5,67.5,0,0,0,13.633-5.637,70.214,70.214,0,0,0,8.629-5.637c-.4-4.429-1.151-11.159-2.359-19.27-1.553-10.182-3.106-17.257-3.854-20.766a219.515,219.515,0,0,1-4.142-41.532c-2.358-10.009-4.142-18.062-5.35-23.412-3.336-15.186-4.314-20.766-6.845-29.97-2.531-9.261-5.177-16.624-6.845-21.053C918.342,294.181,916.271,293.49,914.2,292.8Z" transform="translate(-873.704 -291.217)" fill="#606060" opacity="0.1"/>
        </g>
        <g id="backpack" transform="translate(150.134 88.952)">
          <path id="Path_2119" data-name="Path 2119" d="M870.6,314.759c.518,1.035,1.381,1.381,3.279,2.3,1.611.805,3.164,1.783,4.774,2.473,4.947,2.128,10.757,11.562,11.677,13.058,3.509,5.695,7.593,12.367,9.951,22.031.633,2.531,2.071,9.089.4,31.235-1.783,22.722-4.084,25.885-2.3,37.217,1.323,8.226,2.991,18.062,11.1,23.412,7.536,4.947,16.222,3.221,18,2.876,10.929-2.128,17.142-10.584,23.182-18.81A82.25,82.25,0,0,0,964.88,398.34c.69-3.394.575-13.345.4-33.191-.23-20.478-.575-27.554-5.925-33.536a25.007,25.007,0,0,0-11.1-6.9,6.687,6.687,0,0,0-.748-4.774c-1.956-2.991-6.615-2.934-9.606-2.876-12.828.345-22.376,8.974-22.837,9.376a37.784,37.784,0,0,0-11.1,20.306,56.17,56.17,0,0,0-6.328-16.106c-1.783-3.049-4.429-6.155-9.779-12.483-4.2-4.947-6.212-6.845-9.376-7.881-.69-.23-5.925-1.783-7.651.575A3.964,3.964,0,0,0,870.6,314.759Z" transform="translate(-868.285 -309.353)" fill="#fff"/>
          <path id="Path_2120" data-name="Path 2120" d="M870.185,314.782c.345-.633,4.2.805,4.6.978,5.695,2.186,10.757,6.73,17.257,17.257a121.563,121.563,0,0,1,11.1,23.009c2.531-2.589,4.659-4.717,6.328-6.328a91.041,91.041,0,0,1,16.106-11.677c.978-.575,2.186-1.266,3.049-.748,1.783.978-.115,5.752.4,10.182.4,3.336,2.359,7.938,9.779,13.058a3.976,3.976,0,0,1-.575,3.279c-1.611,1.783-5.752.345-7.881-.4-3.451-1.208-10.124-4.372-18-13.633a121.783,121.783,0,0,0-2.474,12.483,129.622,129.622,0,0,0,.575,39.116,135.362,135.362,0,0,0,8.456,29.739,33.214,33.214,0,0,0,23.584.978,19.92,19.92,0,0,0-6.73,5.177c-2.7,3.279-2.761,5.752-5,8.8-1.5,2.071-4.2,4.659-9.2,6.5a21.887,21.887,0,0,1-6.5-1.726c-7.881-3.509-11.447-10.929-13.058-14.381-2.128-4.659-5.407-14.093-2.3-46.018,1.783-18.235,3.739-23.93.748-34.341a70.654,70.654,0,0,0-7.651-16.854A67.429,67.429,0,0,0,877.836,321.4C874.039,318.176,869.84,315.53,870.185,314.782Z" transform="translate(-868.273 -311.504)" fill="#606060" opacity="0.11"/>
          <path id="Path_2121" data-name="Path 2121" d="M977.964,333.35a25.562,25.562,0,0,0-3.394,6.04,22.523,22.523,0,0,0-1.611,9.779c.633,9.146,7.19,14.726,8.4,15.7.805.633,1.5,1.15,1.956,1.438a47.778,47.778,0,0,0-1.783,10.182c-.46,6.1-.92,12.943,2.646,14.956,2.3,1.266,5.752.4,7.651-1.438.46-.46,1.783-1.9,2.128-8.4.4-7.708-1.208-10.929,1.093-13.173a12.8,12.8,0,0,1,4.084-2.3,22.354,22.354,0,0,1,4.084-1.266c-.633,4.717-1.093,8.916-1.438,12.31-.4,4.2-.575,6.328.863,7.651a4.954,4.954,0,0,0,5.177.69c2.186-.978,2.876-3.681,4.084-9.089.978-4.257,1.783-7.823,1.266-12.655a29.672,29.672,0,0,0-1.266-5.867,29.277,29.277,0,0,0-.863-4.084c-.978-3.336-1.9-4.314-2.474-6.443-.863-3.049.115-4.544.345-8a24.529,24.529,0,0,0-1.956-11.39,7.638,7.638,0,0,0-3.912,1.266A8.374,8.374,0,0,0,1000,333a15.02,15.02,0,0,0-7.305.173,15.535,15.535,0,0,0-8.916,6.615c1.5-3.279.23-6.5-1.783-7.305C980.265,331.739,978.194,333.235,977.964,333.35Z" transform="translate(-911.913 -317.186)"/>
          <g id="Group_2838" data-name="Group 2838" transform="translate(70.948 30.111)">
            <g id="Group_2837" data-name="Group 2837">
              <path id="Path_2122" data-name="Path 2122" d="M991.816,365.432c.575-1.093,3.451-3.509,4.429-1.5.46.978,1.956.115,1.5-.863a3.111,3.111,0,0,0-3.566-1.438,5.548,5.548,0,0,0-3.854,2.934c-.518.978.978,1.841,1.5.863Z" transform="translate(-990.213 -361.547)" fill="#fff"/>
            </g>
          </g>
          <g id="Group_2840" data-name="Group 2840" transform="translate(87.823 24.934)">
            <g id="Group_2839" data-name="Group 2839">
              <path id="Path_2123" data-name="Path 2123" d="M1021.131,357.179a7.5,7.5,0,0,1,1.266-2.186c.575-.575,2.3-1.208,2.358.115.057,1.093,1.783,1.093,1.726,0a2.741,2.741,0,0,0-3.221-2.531c-1.9.345-2.876,2.071-3.624,3.681-.46,1.035,1.035,1.956,1.5.92Z" transform="translate(-1019.549 -352.547)" fill="#fff"/>
            </g>
          </g>
          <g id="Group_2842" data-name="Group 2842" transform="translate(88.205 33.907)">
            <g id="Group_2841" data-name="Group 2841">
              <path id="Path_2124" data-name="Path 2124" d="M1021.874,369.27v.173l-.288.288c-.288.173-.748,0-.69-.345,0,0,0-.173.057-.115l-.173.173h1.208l-.115-.115.057.057c-.057-.057,0-.057,0,.058.058.345-.115.575-.575.748-.173-.058-.288-.058-.46-.115-.23-.115-.172-.46-.115-.633.057-.058,0-.058-.057.058h0a.856.856,0,0,0-.288,1.208.907.907,0,0,0,1.208.288,1.832,1.832,0,0,0,.863-1.266,1.157,1.157,0,0,0-1.093-1.208,1.094,1.094,0,0,0-1.151,1.035,1.448,1.448,0,0,0,.518,1.15.887.887,0,0,0,1.208,0,1.454,1.454,0,0,0,.057-2.358,1.358,1.358,0,0,0-1.323-.058,1.34,1.34,0,0,0-.46,1.5.823.823,0,0,0,1.035.575.97.97,0,0,0,.575-1.093Z" transform="translate(-1020.213 -368.145)" fill="#fff"/>
            </g>
          </g>
          <g id="Group_2844" data-name="Group 2844" transform="translate(74.009 35.328)">
            <g id="Group_2843" data-name="Group 2843">
              <path id="Path_2125" data-name="Path 2125" d="M1002.187,372.1a3.8,3.8,0,0,1-5-1.093c-.633-.92-2.128-.058-1.5.863a5.685,5.685,0,0,0,7.42,1.726.879.879,0,0,0-.92-1.5Z" transform="translate(-995.534 -370.616)" fill="#fff"/>
            </g>
          </g>
          <g id="Group_2846" data-name="Group 2846" transform="translate(76.183 40.315)">
            <g id="Group_2845" data-name="Group 2845">
              <path id="Path_2126" data-name="Path 2126" d="M1002.527,379.524a11.3,11.3,0,0,0-3.106,3.681c-.518.978.978,1.841,1.5.863a10,10,0,0,1,2.876-3.336.887.887,0,0,0,0-1.208.962.962,0,0,0-1.265,0Z" transform="translate(-999.313 -379.287)" fill="#fff"/>
            </g>
          </g>
          <g id="Group_2848" data-name="Group 2848" transform="translate(91.96 28.695)">
            <g id="Group_2847" data-name="Group 2847">
              <path id="Path_2127" data-name="Path 2127" d="M1028.156,364.616a13.461,13.461,0,0,0,2.589-4.487c.345-1.035-1.323-1.5-1.668-.46a11.481,11.481,0,0,1-2.128,3.739c-.69.863.518,2.071,1.208,1.208Z" transform="translate(-1026.742 -359.085)" fill="#fff"/>
            </g>
          </g>
          <g id="Group_2850" data-name="Group 2850" transform="translate(92.391 34.444)">
            <g id="Group_2849" data-name="Group 2849">
              <path id="Path_2128" data-name="Path 2128" d="M1028.589,371.047c1.38-.288,2.991-.633,4.084.518.748.805,1.956-.4,1.208-1.208-1.553-1.668-3.8-1.381-5.81-.92-1.035.173-.575,1.841.518,1.611Z" transform="translate(-1027.491 -369.08)" fill="#fff"/>
            </g>
          </g>
          <g id="Group_2852" data-name="Group 2852">
            <g id="Group_2851" data-name="Group 2851">
              <path id="Path_2129" data-name="Path 2129" d="M868.5,313.285c2.646-4.142,8.916-1.668,12.08.4,3.8,2.416,6.673,6.04,9.261,9.664,5.234,7.305,9.894,15.244,11.62,24.16.23,1.093,1.9.633,1.668-.46C901.116,336.409,894.9,326.17,887.885,318c-4.084-4.717-15.646-13.633-20.881-5.522-.575.863.92,1.783,1.5.805Z" transform="translate(-866.875 -309.201)" fill="#161616"/>
            </g>
          </g>
          <g id="Group_2854" data-name="Group 2854" transform="translate(4.761 6.37)">
            <g id="Group_2853" data-name="Group 2853">
              <path id="Path_2130" data-name="Path 2130" d="M875.582,321.9c13.806,7.766,21.571,22.319,25.483,37.16a.865.865,0,0,0,1.668-.46c-4.027-15.244-12.137-30.257-26.288-38.2a.863.863,0,0,0-.863,1.5Z" transform="translate(-875.152 -320.275)" fill="#161616"/>
            </g>
          </g>
          <g id="Group_2856" data-name="Group 2856" transform="translate(34.621 6.979)">
            <g id="Group_2855" data-name="Group 2855">
              <path id="Path_2131" data-name="Path 2131" d="M928.695,351.917c1.438-10.182,7.938-18.7,16.854-23.584A43.89,43.89,0,0,1,960.5,323.5c2.474-.345,5.35-.69,7.766.23,2.646.978,5.177,5.177,1.841,7.075-.978.518-.115,2.013.863,1.5,3.681-2.071,2.761-7.363-.46-9.376-5-3.164-13.288-.92-18.407.805-12.655,4.084-23.124,14.323-25.023,27.841-.23.978,1.438,1.438,1.611.345Z" transform="translate(-927.062 -321.334)" fill="#161616"/>
            </g>
          </g>
          <g id="Group_2858" data-name="Group 2858" transform="translate(38.665 24.31)">
            <g id="Group_2857" data-name="Group 2857">
              <path id="Path_2132" data-name="Path 2132" d="M935.534,367.3a61.142,61.142,0,0,1,9.836-8.628,28.563,28.563,0,0,1,11.044-5.522c1.093-.23.633-1.9-.46-1.668a30.6,30.6,0,0,0-11.447,5.695,65.4,65.4,0,0,0-10.182,8.916c-.748.805.46,2.071,1.208,1.208Z" transform="translate(-934.091 -351.462)" fill="#161616"/>
            </g>
          </g>
          <g id="Group_2860" data-name="Group 2860" transform="translate(59.636 14.017)">
            <g id="Group_2859" data-name="Group 2859">
              <path id="Path_2133" data-name="Path 2133" d="M972.131,345.724a34.361,34.361,0,0,1,4.659-7.766A6.941,6.941,0,0,1,978,336.578c.4-.748.92-.805,1.668-.115.92,0,1.323.345,1.323,1.15.633,1.208.69,3.279.92,4.659.23,1.093,1.9.633,1.668-.46-.46-2.186-1.035-10.009-5.177-7.881-1.611.805-2.819,2.819-3.854,4.2a39.436,39.436,0,0,0-3.912,6.73c-.46.978,1.035,1.9,1.5.863Z" transform="translate(-970.549 -333.568)" fill="#161616"/>
            </g>
          </g>
          <g id="Group_2862" data-name="Group 2862" transform="translate(70.878 14.557)">
            <g id="Group_2861" data-name="Group 2861">
              <path id="Path_2134" data-name="Path 2134" d="M991.534,343.189c2.934-3.8,8.916-9.031,14.036-6.212.978.518,1.841-.978.863-1.5-5.925-3.164-12.6,2.013-16.164,6.5-.633.863.575,2.071,1.266,1.208Z" transform="translate(-990.091 -334.507)" fill="#161616"/>
            </g>
          </g>
          <g id="Group_2864" data-name="Group 2864" transform="translate(86.433 10.01)">
            <g id="Group_2863" data-name="Group 2863">
              <path id="Path_2135" data-name="Path 2135" d="M1018.725,333.331c.805-1.266,4.544-5.81,6.155-4.6.863.633,1.036,2.876,1.266,3.912a27.646,27.646,0,0,1,.518,4.889c.058,1.093,1.783,1.093,1.726,0a30.139,30.139,0,0,0-.92-6.788c-.345-1.266-.633-3.681-2.128-4.084-1.38-.345-3.279.978-4.314,1.726a13.351,13.351,0,0,0-3.739,4.084c-.633.92.863,1.783,1.438.863Z" transform="translate(-1017.134 -326.602)" fill="#161616"/>
            </g>
          </g>
          <g id="Group_2866" data-name="Group 2866" transform="translate(42.085 35.889)">
            <g id="Group_2865" data-name="Group 2865">
              <path id="Path_2136" data-name="Path 2136" d="M940.3,373.034a111.64,111.64,0,0,0,12.655,10.642c4.429,3.164,8.744,5.407,14.323,5.12,1.093-.058,1.093-1.783,0-1.726-5.695.288-9.894-2.243-14.323-5.465a109.874,109.874,0,0,1-11.5-9.779c-.748-.748-1.956.46-1.15,1.208Z" transform="translate(-940.037 -371.591)" fill="#161616"/>
            </g>
          </g>
          <g id="Group_2868" data-name="Group 2868" transform="translate(28.655 42.184)">
            <g id="Group_2867" data-name="Group 2867">
              <path id="Path_2137" data-name="Path 2137" d="M918.767,383.608c6.27,27.841-10.067,58.271,3.451,84.9,2.531,5,6.385,9.549,11.677,11.792a23.952,23.952,0,0,0,16.509.288c11.85-3.8,19.5-14.783,25.368-25.138a82.294,82.294,0,0,0,8.686-20.766,56.243,56.243,0,0,0,1.668-11.159c.172-4.314-.4-8.628-.23-12.943.057-1.093-1.668-1.093-1.726,0-.23,7.018.69,13.69-.69,20.651a70.362,70.362,0,0,1-6.27,17.89c-5.235,10.584-12.31,22.492-23.182,28.071-5.637,2.876-12.6,3.969-18.638,1.726-5.925-2.186-9.836-7.421-12.367-13-5.407-12.137-4.774-25.943-3.336-38.828,1.611-14.611,4.142-29.394.863-44.005-.4-.978-2.071-.575-1.783.518Z" transform="translate(-916.691 -382.535)" fill="#161616"/>
            </g>
          </g>
          <g id="Group_2870" data-name="Group 2870" transform="translate(50.047 100.444)">
            <g id="Group_2869" data-name="Group 2869">
              <path id="Path_2138" data-name="Path 2138" d="M960.161,484.209a51.013,51.013,0,0,0-6.27,18.177c-.173,1.093,1.5,1.553,1.668.46a49.831,49.831,0,0,1,6.1-17.775c.575-.92-.92-1.783-1.5-.863Z" transform="translate(-953.878 -483.816)" fill="#161616"/>
            </g>
          </g>
          <g id="Group_2872" data-name="Group 2872" transform="translate(56.603 98.007)">
            <g id="Group_2871" data-name="Group 2871">
              <path id="Path_2139" data-name="Path 2139" d="M966.095,483.043c8.513-.748,17.487-2.358,26-1.438,1.093.115,1.093-1.611,0-1.726-8.513-.978-17.487.69-26,1.438-1.093.115-1.093,1.841,0,1.726Z" transform="translate(-965.275 -479.58)" fill="#161616"/>
            </g>
          </g>
          <g id="Group_2874" data-name="Group 2874" transform="translate(50.529 117.735)">
            <g id="Group_2873" data-name="Group 2873">
              <path id="Path_2140" data-name="Path 2140" d="M955.109,516.708c4.2,2.473,9.089,2.243,13.806,2.128,4.947-.173,9.894-.748,14.208-3.336.978-.575.057-2.071-.863-1.5-4.084,2.473-8.686,2.934-13.345,3.106-4.372.173-8.974.46-12.943-1.841-.92-.575-1.783.92-.863,1.438Z" transform="translate(-954.716 -513.875)" fill="#161616"/>
            </g>
          </g>
          <g id="Group_2876" data-name="Group 2876" transform="translate(77.551 99.004)">
            <g id="Group_2875" data-name="Group 2875">
              <path id="Path_2141" data-name="Path 2141" d="M1006.759,481.939a101.238,101.238,0,0,1-5,18.407c-.4,1.035,1.266,1.5,1.668.46a93.787,93.787,0,0,0,5-18.407c.173-1.093-1.5-1.553-1.668-.46Z" transform="translate(-1001.692 -481.314)" fill="#161616"/>
            </g>
          </g>
          <g id="Group_2878" data-name="Group 2878" transform="translate(55.782 102.491)">
            <g id="Group_2877" data-name="Group 2877">
              <path id="Path_2142" data-name="Path 2142" d="M963.936,488.712c2.819,6.212,10.814,7.766,16.969,7.823a.864.864,0,0,0,0-1.726c-5.522-.115-12.943-1.381-15.474-7.018-.46-.978-1.956-.058-1.5.92Z" transform="translate(-963.849 -487.375)" fill="#161616"/>
            </g>
          </g>
          <g id="Group_2880" data-name="Group 2880" transform="translate(67.771 108.589)">
            <g id="Group_2879" data-name="Group 2879">
              <path id="Path_2143" data-name="Path 2143" d="M985.214,498.795c-.173,1.438-.345,2.876-.518,4.257-.115,1.093,1.611,1.093,1.726,0,.173-1.438.345-2.876.518-4.257.115-1.093-1.611-1.093-1.726,0Z" transform="translate(-984.69 -497.975)" fill="#161616"/>
            </g>
          </g>
          <g id="Group_2882" data-name="Group 2882" transform="translate(71.107 108.589)">
            <g id="Group_2881" data-name="Group 2881">
              <path id="Path_2144" data-name="Path 2144" d="M990.956,498.795c-.173,1.438-.345,2.876-.46,4.314-.115,1.093,1.611,1.093,1.726,0,.173-1.438.345-2.876.46-4.314.115-1.093-1.611-1.093-1.726,0Z" transform="translate(-990.49 -497.975)" fill="#161616"/>
            </g>
          </g>
          <g id="Group_2884" data-name="Group 2884" transform="translate(71.984 103.513)">
            <g id="Group_2883" data-name="Group 2883">
              <path id="Path_2145" data-name="Path 2145" d="M993.1,497.463a14.955,14.955,0,0,0,9.606-7.018.863.863,0,0,0-1.5-.863,13.472,13.472,0,0,1-8.571,6.212.865.865,0,0,0,.46,1.668Z" transform="translate(-992.014 -489.152)" fill="#161616"/>
            </g>
          </g>
          <g id="Group_2886" data-name="Group 2886" transform="translate(59.909 22.441)">
            <g id="Group_2885" data-name="Group 2885">
              <path id="Path_2146" data-name="Path 2146" d="M971.585,348.839c-1.726,10.182.172,22.319,10.584,26.978.978.46,1.9-1.035.863-1.5-9.721-4.372-11.39-15.589-9.779-25.023.173-1.093-1.5-1.553-1.668-.46Z" transform="translate(-971.022 -348.214)" fill="#161616"/>
            </g>
          </g>
          <g id="Group_2888" data-name="Group 2888" transform="translate(95.846 19.435)">
            <g id="Group_2887" data-name="Group 2887">
              <path id="Path_2147" data-name="Path 2147" d="M1033.5,343.857a93.063,93.063,0,0,0,.518,9.836c.46,3.509,3.624,7.42,1.956,10.929-.46.978,1.035,1.9,1.5.863,1.5-3.164.173-5.81-.92-8.916-1.438-3.969-1.093-8.571-1.266-12.77-.115-1.093-1.841-1.093-1.783.058Z" transform="translate(-1033.498 -342.987)" fill="#161616"/>
            </g>
          </g>
          <g id="Group_2890" data-name="Group 2890" transform="translate(75.447 47.883)">
            <g id="Group_2889" data-name="Group 2889">
              <path id="Path_2148" data-name="Path 2148" d="M998.36,393.4a4.068,4.068,0,0,1,5.982,2.819c.057.288.46.173.4-.115a4.529,4.529,0,0,0-6.615-3.106c-.23.173,0,.575.23.4Z" transform="translate(-998.034 -392.442)" fill="#fff"/>
            </g>
          </g>
          <g id="Group_2892" data-name="Group 2892" transform="translate(80.067 51.406)">
            <g id="Group_2891" data-name="Group 2891">
              <path id="Path_2149" data-name="Path 2149" d="M1006.143,398.931a4.142,4.142,0,0,1,.863,1.553c.115.288.518.173.4-.115a6.379,6.379,0,0,0-.978-1.726c-.173-.23-.518.115-.288.288Z" transform="translate(-1006.067 -398.567)" fill="#fff"/>
            </g>
          </g>
          <g id="Group_2894" data-name="Group 2894" transform="translate(91.298 41.949)">
            <g id="Group_2893" data-name="Group 2893">
              <path id="Path_2150" data-name="Path 2150" d="M1026,387.921a7.855,7.855,0,0,1,4.2-5.407.208.208,0,1,0-.23-.345,7.945,7.945,0,0,0-4.372,5.637c-.058.288.345.4.4.115Z" transform="translate(-1025.59 -382.126)" fill="#fff"/>
            </g>
          </g>
        </g>
        <g id="head" transform="translate(117.717)">
          <path id="Path_2151" data-name="Path 2151" d="M834.1,178.733c-3.969,2.013-7.305,5.81-8.8,7.478-3.682,4.2-5.58,8.111-7.651,12.483a80.022,80.022,0,0,0-5.35,14.956c2.243.4,4.487.748,6.73,1.15a33.2,33.2,0,0,0,.748,9.2c.805,3.451,2.128,8.974,6.73,12.828,6.328,5.407,14.726,4.084,16.279,3.854a23.824,23.824,0,0,0,2.876,10.527c.575.978,1.15,1.9,1.726,2.7a36.394,36.394,0,0,0,12.828-6.73c12.195-9.836,13.863-24.5,14.381-28.762.748-6.558,2.186-18.925-5.925-29.164C860.217,178.675,844.168,173.671,834.1,178.733Z" transform="translate(-811.277 -163.986)" fill="#fff"/>
          <path id="Path_2152" data-name="Path 2152" d="M824.56,183.193a35.115,35.115,0,0,1,8.226-8.456c5.637-3.969,8.168-2.3,11.044-5.81,2.071-2.531,3.394-6.673,1.841-8.628-2.473-3.106-11.274.633-12.425,1.15-2.531,1.093-10.872,4.6-14.208,13.46-2.761,7.42-.92,15.531.345,15.7.345.058.575-.518,2.416-3.336C822.662,185.839,823.64,184.516,824.56,183.193Z" transform="translate(-813.528 -156.481)" fill="#6d9773"/>
          <path id="Path_2153" data-name="Path 2153" d="M851.155,163.961c-.46,1.5-1.15,4.487,1.151,10.354,4.084,10.527,13.633,19.961,18.407,18.235,1.035-.4,2.128-1.438,4.2-1.553a6.589,6.589,0,0,1,4.2,1.15c2.531,2.013,2.646,6.385.978,9.2-.288.518-1.841,2.876-4.2,3.049-2.071.173-2.761-1.438-4.429-1.553-4.084-.23-7.593,8.744-8.053,9.951a27.165,27.165,0,0,0-1.553,15.934,23.88,23.88,0,0,0,3.624,8.8c5.35,7.766,14.323,9.664,17.66,10.354,3.279.69,15.761,3.279,25.483-4.774a22.471,22.471,0,0,0,8.053-13.058c2.358-12.54-8.168-21.916-8.8-22.434a77.641,77.641,0,0,0-7.478-28.186c-3.451-7.19-6.673-13.806-13.978-18.81-9.606-6.5-23.584-8.341-30.89-2.7A14.108,14.108,0,0,0,851.155,163.961Z" transform="translate(-827.582 -154.564)" fill="#6d9773"/>
          <path id="Path_2154" data-name="Path 2154" d="M829.6,278.2a12.946,12.946,0,0,0-3.854,7.651c-.633,5.752,3.221,9.721,4.027,10.527,4.2,4.314,11.217,6.04,16.279,3.451.4-.173,4.832-2.531,5-5.925.057-1.5-.748-2.243-1.9-5.58-.748-2.186-1.208-3.969-1.553-5.177a16.242,16.242,0,0,1-7.478.748A17.4,17.4,0,0,1,829.6,278.2Z" transform="translate(-816.959 -207.081)" fill="#6d9773"/>
          <path id="Path_2155" data-name="Path 2155" d="M852.5,179.7a19.757,19.757,0,0,0,1.5,7.248,20.5,20.5,0,0,0,2.243,3.969c2.416,3.681,3.221,7.133,4.487,10.987,2.013,5.982,1.668,10.987,1.266,17.2a71.286,71.286,0,0,1-5.235,22.2,23.6,23.6,0,0,1,6.213,2.991c4.429,2.991,6.443,6.558,7.708,8.226,2.589,3.394,8.341,6.96,22.2,6.73-1.381-1.381-3.336-3.451-5.465-5.982-5-5.867-9.376-10.987-11.965-17.2-1.5-3.566-3.8-10.872-2.013-21.456a5.017,5.017,0,0,0,5-.23,4.744,4.744,0,0,0,2.013-5,4.906,4.906,0,0,0-5.982-2.991,31.025,31.025,0,0,0-2.991-5.752,32.967,32.967,0,0,0-5.752-6.5C862.8,191.607,858.54,187.293,852.5,179.7Z" transform="translate(-828.352 -165.241)" fill="#606060" opacity="0.12"/>
          <path id="Path_2156" data-name="Path 2156" d="M813.4,237.977c.057-.92,2.991-1.668,5.465-1.5,2.186.173,4.774,1.15,4.717,2.013-.058.805-2.474,1.438-4.257,1.5C816.564,240.106,813.4,238.9,813.4,237.977Z" transform="translate(-811.744 -189.35)" fill="#606060" opacity="0.14"/>
          <g id="Group_2896" data-name="Group 2896" transform="translate(0 26.772)">
            <g id="Group_2895" data-name="Group 2895">
              <path id="Path_2157" data-name="Path 2157" d="M819.31,201.562a232.855,232.855,0,0,0-8.743,21.974.823.823,0,0,0,.575,1.035,17.559,17.559,0,0,0,6.845,1.208.864.864,0,0,0,0-1.726,18.447,18.447,0,0,1-6.385-1.15c.173.345.4.69.575,1.035a205.219,205.219,0,0,1,8.571-21.571c.518-.92-.978-1.841-1.438-.805Z" transform="translate(-810.521 -201.105)" fill="#161616"/>
            </g>
          </g>
          <g id="Group_2898" data-name="Group 2898" transform="translate(7.235 50.972)">
            <g id="Group_2897" data-name="Group 2897">
              <path id="Path_2158" data-name="Path 2158" d="M823.1,243.995c.46,7.42,1.15,15.646,6.673,21.226,5.292,5.407,12.943,4.947,19.9,4.142,1.093-.115,1.093-1.841,0-1.726-6.443.748-13.748,1.381-18.695-3.624-5.177-5.235-5.695-13.058-6.155-20.018-.057-1.093-1.783-1.093-1.726,0Z" transform="translate(-823.098 -243.175)" fill="#161616"/>
            </g>
          </g>
          <g id="Group_2900" data-name="Group 2900" transform="translate(30.405 76.247)">
            <g id="Group_2899" data-name="Group 2899">
              <path id="Path_2159" data-name="Path 2159" d="M863.391,288.2a38.342,38.342,0,0,0,4.084,11.447c.518.978,2.013.115,1.5-.863a37.773,37.773,0,0,1-3.911-11.044c-.173-1.093-1.841-.633-1.668.46Z" transform="translate(-863.378 -287.114)" fill="#161616"/>
            </g>
          </g>
          <g id="Group_2902" data-name="Group 2902" transform="translate(8.122 57.231)">
            <g id="Group_2901" data-name="Group 2901">
              <path id="Path_2160" data-name="Path 2160" d="M824.9,257.418a4.927,4.927,0,0,0,8.111-2.3c.345-1.093-1.323-1.5-1.668-.46a3.123,3.123,0,0,1-5.177,1.5c-.863-.69-2.071.518-1.266,1.266Z" transform="translate(-824.64 -254.057)" fill="#161616"/>
            </g>
          </g>
          <g id="Group_2904" data-name="Group 2904" transform="translate(13.095 56.533)">
            <g id="Group_2903" data-name="Group 2903">
              <path id="Path_2161" data-name="Path 2161" d="M833.869,254.544a4.083,4.083,0,0,1,2.186,1.438.854.854,0,1,0,1.208-1.208,5.567,5.567,0,0,0-2.934-1.9.867.867,0,0,0-.46,1.668Z" transform="translate(-833.285 -252.842)" fill="#161616"/>
            </g>
          </g>
          <g id="Group_2906" data-name="Group 2906" transform="translate(14.635 33.231)">
            <g id="Group_2905" data-name="Group 2905">
              <path id="Path_2162" data-name="Path 2162" d="M837.595,215.823c.46-2.416,3.451-1.956,5.062-1.093a6.523,6.523,0,0,1,2.934,3.394c.4,1.035,2.071.575,1.668-.46a8,8,0,0,0-5.465-5.12c-2.416-.633-5.292.115-5.81,2.819-.23,1.093,1.438,1.553,1.611.46Z" transform="translate(-835.962 -212.333)" fill="#161616"/>
            </g>
          </g>
          <g id="Group_2908" data-name="Group 2908" transform="translate(14.585 22.763)">
            <g id="Group_2907" data-name="Group 2907">
              <path id="Path_2163" data-name="Path 2163" d="M837.5,197.912c2.589-4.314,7.651-.978,8.686,2.646a.865.865,0,0,0,1.668-.46,7.906,7.906,0,0,0-5.407-5.81,5.965,5.965,0,0,0-6.443,2.7.878.878,0,0,0,1.5.92Z" transform="translate(-835.875 -194.136)" fill="#161616"/>
            </g>
          </g>
          <g id="Group_2910" data-name="Group 2910" transform="translate(17.094 44.774)">
            <g id="Group_2909" data-name="Group 2909">
              <path id="Path_2164" data-name="Path 2164" d="M841.079,234.126a.864.864,0,0,0,0-1.726.864.864,0,0,0,0,1.726Z" transform="translate(-840.237 -232.4)" fill="#161616"/>
            </g>
          </g>
          <g id="Group_2912" data-name="Group 2912" transform="translate(20.351 42.185)">
            <g id="Group_2911" data-name="Group 2911">
              <path id="Path_2165" data-name="Path 2165" d="M846.763,229.626h.23a.863.863,0,1,0,0-1.726h-.23a.885.885,0,0,0-.863.863.847.847,0,0,0,.863.863Z" transform="translate(-845.9 -227.9)" fill="#161616"/>
            </g>
          </g>
          <g id="Group_2914" data-name="Group 2914" transform="translate(21.272 46.025)">
            <g id="Group_2913" data-name="Group 2913">
              <path id="Path_2166" data-name="Path 2166" d="M847.5,235.395v.173a.864.864,0,0,0,1.726,0v-.173a.864.864,0,0,0-1.726,0v.173a.864.864,0,0,0,1.726,0v-.173a.864.864,0,0,0-1.726,0Z" transform="translate(-847.5 -234.575)" fill="#161616"/>
            </g>
          </g>
          <g id="Group_2916" data-name="Group 2916" transform="translate(43.6 35.199)">
            <g id="Group_2915" data-name="Group 2915">
              <path id="Path_2167" data-name="Path 2167" d="M889.068,218.6c1.553-2.243,4.2-.805,5.12,1.035a9.463,9.463,0,0,1,.69,4.717c-.23,3.912-3.509,6.673-7.305,4.257-.92-.633-1.783.863-.863,1.5a6.214,6.214,0,0,0,7.363-.058c2.3-1.783,2.7-4.717,2.531-7.478-.172-2.646-1.208-5.58-3.969-6.558a4.293,4.293,0,0,0-5.062,1.726c-.575.863.92,1.726,1.5.863Z" transform="translate(-886.316 -215.755)" fill="#161616"/>
            </g>
          </g>
        </g>
        <g id="binocular" transform="translate(0 1.546)">
          <path id="Path_2168" data-name="Path 2168" d="M615.749,161.179c-1.208,0-2.416.058-3.566.058a45.436,45.436,0,0,0-3.681,9.779,46.546,46.546,0,0,0-1.035,16.567,37.963,37.963,0,0,0,.863,4.832h3.106l1.208,4.142c9.721-.058,17.717-.058,23.3,0,33.824.288,57.408,1.611,62.873,1.9,6.845.4,12.425.805,15.876,1.035.115-2.128.69-2.876,1.208-3.106.92-.4,1.726.575,2.934.345,1.266-.23,2.071-1.553,2.589-2.761a8.756,8.756,0,0,0,5.177.863,8.056,8.056,0,0,0,1.38-.345l2.934-5.867a18.25,18.25,0,0,0-5.695-.863,19.4,19.4,0,0,0-3.451.345c-.115-.288-1.035-2.876-3.451-3.451a4.2,4.2,0,0,0-1.9,0l-1.035-1.9c-1.381-.23-3.509-.575-6.04-1.035-20.536-3.739-34.859-8.283-45.788-11.562-10.469-3.164-25.713-7.478-45.271-12.252C617.475,158.993,616.612,160.086,615.749,161.179Z" transform="translate(-606.417 -157.527)" fill="#fff"/>
          <path id="Path_2169" data-name="Path 2169" d="M607.622,190.294c.518-.115,1.093,1.208,1.726,1.035,1.035-.23.805-3.854,1.035-6.558a25.763,25.763,0,0,1,3.451-10.872c1.668.69,4.2,1.783,7.248,3.106,10.987,4.774,18.58,8.456,20.881,9.491,15.186,7.075,31.868,10.239,36.067,11.044a166.459,166.459,0,0,0,38.656,2.761L714.615,206c-2.646-.058-6.5-.058-11.217-.173-20.248-.4-34.4-1.035-42.51-1.381-11.447-.46-27.841-.92-48.549-.863l-.69-4.659-3.969.69C606.816,192.422,607.046,190.409,607.622,190.294Z" transform="translate(-606.401 -164.324)" fill="#606060" opacity="0.07"/>
          <g id="Group_2918" data-name="Group 2918" transform="translate(3.215)">
            <g id="Group_2917" data-name="Group 2917">
              <path id="Path_2170" data-name="Path 2170" d="M618.791,157.682a45.91,45.91,0,0,0-5.522,37.62.865.865,0,0,0,1.668-.46,44.164,44.164,0,0,1,5.35-36.3c.633-.978-.863-1.841-1.5-.863Z" transform="translate(-611.466 -157.252)" fill="#161616"/>
            </g>
          </g>
          <g id="Group_2920" data-name="Group 2920" transform="translate(11.452 0.397)">
            <g id="Group_2919" data-name="Group 2919">
              <path id="Path_2171" data-name="Path 2171" d="M626.369,159.644q48.578,12.252,97.1,24.447a.865.865,0,0,0,.46-1.668q-48.578-12.252-97.1-24.447a.867.867,0,0,0-.46,1.668Z" transform="translate(-625.785 -157.942)" fill="#161616"/>
            </g>
          </g>
          <g id="Group_2922" data-name="Group 2922" transform="translate(5.406 38.166)">
            <g id="Group_2921" data-name="Group 2921">
              <path id="Path_2172" data-name="Path 2172" d="M616.095,225.384q50.649-.431,101.241,2.358c1.093.058,1.093-1.668,0-1.726q-50.563-2.761-101.241-2.358a.864.864,0,0,0,0,1.726Z" transform="translate(-615.275 -223.601)" fill="#161616"/>
            </g>
          </g>
          <g id="Group_2924" data-name="Group 2924" transform="translate(107.083 24.62)">
            <g id="Group_2923" data-name="Group 2923">
              <path id="Path_2173" data-name="Path 2173" d="M793.568,201.345a15.915,15.915,0,0,1-1.38,15.589c-.633.92.863,1.783,1.5.863a17.581,17.581,0,0,0,1.381-17.314c-.46-.978-1.956-.115-1.5.863Z" transform="translate(-792.034 -200.052)" fill="#161616"/>
            </g>
          </g>
          <g id="Group_2926" data-name="Group 2926" transform="translate(109.529 26.474)">
            <g id="Group_2925" data-name="Group 2925">
              <path id="Path_2174" data-name="Path 2174" d="M797.1,204.958c.633.46,1.093.288,1.841.46,1.438.4,2.013,1.726,2.3,3.106.46,2.531-.173,7.881-3.912,6.385-1.035-.4-1.5,1.266-.46,1.668,3.8,1.5,6.27-2.473,6.27-5.81a9.97,9.97,0,0,0-1.266-5.465,3.808,3.808,0,0,0-1.381-1.323c-.748-.345-1.783-.115-2.416-.575a.919.919,0,0,0-.978,1.553Z" transform="translate(-796.285 -203.275)" fill="#161616"/>
            </g>
          </g>
          <g id="Group_2928" data-name="Group 2928" transform="translate(114.585 29.515)">
            <g id="Group_2927" data-name="Group 2927">
              <path id="Path_2175" data-name="Path 2175" d="M805.895,210.367a44.335,44.335,0,0,1,8.744.288c1.093.115,1.093-1.611,0-1.726a49.4,49.4,0,0,0-8.744-.288c-1.093.115-1.093,1.841,0,1.726Z" transform="translate(-805.075 -208.562)" fill="#161616"/>
            </g>
          </g>
          <g id="Group_2930" data-name="Group 2930" transform="translate(114.549 35.967)">
            <g id="Group_2929" data-name="Group 2929">
              <path id="Path_2176" data-name="Path 2176" d="M805.639,221.459a26.584,26.584,0,0,0,7.075.345c1.093-.115,1.093-1.841,0-1.726a25.427,25.427,0,0,1-6.615-.288c-1.093-.173-1.553,1.438-.46,1.668Z" transform="translate(-805.014 -219.778)" fill="#161616"/>
            </g>
          </g>
          <g id="Group_2932" data-name="Group 2932" transform="translate(0 2.563)">
            <g id="Group_2931" data-name="Group 2931">
              <path id="Path_2177" data-name="Path 2177" d="M615.439,162.336c-5.58-3.221-7.133,6.845-7.881,10.009-1.726,7.305-2.531,14.841-.4,22.146a.923.923,0,0,0,.805.633h2.3a.864.864,0,0,0,0-1.726h-2.3a9.836,9.836,0,0,1,.805.633,36.862,36.862,0,0,1-.633-16.049c.4-2.416.92-4.832,1.553-7.19.4-1.553,1.668-8.859,4.832-6.96a.878.878,0,0,0,.92-1.5Z" transform="translate(-605.877 -161.709)" fill="#161616"/>
            </g>
          </g>
        </g>
        <g id="hand" transform="translate(58.307 15.307)">
          <path id="Path_2178" data-name="Path 2178" d="M721.125,183.487a3.613,3.613,0,0,0-2.991-1.093c-1.9.115-3.739,1.841-5.752,6.04a42.361,42.361,0,0,0-4.084,17.257,70.574,70.574,0,0,0,4.372,25.2,124.47,124.47,0,0,0,2.761,18.062c2.934,13.115,6.04,26.921,16.739,39.173,4.027,4.659,11.965,13.69,25.77,16.969a45.377,45.377,0,0,0,29.049-2.991,44.206,44.206,0,0,0,15.589-12.31c3.624-4.544,7.823-9.491,7.133-15.589-.288-2.646-1.438-4.889-3.164-8.456s-2.646-5.35-4.487-6.04c-2.531-.978-5.235.748-8.226,2.473-5.062,2.876-5.522,5.637-10.987,8.513a35.121,35.121,0,0,1-5.752,2.186c-4.544,1.5-9.031,2.991-13.173,3.279-9.031.633-16.279-4.544-18.35-6.04-7.651-5.465-10.642-12.77-12.6-17.545a51.95,51.95,0,0,1-3.279-26.288,11.326,11.326,0,0,0,5.177-2.186c3.049-2.358,3.8-5.637,4.947-10.7.748-3.164,1.093-4.832.288-5.465-1.668-1.266-6.788,2.876-7.938,3.854a49.784,49.784,0,0,1,1.381-9.319c.748-2.991,1.15-4.544,2.186-5.752,2.013-2.358,4.372-2.128,5.177-4.372a3.749,3.749,0,0,0-.575-3.854c-1.15-1.15-3.624-1.093-5.752.575a4.133,4.133,0,0,0-3.566-2.474,4.007,4.007,0,0,0-2.761,1.093,3.5,3.5,0,0,0-1.668-3.566c-1.553-.805-4.027.115-4.947,2.473A3.734,3.734,0,0,0,721.125,183.487Z" transform="translate(-707.688 -181.689)" fill="#fff"/>
          <path id="Path_2179" data-name="Path 2179" d="M718.06,182.4a41.321,41.321,0,0,0-4.257,10.642c-2.531,10.124-.46,18.58.46,22.664,9.894,42.164,5.58,43.2,12.482,53.094,2.531,3.566,19.9,27.5,45.788,24.332,21.686-2.646,33.191-22.376,34.686-25.023a21.972,21.972,0,0,1,1.208,10.872,23.274,23.274,0,0,1-6.845,12.77,51.349,51.349,0,0,1-7.075,5.407,89.628,89.628,0,0,1-8.053,5.177c-6.845,3.854-17.429,4.774-24.792,3.8-20.018-2.646-32.04-21.629-37.045-29.509-11.447-18-12.6-36.24-12.483-45.328-1.093-3.681-2.186-7.421-3.279-11.1a83.247,83.247,0,0,1-.69-13.691c.288-8.226.518-14.381,4.717-19.615A19.485,19.485,0,0,1,718.06,182.4Z" transform="translate(-707.614 -181.695)" fill="#606060" opacity="0.12"/>
          <g id="Group_2934" data-name="Group 2934" transform="translate(21.093 47.802)">
            <g id="Group_2933" data-name="Group 2933">
              <path id="Path_2180" data-name="Path 2180" d="M811.148,331.074c9.089-4.314,15.186-13.345,13.69-23.584-.863-6.212-5.867-16.912-13.863-13.115-3.566,1.726-6.5,4.889-9.779,7.133a58.206,58.206,0,0,1-15.013,7.19c-6.673,2.128-14.093,2.589-20.536-.633a29.171,29.171,0,0,1-11.217-10.584,53.4,53.4,0,0,1-8.686-32.385c.057-1.093-1.668-1.093-1.726,0a53.567,53.567,0,0,0,5.752,27.5c3.739,7.708,9.2,14.956,17.487,18.062,10.067,3.739,21.053-.058,30.142-4.832A83.9,83.9,0,0,0,808.675,298c3.336-2.589,6.673-3.854,10.067-.4,4.2,4.257,5.465,11.677,4.2,17.314-1.553,6.73-6.558,11.792-12.655,14.668-.978.46-.115,1.956.863,1.5Z" transform="translate(-743.909 -264.275)" fill="#161616"/>
            </g>
          </g>
          <g id="Group_2936" data-name="Group 2936" transform="translate(20.797 24.92)">
            <g id="Group_2935" data-name="Group 2935">
              <path id="Path_2181" data-name="Path 2181" d="M745.411,248.945c-.748-3.164,1.5-3.969,3.566-5.465a13.558,13.558,0,0,0,2.991-3.279,24.307,24.307,0,0,0,4.372-10.7c.23-1.9.633-4.889-1.956-5-3.049-.115-4.314,3.739-7.19,4.027-1.093.115-1.093,1.841,0,1.726,2.186-.23,3.279-1.611,4.947-2.876.978-.748,2.071-1.611,2.589.058a8.441,8.441,0,0,1-.4,3.566,22.458,22.458,0,0,1-2.186,5.637,19.274,19.274,0,0,1-3.164,4.6c-1.208,1.266-2.876,1.553-4.2,2.589-1.783,1.381-1.5,3.739-1.035,5.637.288,1.035,1.956.575,1.668-.518Z" transform="translate(-743.395 -224.496)" fill="#161616"/>
            </g>
          </g>
          <g id="Group_2938" data-name="Group 2938">
            <g id="Group_2937" data-name="Group 2937">
              <path id="Path_2182" data-name="Path 2182" d="M709.978,221.455a73.345,73.345,0,0,1-.115-22.434,47.739,47.739,0,0,1,2.071-8.916,16.614,16.614,0,0,1,2.761-5.292c1.726-1.9,5.12-2.876,6.04.345a.865.865,0,0,0,1.668-.46,4.559,4.559,0,0,0-6.213-3.164c-3.509,1.438-5.177,5.752-6.27,9.031-3.221,9.952-3.221,21.111-1.668,31.35.23,1.093,1.9.633,1.726-.46Z" transform="translate(-707.24 -181.175)" fill="#161616"/>
            </g>
          </g>
          <g id="Group_2940" data-name="Group 2940" transform="translate(9.348 1.906)">
            <g id="Group_2939" data-name="Group 2939">
              <path id="Path_2183" data-name="Path 2183" d="M725.222,193.181c1.381-3.394,5.292-10.239,9.549-5.58.748.805,1.956-.4,1.208-1.208a5.634,5.634,0,0,0-7.248-1.035c-2.761,1.553-4.027,4.6-5.177,7.42-.4.978,1.266,1.438,1.668.4Z" transform="translate(-723.492 -184.488)" fill="#161616"/>
            </g>
          </g>
          <g id="Group_2942" data-name="Group 2942" transform="translate(16.599 4.23)">
            <g id="Group_2941" data-name="Group 2941">
              <path id="Path_2184" data-name="Path 2184" d="M737.825,196.335c.058-2.186.92-4.6,3.049-5.637a4.145,4.145,0,0,1,5.12,1.093c.69.863,1.9-.345,1.208-1.208a5.907,5.907,0,0,0-7.018-1.5c-2.761,1.323-4.027,4.314-4.084,7.248-.058,1.093,1.668,1.093,1.726,0Z" transform="translate(-736.098 -188.529)" fill="#161616"/>
            </g>
          </g>
          <g id="Group_2944" data-name="Group 2944" transform="translate(21.63 5.513)">
            <g id="Group_2943" data-name="Group 2943">
              <path id="Path_2185" data-name="Path 2185" d="M746.544,197.858c1.035-3.854,5.35-7.363,9.089-4.257.863.69,2.071-.518,1.208-1.208-4.774-3.912-10.527-.23-11.965,5a.865.865,0,0,0,1.668.46Z" transform="translate(-744.842 -190.758)" fill="#161616"/>
            </g>
          </g>
          <g id="Group_2946" data-name="Group 2946" transform="translate(23.613 6.77)">
            <g id="Group_2945" data-name="Group 2945">
              <path id="Path_2186" data-name="Path 2186" d="M756.752,194.242c1.841,2.589-2.243,4.2-3.682,5.407a7.947,7.947,0,0,0-2.416,3.681,51,51,0,0,0-2.358,12.425c-.115,1.093,1.611,1.093,1.726,0a61.109,61.109,0,0,1,1.5-9.089,27.841,27.841,0,0,1,.805-2.934c.748-2.013,1.841-2.761,3.509-3.969,2.071-1.5,4.257-3.912,2.416-6.5-.633-.805-2.128.058-1.5.978Z" transform="translate(-748.29 -192.945)" fill="#161616"/>
            </g>
          </g>
          <g id="Group_2948" data-name="Group 2948" transform="translate(0.588 37.47)">
            <g id="Group_2947" data-name="Group 2947">
              <path id="Path_2187" data-name="Path 2187" d="M708.284,247.4a92.116,92.116,0,0,0,3.509,11.562c.4,1.035,2.071.575,1.668-.46a92.108,92.108,0,0,1-3.509-11.562c-.23-1.093-1.9-.633-1.668.46Z" transform="translate(-708.262 -246.314)" fill="#161616"/>
            </g>
          </g>
          <g id="Group_2950" data-name="Group 2950" transform="translate(3.825 50.397)">
            <g id="Group_2949" data-name="Group 2949">
              <path id="Path_2188" data-name="Path 2188" d="M713.9,269.6c2.186,19.788,7.075,40.094,20.363,55.51,10.584,12.252,27.381,21.571,43.948,18.522a40.625,40.625,0,0,0,20.651-10.814c.805-.748-.4-2.013-1.208-1.208a37.633,37.633,0,0,1-42.049,7.305c-15.531-7.075-26.4-20.363-32.558-36.067-4.142-10.642-6.213-21.916-7.478-33.191-.058-1.15-1.783-1.15-1.668-.058Z" transform="translate(-713.891 -268.787)" fill="#161616"/>
            </g>
          </g>
        </g>
      </g>
    </g>
  </g>
</svg>
