<svg xmlns="http://www.w3.org/2000/svg" width="780" height="721" viewBox="0 0 780 721">
  <g id="Group_3258" data-name="Group 3258" transform="translate(-1000 -314)">
    <ellipse id="Ellipse_126" data-name="Ellipse 126" cx="360" cy="360.5" rx="360" ry="360.5" transform="translate(1000 314)" fill="#f7f7e8"/>
    <g id="pixeltrue-support" transform="translate(771.098 213.736)">
      <g id="background" transform="translate(243.975 175.137)">
        <g id="Group_2132" data-name="Group 2132" transform="translate(148.189 447.157)">
          <g id="Group_2131" data-name="Group 2131">
            <path id="Path_1705" data-name="Path 1705" d="M496.614,977.365H910.637a.884.884,0,0,0,0-1.766H496.614a.884.884,0,0,0,0,1.766Z" transform="translate(-495.775 -975.6)" fill="#6d9773"/>
          </g>
        </g>
        <g id="Group_2134" data-name="Group 2134" transform="translate(573.862 411.478)">
          <g id="Group_2133" data-name="Group 2133">
            <path id="Path_1706" data-name="Path 1706" d="M1219.146,915.814a196.655,196.655,0,0,0,5.12,50.436c.235,1.118,1.942.647,1.707-.471a192.7,192.7,0,0,1-5-49.965c-.059-1.118-1.824-1.118-1.824,0Z" transform="translate(-1219.07 -914.975)" fill="#6d9773"/>
          </g>
        </g>
        <g id="Group_2136" data-name="Group 2136" transform="translate(641.065 412.831)">
          <g id="Group_2135" data-name="Group 2135">
            <path id="Path_1707" data-name="Path 1707" d="M1336.227,918.114a140.525,140.525,0,0,1-2.943,46.787.886.886,0,0,0,1.707.471,140.271,140.271,0,0,0,3-47.258c-.118-1.118-1.883-1.118-1.766,0Z" transform="translate(-1333.261 -917.275)" fill="#6d9773"/>
          </g>
        </g>
        <g id="Group_2138" data-name="Group 2138" transform="translate(579.125 460.527)">
          <g id="Group_2137" data-name="Group 2137">
            <path id="Path_1708" data-name="Path 1708" d="M1228.653,1002.192a110.614,110.614,0,0,0,61.853-2.119c1.059-.353.589-2.06-.471-1.707a108.928,108.928,0,0,1-60.912,2.119c-1.118-.235-1.589,1.471-.471,1.707Z" transform="translate(-1228.014 -998.319)" fill="#6d9773"/>
          </g>
        </g>
        <g id="Group_2140" data-name="Group 2140" transform="translate(574.123 411.117)">
          <g id="Group_2139" data-name="Group 2139">
            <path id="Path_1709" data-name="Path 1709" d="M1220.153,916.385a163.494,163.494,0,0,0,69.445-.294c1.118-.235.647-1.942-.471-1.707a161.953,161.953,0,0,1-68.5.294c-1.118-.235-1.589,1.471-.471,1.707Z" transform="translate(-1219.514 -914.362)" fill="#6d9773"/>
          </g>
        </g>
        <g id="Group_2142" data-name="Group 2142" transform="translate(585.555 317.658)">
          <g id="Group_2141" data-name="Group 2141">
            <path id="Path_1710" data-name="Path 1710" d="M1242.094,851.688c-3.06-6.886-.294-15.3,2-22.069a82.707,82.707,0,0,1,9.828-19.774l-1.412.177a14.173,14.173,0,0,0,4.649,3.472.894.894,0,0,0,1.295-1c-.706-3.178-1.942-6.3-.53-9.475,1-2.236,2.413-4.473,3.59-6.591a9.391,9.391,0,0,1-1.236.294c1.236.765,2.472,1.471,3.708,2.236.824.53,1.53-.471,1.236-1.236-1.236-2.707-2.06-5.414-.353-8.122,1-1.648,2.3-3.119,3.413-4.649,2.472-3.3,5.061-6.591,7.651-9.828,4.943-6.179,10.064-12.182,15.36-18.068l-1.412-.177a68.118,68.118,0,0,1,13.595,34.075,63.275,63.275,0,0,1-.588,17.95,64.63,64.63,0,0,1-2.236,8.828c-.177.589-.412,1.177-.589,1.707a4.1,4.1,0,0,1-3.413,2.707c-1.177.235-1.824.059-2.825.824a.925.925,0,0,0-.177,1.412c1.295,1.354,1.824,1.589,1.354,3.413a23.469,23.469,0,0,1-1.53,3.59c-1.059,2.354-2.236,4.649-3.472,6.886a96.593,96.593,0,0,1-8.651,13.065c-.706.883.53,2.119,1.236,1.236a104.931,104.931,0,0,0,14.889-26.189.847.847,0,0,0-.235-.883c-.765-.765-1.53-1.589-2.354-2.354l-.177,1.412c1.354-.942,2.884-.294,4.3-.883a3.817,3.817,0,0,0,2.177-2.3,47.3,47.3,0,0,0,2.825-8.887,67.333,67.333,0,0,0,1.471-19.715,69.21,69.21,0,0,0-14.007-36.782.92.92,0,0,0-1.412-.177q-9.8,10.858-18.833,22.364a126.473,126.473,0,0,0-7.945,10.535c-2.119,3.354-1.118,6.532.353,9.946l1.236-1.236c-1.236-.765-2.472-1.471-3.708-2.236a.928.928,0,0,0-1.236.294c-1.471,2.707-3.766,5.709-4.59,8.71-.706,2.648.765,6.121,1.354,8.71.412-.353.883-.647,1.295-1a12.044,12.044,0,0,1-4.3-3.178.89.89,0,0,0-1.412.177,85.693,85.693,0,0,0-10.652,22.187c-2.119,6.827-4.178,14.6-1.177,21.422a.923.923,0,0,0,1.648-.824Z" transform="translate(-1238.939 -755.558)" fill="#6d9773"/>
          </g>
        </g>
        <g id="Group_2144" data-name="Group 2144" transform="translate(608.378 331.652)">
          <g id="Group_2143" data-name="Group 2143">
            <path id="Path_1711" data-name="Path 1711" d="M1305.957,780.2c-2.354,26.66-20.6,48.023-28.19,73.094-.353,1.118,1.354,1.53,1.707.471,7.592-25.247,25.895-46.67,28.249-73.565.118-1.177-1.707-1.118-1.766,0Z" transform="translate(-1277.719 -779.337)" fill="#6d9773"/>
          </g>
        </g>
        <g id="Group_2146" data-name="Group 2146" transform="translate(614.357 345.586)">
          <g id="Group_2145" data-name="Group 2145">
            <path id="Path_1712" data-name="Path 1712" d="M1287.891,804.124q2.825,14.566,6.532,28.837a.885.885,0,0,0,1.707-.471c-2.472-9.534-4.649-19.186-6.533-28.837-.177-1.118-1.883-.647-1.707.471Z" transform="translate(-1287.878 -803.014)" fill="#6d9773"/>
          </g>
        </g>
        <g id="Group_2148" data-name="Group 2148" transform="translate(633.013 338.445)">
          <g id="Group_2147" data-name="Group 2147">
            <path id="Path_1713" data-name="Path 1713" d="M1320.827,805.369a61.958,61.958,0,0,0,13.359-13.242c.706-.883-.824-1.766-1.53-.883a58.639,58.639,0,0,1-12.712,12.594c-.883.706,0,2.236.883,1.53Z" transform="translate(-1319.579 -790.879)" fill="#6d9773"/>
          </g>
        </g>
        <g id="Group_2150" data-name="Group 2150" transform="translate(628.74 326.678)">
          <g id="Group_2149" data-name="Group 2149">
            <path id="Path_1714" data-name="Path 1714" d="M1312.366,771.953c1.589,5.061,2.531,11.241,6.415,15.066.824.824,2.06-.471,1.236-1.236-3.59-3.59-4.532-9.652-6-14.3-.294-1.059-2-.589-1.648.471Z" transform="translate(-1312.319 -770.885)" fill="#6d9773"/>
          </g>
        </g>
        <g id="Group_2152" data-name="Group 2152" transform="translate(560.866 294.604)">
          <g id="Group_2151" data-name="Group 2151">
            <path id="Path_1715" data-name="Path 1715" d="M1221.3,835.1c-3.59-2.825-5.768-6.768-7.592-10.888-2.06-4.826-3.825-9.769-5.414-14.772a173.964,173.964,0,0,1-6.474-29.426c-2.648-20.834-.53-41.9-3.06-62.795-.53.177-1.118.294-1.648.471,6.591,14.831,22.011,23.717,34.84,32.545a9.412,9.412,0,0,1-.294-1.236l-5.3,7.592a.892.892,0,0,0,.765,1.354,18.676,18.676,0,0,0,6.474-1.059c-.353-.118-.647-.294-1-.412l6.532,10.064a6.486,6.486,0,0,0,.118-1.059,22.408,22.408,0,0,0-2.825,3.355.9.9,0,0,0,.53,1.295c4.826.706,6.532,5.3,7.768,9.416.353,1.059,2.06.647,1.707-.471-1.471-4.649-3.59-9.887-9-10.652.177.412.353.883.53,1.295a15.184,15.184,0,0,1,2.531-2.943.81.81,0,0,0,.118-1.059l-6.533-10.064a.916.916,0,0,0-1-.412,17.545,17.545,0,0,1-6,.942c.235.471.53.883.765,1.354l5.3-7.592a.942.942,0,0,0-.294-1.236c-12.594-8.651-27.719-17.3-34.193-31.9-.353-.765-1.766-.412-1.648.471,2.589,21.657.294,43.55,3.354,65.149a170.179,170.179,0,0,0,7.239,30.6c2.707,8.063,5.532,17.891,12.418,23.364.941.647,2.177-.589,1.295-1.295Z" transform="translate(-1196.988 -716.386)" fill="#6d9773"/>
          </g>
        </g>
        <g id="Group_2154" data-name="Group 2154" transform="translate(561.28 296.147)">
          <g id="Group_2153" data-name="Group 2153">
            <path id="Path_1716" data-name="Path 1716" d="M1197.755,720.062c4.767,13.183,8.769,27.072,15.184,39.607,3.178,6.179,6.65,12.241,9.652,18.538,3.237,6.827,6.121,13.771,9.063,20.657.412,1.059,1.942.118,1.53-.883-2.766-6.591-5.591-13.183-8.592-19.656-2.943-6.356-6.356-12.418-9.652-18.6-6.591-12.594-10.652-26.719-15.537-40.078-.353-1.118-2.06-.647-1.648.412Z" transform="translate(-1197.692 -719.007)" fill="#6d9773"/>
          </g>
        </g>
        <g id="Group_2156" data-name="Group 2156" transform="translate(562.742 340.21)">
          <g id="Group_2155" data-name="Group 2155">
            <path id="Path_1717" data-name="Path 1717" d="M1201.014,795.6c6.356.765,13.3,1.118,18.126,5.885.824.824,2.06-.471,1.236-1.236-5.179-5.061-12.536-5.532-19.362-6.356-1.118-.177-1.118,1.589,0,1.707Z" transform="translate(-1200.175 -793.879)" fill="#6d9773"/>
          </g>
        </g>
        <g id="Group_2158" data-name="Group 2158" transform="translate(578.263 317.451)">
          <g id="Group_2157" data-name="Group 2157">
            <path id="Path_1718" data-name="Path 1718" d="M1228.874,755.85a60.846,60.846,0,0,0-2.06,11.77c-.235,3.413-.647,7.415.53,10.711.353,1.059,2.06.589,1.707-.471-1.118-3.119-.706-7-.471-10.3a61.439,61.439,0,0,1,2-11.3.878.878,0,0,0-1.707-.412Z" transform="translate(-1226.548 -755.207)" fill="#6d9773"/>
          </g>
        </g>
        <g id="Group_2160" data-name="Group 2160" transform="translate(566.744 372.291)">
          <g id="Group_2159" data-name="Group 2159">
            <path id="Path_1719" data-name="Path 1719" d="M1207.814,850.1c4.59.118,9,.177,13.477,1.412,4.414,1.236,8.769,2.531,13.183,3.825a.885.885,0,0,0,.471-1.707c-4.708-1.354-9.357-2.825-14.124-4.061-4.3-1.118-8.592-1.059-13.006-1.177-1.118-.118-1.118,1.648,0,1.707Z" transform="translate(-1206.975 -848.39)" fill="#6d9773"/>
          </g>
        </g>
        <g id="Group_2162" data-name="Group 2162" transform="translate(629.588 409.513)">
          <g id="Group_2161" data-name="Group 2161">
            <path id="Path_1720" data-name="Path 1720" d="M1316.137,913.793a43.793,43.793,0,0,1,11.77,0c-.177-.412-.353-.883-.53-1.295-.353.53-3.884.589-4.59.647-1.589.235-3.237.471-4.826.824-.235.059-1.824.235-1.883.412.118-.294,2.472-.235,2.825-.235,1.707,0,3.413.177,5.12.294v-1.766a13.1,13.1,0,0,0-4.237.53.873.873,0,0,0,.235,1.707,25.268,25.268,0,0,0,6.591-1.059.885.885,0,0,0-.471-1.707,23.769,23.769,0,0,1-6.121,1c.059.589.177,1.177.235,1.707a13.5,13.5,0,0,1,3.767-.471.884.884,0,0,0,0-1.766c-2.59-.118-6.356-1.059-8.71.412-.942.589-2.3,2.119-1.059,3.06.53.412,1.118.177,1.766.118,1.766-.353,3.472-.765,5.238-1.059,2.06-.353,6.179.177,7.592-1.766a.9.9,0,0,0-.53-1.295,44.882,44.882,0,0,0-12.241-.059c-1.059.118-1.059,1.883.059,1.766Z" transform="translate(-1313.759 -911.637)" fill="#6d9773"/>
          </g>
        </g>
        <g id="Group_2164" data-name="Group 2164" transform="translate(574.432 410.483)">
          <g id="Group_2163" data-name="Group 2163">
            <path id="Path_1721" data-name="Path 1721" d="M1221.134,915.589a12.193,12.193,0,0,1,2.472-.471,7.859,7.859,0,0,1,1.177,0,6.326,6.326,0,0,1,1.059,0c-.059-.294-.177-.589-.235-.883a.206.206,0,0,1-.059.118c.353-.177.706-.412,1.059-.589h-.118l.589.589c0-.059,0-.118-.059-.118a.886.886,0,0,0-1.707.471c0,.059,0,.118.059.118a.846.846,0,0,0,.589.589h.118a.868.868,0,0,0,1.059-.589.206.206,0,0,1,.059-.118.847.847,0,0,0-.235-.883c-.647-.647-2.06-.53-2.884-.53a14.233,14.233,0,0,0-3.531.53c-.942.353-.471,2.06.589,1.766Z" transform="translate(-1220.039 -913.286)" fill="#6d9773"/>
          </g>
        </g>
        <g id="Group_2166" data-name="Group 2166" transform="translate(576.241 421.992)">
          <g id="Group_2165" data-name="Group 2165">
            <path id="Path_1722" data-name="Path 1722" d="M1223.753,935.465c21.481,3.708,43.786,5.473,64.972-.883a.886.886,0,0,0-.471-1.707c-20.833,6.238-42.844,4.532-64.031.883-1.118-.177-1.589,1.53-.471,1.707Z" transform="translate(-1223.114 -932.841)" fill="#6d9773"/>
          </g>
        </g>
        <g id="Group_2168" data-name="Group 2168" transform="translate(649.975 447.039)">
          <g id="Group_2167" data-name="Group 2167">
            <path id="Path_1723" data-name="Path 1723" d="M1349.283,977.166h113.231a.884.884,0,0,0,0-1.766H1349.283a.883.883,0,0,0,0,1.766Z" transform="translate(-1348.4 -975.4)" fill="#6d9773"/>
          </g>
        </g>
        <g id="Group_2170" data-name="Group 2170" transform="translate(621.476 484.881)">
          <g id="Group_2169" data-name="Group 2169">
            <path id="Path_1724" data-name="Path 1724" d="M1300.814,1041.465h106.7a.884.884,0,0,0,0-1.766h-106.7a.884.884,0,0,0,0,1.766Z" transform="translate(-1299.975 -1039.7)" fill="#6d9773"/>
          </g>
        </g>
        <g id="Group_2172" data-name="Group 2172" transform="translate(625.542 486.236)">
          <g id="Group_2171" data-name="Group 2171">
            <path id="Path_1725" data-name="Path 1725" d="M1319.841,1042.236c-4.237,3.531-8.475,7-12.653,10.534-.883.706.353,1.942,1.236,1.236,4.237-3.531,8.475-7,12.653-10.534.883-.706-.412-2-1.236-1.236Z" transform="translate(-1306.884 -1042.002)" fill="#6d9773"/>
          </g>
        </g>
        <g id="Group_2174" data-name="Group 2174" transform="translate(625.537 497.122)">
          <g id="Group_2173" data-name="Group 2173">
            <path id="Path_1726" data-name="Path 1726" d="M1307.714,1062.266a.884.884,0,0,0,0-1.766.884.884,0,0,0,0,1.766Z" transform="translate(-1306.875 -1060.5)" fill="#6d9773"/>
          </g>
        </g>
        <g id="Group_2176" data-name="Group 2176" transform="translate(535.964 497.122)">
          <g id="Group_2175" data-name="Group 2175">
            <path id="Path_1727" data-name="Path 1727" d="M1263.036,1060.5H1155.514a.884.884,0,0,0,0,1.766h107.522a.884.884,0,0,0,0-1.766Z" transform="translate(-1154.675 -1060.5)" fill="#6d9773"/>
          </g>
        </g>
        <g id="Group_2178" data-name="Group 2178" transform="translate(535.087 498.437)">
          <g id="Group_2177" data-name="Group 2177">
            <path id="Path_1728" data-name="Path 1728" d="M1154.724,1079.663c6.356-5.3,12.889-10.358,19.6-15.243.883-.647.059-2.177-.883-1.53q-10.24,7.415-19.951,15.478c-.883.765.353,2,1.236,1.295Z" transform="translate(-1153.184 -1062.734)" fill="#6d9773"/>
          </g>
        </g>
        <g id="Group_2180" data-name="Group 2180" transform="translate(0 481.467)">
          <g id="Group_2179" data-name="Group 2179">
            <path id="Path_1729" data-name="Path 1729" d="M244.814,1035.666H404.773a.884.884,0,0,0,0-1.766H244.814a.884.884,0,0,0,0,1.766Z" transform="translate(-243.975 -1033.9)" fill="#6d9773"/>
          </g>
        </g>
        <g id="Group_2182" data-name="Group 2182" transform="translate(21.023 482.815)">
          <g id="Group_2181" data-name="Group 2181">
            <path id="Path_1730" data-name="Path 1730" d="M281.229,1051.969c5.591-4.767,11.241-9.534,16.832-14.3.883-.765-.412-2-1.236-1.236-5.591,4.767-11.241,9.534-16.832,14.3-.883.706.412,2,1.236,1.236Z" transform="translate(-279.697 -1036.191)" fill="#6d9773"/>
          </g>
        </g>
        <g id="Group_2184" data-name="Group 2184" transform="translate(1.471 498.534)">
          <g id="Group_2183" data-name="Group 2183">
            <path id="Path_1731" data-name="Path 1731" d="M247.314,1064.666h115.82a.884.884,0,0,0,0-1.766H247.314a.884.884,0,0,0,0,1.766Z" transform="translate(-246.475 -1062.9)" fill="#6d9773"/>
          </g>
        </g>
        <g id="Group_2186" data-name="Group 2186" transform="translate(90.877 499.675)">
          <g id="Group_2185" data-name="Group 2185">
            <path id="Path_1732" data-name="Path 1732" d="M412.168,1065.11c-4.414,4.944-8.945,9.769-13.536,14.6-.765.824.471,2.06,1.236,1.236,4.59-4.826,9.063-9.652,13.536-14.6.824-.824-.471-2.06-1.236-1.236Z" transform="translate(-398.391 -1064.838)" fill="#6d9773"/>
          </g>
        </g>
        <g id="Group_2188" data-name="Group 2188" transform="translate(73.683 515.601)">
          <g id="Group_2187" data-name="Group 2187">
            <path id="Path_1733" data-name="Path 1733" d="M370.014,1093.666H471.827a.884.884,0,0,0,0-1.766H370.014a.884.884,0,0,0,0,1.766Z" transform="translate(-369.175 -1091.9)" fill="#6d9773"/>
          </g>
        </g>
        <g id="Group_2190" data-name="Group 2190" transform="translate(49.612 451.865)">
          <g id="Group_2189" data-name="Group 2189">
            <path id="Path_1734" data-name="Path 1734" d="M329.114,985.365h43.138a.884.884,0,0,0,0-1.766H329.114a.884.884,0,0,0,0,1.766Z" transform="translate(-328.275 -983.6)" fill="#6d9773"/>
          </g>
        </g>
        <g id="Group_2192" data-name="Group 2192" transform="translate(103.594 457.632)">
          <g id="Group_2191" data-name="Group 2191">
            <path id="Path_1735" data-name="Path 1735" d="M420.883,995.166h13.3a.884.884,0,0,0,0-1.766h-13.3a.883.883,0,1,0,0,1.766Z" transform="translate(-420 -993.4)" fill="#6d9773"/>
          </g>
        </g>
        <g id="Group_2194" data-name="Group 2194" transform="translate(72.52 143.878)">
          <g id="Group_2193" data-name="Group 2193">
            <path id="Path_1736" data-name="Path 1736" d="M367.2,461.114v28.837a.884.884,0,0,0,1.766,0V461.114a.884.884,0,0,0-1.766,0Z" transform="translate(-367.2 -460.275)" fill="#6d9773"/>
          </g>
        </g>
        <g id="Group_2196" data-name="Group 2196" transform="translate(42.079 173.201)">
          <g id="Group_2195" data-name="Group 2195">
            <path id="Path_1737" data-name="Path 1737" d="M316.314,511.866h70.975a.884.884,0,0,0,0-1.766H316.314a.884.884,0,0,0,0,1.766Z" transform="translate(-315.475 -510.1)" fill="#6d9773"/>
          </g>
        </g>
        <g id="Group_2198" data-name="Group 2198" transform="translate(92.471 174.908)">
          <g id="Group_2197" data-name="Group 2197">
            <path id="Path_1738" data-name="Path 1738" d="M401.1,513.883V536.07a.884.884,0,0,0,1.766,0V513.883a.883.883,0,1,0-1.766,0Z" transform="translate(-401.1 -513)" fill="#6d9773"/>
          </g>
        </g>
        <g id="Group_2200" data-name="Group 2200" transform="translate(71.991 199.272)">
          <g id="Group_2199" data-name="Group 2199">
            <path id="Path_1739" data-name="Path 1739" d="M367.183,556.166h56.557a.884.884,0,0,0,0-1.766H367.183a.883.883,0,0,0,0,1.766Z" transform="translate(-366.3 -554.4)" fill="#6d9773"/>
          </g>
        </g>
        <g id="Group_2202" data-name="Group 2202" transform="translate(547.808 123.221)">
          <g id="Group_2201" data-name="Group 2201">
            <path id="Path_1740" data-name="Path 1740" d="M1174.8,426.014v7a.884.884,0,0,0,1.766,0v-7a.884.884,0,0,0-1.766,0Z" transform="translate(-1174.8 -425.175)" fill="#6d9773"/>
          </g>
        </g>
        <g id="Group_2204" data-name="Group 2204" transform="translate(548.382 123.707)">
          <g id="Group_2203" data-name="Group 2203">
            <path id="Path_1741" data-name="Path 1741" d="M1176.614,427.766h121.47a.884.884,0,0,0,0-1.766h-121.47a.884.884,0,0,0,0,1.766Z" transform="translate(-1175.775 -426)" fill="#6d9773"/>
          </g>
        </g>
        <g id="Group_2206" data-name="Group 2206" transform="translate(549.441 130.18)">
          <g id="Group_2205" data-name="Group 2205">
            <path id="Path_1742" data-name="Path 1742" d="M1178.414,438.766h120.352a.884.884,0,0,0,0-1.766H1178.414a.884.884,0,0,0,0,1.766Z" transform="translate(-1177.575 -437)" fill="#6d9773"/>
          </g>
        </g>
        <g id="Group_2208" data-name="Group 2208" transform="translate(670.276 123.221)">
          <g id="Group_2207" data-name="Group 2207">
            <path id="Path_1743" data-name="Path 1743" d="M1383.016,426.014a27.17,27.17,0,0,0,.294,7.239c.177,1.118,1.883.647,1.707-.471a23.746,23.746,0,0,1-.235-6.768c.118-1.118-1.648-1.118-1.766,0Z" transform="translate(-1382.896 -425.175)" fill="#6d9773"/>
          </g>
        </g>
        <g id="Group_2210" data-name="Group 2210" transform="translate(555.753 74.021)">
          <g id="Group_2209" data-name="Group 2209">
            <path id="Path_1744" data-name="Path 1744" d="M1190.066,391.673V342.414a.884.884,0,0,0-1.766,0v49.259a.883.883,0,1,0,1.766,0Z" transform="translate(-1188.3 -341.575)" fill="#6d9773"/>
          </g>
        </g>
        <g id="Group_2212" data-name="Group 2212" transform="translate(556.451 72.092)">
          <g id="Group_2211" data-name="Group 2211">
            <path id="Path_1745" data-name="Path 1745" d="M1190.553,341.359a16.557,16.557,0,0,1,14.948,1.059.883.883,0,0,0,.883-1.53,18.322,18.322,0,0,0-16.3-1.236c-1.059.412-.589,2.119.471,1.707Z" transform="translate(-1189.485 -338.297)" fill="#6d9773"/>
          </g>
        </g>
        <g id="Group_2214" data-name="Group 2214" transform="translate(572.173 74.963)">
          <g id="Group_2213" data-name="Group 2213">
            <path id="Path_1746" data-name="Path 1746" d="M1216.2,344.014v47.376a.884.884,0,0,0,1.766,0V344.014a.884.884,0,0,0-1.766,0Z" transform="translate(-1216.2 -343.175)" fill="#6d9773"/>
          </g>
        </g>
        <g id="Group_2216" data-name="Group 2216" transform="translate(573.106 86.273)">
          <g id="Group_2215" data-name="Group 2215">
            <path id="Path_1747" data-name="Path 1747" d="M1218.853,365.1a11.534,11.534,0,0,1,10.711.824.883.883,0,0,0,.883-1.53,13.272,13.272,0,0,0-12.065-1c-1.059.412-.589,2.119.471,1.707Z" transform="translate(-1217.785 -362.393)" fill="#6d9773"/>
          </g>
        </g>
        <g id="Group_2218" data-name="Group 2218" transform="translate(584.531 88.91)">
          <g id="Group_2217" data-name="Group 2217">
            <path id="Path_1748" data-name="Path 1748" d="M1237.2,367.714v33.134a.884.884,0,0,0,1.766,0V367.714a.884.884,0,0,0-1.766,0Z" transform="translate(-1237.2 -366.875)" fill="#6d9773"/>
          </g>
        </g>
        <g id="Group_2220" data-name="Group 2220" transform="translate(556.686 86.306)">
          <g id="Group_2219" data-name="Group 2219">
            <path id="Path_1749" data-name="Path 1749" d="M1190.953,364.833a26.333,26.333,0,0,1,14.772.942c1.059.353,1.53-1.354.471-1.707a28.572,28.572,0,0,0-15.713-.942c-1.059.235-.589,1.942.471,1.707Z" transform="translate(-1189.885 -362.45)" fill="#6d9773"/>
          </g>
        </g>
        <g id="Group_2222" data-name="Group 2222" transform="translate(571.853 106.501)">
          <g id="Group_2221" data-name="Group 2221">
            <path id="Path_1750" data-name="Path 1750" d="M1216.741,399.375a23.918,23.918,0,0,1,11.359-.294c1.118.235,1.589-1.471.471-1.707a25.6,25.6,0,0,0-12.3.294.886.886,0,0,0,.471,1.707Z" transform="translate(-1215.657 -396.765)" fill="#6d9773"/>
          </g>
        </g>
        <g id="Group_2224" data-name="Group 2224" transform="translate(605.012 112.804)">
          <g id="Group_2223" data-name="Group 2223">
            <path id="Path_1751" data-name="Path 1751" d="M1273.766,418.2v-9.887a.884.884,0,0,0-1.766,0V418.2a.884.884,0,0,0,1.766,0Z" transform="translate(-1272 -407.475)" fill="#6d9773"/>
          </g>
        </g>
        <g id="Group_2226" data-name="Group 2226" transform="translate(605.012 112.407)">
          <g id="Group_2225" data-name="Group 2225">
            <path id="Path_1752" data-name="Path 1752" d="M1272.883,408.566H1330.2a.884.884,0,0,0,0-1.766h-57.322a.883.883,0,1,0,0,1.766Z" transform="translate(-1272 -406.8)" fill="#6d9773"/>
          </g>
        </g>
        <g id="Group_2228" data-name="Group 2228" transform="translate(662.922 113.349)">
          <g id="Group_2227" data-name="Group 2227">
            <path id="Path_1753" data-name="Path 1753" d="M1371.283,410.166a.884.884,0,0,0,0-1.766.884.884,0,0,0,0,1.766Z" transform="translate(-1370.4 -408.4)" fill="#6d9773"/>
          </g>
        </g>
        <g id="Group_2230" data-name="Group 2230" transform="translate(662.922 113.393)">
          <g id="Group_2229" data-name="Group 2229">
            <path id="Path_1754" data-name="Path 1754" d="M1370.4,409.314v9a.884.884,0,0,0,1.766,0v-9a.884.884,0,0,0-1.766,0Z" transform="translate(-1370.4 -408.475)" fill="#6d9773"/>
          </g>
        </g>
        <g id="Group_2232" data-name="Group 2232" transform="translate(616.135 102.858)">
          <g id="Group_2231" data-name="Group 2231">
            <path id="Path_1755" data-name="Path 1755" d="M1292.666,400.712v-9.3a.884.884,0,0,0-1.766,0v9.3a.884.884,0,0,0,1.766,0Z" transform="translate(-1290.9 -390.575)" fill="#6d9773"/>
          </g>
        </g>
        <g id="Group_2234" data-name="Group 2234" transform="translate(616.179 102.52)">
          <g id="Group_2233" data-name="Group 2233">
            <path id="Path_1756" data-name="Path 1756" d="M1291.814,391.766h56.38a.884.884,0,0,0,0-1.766h-56.38a.884.884,0,0,0,0,1.766Z" transform="translate(-1290.975 -390)" fill="#6d9773"/>
          </g>
        </g>
        <g id="Group_2236" data-name="Group 2236" transform="translate(672.809 102.52)">
          <g id="Group_2235" data-name="Group 2235">
            <path id="Path_1757" data-name="Path 1757" d="M1387.2,390.883v7.768a.884.884,0,0,0,1.766,0v-7.768a.883.883,0,1,0-1.766,0Z" transform="translate(-1387.2 -390)" fill="#6d9773"/>
          </g>
        </g>
        <g id="Group_2238" data-name="Group 2238" transform="translate(661.686 112.701)">
          <g id="Group_2237" data-name="Group 2237">
            <path id="Path_1758" data-name="Path 1758" d="M1369.183,409.066h10.24a.884.884,0,0,0,0-1.766h-10.24a.883.883,0,1,0,0,1.766Z" transform="translate(-1368.3 -407.3)" fill="#6d9773"/>
          </g>
        </g>
        <g id="Group_2240" data-name="Group 2240" transform="translate(672.61 110.612)">
          <g id="Group_2239" data-name="Group 2239">
            <path id="Path_1759" data-name="Path 1759" d="M1386.943,404.368a3.807,3.807,0,0,0,.059,1.824.857.857,0,0,0,1.648-.471,2.313,2.313,0,0,1-.059-.883c.059-.471-.118-1-.589-1.059a.842.842,0,0,0-1.059.589Z" transform="translate(-1386.861 -403.749)" fill="#6d9773"/>
          </g>
        </g>
        <g id="Group_2242" data-name="Group 2242" transform="translate(630.402 102.747)">
          <g id="Group_2241" data-name="Group 2241">
            <path id="Path_1760" data-name="Path 1760" d="M1315.176,391.453a24.076,24.076,0,0,1,.53,9.181c-.118,1.118,1.648,1.118,1.766,0a26.67,26.67,0,0,0-.589-9.652.887.887,0,0,0-1.707.471Z" transform="translate(-1315.142 -390.385)" fill="#6d9773"/>
          </g>
        </g>
        <g id="Group_2244" data-name="Group 2244" transform="translate(643.173 112.945)">
          <g id="Group_2243" data-name="Group 2243">
            <path id="Path_1761" data-name="Path 1761" d="M1337.406,408.824a22.5,22.5,0,0,1-.53,8.651.885.885,0,0,0,1.707.471,23.984,23.984,0,0,0,.53-9.593c-.118-1.118-1.824-.647-1.707.471Z" transform="translate(-1336.842 -407.714)" fill="#6d9773"/>
          </g>
        </g>
        <g id="Group_2246" data-name="Group 2246" transform="translate(632.202 184.795)">
          <g id="Group_2245" data-name="Group 2245">
            <path id="Path_1762" data-name="Path 1762" d="M1318.2,530.683v13.889a.884.884,0,0,0,1.766,0V530.683a.883.883,0,0,0-1.766,0Z" transform="translate(-1318.2 -529.8)" fill="#6d9773"/>
          </g>
        </g>
        <g id="Group_2248" data-name="Group 2248" transform="translate(617.709 198.037)">
          <g id="Group_2247" data-name="Group 2247">
            <path id="Path_1763" data-name="Path 1763" d="M1294.414,554.066h35.311a.884.884,0,0,0,0-1.766h-35.311a.884.884,0,0,0,0,1.766Z" transform="translate(-1293.575 -552.3)" fill="#6d9773"/>
          </g>
        </g>
        <g id="Group_2250" data-name="Group 2250" transform="translate(598.479 0.986)">
          <g id="Group_2249" data-name="Group 2249">
            <path id="Path_1764" data-name="Path 1764" d="M1260.9,218.314v31.839a.884.884,0,0,0,1.766,0V218.314a.884.884,0,0,0-1.766,0Z" transform="translate(-1260.9 -217.475)" fill="#6d9773"/>
          </g>
        </g>
        <g id="Group_2252" data-name="Group 2252" transform="translate(599.877 0)">
          <g id="Group_2251" data-name="Group 2251">
            <path id="Path_1765" data-name="Path 1765" d="M1264.114,217.566h40.2a.884.884,0,0,0,0-1.766h-40.2a.884.884,0,0,0,0,1.766Z" transform="translate(-1263.275 -215.8)" fill="#6d9773"/>
          </g>
        </g>
        <g id="Group_2254" data-name="Group 2254" transform="translate(640.97 0.692)">
          <g id="Group_2253" data-name="Group 2253">
            <path id="Path_1766" data-name="Path 1766" d="M1333.1,217.814v30.662a.884.884,0,0,0,1.766,0V217.814a.884.884,0,0,0-1.766,0Z" transform="translate(-1333.1 -216.975)" fill="#6d9773"/>
          </g>
        </g>
        <g id="Group_2256" data-name="Group 2256" transform="translate(598.288 32.898)">
          <g id="Group_2255" data-name="Group 2255">
            <path id="Path_1767" data-name="Path 1767" d="M1261.414,273.466h42.726a.884.884,0,0,0,0-1.766h-42.726a.884.884,0,0,0,0,1.766Z" transform="translate(-1260.575 -271.7)" fill="#6d9773"/>
          </g>
        </g>
        <g id="Group_2258" data-name="Group 2258" transform="translate(602.422 4.635)">
          <g id="Group_2257" data-name="Group 2257">
            <path id="Path_1768" data-name="Path 1768" d="M1267.6,224.514v24.129a.884.884,0,0,0,1.766,0V224.514a.884.884,0,0,0-1.766,0Z" transform="translate(-1267.6 -223.675)" fill="#6d9773"/>
          </g>
        </g>
        <g id="Group_2260" data-name="Group 2260" transform="translate(602.879 4.414)">
          <g id="Group_2259" data-name="Group 2259">
            <path id="Path_1769" data-name="Path 1769" d="M1269.214,225.066h33.075a.884.884,0,0,0,0-1.766h-33.075a.884.884,0,0,0,0,1.766Z" transform="translate(-1268.375 -223.3)" fill="#6d9773"/>
          </g>
        </g>
        <g id="Group_2262" data-name="Group 2262" transform="translate(636.145 4.635)">
          <g id="Group_2261" data-name="Group 2261">
            <path id="Path_1770" data-name="Path 1770" d="M1324.9,224.514v22.364a.884.884,0,0,0,1.766,0V224.514a.884.884,0,0,0-1.766,0Z" transform="translate(-1324.9 -223.675)" fill="#6d9773"/>
          </g>
        </g>
        <g id="Group_2264" data-name="Group 2264" transform="translate(602.879 28.72)">
          <g id="Group_2263" data-name="Group 2263">
            <path id="Path_1771" data-name="Path 1771" d="M1269.214,266.366h32.9a.884.884,0,0,0,0-1.766h-32.9a.884.884,0,0,0,0,1.766Z" transform="translate(-1268.375 -264.6)" fill="#6d9773"/>
          </g>
        </g>
        <g id="Group_2266" data-name="Group 2266" transform="translate(621.227 10.358)">
          <g id="Group_2265" data-name="Group 2265">
            <path id="Path_1772" data-name="Path 1772" d="M1302.876,242.934c-4.649-3.531,2.3-10.888,5.532-6.474,3,4-1.883,8.828-6.062,6.591-1-.53-1.883,1-.883,1.53a6.5,6.5,0,0,0,8.239-1.471,6.379,6.379,0,0,0-.765-8.651c-2.648-2.178-6.415-.706-8.239,1.766a5.863,5.863,0,0,0,1.295,8.239c.942.647,1.766-.883.883-1.53Z" transform="translate(-1299.553 -233.399)" fill="#6d9773"/>
          </g>
        </g>
        <g id="Group_2268" data-name="Group 2268" transform="translate(617.182 20.47)">
          <g id="Group_2267" data-name="Group 2267">
            <path id="Path_1773" data-name="Path 1773" d="M1294.457,258.715c-.235-4.649,5.473-6.415,9.063-6.415,4.414,0,5.826,3.943,7.651,7.3.53,1,2.06.118,1.53-.883-1.236-2.236-2.413-5.179-4.473-6.827-1.883-1.471-4.237-1.412-6.474-1.177-4.12.471-9.357,3-9.063,8,.059,1.118,1.824,1.118,1.766,0Z" transform="translate(-1292.68 -250.583)" fill="#6d9773"/>
          </g>
        </g>
        <g id="Group_2270" data-name="Group 2270" transform="translate(602.878 21.044)">
          <g id="Group_2269" data-name="Group 2269">
            <path id="Path_1774" data-name="Path 1774" d="M1269.979,254.878c1.295-2.413,6.062-1.471,7.827-.53A6.825,6.825,0,0,1,1281.16,259c.235,1.118,1.942.647,1.707-.471a8.744,8.744,0,0,0-5.885-6.474c-2.59-.824-7-.883-8.475,1.883-.589,1.059.942,1.942,1.471.942Z" transform="translate(-1268.375 -251.557)" fill="#6d9773"/>
          </g>
        </g>
        <g id="Group_2272" data-name="Group 2272" transform="translate(604.794 13.213)">
          <g id="Group_2271" data-name="Group 2271">
            <path id="Path_1775" data-name="Path 1775" d="M1274.732,245.048c-1.942-.059-1.471-2.943-.647-3.943a3.038,3.038,0,0,1,4.885,3.59,2.705,2.705,0,0,1-2.413,1c-.353,0-1.824.059-2.06-.235-.647-.942-2.177-.059-1.53.883.706,1.059,2.177,1.118,3.355,1.118a4.7,4.7,0,0,0,3.766-1.354,4.8,4.8,0,1,0-8-5.179c-1.059,2.3-.294,5.767,2.648,5.826,1.177.118,1.177-1.648,0-1.707Z" transform="translate(-1271.63 -238.251)" fill="#6d9773"/>
          </g>
        </g>
      </g>
      <g id="icons" transform="translate(339.755 116.979)">
        <g id="Group_2274" data-name="Group 2274" transform="translate(151.646 87.886)">
          <g id="Group_2273" data-name="Group 2273">
            <path id="Path_1776" data-name="Path 1776" d="M664.693,394.838c2.766,2.236,6.179,1.295,8.769-.883,3.649-3,5.473-8.122,6.179-12.653,1.824-11.535-2.825-22.481-4.649-33.663-3.3-20.775,5.768-43.021,22.6-55.5,8.18-6.121,21.657-12.653,18.479-25.189a.885.885,0,0,0-1.707.471c3,11.947-10.888,18.009-18.479,23.776a58.888,58.888,0,0,0-16.3,19.6,61.5,61.5,0,0,0-6.886,23.835c-.765,10.064,1.883,19.421,4.061,29.132,1.295,5.885,2.119,12.065,1,18.068a23.672,23.672,0,0,1-2.943,7.886c-1.648,2.589-5.591,6.591-8.887,3.943-.824-.765-2.119.471-1.236,1.177Z" transform="translate(-664.397 -266.314)" fill="#6d9773"/>
          </g>
        </g>
        <g id="Group_2276" data-name="Group 2276" transform="translate(188.77 62.264)">
          <g id="Group_2275" data-name="Group 2275">
            <path id="Path_1777" data-name="Path 1777" d="M741.38,248.332c-6.65.294-12.477-4.885-12.124-11.712.353-7.121,8.769-13.712,15.89-11.829,6.356,1.707,11.241,8.71,9.652,15.243s-8.945,7.945-14.6,8.887c-1.118.177-.647,1.883.471,1.707,7.3-1.177,15.772-3.767,16.243-12.594.353-7.18-6.062-14.948-13.418-15.243-7.768-.353-15.6,6-16.008,13.889-.353,7.768,6.3,13.771,13.889,13.477,1.118-.118,1.118-1.883,0-1.824Z" transform="translate(-727.477 -222.776)" fill="#6d9773"/>
          </g>
        </g>
        <g id="Group_2278" data-name="Group 2278" transform="translate(192.192 75.709)">
          <g id="Group_2277" data-name="Group 2277">
            <path id="Path_1778" data-name="Path 1778" d="M735.062,253.142c2.825-7.121,17.891-8.3,19.657.177.235,1.118,1.942.647,1.707-.471-2.177-10.358-19.656-8.828-23.07-.177-.412,1.059,1.295,1.471,1.707.471Z" transform="translate(-733.292 -245.622)" fill="#6d9773"/>
          </g>
        </g>
        <g id="Group_2280" data-name="Group 2280" transform="translate(199.728 68.213)">
          <g id="Group_2279" data-name="Group 2279">
            <path id="Path_1779" data-name="Path 1779" d="M749.159,239.956a2.912,2.912,0,0,1-.883-3.884,3.271,3.271,0,0,1,4.473-.942,2.249,2.249,0,0,1,.706,3.237c-.883,1.354-2.766,1.53-4.237,1.177-1.118-.235-1.589,1.471-.471,1.707,2.354.53,5.179,0,6.356-2.3a4,4,0,0,0-1.824-5.532,5,5,0,0,0-6.533,1.707,4.714,4.714,0,0,0,1.53,6.3c.942.765,1.824-.765.883-1.471Z" transform="translate(-746.096 -232.885)" fill="#6d9773"/>
          </g>
        </g>
        <g id="Group_2282" data-name="Group 2282" transform="translate(225.93 26.056)">
          <g id="Group_2281" data-name="Group 2281">
            <path id="Path_1780" data-name="Path 1780" d="M792.432,192.354c6.179-16.361,23.953-24.718,40.49-25.836,10.946-.765,21.893.942,32.6,3,10.123,2,20.657,5.179,31.015,4.826,8.534-.294,17.3-3.825,21.3-11.77.53-1-1-1.883-1.53-.883-4.649,9.181-15.36,11.535-24.835,10.77-11.064-.883-21.952-4.178-32.839-6-17.656-2.943-36.488-3.355-52.2,6.591a38.6,38.6,0,0,0-15.772,18.833c-.353,1.059,1.354,1.53,1.766.471Z" transform="translate(-790.619 -161.252)" fill="#6d9773"/>
          </g>
        </g>
        <g id="Group_2284" data-name="Group 2284" transform="translate(359.395 24.613)">
          <g id="Group_2283" data-name="Group 2283">
            <path id="Path_1781" data-name="Path 1781" d="M1018.283,160.566h46.67a.884.884,0,0,0,0-1.766h-46.67a.883.883,0,1,0,0,1.766Z" transform="translate(-1017.4 -158.8)" fill="#6d9773"/>
          </g>
        </g>
        <g id="Group_2286" data-name="Group 2286" transform="translate(356.908 2.474)">
          <g id="Group_2285" data-name="Group 2285">
            <path id="Path_1782" data-name="Path 1782" d="M1015.9,143.2c-2.766-2.707.235-7.3,2.413-9.357a9.011,9.011,0,0,1,9.828-2.178.871.871,0,0,0,1-.412,13.446,13.446,0,0,1,12.594-8.3,13.233,13.233,0,0,1,11.947,9.946.9.9,0,0,0,1.295.53c2.589-1.589,5.238.294,6.3,2.707.942,2.236.706,4.767.471,7.18-.118,1.118,1.648,1.118,1.766,0,.353-3.531.589-7.71-2.236-10.417a5.745,5.745,0,0,0-7.121-1c.412.177.883.353,1.295.53a14.606,14.606,0,0,0-27.778-2.06c.353-.118.647-.294,1-.412-4.708-1.883-9.652.118-12.712,4-2.3,2.884-4.3,7.533-1.177,10.534.706.765,1.942-.471,1.118-1.295Z" transform="translate(-1013.174 -121.182)" fill="#6d9773"/>
          </g>
        </g>
        <g id="Group_2288" data-name="Group 2288" transform="translate(392.279 31.303)">
          <g id="Group_2287" data-name="Group 2287">
            <path id="Path_1783" data-name="Path 1783" d="M1074.114,172.011c7.239-.824,11.476,6.768,12.594,12.889,1.177,6.3.059,12.594-.589,18.891-1,9.475-.353,20.892,8.651,26.424.942.589,1.883-.942.883-1.53-12.3-7.533-7.18-24.306-6.709-35.841.353-8.769-3.119-23.894-14.831-22.6-1.118.118-1.118,1.883,0,1.766Z" transform="translate(-1073.275 -170.167)" fill="#6d9773"/>
          </g>
        </g>
        <g id="Group_2290" data-name="Group 2290" transform="translate(407.649 80.833)">
          <g id="Group_2289" data-name="Group 2289">
            <path id="Path_1784" data-name="Path 1784" d="M1115.287,254.9c-5.3,13.359-10.534,26.719-15.831,40.019-.412,1.059,1.295,1.53,1.707.471,5.3-13.359,10.534-26.719,15.831-40.019.412-1.059-1.295-1.471-1.707-.471Z" transform="translate(-1099.392 -254.329)" fill="#6d9773"/>
          </g>
        </g>
        <g id="Group_2292" data-name="Group 2292" transform="translate(423.536 80.526)">
          <g id="Group_2291" data-name="Group 2291">
            <path id="Path_1785" data-name="Path 1785" d="M1127.219,255.8a164.17,164.17,0,0,1,27.425.824,13.575,13.575,0,0,1-.824-1.118,405.855,405.855,0,0,0-10.711,42.373c-.235,1.118,1.471,1.589,1.707.471a421.167,421.167,0,0,1,10.711-42.373.894.894,0,0,0-.824-1.118,164.165,164.165,0,0,0-27.425-.824c-1.177.059-1.177,1.824-.059,1.766Z" transform="translate(-1126.387 -253.807)" fill="#6d9773"/>
          </g>
        </g>
        <g id="Group_2294" data-name="Group 2294" transform="translate(407.286 121.418)">
          <g id="Group_2293" data-name="Group 2293">
            <path id="Path_1786" data-name="Path 1786" d="M1099.614,325c5.414.235,10.77.53,16.184.883,5.238.294,10.829.177,15.772,2.178,1.059.412,1.53-1.295.471-1.707-4.708-1.942-10.064-1.824-15.066-2.119-5.767-.353-11.535-.647-17.361-.942-1.118-.118-1.118,1.648,0,1.707Z" transform="translate(-1098.775 -323.29)" fill="#6d9773"/>
          </g>
        </g>
        <g id="Group_2296" data-name="Group 2296" transform="translate(424.309 86.584)">
          <g id="Group_2295" data-name="Group 2295">
            <path id="Path_1787" data-name="Path 1787" d="M1128.583,265.924a147.283,147.283,0,0,1,16.89,1.295c1.118.177,1.589-1.53.471-1.707a142.842,142.842,0,0,0-17.361-1.412.913.913,0,0,0,0,1.824Z" transform="translate(-1127.7 -264.1)" fill="#6d9773"/>
          </g>
        </g>
        <g id="Group_2298" data-name="Group 2298" transform="translate(422.646 90.561)">
          <g id="Group_2297" data-name="Group 2297">
            <path id="Path_1788" data-name="Path 1788" d="M1125.714,272.708a73.692,73.692,0,0,1,9.534.235c1.118.118,1.118-1.648,0-1.766a64.5,64.5,0,0,0-9.534-.235c-1.118.059-1.118,1.824,0,1.766Z" transform="translate(-1124.875 -270.859)" fill="#6d9773"/>
          </g>
        </g>
        <g id="Group_2300" data-name="Group 2300" transform="translate(418.718 98.169)">
          <g id="Group_2299" data-name="Group 2299">
            <path id="Path_1789" data-name="Path 1789" d="M1119.083,285.971c6.768-.412,13.183-1,19.833.647a.885.885,0,0,0,.471-1.707c-6.827-1.648-13.359-1.118-20.3-.706-1.177.059-1.177,1.824,0,1.766Z" transform="translate(-1118.2 -283.785)" fill="#6d9773"/>
          </g>
        </g>
        <g id="Group_2302" data-name="Group 2302" transform="translate(419.034 103.555)">
          <g id="Group_2301" data-name="Group 2301">
            <path id="Path_1790" data-name="Path 1790" d="M1119.6,294.916a70.039,70.039,0,0,1,11.653.059c1.118.118,1.118-1.648,0-1.766a70.036,70.036,0,0,0-11.653-.059c-1.118.118-1.177,1.883,0,1.766Z" transform="translate(-1118.737 -292.937)" fill="#6d9773"/>
          </g>
        </g>
        <g id="Group_2304" data-name="Group 2304" transform="translate(415.996 110.419)">
          <g id="Group_2303" data-name="Group 2303">
            <path id="Path_1791" data-name="Path 1791" d="M1114.414,306.542a77.88,77.88,0,0,1,15.713.53c1.118.177,1.118-1.589,0-1.766a78.02,78.02,0,0,0-15.713-.53c-1.118.059-1.118,1.824,0,1.766Z" transform="translate(-1113.575 -304.6)" fill="#6d9773"/>
          </g>
        </g>
        <g id="Group_2306" data-name="Group 2306" transform="translate(123.831 32.133)">
          <g id="Group_2305" data-name="Group 2305">
            <path id="Path_1792" data-name="Path 1792" d="M617.291,172.827c2.354,3.178,5.767,4.473,9.24,6.062a33.467,33.467,0,0,1,10.946,7.768c6.945,7.474,9.24,17.538,9.416,27.484.412,18.656-5.885,38.195,2.589,55.85.471,1,2,.118,1.53-.883-8.887-18.6-1-39.431-2.531-58.97-.647-8.475-3.06-16.773-8.534-23.364a33.96,33.96,0,0,0-9.3-7.827c-3.943-2.236-9.063-3.237-11.829-7-.647-.883-2.178,0-1.53.883Z" transform="translate(-617.134 -171.579)" fill="#6d9773"/>
          </g>
        </g>
        <g id="Group_2308" data-name="Group 2308" transform="translate(93.638 1.626)">
          <g id="Group_2307" data-name="Group 2307">
            <path id="Path_1793" data-name="Path 1793" d="M576.053,126.6q-2.3-2.913.353-4.061a8.462,8.462,0,0,1,2.413-.883,14.087,14.087,0,0,1,3.531-.235c3.531.177,7.121,1.118,6.945,5.414a71.284,71.284,0,0,1-2.354,14.948c-1.295,5-2.884,9.887-4.59,14.772a21.973,21.973,0,0,1-1.177,3.3c-1.059,1.824-2.707,1.766-4.473,1.766-2.177,0-4.944.294-7.062-.294-2.354-.647-2.884-3-.589-4.532a6.946,6.946,0,0,1,3.767-.824c1.589,0,3,.353,4.355-.706,2.589-2,3-7.415,3.59-10.3.883-4.178,2.354-9.3,2.06-13.536-.235-3.237-3.413-3.355-5.709-4.708a.883.883,0,0,0-.883,1.53c1.824,1.059,4.473,1.177,4.826,3.59.412,2.825-.765,6.65-1.295,9.475-.53,2.707-1.118,5.414-1.824,8.063-.53,2-.765,4.414-3.413,4.944-1.059.235-2.354-.118-3.472.059-2.825.412-5.591,2.413-5.179,5.591.53,4,5.3,3.3,8.239,3.413,3.649.118,7.3.647,8.945-3.237A126.055,126.055,0,0,0,588,145.023a81.377,81.377,0,0,0,3-15.89c.353-4.178.53-7.533-4.12-8.651-4.061-1-9.652-1.471-12.83,1.824-2.119,2.178-1.589,6.474,2.06,6.179,1.059-.235,1.059-2-.059-1.883Z" transform="translate(-565.83 -119.742)" fill="#6d9773"/>
          </g>
        </g>
        <g id="Group_2310" data-name="Group 2310" transform="translate(92.053 14.351)">
          <g id="Group_2309" data-name="Group 2309">
            <path id="Path_1794" data-name="Path 1794" d="M567.823,141.8l-.177-.177a.985.985,0,0,0-.883-.235c-1.707.589-2.354,3.355-2.825,4.885a20.428,20.428,0,0,0-.589,8.651c.118,1.118,1.883,1.118,1.766,0a21.332,21.332,0,0,1,.059-6.121c.177-1.059,2-5.179,1.354-5.767a.9.9,0,0,0,1.295-1.236Z" transform="translate(-563.137 -141.364)" fill="#6d9773"/>
          </g>
        </g>
        <g id="Group_2312" data-name="Group 2312" transform="translate(83.485 8.007)">
          <g id="Group_2311" data-name="Group 2311">
            <path id="Path_1795" data-name="Path 1795" d="M555.889,130.888c-5.414,6.886-8.887,15.184-6.591,24.012a.885.885,0,0,0,1.707-.471c-2.119-8.122,1.177-15.949,6.121-22.3.706-.883-.53-2.119-1.236-1.236Z" transform="translate(-548.579 -130.584)" fill="#6d9773"/>
          </g>
        </g>
        <g id="Group_2314" data-name="Group 2314" transform="translate(71.362)">
          <g id="Group_2313" data-name="Group 2313">
            <path id="Path_1796" data-name="Path 1796" d="M540,117.344a58.912,58.912,0,0,0-11.711,41.608c.118,1.118,1.883,1.118,1.766,0a57.519,57.519,0,0,1,11.476-40.726c.647-.883-.883-1.766-1.53-.883Z" transform="translate(-527.979 -116.979)" fill="#6d9773"/>
          </g>
        </g>
        <g id="Group_2316" data-name="Group 2316" transform="translate(35.996 60.423)">
          <g id="Group_2315" data-name="Group 2315">
            <path id="Path_1797" data-name="Path 1797" d="M502.734,219.738a38.635,38.635,0,0,0-12.123,8.945c-3.413,3.884-4.473,8.063-5,13.124-1.177,11.594-5.473,24.306-17.126,29.191-1.059.412-.589,2.119.471,1.707,9.3-3.884,14.713-12.712,17.008-22.246,1.354-5.709.706-12.477,3.708-17.6,3.06-5.238,8.592-9.063,13.948-11.653,1.059-.412.177-1.942-.883-1.471Z" transform="translate(-467.885 -219.649)" fill="#6d9773"/>
          </g>
        </g>
        <g id="Group_2318" data-name="Group 2318" transform="translate(0 116.988)">
          <g id="Group_2317" data-name="Group 2317">
            <path id="Path_1798" data-name="Path 1798" d="M418.421,341.8c-3.884.118-8.3-1.53-9.711-5.532-1.648-4.708,1.883-9.3,5.65-11.712,7.3-4.708,17.126-6.533,25.6-6.65,4.3-.059,9.181,0,12.947,2.3,4.826,2.943,5.65,8.475,1.883,12.653-5.709,6.356-15.537,7-23.423,7.592-1.118.059-1.118,1.824,0,1.766,7.886-.589,16.714-1.295,23.07-6.591,5.826-4.826,6.238-12.83-.589-17.008-7.062-4.3-17.832-2.884-25.483-1.236-7.356,1.589-17.42,4.473-20.716,12.065-3.413,7.768,3.119,14.242,10.888,14.007,1.059.059,1.059-1.707-.118-1.648Z" transform="translate(-406.722 -315.762)" fill="#6d9773"/>
          </g>
        </g>
        <g id="Group_2320" data-name="Group 2320" transform="translate(6.923 141.364)">
          <g id="Group_2319" data-name="Group 2319">
            <path id="Path_1799" data-name="Path 1799" d="M422.967,359.546c-1.471,2.354-2.884,4.708-4.355,7-.471.765.471,1.589,1.236,1.236,3.59-1.942,7.474-3.178,11.123-4.885a46.272,46.272,0,0,0,5.826-3.119c.647-.412,1.412-.647,1.589-1.471a.842.842,0,0,0-.589-1.059.216.216,0,0,1-.177-.059c-.412-.059-1,.118-1.059.589v.118c-.235,1.118,1.471,1.589,1.707.471v-.118c-.353.177-.706.412-1.059.589a.216.216,0,0,1,.177.059c-.177-.353-.412-.706-.589-1.059-.177.589-3.472,1.942-4.178,2.354a57.468,57.468,0,0,1-5.473,2.472,76.279,76.279,0,0,0-8.063,3.59l1.236,1.236c1.471-2.354,2.884-4.708,4.355-7,.412-1-1.118-1.883-1.707-.942Z" transform="translate(-418.485 -357.181)" fill="#6d9773"/>
          </g>
        </g>
        <g id="Group_2322" data-name="Group 2322" transform="translate(10.413 130.958)">
          <g id="Group_2321" data-name="Group 2321" transform="translate(0 0)">
            <path id="Path_1800" data-name="Path 1800" d="M427.349,342.089c-.059-.118-.059-.353.118-.353.471,0-.059.589-.118.647-.294.177-1.295.412-1.236-.177.059-.706,1.412-1.471,1.648-.412a.645.645,0,0,1-.471.706.349.349,0,0,1-.412-.059c-.059-.059-.177-.118-.059-.118,1.118.059,1.118-1.707,0-1.766a1.769,1.769,0,0,0-1.766,2.236,2.171,2.171,0,0,0,2.648,1.412,2.509,2.509,0,0,0,1.883-2.354,2.453,2.453,0,0,0-1.883-2.3c-2.178-.53-4.473,2.648-2.589,4.237,1.53,1.295,4.59.118,4.414-2.06a2.037,2.037,0,0,0-2.589-1.707,2.086,2.086,0,0,0-1.059,2.943c.471,1,2,.118,1.471-.883Z" transform="translate(-424.416 -339.5)" fill="#6d9773"/>
          </g>
        </g>
        <g id="Group_2324" data-name="Group 2324" transform="translate(24.656 128.939)">
          <g id="Group_2323" data-name="Group 2323" transform="translate(0 0)">
            <path id="Path_1801" data-name="Path 1801" d="M450.314,339.089c-.059-.353-.235-.824.118-1.118a.987.987,0,0,1,.706-.177c.589.118.471.765.059,1.059a.417.417,0,0,1-.647-.059c-.177-.235-.118-.294.059-.412.118-.059-.235,0,.059-.059.706-.118-.471.706-.294.118-.353,1.118,1.354,1.53,1.707.471a1.6,1.6,0,0,0-1.766-1.942,1.574,1.574,0,1,0,1.766,2.3,1.731,1.731,0,0,0-.883-2.531,1.926,1.926,0,0,0-2.472,1.354,2.251,2.251,0,0,0,1.707,2.648c2.119.471,3.884-2.413,2.354-4a2.7,2.7,0,0,0-2.943-.412c-1.295.647-1.354,2-1.118,3.237.059,1.118,1.766.647,1.589-.471Z" transform="translate(-448.617 -336.07)" fill="#6d9773"/>
          </g>
        </g>
        <g id="Group_2326" data-name="Group 2326" transform="translate(38.289 125.599)">
          <g id="Group_2325" data-name="Group 2325">
            <path id="Path_1802" data-name="Path 1802" d="M472.911,332.81c.235,0,.471.059.765.059v-.059c.059-.059.059-.177.118-.235a.865.865,0,0,1,.353-.294.56.56,0,0,1,.765.177c.235.471-.177,1.354-.765,1-.353-.235-.412-.824.118-.706a.306.306,0,0,1,.235.118h0c0-.118,0,.059-.059.059-.177.118-.235.235-.412.118a.928.928,0,0,0-1.236.294.992.992,0,0,0,.294,1.236c1.707,1.236,4-1.236,2.648-2.884a2.157,2.157,0,0,0-3.767,1.412,2.39,2.39,0,0,0,1.766,2.119,2.335,2.335,0,0,0,2.472-1.059,2.4,2.4,0,0,0-2.648-3.649,2.524,2.524,0,0,0-1.766,2.472c.118,1.236,1.883,1.883,2.531.647a.818.818,0,1,0-1.412-.824Z" transform="translate(-471.782 -330.394)" fill="#6d9773"/>
          </g>
        </g>
        <g id="Group_2328" data-name="Group 2328" transform="translate(73.641 59.444)">
          <g id="Group_2327" data-name="Group 2327">
            <path id="Path_1803" data-name="Path 1803" d="M533.175,235.237a64.324,64.324,0,0,0,18.774-15.713c.706-.883-.53-2.119-1.236-1.236a62.841,62.841,0,0,1-18.421,15.419c-1,.53-.118,2.06.883,1.53Z" transform="translate(-531.852 -217.984)" fill="#6d9773"/>
          </g>
        </g>
        <g id="Group_2330" data-name="Group 2330" transform="translate(161.428 77.587)">
          <g id="Group_2329" data-name="Group 2329">
            <path id="Path_1804" data-name="Path 1804" d="M682.6,249.453a102.194,102.194,0,0,0-1.471,22.423c.059,1.118,1.824,1.118,1.766,0a97.945,97.945,0,0,1,1.412-21.952c.177-1.118-1.53-1.589-1.707-.471Z" transform="translate(-681.018 -248.814)" fill="#6d9773"/>
          </g>
        </g>
        <g id="Group_2332" data-name="Group 2332" transform="translate(152.294 225.612)">
          <g id="Group_2331" data-name="Group 2331">
            <path id="Path_1805" data-name="Path 1805" d="M667.206,524.973a28.681,28.681,0,0,1,11.476-22.952c.883-.647,0-2.178-.883-1.53a30.356,30.356,0,0,0-12.3,24.482c-.059,1.118,1.707,1.118,1.707,0Z" transform="translate(-665.497 -500.334)" fill="#6d9773"/>
          </g>
        </g>
      </g>
      <g id="chair" transform="translate(551.688 348.613)">
        <path id="Path_1806" data-name="Path 1806" d="M825.284,943.778a236.182,236.182,0,0,0,4.767,27.837,238.913,238.913,0,0,0,11.3,35.488,15.905,15.905,0,0,1-16.42,2.943c-2.119-7.357-4.178-15.007-6.062-22.952-3.884-16.361-6.709-31.957-8.769-46.493Q817.78,942.189,825.284,943.778Z" transform="translate(-784.638 -687.517)" fill="#191919"/>
        <path id="Path_1807" data-name="Path 1807" d="M1049.578,934.419a229.815,229.815,0,0,1-4.237,27.837,234.168,234.168,0,0,1-11.241,37.018,12.338,12.338,0,0,0,17.185,0c1.354-7.121,2.648-14.3,3.943-21.481,2.825-15.713,5.356-31.192,7.768-46.493C1058.524,932.3,1054.051,933.36,1049.578,934.419Z" transform="translate(-876.81 -683.69)" fill="#191919"/>
        <path id="Path_1808" data-name="Path 1808" d="M871.025,894.519c1.354,9,2.943,18.3,4.767,27.837,2.648,13.83,5.65,27.013,8.828,39.49a17.006,17.006,0,0,1-14.772,1.354c-1.766-8.357-3.472-16.832-5.179-25.306-3.119-15.714-6-31.192-8.769-46.493C860.961,892.4,865.964,893.46,871.025,894.519Z" transform="translate(-803.484 -667.272)" fill="#191919"/>
        <path id="Path_1809" data-name="Path 1809" d="M1017.227,891.519c-1.589,8.887-3,18.185-4.237,27.837q-2.56,19.951-3.59,38.136a13.663,13.663,0,0,0,6.709,2.177,13.482,13.482,0,0,0,7.239-1.883,180.405,180.405,0,0,1-.471-22.893,187.856,187.856,0,0,1,7.768-46.493C1026.173,889.4,1021.7,890.46,1017.227,891.519Z" transform="translate(-866.646 -666.038)" fill="#191919"/>
        <path id="Path_1810" data-name="Path 1810" d="M1022,539.129c10.3,18.362,2.354,38.666-16.949,89.1-9.3,24.247-26.307,68.8-50.318,132.3a270.209,270.209,0,0,1-110.995,15.831,266.028,266.028,0,0,1-69.445-14.242c-2.648-4.767-11.829-22.6-4.944-39.9,3.825-9.593,11.535-16.479,27.9-24.6,16.125-8,44.551-19.245,85.865-21.3-16.184-80.568,11.535-146.6,54.673-161.843C966.087,504.524,1007.813,513.882,1022,539.129Z" transform="translate(-766.835 -510.567)" fill="#fff" stroke="#191919" stroke-miterlimit="10" stroke-width="2"/>
        <g id="Group_2334" data-name="Group 2334" transform="translate(172.789 34.91)">
          <g id="Group_2333" data-name="Group 2333">
            <path id="Path_1811" data-name="Path 1811" d="M1139.04,570.188c-17.067,21.6-20.951,50.613-27.484,76.566-7,27.778-15.066,55.5-27.131,81.569a237.556,237.556,0,0,1-23.835,40.784c-.647.942.883,1.824,1.53.883,16.42-22.364,28.013-47.729,36.959-73.859,9.063-26.6,15.066-54.026,22.128-81.157,4-15.419,9.122-30.838,19.127-43.492.647-.942-.589-2.177-1.295-1.295Z" transform="translate(-1060.434 -569.885)" fill="#191919"/>
          </g>
        </g>
        <g id="Group_2336" data-name="Group 2336" transform="translate(7.209 237.011)">
          <g id="Group_2335" data-name="Group 2335">
            <path id="Path_1812" data-name="Path 1812" d="M779.682,915.062a247.912,247.912,0,0,0,158.37,4.178c1.059-.353.647-2.06-.471-1.707a245.258,245.258,0,0,1-157.429-4.178c-1.059-.412-1.53,1.295-.471,1.707Z" transform="translate(-779.085 -913.292)" fill="#191919"/>
          </g>
        </g>
        <g id="Group_2338" data-name="Group 2338" transform="translate(145.351 190.77)">
          <g id="Group_2337" data-name="Group 2337">
            <path id="Path_1813" data-name="Path 1813" d="M1014.453,836.473a45.013,45.013,0,0,1,23.953,18.6c.589.942,2.119.059,1.53-.883a47.167,47.167,0,0,0-25.012-19.421.885.885,0,0,0-.471,1.707Z" transform="translate(-1013.814 -834.719)" fill="#191919"/>
          </g>
        </g>
      </g>
      <g id="leg_r" transform="translate(471.04 478.636)">
        <path id="Path_1814" data-name="Path 1814" d="M701.347,956.913c4.708,7.062,9.416,14.183,14.066,21.245-30.132,27.072-34.016,34.781-31.78,36.665,4.473,3.708,36.547-12.771,39.843-14.478a221.4,221.4,0,0,0,26.954-16.3,126.941,126.941,0,0,0-8.828-19.068A142.14,142.14,0,0,0,725.476,942.2C717.414,947.026,709.351,951.969,701.347,956.913Z" transform="translate(-651.735 -818.199)" fill="#191919"/>
        <path id="Path_1815" data-name="Path 1815" d="M855.5,731.5a50.916,50.916,0,0,1,4.708,19.009,52.066,52.066,0,0,1-6.3,26.836,66.916,66.916,0,0,1-8.592,9.181A99.219,99.219,0,0,1,820.774,801.3c-15.36,6.591-60.029,14.536-120.705,16.067a100.774,100.774,0,0,0,10.593,26.719,110.8,110.8,0,0,0,9.887,14.478c-2.236,2.943-8.592,10.417-21.246,15.125a65.681,65.681,0,0,1-27.778,3.649,143.1,143.1,0,0,1-18.95-21.069c-17.832-24.541-22.011-48.259-22.776-63.5a186.7,186.7,0,0,1,19.362-12.182c17.656-9.711,33.84-15.007,47.14-18.95,22.893-6.709,44.786-11.358,95.164-19.892C807.238,739.092,829.072,735.443,855.5,731.5Z" transform="translate(-629.8 -731.5)" fill="#fff" stroke="#191919" stroke-miterlimit="10" stroke-width="2"/>
        <path id="Path_1816" data-name="Path 1816" d="M823.3,741.787c-1.707,11.241-6.533,25.836-21.481,34.9-14.536,8.828-26.719,5.238-55.85,12.3-20.951,5.061-48.671,11.77-56.38,26.66-8.063,15.655,7.18,37.724,33.84,55.85a34.535,34.535,0,0,0,8.063-2.06,26.936,26.936,0,0,0,12.889-10.24,111.409,111.409,0,0,1-10.181-14.36,99.126,99.126,0,0,1-11.3-27.484c31.192-1.295,57.381-4,77.273-6.591,23.953-3.119,40.549-6.238,56.38-15.184,13.242-7.474,18.538-14.831,20.422-17.656a39.386,39.386,0,0,0,6.415-20.951,47.848,47.848,0,0,0-5.885-25.071Z" transform="translate(-653.515 -731.665)" fill="#6c6d6d" opacity="0.19"/>
        <path id="Path_1817" data-name="Path 1817" d="M903.139,734c-1.177,10.946-5.355,28.249-22.011,41.9-10.24,8.416-21.245,12.182-64.443,23.835-19.068,5.12-42.138,11.182-68.386,17.773a641.757,641.757,0,0,0,79.98-5.768c20.186-2.766,30.073-5.179,40.313-9.593,9.711-4.178,29.308-12.653,37.312-30.485C913.615,754.363,905.846,738.826,903.139,734Z" transform="translate(-678.56 -732.529)" fill="#6c6d6d" opacity="0.19"/>
        <path id="Path_1818" data-name="Path 1818" d="M748.553,877.4a147.284,147.284,0,0,0,1.589,26.424,154.322,154.322,0,0,0,6.179,25.836,44.679,44.679,0,0,0,6.533-4.708,43.564,43.564,0,0,0,6.179-6.533,128.24,128.24,0,0,1-10.122-15.478A112.306,112.306,0,0,1,748.553,877.4Z" transform="translate(-678.637 -791.535)" fill="#6c6d6d" opacity="0.22"/>
      </g>
      <g id="leg_l" transform="translate(490.697 476.812)">
        <path id="Path_1819" data-name="Path 1819" d="M731.749,1011.6c4.532,8.887,9,17.773,13.536,26.719-28.955,34.016-32.722,43.668-30.544,46.022,4.3,4.708,35.135-16.067,38.313-18.185a218.122,218.122,0,0,0,25.954-20.48A189.065,189.065,0,0,0,755,993Q743.343,1002.357,731.749,1011.6Z" transform="translate(-684.196 -837.278)" fill="#191919"/>
        <path id="Path_1820" data-name="Path 1820" d="M880.01,728.4a80.055,80.055,0,0,1,4.532,23.894,81.556,81.556,0,0,1-6.062,33.722,83.4,83.4,0,0,1-8.239,11.594,95.042,95.042,0,0,1-23.541,18.6c-14.772,8.239-57.734,18.3-116,20.186a149.364,149.364,0,0,0,10.181,33.546,144.171,144.171,0,0,0,9.534,18.185,47.958,47.958,0,0,1-47.14,23.541,167.14,167.14,0,0,1-18.185-26.483c-17.185-30.838-21.187-60.676-21.893-79.8a187.671,187.671,0,0,1,18.6-15.3c17.008-12.182,32.486-18.891,45.316-23.835,21.952-8.416,43.08-14.242,91.515-25.012C833.576,737.875,854.645,733.344,880.01,728.4Z" transform="translate(-663.2 -728.4)" fill="#fff" stroke="#191919" stroke-miterlimit="10" stroke-width="2"/>
        <path id="Path_1821" data-name="Path 1821" d="M848.976,741.359c-1.648,14.124-6.3,32.427-20.657,43.845-13.948,11.123-25.718,6.591-53.673,15.478-20.127,6.356-46.787,14.831-54.2,33.546-7.768,19.656,6.886,47.435,32.486,70.151a26.619,26.619,0,0,0,7.768-2.589A28.66,28.66,0,0,0,773.057,888.9,146.265,146.265,0,0,1,752.4,836.287a665.4,665.4,0,0,0,74.33-8.239c23.07-3.884,38.96-7.827,54.2-19.068,12.712-9.416,17.832-18.656,19.6-22.187,5.473-10.888,5.944-20.775,6.179-26.307A75.787,75.787,0,0,0,901.06,729Q875.018,735.091,848.976,741.359Z" transform="translate(-685.898 -728.647)" fill="#6c6d6d" opacity="0.19"/>
        <path id="Path_1822" data-name="Path 1822" d="M925.677,731.5c-1.118,13.712-5.12,35.488-21.128,52.672-9.887,10.593-20.422,15.3-61.912,29.956-18.362,6.474-40.49,14.066-65.738,22.364a475.685,475.685,0,0,0,76.919-7.239c19.421-3.472,28.955-6.474,38.724-12.006,9.357-5.3,28.131-15.89,35.9-38.371C935.8,757.1,928.326,737.621,925.677,731.5Z" transform="translate(-709.985 -729.676)" fill="#6c6d6d" opacity="0.19"/>
        <path id="Path_1823" data-name="Path 1823" d="M777.153,911.8a239.683,239.683,0,0,0,1.53,33.192,243.8,243.8,0,0,0,5.944,32.427,47.635,47.635,0,0,0,6.3-5.944,52.933,52.933,0,0,0,5.944-8.18,162.253,162.253,0,0,1-9.711-19.48A164.1,164.1,0,0,1,777.153,911.8Z" transform="translate(-710.062 -803.866)" fill="#6c6d6d" opacity="0.22"/>
      </g>
      <g id="hand_r" transform="translate(519.235 308.934)">
        <path id="Path_1824" data-name="Path 1824" d="M735.995,569.048c-1.118-.53-3.355-1.53-3.3-2.648.118-1.824,6.179-3.06,10.711-3,3.06,0,8.71.647,15.3,5.238C752.532,570.578,743.41,572.344,735.995,569.048Z" transform="translate(-720.335 -492.626)" fill="#fff" stroke="#191919" stroke-miterlimit="10" stroke-width="2"/>
        <path id="Path_1825" data-name="Path 1825" d="M868.89,443.236c-11.182-1.471-21.245,15.3-22.187,16.832-3.413,5.826-3.825,9.711-6.179,20.363-5.709,25.954-8.769,39.136-17.244,47.081a36.955,36.955,0,0,1-18.95,9.181c-10.064,1.589-19.186-2.177-36.959-9.769-15.007-6.415-16.832-8.769-25.012-9.711-4.178-.471-16.361-1.824-24.424,6-5.179,5-7.474,13.006-5.591,14.654,2.413,2.119,12.3-5.356,12.418-5.179a23.252,23.252,0,0,0-5.414,4.59c-1.236,1.471-3.355,4.649-2.589,5.473,1.354,1.648,9.652-8.357,18.774-6.591,6.238,1.177,7.415,6.827,14.654,7.886a17.857,17.857,0,0,0,10.3-1.766,77.523,77.523,0,0,0,20.539,16.008c5.767,3.06,26.13,13.595,51.025,7.474,26.424-6.474,39.725-27.131,43.9-33.6,2.354-3.708,19.656-31.368,11.3-62.383C885.78,464.776,880.425,444.766,868.89,443.236Z" transform="translate(-711.692 -443.145)" fill="#fff" stroke="#191919" stroke-miterlimit="10" stroke-width="2"/>
        <path id="Path_1826" data-name="Path 1826" d="M868.942,443.453c-3.825,2,3.59,15.89,2.648,35.782-.883,19.127-9.063,33.251-12.712,39.725-4.944,8.651-11.476,19.951-24.482,27.307-17.479,9.887-39.137,8.416-54.556,1.707-4.59-2-9.24-8.475-19.362-12.418a67.278,67.278,0,0,0-11.947-3.237c-9.946-1.942-18.774-3.708-26.954.412-3.884,2-7.121,5.061-6.886,5.473s4.767-1.883,8.769-4.061c-4.826,6.415-5.591,8.239-5.238,8.592.412.353,1.883-1,5.65-3.119,4.061-2.236,7-3.825,10.593-3.531a13.292,13.292,0,0,1,4.061,1.118c3.237,1.412,4,3.06,7.239,4.708A18.133,18.133,0,0,0,750.3,543.5a19.52,19.52,0,0,0,10.888-.883c4.473,4.708,25.012,25.542,55.085,25.13a69.718,69.718,0,0,0,31.309-8.3c24.541-12.771,34.311-35.429,36.782-41.667,7.651-19.3,10.358-47.905-3.649-65.855C877.358,447.573,871.591,442.1,868.942,443.453Z" transform="translate(-712.921 -443.185)" fill="#6c6d6d" opacity="0.25"/>
        <g id="Group_2340" data-name="Group 2340" transform="translate(0.459 85.455)">
          <g id="Group_2339" data-name="Group 2339">
            <path id="Path_1827" data-name="Path 1827" d="M713.724,597.618a24.859,24.859,0,0,1,8.887-8.063c.765-.412.059-1.53-.647-1.118a26.555,26.555,0,0,0-9.357,8.534c-.53.706.647,1.354,1.118.647Z" transform="translate(-712.472 -588.348)" fill="#191919"/>
          </g>
        </g>
        <g id="Group_2342" data-name="Group 2342" transform="translate(1.151 78.631)">
          <g id="Group_2341" data-name="Group 2341">
            <path id="Path_1828" data-name="Path 1828" d="M714.914,585.255c2.3-3.59,6-5.473,9.711-7.3.765-.353.118-1.53-.647-1.118-3.943,1.883-7.827,3.943-10.24,7.768-.412.706.706,1.354,1.177.647Z" transform="translate(-713.648 -576.753)" fill="#191919"/>
          </g>
        </g>
        <path id="Path_1829" data-name="Path 1829" d="M949.827,479.6a204.119,204.119,0,0,1-5.3,24.659C939,524.269,934,542.277,920.93,556.578c-16.184,17.656-38.136,22.481-50.73,23.953a58.043,58.043,0,0,0,21.363,1.118c35.311-4.944,54.379-42.9,59.558-59.5a63.28,63.28,0,0,0,3-17.3A64.431,64.431,0,0,0,949.827,479.6Z" transform="translate(-776.915 -458.145)" fill="#6c6d6d" opacity="0.29"/>
        <path id="Path_1830" data-name="Path 1830" d="M754.2,600a52.975,52.975,0,0,0,13.595,4.532,53.864,53.864,0,0,0,11.653.883c-8.063,4.3-12.241,3.767-14.6,2.354-1.471-.883-3.119-2.648-7.651-5.767C755.966,601.118,754.906,600.412,754.2,600Z" transform="translate(-729.183 -507.688)" fill="#6c6d6d" opacity="0.26"/>
      </g>
      <g id="table" transform="translate(262.969 413.781)">
        <g id="Group_2344" data-name="Group 2344" transform="translate(162.284 81.679)">
          <g id="Group_2343" data-name="Group 2343">
            <path id="Path_1831" data-name="Path 1831" d="M552,762.625v84.805c0,3.413,5.3,3.413,5.3,0V762.625c0-3.355-5.3-3.413-5.3,0Z" transform="translate(-552 -760.087)" fill="#161616"/>
          </g>
        </g>
        <g id="Group_2346" data-name="Group 2346" transform="translate(258.566 80.539)">
          <g id="Group_2345" data-name="Group 2345" transform="translate(0)">
            <path id="Path_1832" data-name="Path 1832" d="M715.6,760.71V774.3c0,3.413,5.3,3.413,5.3,0V760.71c0-3.413-5.3-3.413-5.3,0Z" transform="translate(-715.6 -758.15)" fill="#161616"/>
          </g>
        </g>
        <path id="Path_1833" data-name="Path 1833" d="M427.8,702.045Q470.615,661.7,513.488,621.3l138.537,2.472q-11.3,39.2-22.6,78.332Q528.613,702.015,427.8,702.045Z" transform="translate(-338.61 -621.3)" fill="#fff" stroke="#191919" stroke-miterlimit="10" stroke-width="2"/>
        <g id="Group_2348" data-name="Group 2348" transform="translate(88.337 78.508)">
          <g id="Group_2347" data-name="Group 2347">
            <path id="Path_1834" data-name="Path 1834" d="M428.91,760H627.064c3.413,0,3.413-5.3,0-5.3H428.91c-3.413,0-3.413,5.3,0,5.3Z" transform="translate(-426.35 -754.7)" fill="#161616"/>
          </g>
        </g>
        <g id="Group_2350" data-name="Group 2350" transform="translate(106.022 80.362)">
          <g id="Group_2349" data-name="Group 2349">
            <path id="Path_1835" data-name="Path 1835" d="M456.4,760.41V985.224c0,3.413,5.3,3.413,5.3,0V760.41c0-3.413-5.3-3.413-5.3,0Z" transform="translate(-456.4 -757.85)" fill="#161616"/>
          </g>
        </g>
        <g id="Group_2352" data-name="Group 2352" transform="translate(267.452 80.362)">
          <g id="Group_2351" data-name="Group 2351" transform="translate(0)">
            <path id="Path_1836" data-name="Path 1836" d="M730.7,760.41V985.224c0,3.413,5.3,3.413,5.3,0V760.41c0-3.413-5.3-3.413-5.3,0Z" transform="translate(-730.7 -757.85)" fill="#161616"/>
          </g>
        </g>
        <g id="Group_2354" data-name="Group 2354" transform="translate(106.11 186.914)">
          <g id="Group_2353" data-name="Group 2353">
            <path id="Path_1837" data-name="Path 1837" d="M459.11,944.2H619.069c3.413,0,3.413-5.3,0-5.3H459.11c-3.413,0-3.413,5.3,0,5.3Z" transform="translate(-456.55 -938.9)" fill="#161616"/>
          </g>
        </g>
        <g id="Group_2356" data-name="Group 2356" transform="translate(289.352 1.235)">
          <g id="Group_2355" data-name="Group 2355">
            <path id="Path_1838" data-name="Path 1838" d="M791.269,624.635c-6.709,26.189-14.419,52.143-23.246,77.684-.765,2.177,2.648,3.06,3.413.942q13.242-38.4,23.247-77.685c.53-2.177-2.825-3.119-3.413-.942Z" transform="translate(-767.911 -623.399)" fill="#161616"/>
          </g>
        </g>
        <g id="lines" transform="translate(0 289.551)">
          <g id="Group_2358" data-name="Group 2358" transform="translate(28.367 18.656)">
            <g id="Group_2357" data-name="Group 2357">
              <path id="Path_1839" data-name="Path 1839" d="M327.01,1150.3H420.7c3.413,0,3.413-5.3,0-5.3H327.01c-3.413,0-3.413,5.3,0,5.3Z" transform="translate(-324.45 -1145)" fill="#161616"/>
            </g>
          </g>
          <g id="Group_2360" data-name="Group 2360" transform="translate(135.183 17.479)">
            <g id="Group_2359" data-name="Group 2359">
              <path id="Path_1840" data-name="Path 1840" d="M508.51,1148.3h21.6c3.413,0,3.413-5.3,0-5.3h-21.6c-3.413,0-3.413,5.3,0,5.3Z" transform="translate(-505.95 -1143)" fill="#161616"/>
            </g>
          </g>
          <g id="Group_2362" data-name="Group 2362" transform="translate(228.875 18.244)">
            <g id="Group_2361" data-name="Group 2361">
              <path id="Path_1841" data-name="Path 1841" d="M667.71,1149.6h84.452c3.413,0,3.413-5.3,0-5.3H667.71c-3.413,0-3.413,5.3,0,5.3Z" transform="translate(-665.15 -1144.3)" fill="#161616"/>
            </g>
          </g>
          <g id="Group_2364" data-name="Group 2364" transform="translate(332.572 16.361)">
            <g id="Group_2363" data-name="Group 2363">
              <path id="Path_1842" data-name="Path 1842" d="M843.91,1146.4h15.066c3.413,0,3.413-5.3,0-5.3H843.91c-3.413,0-3.413,5.3,0,5.3Z" transform="translate(-841.35 -1141.1)" fill="#161616"/>
            </g>
          </g>
          <g id="Group_2366" data-name="Group 2366">
            <g id="Group_2365" data-name="Group 2365">
              <path id="Path_1843" data-name="Path 1843" d="M278.81,1118.6H315.3c3.413,0,3.413-5.3,0-5.3H278.81c-3.413,0-3.413,5.3,0,5.3Z" transform="translate(-276.25 -1113.3)" fill="#161616"/>
            </g>
          </g>
        </g>
      </g>
      <g id="laptop" transform="translate(411.011 340.864)">
        <path id="Path_1844" data-name="Path 1844" d="M641.794,694.419q-54.467-1.412-108.994-2.766,32.31-30.9,64.56-61.853,37.253,1.942,74.565,3.884C661.862,653.988,651.857,674.174,641.794,694.419Z" transform="translate(-529.857 -551.88)" fill="#fff" stroke="#191919" stroke-miterlimit="10" stroke-width="2"/>
        <path id="Path_1845" data-name="Path 1845" d="M594.067,574.908q-31.692,30.632-63.383,61.324-1.412-49.083-2.884-98.224L592.066,497.4Q592.949,536.154,594.067,574.908Z" transform="translate(-527.8 -497.4)" fill="#fff" stroke="#191919" stroke-miterlimit="10" stroke-width="2"/>
        <g id="Group_2368" data-name="Group 2368" transform="translate(1.939 43.33)">
          <g id="Group_2367" data-name="Group 2367">
            <path id="Path_1846" data-name="Path 1846" d="M531.1,571.422q2.56,43.7,3.413,87.513a.441.441,0,0,0,.883,0q-.883-43.786-3.413-87.513c-.059-.53-.942-.53-.883,0Z" transform="translate(-531.095 -571.025)" fill="#191919"/>
          </g>
        </g>
        <g id="Group_2370" data-name="Group 2370" transform="translate(1.736 4.524)">
          <g id="Group_2369" data-name="Group 2369">
            <path id="Path_1847" data-name="Path 1847" d="M531.427,544.408l59.146-38.489a.449.449,0,0,0-.471-.765l-59.146,38.489c-.471.353-.059,1.118.471.765Z" transform="translate(-530.75 -505.088)" fill="#191919"/>
          </g>
        </g>
        <g id="Group_2372" data-name="Group 2372" transform="translate(61.32 4.899)">
          <g id="Group_2371" data-name="Group 2371">
            <path id="Path_1848" data-name="Path 1848" d="M632,506.122c-.059,23.482.647,47.023,2.178,70.446.059.589.942.589.883,0q-2.207-35.223-2.178-70.446a.444.444,0,0,0-.883,0Z" transform="translate(-631.994 -505.725)" fill="#191919"/>
          </g>
        </g>
        <g id="Group_2374" data-name="Group 2374" transform="translate(5.188 75.811)">
          <g id="Group_2373" data-name="Group 2373">
            <path id="Path_1849" data-name="Path 1849" d="M537.372,682.881q28.955-27.984,57.969-55.909c.412-.412-.235-1-.647-.647q-28.955,27.984-57.969,55.909c-.353.412.235,1.059.647.647Z" transform="translate(-536.616 -626.216)" fill="#191919"/>
          </g>
        </g>
        <g id="Group_2376" data-name="Group 2376" transform="translate(94.484 104.502)">
          <g id="Group_2375" data-name="Group 2375">
            <path id="Path_1850" data-name="Path 1850" d="M689.2,692.937c3.59-5.709,7.18-11.476,10.652-17.3.294-.471-.471-.942-.765-.471-3.472,5.826-7.062,11.594-10.652,17.3-.353.471.412.942.765.471Z" transform="translate(-688.346 -674.969)" fill="#191919"/>
          </g>
        </g>
        <g id="Group_2378" data-name="Group 2378" transform="translate(105.315 104.05)">
          <g id="Group_2377" data-name="Group 2377">
            <path id="Path_1851" data-name="Path 1851" d="M707.191,675.142c4.649.177,9.3.177,13.948-.059a.441.441,0,0,0,0-.883c-4.649.177-9.3.177-13.948.059a.441.441,0,1,0,0,.883Z" transform="translate(-706.75 -674.2)" fill="#191919"/>
          </g>
        </g>
        <g id="Group_2380" data-name="Group 2380" transform="translate(111.009 104.453)">
          <g id="Group_2379" data-name="Group 2379">
            <path id="Path_1852" data-name="Path 1852" d="M724.532,675.129c-2.648,5.767-5.355,11.535-8.063,17.3-.235.53.53.942.765.471,2.707-5.768,5.414-11.535,8.063-17.3.235-.589-.53-1-.765-.471Z" transform="translate(-716.424 -674.885)" fill="#191919"/>
          </g>
        </g>
        <g id="Group_2382" data-name="Group 2382" transform="translate(94.705 122.107)">
          <g id="Group_2381" data-name="Group 2381">
            <path id="Path_1853" data-name="Path 1853" d="M689.062,705.716c5.179.765,10.652.412,15.89.177a.441.441,0,0,0,0-.883c-5.12.235-10.535.589-15.655-.118-.589-.118-.824.765-.235.824Z" transform="translate(-688.721 -704.882)" fill="#191919"/>
          </g>
        </g>
        <g id="Group_2384" data-name="Group 2384" transform="translate(106.161 104.458)">
          <g id="Group_2383" data-name="Group 2383">
            <path id="Path_1854" data-name="Path 1854" d="M716.375,675.191a151.856,151.856,0,0,1-8.122,17.126c-.294.471.471.942.765.471a173.261,173.261,0,0,0,8.239-17.361c.177-.53-.647-.765-.883-.235Z" transform="translate(-708.188 -674.893)" fill="#191919"/>
          </g>
        </g>
        <g id="Group_2386" data-name="Group 2386" transform="translate(28.323 83.673)">
          <g id="Group_2385" data-name="Group 2385">
            <path id="Path_1855" data-name="Path 1855" d="M576.676,687.319q19.421-24.012,40.2-46.964c.353-.412-.235-1.059-.647-.647q-20.745,22.864-40.2,46.964c-.353.471.294,1.059.647.647Z" transform="translate(-575.926 -639.576)" fill="#191919"/>
          </g>
        </g>
        <g id="Group_2388" data-name="Group 2388" transform="translate(43.871 84.615)">
          <g id="Group_2387" data-name="Group 2387">
            <path id="Path_1856" data-name="Path 1856" d="M603.2,688.978q17.391-24.276,36.665-47.023c.353-.412-.235-1.059-.647-.647q-19.333,22.864-36.782,47.2c-.353.471.412.942.765.471Z" transform="translate(-602.346 -641.176)" fill="#191919"/>
          </g>
        </g>
        <g id="Group_2390" data-name="Group 2390" transform="translate(60.728 85.519)">
          <g id="Group_2389" data-name="Group 2389">
            <path id="Path_1857" data-name="Path 1857" d="M631.819,692.023a523.026,523.026,0,0,1,32.957-48.67c.353-.471-.412-.883-.765-.471a523.038,523.038,0,0,0-32.957,48.67c-.294.471.471.942.765.471Z" transform="translate(-630.987 -642.713)" fill="#191919"/>
          </g>
        </g>
        <g id="Group_2392" data-name="Group 2392" transform="translate(74.815 83.732)">
          <g id="Group_2391" data-name="Group 2391">
            <path id="Path_1858" data-name="Path 1858" d="M655.793,692.245a305.422,305.422,0,0,1,35.017-51.79c.353-.412-.235-1.059-.647-.647a307.815,307.815,0,0,0-35.193,51.966c-.235.53.53,1,.824.471Z" transform="translate(-654.925 -639.676)" fill="#191919"/>
          </g>
        </g>
        <g id="Group_2394" data-name="Group 2394" transform="translate(36.209 120.38)">
          <g id="Group_2393" data-name="Group 2393">
            <path id="Path_1859" data-name="Path 1859" d="M589.722,703.45c15.066-1.589,30.132.294,45.139,2.3.589.059.53-.824,0-.883-14.948-2-30.014-3.943-45.139-2.3-.53.059-.53.942,0,.883Z" transform="translate(-589.325 -701.947)" fill="#191919"/>
          </g>
        </g>
        <g id="Group_2396" data-name="Group 2396" transform="translate(43.801 112.334)">
          <g id="Group_2395" data-name="Group 2395">
            <path id="Path_1860" data-name="Path 1860" d="M602.622,689.232a187.125,187.125,0,0,1,42.491,3.237c.53.118.765-.765.235-.824a189.189,189.189,0,0,0-42.726-3.237c-.53-.059-.53.824,0,.824Z" transform="translate(-602.225 -688.275)" fill="#191919"/>
          </g>
        </g>
        <g id="Group_2398" data-name="Group 2398" transform="translate(50.583 103.833)">
          <g id="Group_2397" data-name="Group 2397">
            <path id="Path_1861" data-name="Path 1861" d="M614.191,674.99a134.068,134.068,0,0,1,40.784,3.649c.53.118.765-.706.235-.824a133.624,133.624,0,0,0-41.02-3.708c-.589.059-.589.942,0,.883Z" transform="translate(-613.75 -673.831)" fill="#191919"/>
          </g>
        </g>
        <g id="Group_2400" data-name="Group 2400" transform="translate(57.69 95.867)">
          <g id="Group_2399" data-name="Group 2399">
            <path id="Path_1862" data-name="Path 1862" d="M626.222,661.122a198.511,198.511,0,0,1,39.136,4.061c.53.118.765-.765.235-.824a200.881,200.881,0,0,0-39.372-4.061c-.53-.059-.53.824,0,.824Z" transform="translate(-625.825 -660.295)" fill="#191919"/>
          </g>
        </g>
        <g id="Group_2402" data-name="Group 2402" transform="translate(64.649 88.157)">
          <g id="Group_2401" data-name="Group 2401">
            <path id="Path_1863" data-name="Path 1863" d="M638.091,648.022a183.6,183.6,0,0,1,37.194,4.473c.53.118.765-.706.235-.824a182.238,182.238,0,0,0-37.43-4.473c-.589-.059-.589.824,0,.824Z" transform="translate(-637.65 -647.195)" fill="#191919"/>
          </g>
        </g>
        <g id="Group_2404" data-name="Group 2404" transform="translate(88.153 97.723)">
          <g id="Group_2403" data-name="Group 2403">
            <path id="Path_1864" data-name="Path 1864" d="M694.9,663.656c-5.767,8.475-11.476,16.949-17.244,25.424-.294.471.471.942.765.471,5.768-8.475,11.476-16.949,17.244-25.424.353-.53-.412-.942-.765-.471Z" transform="translate(-677.588 -663.45)" fill="#191919"/>
          </g>
        </g>
        <g id="Group_2406" data-name="Group 2406" transform="translate(7.327 77.618)">
          <g id="Group_2405" data-name="Group 2405">
            <path id="Path_1865" data-name="Path 1865" d="M540.927,636.769c7.357-3.119,15.3-1.354,23.07-1.471a36.624,36.624,0,0,0,18.362-5.179.449.449,0,0,0-.471-.765c-6.886,4.061-14.183,5.356-22.069,5-6.591-.294-13.124-.942-19.362,1.707-.471.177-.059.942.471.706Z" transform="translate(-540.25 -629.288)" fill="#191919"/>
          </g>
        </g>
        <g id="Group_2408" data-name="Group 2408" transform="translate(27.16 52.216)">
          <g id="Group_2407" data-name="Group 2407">
            <path id="Path_1866" data-name="Path 1866" d="M574.627,615.359c12.594-7.121,18.421-22.128,31.545-28.425.53-.235.059-1-.471-.765-13.183,6.356-18.95,21.3-31.545,28.425a.449.449,0,0,0,.471.765Z" transform="translate(-573.95 -586.124)" fill="#191919"/>
          </g>
        </g>
        <g id="Group_2410" data-name="Group 2410" transform="translate(41.347 28.697)">
          <g id="Group_2409" data-name="Group 2409">
            <path id="Path_1867" data-name="Path 1867" d="M600.553,556.954c-2.178-1.707-1.824-4.473-.589-6.65a8.188,8.188,0,0,1,2.472-2.825c1.824-1.177,3.531-.235,4.944,1,.412.353,1.059-.235.647-.647-2.943-2.472-5.709-2.236-8.122.942-1.942,2.589-2.943,6.474,0,8.828.471.353,1.118-.294.647-.647Z" transform="translate(-598.056 -546.161)" fill="#191919"/>
          </g>
        </g>
      </g>
      <g id="torso" transform="translate(611.445 308.907)">
        <path id="Path_1868" data-name="Path 1868" d="M893.048,471.525c-16.125,17.891-20.48,37.548-22.834,48.671-4.3,20.6.235,28.837.53,67.974.118,16.655-.589,30.132-1.118,38.607,3.649,2.825,26.248,19.657,56.439,14.125,22.364-4.061,35.841-18.068,40.078-22.835,1-5.591,2.413-13.83,4.061-23.835,8.71-53.967,13.006-81.333,7.592-100.931-3.237-11.888-11.241-30.721-33.958-50.2C934.3,445.1,911.409,451.222,893.048,471.525Z" transform="translate(-868.372 -443.1)" fill="#6d9773"/>
        <path id="Path_1869" data-name="Path 1869" d="M926.637,461.437A273.305,273.305,0,0,1,937,502.928c4.649,27.719,11.653,69.269-8.063,109.523A126.087,126.087,0,0,1,910.1,640.524a76.627,76.627,0,0,0,36.488-.412,77.765,77.765,0,0,0,36.135-21.128c3.825-21.893,6.886-40.667,9.24-55.321,4.061-25.777,5-33.6,4.591-44.61-.471-14.124-1.118-28.955-9.593-44.963A81.416,81.416,0,0,0,960.418,444.9a67.676,67.676,0,0,0-22.3,8.063A74.505,74.505,0,0,0,926.637,461.437Z" transform="translate(-885.543 -443.841)" fill="#6c6d6d" opacity="0.19"/>
        <path id="Path_1870" data-name="Path 1870" d="M1003.163,520.7c-1.059.059,1.177,16.361-2.3,38.842-6.415,41.608-27.013,70.446-34.958,80.686a175.5,175.5,0,0,1-32.31,31.9,62.942,62.942,0,0,0,21.128-.412c19.833-3.708,32.427-15.89,37.253-21.128,1.236-7.18,3.237-18.421,5.768-32.31,5.944-32.486,7.121-36.37,8.063-46.493C1008.4,544.182,1004.4,520.7,1003.163,520.7Z" transform="translate(-895.212 -475.031)" fill="#6c6d6d" opacity="0.18"/>
      </g>
      <g id="hand_l" transform="translate(512.52 341.43)">
        <path id="Path_1871" data-name="Path 1871" d="M731.907,591.4c-1.118-.765-3.355-2.177-3.119-3.355.471-1.883,7.239-2.177,12.123-1.354,3.3.53,9.3,2.236,15.6,8.18C749.445,595.877,739.264,596.172,731.907,591.4Z" transform="translate(-712.005 -534.531)" fill="#fff" stroke="#191919" stroke-miterlimit="10" stroke-width="2"/>
        <path id="Path_1872" data-name="Path 1872" d="M886.323,498.855c-11.829-3.472-25.659,12.477-26.9,14.007-4.708,5.591-5.826,9.593-10.24,20.422-10.711,26.483-16.3,39.843-26.9,46.787a41.079,41.079,0,0,1-22.069,6.474c-11.123-.059-20.3-5.591-38.195-16.655-15.066-9.357-16.6-12.182-25.306-14.536-4.414-1.177-17.361-4.708-27.425,2.177-6.415,4.355-10.358,12.477-8.592,14.536,2.236,2.648,14.242-3.59,14.3-3.355a24.771,24.771,0,0,0-6.65,3.943c-1.589,1.354-4.414,4.3-3.767,5.355,1.177,2,11.888-7.18,21.422-3.767,6.474,2.3,6.827,8.475,14.419,10.888a19.955,19.955,0,0,0,11.417-.118,83.118,83.118,0,0,0,19.362,20.422c5.709,4.237,25.836,18.833,53.791,16.655,29.661-2.3,47.67-21.893,53.261-27.955,3.237-3.472,26.719-29.779,23.129-64.031C900.86,524.515,898.565,502.5,886.323,498.855Z" transform="translate(-700.282 -498.362)" fill="#fff" stroke="#191919" stroke-miterlimit="10" stroke-width="2"/>
        <path id="Path_1873" data-name="Path 1873" d="M886.1,499.131c-4.473,1.471,1.118,17.42-3.413,38.313-4.3,20.068-15.6,33.6-20.716,39.784-6.886,8.3-15.89,19.127-31.25,24.659-20.6,7.415-43.727,2.177-59.2-7.533-4.59-2.943-8.475-10.534-18.774-16.479a72.31,72.31,0,0,0-12.359-5.473c-10.358-3.767-19.657-7.18-29.132-4.178-4.532,1.412-8.592,4.12-8.357,4.59.235.53,5.473-1.177,10.181-2.766-6.3,5.944-7.474,7.768-7.18,8.239.353.471,2.236-.765,6.65-2.3,4.826-1.707,8.18-2.825,12.065-1.883a14.555,14.555,0,0,1,4.237,1.883c3.237,2,3.767,3.943,6.945,6.238a19.169,19.169,0,0,0,4.649,2.472,21.521,21.521,0,0,0,11.888.942c4,5.767,22.54,31.309,55.085,36.017a76.89,76.89,0,0,0,35.252-3.413c28.72-9.3,43.256-31.545,47.023-37.724,11.653-19.068,19.6-48.847,7.592-70.269C894.456,504.9,889.159,498.13,886.1,499.131Z" transform="translate(-701.353 -498.637)" fill="#6c6d6d" opacity="0.25"/>
        <g id="Group_2412" data-name="Group 2412" transform="translate(0.354 65.554)">
          <g id="Group_2411" data-name="Group 2411">
            <path id="Path_1874" data-name="Path 1874" d="M702.011,618.077a26.912,26.912,0,0,1,11.005-7,.671.671,0,0,0-.353-1.295,29.353,29.353,0,0,0-11.594,7.357c-.589.647.353,1.589.942.942Z" transform="translate(-700.883 -609.75)" fill="#191919"/>
          </g>
        </g>
        <g id="Group_2414" data-name="Group 2414" transform="translate(2.499 58.61)">
          <g id="Group_2413" data-name="Group 2413">
            <path id="Path_1875" data-name="Path 1875" d="M705.63,605.337c3.119-3.472,7.474-4.826,11.829-6.062a.672.672,0,0,0-.353-1.295c-4.532,1.354-9.122,2.825-12.359,6.415a.645.645,0,1,0,.883.942Z" transform="translate(-704.529 -597.952)" fill="#191919"/>
          </g>
        </g>
        <path id="Path_1876" data-name="Path 1876" d="M966.438,542.2a229.2,229.2,0,0,1-10,25.189c-9.475,20.186-18.009,38.371-34.664,51.26-20.539,15.89-45.139,17.244-58.97,16.6a64.3,64.3,0,0,0,22.893,4.885c38.96.824,66.267-36.076,74.742-52.672a66.35,66.35,0,0,0,6-45.257Z" transform="translate(-767.155 -516.401)" fill="#6c6d6d" opacity="0.29"/>
        <path id="Path_1877" data-name="Path 1877" d="M746.4,626.3a57.883,57.883,0,0,0,26.307,10c-9.475,3.119-13.889,1.883-16.184,0-1.412-1.177-2.884-3.355-7.3-7.415C748.107,627.771,747.106,626.888,746.4,626.3Z" transform="translate(-719.259 -551.006)" fill="#6c6d6d" opacity="0.26"/>
      </g>
      <g id="head" transform="translate(564.806 195.582)">
        <path id="Path_1878" data-name="Path 1878" d="M857.82,283.89c-.647,3.767-1.295,7.533-1.824,11.476a327.668,327.668,0,0,0-3.3,45.2c3.237-.353,6.415-.706,9.652-1A39.763,39.763,0,0,0,868.3,365.4,39.216,39.216,0,0,0,888.129,381c-.353,5.767-.647,11.476-1,17.244A137.788,137.788,0,0,1,913.141,380a132.435,132.435,0,0,1,23.129-9.769A59.27,59.27,0,0,1,924.558,346.8c-2.119-8.828-1.707-16.42-1.295-23.129a107.087,107.087,0,0,1,2.3-16.6c2.766-12.594-4.473-32.545-18.891-39.725C892.425,260.232,871.179,266.235,857.82,283.89Z" transform="translate(-815.285 -256.253)" fill="#fff" stroke="#161616" stroke-miterlimit="10" stroke-width="2"/>
        <g id="Group_2416" data-name="Group 2416" transform="translate(45.179 82.249)">
          <g id="Group_2415" data-name="Group 2415">
            <path id="Path_1879" data-name="Path 1879" d="M866.427,391.769c1.648-.235,3.355-.412,5-.589.589-.059.589-.942,0-.883-1.766.177-3.472.412-5.238.647-.53,0-.294.883.235.824Z" transform="translate(-865.893 -390.295)" fill="#161616"/>
          </g>
        </g>
        <path id="Path_1880" data-name="Path 1880" d="M916.388,312.691c-7.121,1.824-8.416,8-17.42,20.892-9.122,13.065-14.89,21.246-25.189,26.013-6.65,3.06-9.946,2.236-12.889,6.179-5.061,6.827-1.648,18.068,1.354,23.835,3.472,6.65,8.769,10.652,13.124,13.948a59.52,59.52,0,0,0,10.711,6.415c-2.884-4.414-3.06-5.767-2.707-6.179.942-.942,4.944,4.12,9.652,3.472,1.354-.177,3.767-.942,9.122-9.357,3.649-5.709,6.121-9.652,7.768-15.3,3.59-12.124-1.471-15.419,0-31.368.235-2.413,1.883-21.3,8.592-22.54,2.413-.471,4.885,1.53,6.062,3.06,2.472,3.237,2.177,8.416-.883,12.889,1-.706,10.593-7.18,10.476-17.714,0-1.648-.059-7.71-4.649-11.653C924.274,310.808,916.977,312.574,916.388,312.691Z" transform="translate(-817.59 -275.932)" fill="#161616" stroke="#161616" stroke-miterlimit="10" stroke-width="2"/>
        <ellipse id="Ellipse_100" data-name="Ellipse 100" cx="2.472" cy="4.414" rx="2.472" ry="4.414" transform="translate(48.891 54.709)" fill="#161616"/>
        <ellipse id="Ellipse_101" data-name="Ellipse 101" cx="2.472" cy="4.414" rx="2.472" ry="4.414" transform="translate(30.059 56.769)" fill="#161616"/>
        <g id="Group_2418" data-name="Group 2418" transform="translate(27.346 50.757)">
          <g id="Group_2417" data-name="Group 2417">
            <path id="Path_1881" data-name="Path 1881" d="M837.068,339.972a3.827,3.827,0,0,1,5.826-.235c.824.824,2.06-.471,1.236-1.236a5.683,5.683,0,0,0-8.357.235c-.647.883.589,2.119,1.295,1.236Z" transform="translate(-835.591 -336.785)" fill="#161616"/>
          </g>
        </g>
        <g id="Group_2420" data-name="Group 2420" transform="translate(46.56 48.023)">
          <g id="Group_2419" data-name="Group 2419">
            <path id="Path_1882" data-name="Path 1882" d="M869.805,335a4.593,4.593,0,0,1,6.533.471c.765.824,2-.412,1.236-1.236a6.472,6.472,0,0,0-9.063-.471c-.824.706.412,1.942,1.295,1.236Z" transform="translate(-868.239 -332.139)" fill="#161616"/>
          </g>
        </g>
        <path id="Path_1883" data-name="Path 1883" d="M858,285.18a48.216,48.216,0,0,1,6.827-18.362c1.589-2.531,5-7.886,10.417-11.535,10.358-6.886,26.307-6.356,37.9,2.119,11.358,8.3,17.008,23.129,14.536,37.842Q892.811,290.3,858,285.18Z" transform="translate(-817.466 -250.54)" fill="#494949"/>
        <g id="Group_2422" data-name="Group 2422" transform="translate(0 29.844)">
          <g id="Group_2421" data-name="Group 2421">
            <path id="Path_1884" data-name="Path 1884" d="M791.641,306.576q53.585,6.886,107.228,13.712c3.355.412,3.355-4.885,0-5.3q-53.585-6.886-107.228-13.712c-3.355-.471-3.355,4.826,0,5.3Z" transform="translate(-789.125 -301.25)" fill="#161616"/>
          </g>
        </g>
        <path id="Path_1885" data-name="Path 1885" d="M909.4,250.99a21.61,21.61,0,0,1,8.475,38.783c10.181,1.354,20.422,2.766,30.6,4.12a36.1,36.1,0,0,0,.353-11.653,37.4,37.4,0,0,0-10.181-20.716c-2.3-2.354-10.417-10.24-22.481-10.946A31.61,31.61,0,0,0,909.4,250.99Z" transform="translate(-838.616 -250.543)" fill="#333"/>
      </g>
    </g>
  </g>
</svg>
