<svg xmlns="http://www.w3.org/2000/svg" width="136" height="136.016" viewBox="0 0 136 136.016"><path d="M45.747,60.257a6.385,6.385,0,0,0-7.492,6.323V79.97a6.384,6.384,0,0,0,4.437,5.845A12.752,12.752,0,1,1,25.5,97.769V31.884a6.361,6.361,0,0,0-6.376-6.376H6.376A6.361,6.361,0,0,0,0,31.884V97.769A38.264,38.264,0,1,0,45.747,60.257ZM55.524,0a4.276,4.276,0,0,0-4.516,4.251V12.65a4.207,4.207,0,0,0,3.985,4.224c34.377,1.86,62.006,29.754,64,64.158a4.244,4.244,0,0,0,4.224,3.985h8.528a4.276,4.276,0,0,0,4.251-4.516A85.217,85.217,0,0,0,55.524,0Zm.08,25.5a4.286,4.286,0,0,0-4.6,4.277v8.528a4.236,4.236,0,0,0,3.932,4.224A42.433,42.433,0,0,1,93.434,81.112a4.269,4.269,0,0,0,4.224,3.905h8.554a4.3,4.3,0,0,0,4.277-4.6A59.773,59.773,0,0,0,55.6,25.509Z" transform="translate(0 0.002)" fill="#6d9773"/></svg>