<svg xmlns="http://www.w3.org/2000/svg" width="34.492" height="34.492" viewBox="0 0 34.492 34.492"><g transform="translate(-3.375 -3.375)"><path d="M34.27,25.977a2.009,2.009,0,0,1,.274-1.012,2.793,2.793,0,0,1,.174-.257,13.435,13.435,0,0,0,2.288-7.487c.025-7.645-6.426-13.847-14.4-13.847A14.3,14.3,0,0,0,8.484,14.394a13.324,13.324,0,0,0-.307,2.836A14.065,14.065,0,0,0,22.356,31.251a17.076,17.076,0,0,0,3.914-.638c.937-.257,1.866-.6,2.106-.688a2.192,2.192,0,0,1,.771-.141,2.156,2.156,0,0,1,.837.166l4.7,1.667a1.121,1.121,0,0,0,.323.083.66.66,0,0,0,.663-.663,1.065,1.065,0,0,0-.041-.224Z" transform="translate(0.861)" fill="#f7f7e8"/><path d="M25.8,30.231c-.3.083-.68.174-1.094.265a15.3,15.3,0,0,1-2.819.373A14.065,14.065,0,0,1,7.711,16.849a15.676,15.676,0,0,1,.124-1.774c.05-.357.108-.713.191-1.061.083-.373.182-.746.29-1.111l-.663.589a12.339,12.339,0,0,0-4.278,9.278,12.2,12.2,0,0,0,2.056,6.8c.191.29.3.514.265.663s-.987,5.141-.987,5.141a.665.665,0,0,0,.224.638.675.675,0,0,0,.423.149.6.6,0,0,0,.24-.05l4.651-1.832a1.3,1.3,0,0,1,.995.017,13.955,13.955,0,0,0,5.033.995,13.022,13.022,0,0,0,9.958-4.569s.265-.365.572-.8C26.5,30.032,26.151,30.14,25.8,30.231Z" transform="translate(0 1.707)" fill="#f7f7e8"/></g></svg>