<svg xmlns="http://www.w3.org/2000/svg" width="772" height="772" viewBox="0 0 772 772"><g transform="translate(-968 -2421)"><circle cx="386" cy="386" r="386" transform="translate(968 2421)" fill="#f7f7e8"/><g transform="translate(994 2476.5)"><g transform="translate(0)"><circle cx="9.461" cy="9.461" r="9.461" transform="translate(505.642 119.331)" fill="#6d9773"/><circle cx="4.411" cy="4.411" r="4.411" transform="translate(520.733 103.196)" fill="#6d9773"/><circle cx="4.527" cy="4.527" r="4.527" transform="translate(231.402 45.562)" fill="#6d9773"/><circle cx="7.661" cy="7.661" r="7.661" transform="translate(524.505 569.143)" fill="#6d9773"/><circle cx="3.54" cy="3.54" r="3.54" transform="translate(179.978 603.619)" fill="#6d9773"/><circle cx="3.657" cy="3.657" r="3.657" transform="translate(224.089 341.857)" fill="#6d9773"/><circle cx="3.54" cy="3.54" r="3.54" transform="translate(231.402 360.72)" fill="#6d9773"/><circle cx="6.617" cy="6.617" r="6.617" transform="translate(224.089 453.237)" fill="#6d9773"/><circle cx="4.179" cy="4.179" r="4.179" transform="translate(505.642 82.069)" fill="#6d9773"/><circle cx="3.657" cy="3.657" r="3.657" transform="translate(347.192 90.427)" fill="#6d9773"/><circle cx="2.786" cy="2.786" r="2.786" transform="translate(22.051 378.191)" fill="#6d9773"/><circle cx="6.965" cy="6.965" r="6.965" transform="translate(515.509 589.689)" fill="#6d9773"/><circle cx="3.657" cy="3.657" r="3.657" transform="translate(593.399)" fill="#6d9773"/><g transform="translate(239.652 138.024)"><path d="M560.554,327.21c-.58-3.6-1.1-10.8,4.643-10.215,2.089.232,3.25,2.089,5.572,1.277,4.353-1.509,3.366-7.139,5.166-10.389,2.96-5.224,8.706,2.38,13.117-.116,1.451-.813,1.8-2.322,1.741-3.889-.116-5.862,5.049-5.456,9.286-4.295a.873.873,0,0,0,.464-1.683c-4.295-1.161-11.434-1.567-11.608,4.643-.058,1.509.755,3.018-1.451,3.947a4.566,4.566,0,0,1-2.5-.232c-1.509-.464-2.844-1.509-4.411-1.915a4.967,4.967,0,0,0-5.4,1.451c-1.741,2.089-1.683,4.933-2.5,7.371-.871,2.612-2.554,4.121-5.4,2.844a6.262,6.262,0,0,0-3.54-.813c-5.978.813-5.688,8.068-4.933,12.479.232,1.1,1.915.638,1.741-.464Z" transform="translate(-558.415 -297.207)" fill="#6d9773"/></g><g transform="translate(246.887 145.673)"><path d="M572.632,336.106c.464-3.6,3.366-5.166,6.733-5.166,1.8,0,3.6.29,5.34-.348,3.947-1.509,3.192-5.8,4.121-9.17,1.741-6.384,9.809-2.438,14.278-3.482,3.018-.755,5.572-3.773,4.295-6.965-.406-1.045-2.089-.58-1.683.464,1.973,4.817-4.759,5.108-7.6,4.759a17.182,17.182,0,0,0-6.21-.058c-3.308.871-4.585,3.308-5.049,6.442-.406,2.9-.348,6.094-4.121,6.559-2.031.232-4.063-.348-6.094.116a7.612,7.612,0,0,0-5.746,6.733c-.174,1.219,1.567,1.219,1.741.116Z" transform="translate(-570.879 -310.385)" fill="#6d9773"/></g><g transform="translate(365.111 28.553)"><path d="M778.013,108.888c-2.031,2.554-4.179,5.688-3.192,9.112.813,2.786,3.018,3.831,5.688,3.657,1.567-.116,3.192-.522,4.469.871.987,1.045.348,3.25.058,4.411-.464,1.8-1.335,3.54-1.161,5.456.29,2.612,2.38,4.643,5.05,4.063,1.1-.232.638-1.915-.464-1.683-5.049,1.161-1.567-7.255-1.335-9.286a5.668,5.668,0,0,0-1.393-4.759c-1.277-1.219-2.844-1.1-4.469-.929-2.554.29-4.933-.522-5.049-3.6-.058-2.322,1.567-4.411,2.96-6.152.813-.755-.464-2.031-1.161-1.161Z" transform="translate(-774.574 -108.596)" fill="#6d9773"/></g><g transform="translate(378.322 27.904)"><path d="M801.261,107.549a5.909,5.909,0,0,0-1.451,10.389c1.393,1.045,3.018.813,4.411,1.683,2.612,1.567.522,4.643.638,7.081a3.69,3.69,0,0,0,1.393,3.076,2.814,2.814,0,0,0,4.527-1.161c.348-1.045-1.335-1.509-1.683-.464-2.206-.29-2.96-1.277-2.322-2.96l.348-1.741a8.858,8.858,0,0,0,.174-1.741,4.543,4.543,0,0,0-1.277-3.366c-1.393-1.277-3.54-.755-5.05-1.8C797.9,114.4,799,110.335,802.132,109c1.045-.406.116-1.857-.871-1.451Z" transform="translate(-797.335 -107.478)" fill="#6d9773"/></g><g transform="translate(0 337.628)"><path d="M148.231,674.537a6.258,6.258,0,0,1,0-6.791c1.335-2.089,3.192-2.147,5.34-2.96,2.96-1.219,3.018-4.295,2.844-7.081a8.828,8.828,0,0,1,.174-3.018c.755-2.322,2.728-1.683,4.527-1.393a3.917,3.917,0,0,0,2.9-.58,5.967,5.967,0,0,0,2.147-3.366c.29-1.045.348-2.147.58-3.192a6.339,6.339,0,0,1,.7-2.089c.929-1.451,2.031-1.567,3.366-.29a.873.873,0,0,0,1.683-.464c-1.045-3.773-5.688-2.089-6.849.58a21.547,21.547,0,0,0-.871,3.831,7.869,7.869,0,0,1-.7,2.264c-.871,1.567-2.5,1.277-4,1.1-1.8-.174-3.192-.348-4.353,1.335-1.335,1.915-.987,4.179-.987,6.385.058,2.67-.522,3.714-3.134,4.585a8.794,8.794,0,0,0-2.844,1.219,8.085,8.085,0,0,0-2.031,10.737c.58.987,2.089.116,1.509-.812Z" transform="translate(-145.508 -641.114)" fill="#6d9773"/></g><g transform="translate(6.722 346.447)"><path d="M160.346,684.917c-2.438-.348-1.509-3.018-.406-4.063a12.429,12.429,0,0,1,2.96-1.741,10.653,10.653,0,0,0,3.482-2.5c2.5-3.134-1.1-7.313,2.38-9.809,3.482-2.438,12.827-3.54,10.1-10.041-.406-1.045-1.915-.116-1.509.871,1.973,4.7-7.6,6.094-10.041,8.068a5.837,5.837,0,0,0-1.973,2.728c-.7,2.438,1.335,4.933-.464,7.255-2.089,2.554-6.559,2.554-7.6,6.152a3.68,3.68,0,0,0,2.67,4.817c1.045.116,1.509-1.567.406-1.741Z" transform="translate(-157.09 -656.308)" fill="#6d9773"/></g><g transform="translate(643.959 214.548)"><path d="M1257.268,454.676a3.809,3.809,0,0,1,.174-4.063c1.277-1.857,2.786-1.451,4.759-1.277,1.335.116,2.554.406,3.831-.348,2.264-1.393,1.915-4.3,2.322-6.5.929-5.166,5.4-.464,8.416-2.089a3.741,3.741,0,0,0,1.741-2.844c.406-2.264.522-9,4.875-6.268.929.58,1.857-.929.871-1.509-3.889-2.38-7.023,1.567-7.371,5.224-.232,2.089,0,4.121-2.786,3.831-.987-.116-1.973-.638-2.96-.754a3.725,3.725,0,0,0-3.831,1.683c-.987,1.625-.638,3.657-1.045,5.4-.871,3.947-4.237,1.741-6.965,2.206-3.656.638-5.34,5.05-3.6,8.126a.883.883,0,0,0,1.567-.813Z" transform="translate(-1255.011 -429.053)" fill="#6d9773"/></g><g transform="translate(652.96 222.286)"><path d="M1272.424,463.927c-.987-2.67,2.089-5.63,4.759-4.237a.864.864,0,0,0,1.045-.116c1.335-1.451,1.683-3.134,2.264-4.991,1.045-3.366,3.541-3.831,6.559-4.759,2.96-.929,6.268-3.366,5.049-6.849-.406-1.045-2.089-.58-1.683.464,1.683,4.585-6.559,4.933-9,6.617-2.96,2.089-2.089,5.862-4.353,8.3a6.388,6.388,0,0,1,1.045-.116c-3.889-2.031-8.822,1.973-7.313,6.21.348.987,2.031.58,1.625-.522Z" transform="translate(-1270.52 -442.385)" fill="#6d9773"/></g><g transform="translate(419.357 257.238)"><path d="M869.117,504.4c.116,0,1.393,3.134,1.915,3.54a3.38,3.38,0,0,0,2.786.522c1.741-.29,2.844-1.567,4.353-2.38,3.25-1.857,3.25,1.335,4.527,3.134,1.451,2.147,3.018,1.1,4.7.058,1.1-.7,2.147-1.161,3.134-.174a12.02,12.02,0,0,1,1.277,2.031,5.667,5.667,0,0,0,2.38,2.147c.987.464,1.915-1.045.871-1.509-2.38-1.045-2.67-4.991-5.514-5.4-1.335-.174-1.915.58-2.96,1.161-1.277.755-2.031,1.277-2.844-.174-.348-.58-.406-1.393-.813-1.973-1.857-3.076-4.759-1.393-7.081.116a9.543,9.543,0,0,1-1.277.813c-.987-.29-2.031-.58-3.018-.871-.406-.406-.406-1.393-.755-1.915a1.83,1.83,0,0,0-2.089-.871c-1.161.232-.7,1.915.406,1.741Z" transform="translate(-868.035 -502.606)" fill="#6d9773"/></g><g transform="translate(432.448 251.096)"><path d="M892.221,494.389c1.741-2.728,5.746,2.96,7.371,3.657a4.32,4.32,0,0,0,2.96.116,8.4,8.4,0,0,0,1.277-.522,3.774,3.774,0,0,1,4.179.871c1.857,1.567,2.38,3.657,5.049,4.237a3.057,3.057,0,0,0,3.715-1.625c.464-.987-1.045-1.915-1.509-.871-1.625,3.482-6.094-3.366-7.255-4.121-2.148-1.393-3.482-.232-5.63.232-3.424.7-4.527-3.134-7.371-4.063-1.683-.58-3.308-.29-4.237,1.277-.7.929.813,1.8,1.451.813Z" transform="translate(-890.591 -492.023)" fill="#6d9773"/></g></g><g transform="translate(5.553 31.357)"><g transform="translate(644.595 321.818)"><path d="M1266.5,669.641h92.516a.872.872,0,0,0,0-1.741H1266.5a.872.872,0,0,0,0,1.741Z" transform="translate(-1265.675 -667.9)" fill="#6d9773"/></g><g transform="translate(670.67 322.326)"><path d="M1310.6,669.6v26.931a.872.872,0,0,0,1.741,0V669.6a.872.872,0,0,0-1.741,0Z" transform="translate(-1310.6 -668.775)" fill="#6d9773"/></g><g transform="translate(711.995 283.845)"><path d="M1383.541,640.912V603.3a.872.872,0,0,0-1.741,0v37.61a.871.871,0,0,0,1.741,0Z" transform="translate(-1381.8 -602.475)" fill="#6d9773"/></g><g transform="translate(692.421 283.627)"><path d="M1348.9,603.841h35a.872.872,0,0,0,0-1.741h-35a.872.872,0,0,0,0,1.741Z" transform="translate(-1348.075 -602.1)" fill="#6d9773"/></g><g transform="translate(670.322 75.538)"><path d="M1310,244.4v32.5a.872.872,0,0,0,1.741,0V244.4a.872.872,0,0,0-1.741,0Z" transform="translate(-1310 -243.575)" fill="#6d9773"/></g><g transform="translate(642.346 109.623)"><path d="M1262.671,304.041h62.8a.872.872,0,0,0,0-1.741h-62.8a.871.871,0,1,0,0,1.741Z" transform="translate(-1261.8 -302.3)" fill="#6d9773"/></g><g transform="translate(705.436 110.305)"><path d="M1370.5,304.3v21.591a.872.872,0,0,0,1.741,0V304.3a.872.872,0,0,0-1.741,0Z" transform="translate(-1370.5 -303.475)" fill="#6d9773"/></g><g transform="translate(121.689 40.787)"><path d="M365.586,185.441h61.523a.872.872,0,0,0,0-1.741H365.586a.871.871,0,0,0,0,1.741Z" transform="translate(-364.737 -183.7)" fill="#6d9773"/></g><g transform="translate(181.507 41.483)"><path d="M467.8,185.771v16.716a.872.872,0,0,0,1.741,0V185.771a.871.871,0,0,0-1.741,0Z" transform="translate(-467.8 -184.9)" fill="#6d9773"/></g><g transform="translate(161.134 13.377)"><path d="M434.441,164.059V137.3a.872.872,0,0,0-1.741,0v26.757a.871.871,0,0,0,1.741,0Z" transform="translate(-432.7 -136.475)" fill="#6d9773"/></g><g transform="translate(0 219.667)"><path d="M155.9,493.641h42.485a.872.872,0,0,0,0-1.741H155.9a.872.872,0,0,0,0,1.741Z" transform="translate(-155.075 -491.9)" fill="#6d9773"/></g><g transform="translate(26.771 203.111)"><path d="M201.2,464.2v15.671a.872.872,0,0,0,1.741,0V464.2a.872.872,0,0,0-1.741,0Z" transform="translate(-201.2 -463.375)" fill="#6d9773"/></g><g transform="translate(15.685 203.067)"><path d="M182.971,465.041h22.636a.872.872,0,0,0,0-1.741H182.971a.871.871,0,1,0,0,1.741Z" transform="translate(-182.1 -463.3)" fill="#6d9773"/></g><g transform="translate(271.295 569.011)"><g transform="translate(0)"><path d="M623.371,1095.541h56.763a.872.872,0,0,0,0-1.741H623.371a.871.871,0,0,0,0,1.741Z" transform="translate(-622.5 -1093.8)" fill="#6d9773"/></g></g><g transform="translate(305.364 555.938)"><g transform="translate(0)"><path d="M682.941,1084.349V1072.1a.872.872,0,0,0-1.741,0v12.246a.871.871,0,0,0,1.741,0Z" transform="translate(-681.2 -1071.275)" fill="#6d9773"/></g></g><g transform="translate(300.997 555.082)"><g transform="translate(0)"><path d="M674.5,1071.541h23.564a.872.872,0,0,0,0-1.741H674.5a.872.872,0,0,0,0,1.741Z" transform="translate(-673.675 -1069.8)" fill="#6d9773"/></g></g><g transform="translate(1.335 538.482)"><path d="M158.2,1042.941h56.763a.872.872,0,0,0,0-1.741H158.2a.872.872,0,0,0,0,1.741Z" transform="translate(-157.375 -1041.2)" fill="#6d9773"/></g><g transform="translate(28.396 516.645)"><path d="M204,1004.4v20.082a.872.872,0,0,0,1.741,0V1004.4a.872.872,0,0,0-1.741,0Z" transform="translate(-204 -1003.575)" fill="#6d9773"/></g><g transform="translate(4.875 514.86)"><path d="M187,1000.5H164.3a.872.872,0,0,0,0,1.741H187a.872.872,0,0,0,0-1.741Z" transform="translate(-163.475 -1000.5)" fill="#6d9773"/></g><g transform="translate(630.147 462.704)"><path d="M1243.753,937.082c-1.915-1.915-1.451-5.63,1.509-6.268,1.567-.348,3.076.638,4.585.813a3.042,3.042,0,0,0,3.134-.987c1.161-1.509.232-3.25.174-4.933-.116-5.282,6.152-4.933,9.286-3.076a.881.881,0,0,0,1.277-.987,7.637,7.637,0,0,1,12.479-7.429c.871.7,2.089-.522,1.219-1.219a9.4,9.4,0,0,0-15.381,9.17c.406-.348.871-.638,1.277-.987-2.67-1.625-6.094-2.438-8.938-.638a6,6,0,0,0-2.437,2.786,5.085,5.085,0,0,0-.464,2.438c.058,1.567.581,1.451-.58,2.96-1.277,1.683-1.393.929-3.192.522a5.4,5.4,0,0,0-5.63,1.567,5.377,5.377,0,0,0,.522,7.487c.755.813,1.974-.406,1.161-1.219Z" transform="translate(-1240.782 -910.638)" fill="#6d9773"/></g><g transform="translate(642.721 473.656)"><path d="M1264.16,946.742c-.638-5.282,8.01-5.34,10.447-9a14.71,14.71,0,0,0,1.277-2.96,5.745,5.745,0,0,1,4.063-3.482c3.192-.812,6.5.638,9.4,1.857,1.045.406,1.509-1.277.464-1.683-5.34-2.206-12.537-3.889-15.5,2.612-1.045,2.322-1.393,3.6-3.831,4.817-1.451.7-2.96,1.1-4.353,1.915-2.206,1.277-3.947,3.25-3.656,5.92.116,1.1,1.857,1.1,1.683,0Z" transform="translate(-1262.445 -929.509)" fill="#6d9773"/></g><g transform="translate(392.827 321.08)"><path d="M833.87,667.657c1.161,2.9,2.322,5.862,3.482,8.764.116-.348.29-.638.406-.987-.638.406-1.277.813-1.915,1.277-.987-2.322-.58-2.9,1.277-1.857a5.177,5.177,0,0,1,1.857,3.424,16.5,16.5,0,0,1-.987,8.358.849.849,0,0,0,1.045,1.045c3.482-.7,4.875,3.482,4.179,6.094a20.374,20.374,0,0,1-2.612,5.282c-.58.929.929,1.8,1.509.871,1.857-2.9,4-6.5,2.728-10.1A5.564,5.564,0,0,0,838.572,686l1.045,1.045c1.161-3.366,1.915-7.6.464-11.028-.987-2.264-3.25-4-5.8-3.25a3.114,3.114,0,0,0-2.031,4.469c1.567,3.192,4.295,1.045,6.326-.29a.942.942,0,0,0,.406-.987c-1.161-2.9-2.322-5.862-3.482-8.764-.348-.987-2.031-.58-1.625.464Z" transform="translate(-831.893 -666.629)" fill="#6d9773"/></g><g transform="translate(49.666 42.579)"><path d="M242.535,191.728c-1.1-2.786,2.612-3.54,4.353-2.554a9.7,9.7,0,0,1,3.018,3.308,14.5,14.5,0,0,1,1.973,3.6,3.452,3.452,0,0,1-.174,3.192c-2.031.929-3.076.7-3.134-.638-.522-1.915,1.509-3.192,3.25-3.134a7.11,7.11,0,0,1,4.7,2.38,10.029,10.029,0,0,1,2.554,8.068c.522-.174,1.1-.29,1.625-.464-1.161-1.683-.058-3.482,1.509-4.353a4.329,4.329,0,0,1,4.121.174c2.089,1.1,3.54,3.134,4.875,4.991.638.929,2.147.058,1.509-.871-2.206-3.076-5.514-7.371-9.867-6.384-3.192.7-5.746,4.411-3.657,7.313a.883.883,0,0,0,1.625-.464c.522-5.514-3.54-13.059-10.041-12.13a4.36,4.36,0,0,0-4,4.353c0,1.857,1.161,3.773,3.134,3.889,2.322.174,3.889-2.089,4-4.179.174-2.9-2.089-6.036-3.831-8.184-1.625-1.915-4-3.54-6.559-2.554-2.089.755-3.482,2.844-2.612,4.991.348,1.161,2.031.7,1.625-.348Z" transform="translate(-240.646 -186.787)" fill="#6d9773"/></g><g transform="translate(354.42 126.597)"><g transform="translate(0 0)"><path d="M768.61,337.614c-2.438-1.451-.7-5.746,2.031-3.947,2.612,1.741-.871,4.7-2.554,2.67-.7-.871-1.915.348-1.219,1.219a3.835,3.835,0,0,0,5.4.174,3.426,3.426,0,0,0-.522-5.4,3.7,3.7,0,0,0-5.514,1.045,4.353,4.353,0,0,0,1.567,5.746c.871.522,1.741-.929.813-1.509Z" transform="translate(-765.72 -331.546)" fill="#6d9773"/></g></g><g transform="translate(539.959)"><path d="M1087.66,119.157c-1.277-1.8.929-4.527,2.96-3.715-.174-.116-.348-.29-.522-.406a3.031,3.031,0,0,1-2.67,4.411,9.931,9.931,0,0,1,.813.638c-.348-.987-.755-2.031-1.1-3.018-.406-1.045-2.089-.58-1.683.464.348.987.755,2.031,1.1,3.018a.807.807,0,0,0,.813.638,4.58,4.58,0,0,0,4.3-2.67c.638-1.277.987-3.947-.58-4.759-3.424-1.683-6.965,3.424-4.933,6.268.638.929,2.147.058,1.509-.871Z" transform="translate(-1085.392 -113.427)" fill="#6d9773"/></g><g transform="translate(587.635 87.164)"><path d="M1169.372,268.478a2.707,2.707,0,0,1,2.031-3.076,2.411,2.411,0,0,1,2.612,1.857c.755,2.612-2.67,3.831-4.3,2.031-.754-.813-1.973.406-1.219,1.219,3.018,3.366,8.822.058,6.965-4.237a4.065,4.065,0,0,0-4.875-2.5,4.483,4.483,0,0,0-2.96,5.166.9.9,0,0,0,1.741-.464Z" transform="translate(-1167.536 -263.605)" fill="#6d9773"/></g><g transform="translate(397.646 557.115)"><path d="M843.623,1088.624a2.941,2.941,0,0,1,0-5.224c1.973-1.1,3.831-.116,5.63.7,1.509.7,3.25,1.335,4.585,0,1.219-1.161.987-2.96,1.045-4.469.232-5.862,5.92-4.7,9.809-3.25,1.045.406,1.509-1.277.464-1.683-3.424-1.335-8.184-2.612-10.911.755a5.447,5.447,0,0,0-1.1,3.366c-.058.813.29,2.612-.174,3.366-1.277,1.916-3.018.174-4.353-.406-2.554-1.1-6.21-.813-7.777,1.857a4.581,4.581,0,0,0,1.857,6.443c1.045.522,1.915-.987.929-1.451Z" transform="translate(-840.196 -1073.303)" fill="#6d9773"/></g></g><g transform="translate(433.865 347.748)"><g transform="translate(0 118.417)"><path d="M893.884,863.4a254.779,254.779,0,0,0,2.786,63.728c.174,1.1,1.857.638,1.683-.464a253.812,253.812,0,0,1-2.728-63.264c.116-1.1-1.625-1.1-1.741,0Z" transform="translate(-893.033 -862.575)" fill="#6d9773"/></g><g transform="translate(1.407 118.833)"><path d="M896.062,865.038a127.9,127.9,0,0,0,27.917,6.268c8.938.929,19.211,1.915,27.8-1.451,1.045-.406.58-2.089-.464-1.683-8.358,3.308-18.515,2.322-27.337,1.393a123.779,123.779,0,0,1-27.453-6.21c-1.1-.406-1.509,1.277-.464,1.683Z" transform="translate(-895.457 -863.292)" fill="#6d9773"/></g><g transform="translate(0.35 2.456)"><path d="M909.112,783.284a65.326,65.326,0,0,1-7.255-15.032,71.957,71.957,0,0,1-2.031-7.719c-.29-1.567-.58-3.134-.755-4.7,0-.174-.638-4.295.58-3.715.58.29,1.567-.232,1.277-.987a72.277,72.277,0,0,1-5.107-25.247l-.871.871c.464.174.871.348,1.335.522.58.7,1.683-.058,1.451-.871a47.862,47.862,0,0,1-2.148-11.492c-.058-.929.116-11.376.755-11.2a.864.864,0,0,0,1.045-1.045,94.92,94.92,0,0,1-1.335-19.85,79.017,79.017,0,0,1,.929-9.809c.464-2.96.7-6.559,3.018-8.706l-1.393-.174c4.875,9.17,7.6,19.211,10.1,29.194q3.657,14.713,6.442,29.717a478.7,478.7,0,0,1,7.2,62.393c.058,1.1,1.8,1.1,1.741,0a477.013,477.013,0,0,0-7.255-62.858q-2.873-15.5-6.675-30.819c-2.5-9.809-5.224-19.56-10.041-28.556a.913.913,0,0,0-1.393-.174c-1.973,1.8-2.554,4.179-3.018,6.675a96.19,96.19,0,0,0-1.335,10.8,98.2,98.2,0,0,0,1.277,22.578l1.045-1.045c-3.366-.929-2.96,6.326-3.018,7.952a50.247,50.247,0,0,0,2.322,16.832c.464-.29.987-.58,1.451-.871a2.578,2.578,0,0,0-2.554-1.045.893.893,0,0,0-.871.871,73.828,73.828,0,0,0,5.166,25.712c.406-.348.871-.638,1.277-.987-5.8-2.786-2.438,10.331-1.973,12.3a67.519,67.519,0,0,0,9.054,21.243c.7,1.045,2.206.174,1.567-.755Z" transform="translate(-893.636 -662.782)" fill="#6d9773"/></g><g transform="translate(23.03)"><path d="M934.737,723.526a42.588,42.588,0,0,1-.174-11.2c.116-.929,2.322-11.84,3.424-11.376a.911.911,0,0,0,1.335-.755c.348-7.429,2.67-14.046,5.4-20.894,2.728-6.791,5.4-13.349,9.925-19.211h-1.219c3.308,3.773,2.9,9.519,3.076,14.22.232,5.282.406,10.563.464,15.845q.174,15.584-.522,31.168a516.186,516.186,0,0,1-6.965,63.38c-.174,1.1,1.509,1.567,1.683.464a525.507,525.507,0,0,0,7.139-66.108q.7-16.716.348-33.431c-.116-5.572-.232-11.144-.638-16.716-.232-3.656-.813-7.255-3.366-10.1a.842.842,0,0,0-1.219,0c-4.469,5.8-7.255,12.188-9.925,18.979-2.96,7.313-5.456,14.394-5.862,22.4.464-.232.871-.522,1.335-.755-3.54-1.567-4.7,5.978-5.166,8.01a43.776,43.776,0,0,0-.58,16.483c-.058,1.161,1.625.7,1.509-.406Z" transform="translate(-932.712 -658.55)" fill="#6d9773"/></g><g transform="translate(3.82 181.88)"><path d="M900.244,974.462a87.16,87.16,0,0,0,55.835-.813c1.045-.348.58-2.031-.464-1.683a85.9,85.9,0,0,1-54.906.813.873.873,0,0,0-.464,1.683Z" transform="translate(-899.614 -971.919)" fill="#6d9773"/></g><g transform="translate(57.498 123.989)"><path d="M992.1,873c.7,9.4,1.451,18.805,2.089,28.208.638,9.577.871,19.269-.7,28.788-.174,1.1,1.509,1.567,1.683.464,1.567-9.344,1.451-18.747.813-28.15-.638-9.751-1.393-19.56-2.148-29.31-.058-1.1-1.8-1.1-1.741,0Z" transform="translate(-992.098 -872.175)" fill="#6d9773"/></g></g></g><g transform="translate(1061.879 2634.29)"><path d="M458.4,981.44c11.84-6.326,23.738-12.653,35.579-18.979,5.572.929,13.233,2.148,22.4,3.424,18.341,2.554,47.883,6.675,85.261,7.777a608.234,608.234,0,0,0,76.091-2.322c25.712-2.438,41.267-5.746,53.977-9.17A285.141,285.141,0,0,0,759.571,953a128.054,128.054,0,0,1,18.4,7.777,118.82,118.82,0,0,1,10.331,6.036c-10.912,3.134-25.6,7.139-43.066,11.2-36.8,8.59-65.005,12.653-70.925,13.523-33.838,4.817-82.069,11.608-142.721,4.585A472.541,472.541,0,0,1,458.4,981.44Z" transform="translate(-344.675 -592.142)" fill="#fff"/><path d="M457.3,990.687c.29,2.438.638,4.817.929,7.255,4.353,1.219,10.737,2.96,18.631,4.7A347.38,347.38,0,0,0,527.3,1009.9c73.943,5.8,133.028.638,133.028.638,29.543-2.612,58.214-5.282,95.244-16.077,13.93-4.063,25.306-8.184,33.431-11.376l-1.915-8.184c-2.264.929-5.63,2.264-9.751,3.773-27.975,10.215-51.017,13.581-71.564,16.077-45.155,5.572-67.733,8.3-100.874,8.822A725.529,725.529,0,0,1,457.3,990.687Z" transform="translate(-344.214 -601.331)" fill="#6d9773"/><g transform="translate(112.68 389.588)"><path d="M456.6,1003.371v5.572a.872.872,0,0,0,1.741,0v-5.572a.871.871,0,1,0-1.741,0Z" transform="translate(-456.6 -1002.5)" fill="#161616"/></g><g transform="translate(112.688 381.052)"><path d="M457.244,1004.4c43.356,11.724,88.628,13.233,133.261,13.872,42.892.58,86.074-1.277,128.327-9.112a390.666,390.666,0,0,0,69.88-19.618c1.045-.406.58-2.089-.464-1.683-39.932,15.5-82.359,23.39-125.019,26.7-43.008,3.308-86.422,2.554-129.43-.058-25.712-1.625-51.192-4.991-76.091-11.724a.845.845,0,1,0-.464,1.625Z" transform="translate(-456.614 -987.792)" fill="#161616"/></g><g transform="translate(443.091 373.381)"><path d="M1027.574,982.773a31.344,31.344,0,0,0,.232-7.371c-.116-1.1-1.857-1.1-1.741,0a30.477,30.477,0,0,1-.174,6.907c-.174,1.045,1.509,1.567,1.683.464Z" transform="translate(-1025.878 -974.575)" fill="#161616"/></g><g transform="translate(112.731 369.917)"><path d="M458.03,988.976c12.188-5.8,24.145-12.014,35.869-18.747a.871.871,0,0,0-.871-1.509q-17.586,10.012-35.869,18.747c-1.045.464-.174,1.973.871,1.509Z" transform="translate(-456.688 -968.608)" fill="#161616"/></g><g transform="translate(148.847 360.306)"><path d="M519.544,962.468c69.242,13.175,141.212,15.613,211.034,5.63,18.573-2.67,37.03-6.791,54.21-14.452,1.045-.464.116-1.973-.871-1.509C768.479,958.985,752,962.99,735.338,965.6c-16.948,2.67-34.07,4.295-51.192,5.4a659.425,659.425,0,0,1-104.356-1.683c-20.082-1.915-39.99-4.817-59.781-8.532-1.1-.174-1.567,1.509-.464,1.683Z" transform="translate(-518.914 -952.049)" fill="#161616"/></g><g transform="translate(413.743 359.883)"><path d="M975.944,953.049a120.116,120.116,0,0,1,29.078,14.046c.929.638,1.8-.871.871-1.509a123.407,123.407,0,0,0-29.484-14.22.873.873,0,0,0-.464,1.683Z" transform="translate(-975.314 -951.319)" fill="#161616"/></g><g transform="translate(113.593 372.826)"><path d="M458.769,990.149c20.488,6.907,41.847,10.157,63.322,11.9,21.765,1.741,43.7,2.264,65.528,2.264,43.356,0,86.828-2.96,129.546-10.737a516.713,516.713,0,0,0,71.68-18.225c1.045-.348.58-2.031-.464-1.683-41.151,13.7-83.926,21.707-127.108,25.654a860.246,860.246,0,0,1-129.43,1.625c-24.609-1.509-49.276-4.585-72.724-12.479-.929-.348-1.393,1.335-.348,1.683Z" transform="translate(-458.173 -973.619)" fill="#161616"/></g><g transform="translate(146.525 35.229)"><path d="M516.008,414.619c70.925-16.425,143.94-20.024,216.49-20.72,20.546-.232,41.093-.174,61.639-.174a.872.872,0,0,0,0-1.741c-72.783-.116-145.913-.174-218.174,9.867-20.314,2.844-40.454,6.442-60.42,11.086a.873.873,0,0,0,.464,1.683Z" transform="translate(-514.914 -391.96)" fill="#161616"/></g><path d="M993.053,367.837c.755,26.989,1.219,58.272,1.045,93.039-.116,20.2-.29,10.563-2.089,94.606-1.045,48.406-1.335,66.63-4.759,94.606-2.206,18.225-4.875,33.2-6.849,43.356,14.974,4.179,29.252,8.126,41.789,11.608,19.385,5.4,24.551,6.849,32.27,7.951a128.771,128.771,0,0,0,43.356-1.567c6.21-50.843,9.635-94.2,11.608-127.4,7.081-116.661.464-170.406-2.089-189.269-3.482-25.422-7.777-46.316-11.086-60.768-12.421,2.38-22.52,4.933-29.6,6.849-24.319,6.675-43.588,14.51-59.723,21.127C1000.946,364.471,996.129,366.5,993.053,367.837Z" transform="translate(-563.705 -332.411)" fill="#fff"/><path d="M299.535,335.8c-.464,4.992-.987,11.144-1.451,16.483-9.635,109.87-14.452,164.834-16.019,200.181a1004.92,1004.92,0,0,0,6.326,161.41,12.638,12.638,0,0,0,3.889,4.875c2.728,2.031,5.224,1.973,10.157,3.366a67.4,67.4,0,0,1,7.777,2.9c5.34,2.089,17.3,4.469,32.5,3.889,21.823-.871,38.6-7.545,50.9-12.595a197.964,197.964,0,0,0,27.163-13.581c-3.6-32.328-6.268-66.456-7.777-102.267a1474.669,1474.669,0,0,1,6.326-208.423c-2.67-1.045-6.559-2.5-11.144-4.353-7.893-3.192-26.815-10.912-60.13-27.163C334.882,354.141,318.4,345.841,299.535,335.8Z" transform="translate(-270.317 -333.166)" fill="#fff"/><path d="M1179.4,333.6c.7,3.831,1.625,9.112,2.67,15.439,1.451,9,4.7,30.3,7.081,58.272,2.438,29.136,3.018,54.21,3.076,74.176.174,40.512-1.335,70.229-5.282,139.529-1.219,21.591-3.018,53.223-5.281,91.82,2.38-.174,4.7-.29,7.081-.464,1.161-9.635,2.728-23.971,3.947-41.5.929-12.653,1.335-21.881,1.741-31.806,2.031-45.5,2.38-44.981,3.076-63.554,1.393-36.623,1.1-64.773.871-90.078-.174-17.47-.7-34.012-1.741-67.095-.755-22.52-1.509-42.485-6.617-68.43-1.335-6.617-2.612-12.13-3.541-15.9C1184.1,333.89,1181.78,333.774,1179.4,333.6Z" transform="translate(-647.205 -332.243)" fill="#6d9773"/><path d="M283.635,337.6c-.406,2.031-1.045,5.166-1.683,9a206.749,206.749,0,0,0-2.5,22.171c-1.277,19.734-3.831,29.368-7.545,73.189-.7,8.01-1.219,15.032-2.264,29.136-2.147,28.788-3.192,43.182-3.947,59.433-.813,18.167-.929,30.994-1.1,56.647-.174,22.171-.29,38.191.29,59.143.464,16.716,1.393,39.409,3.657,66.456,4.7,1.393,9.345,2.786,14.046,4.179-.058-2.612-.232-7.313-.58-13.175-1.393-26.06-3.657-36.623-4.179-58.331-.174-6.675-.058-11.086,0-17.412.638-45.388-.116-66.108.29-95.592.7-48.115,3.947-85.725,6.733-117.764,2.612-30.3,5.572-56.241,8.126-76.555C289.787,337.948,286.711,337.774,283.635,337.6Z" transform="translate(-263.297 -333.922)" fill="#6d9773"/><g transform="translate(416.035 35.586)"><path d="M991.182,393.4c2.148,42.6,1.857,85.319,1.277,127.921-.638,41.673-.929,83.462-4.121,125.077a644.9,644.9,0,0,1-9.054,70.693c-.232,1.1,1.451,1.567,1.683.464,7.719-40.918,10.563-82.533,11.84-124.09q2-63.641,1.857-127.456c-.058-24.2-.464-48.406-1.683-72.608-.116-1.1-1.857-1.1-1.8,0Z" transform="translate(-979.262 -392.575)" fill="#161616"/></g><g transform="translate(428.798 0.464)"><path d="M1002.557,368.011a398.565,398.565,0,0,1,101.687-34.244c1.1-.232.638-1.915-.464-1.683A404.107,404.107,0,0,0,1001.686,366.5c-.986.522-.116,2.031.871,1.509Z" transform="translate(-1001.252 -332.062)" fill="#161616"/></g><g transform="translate(531.187 0.564)"><g transform="translate(0)"><path d="M1177.684,333.317c9.577,48.231,12.479,97.508,12.421,146.61-.116,49.1-3.018,98.088-5.4,147.132q-2.09,42.4-4.179,84.739c-.058,1.1,1.683,1.1,1.741,0,2.5-50.031,5.108-100.062,7.371-150.15,2.206-49.1,3.6-98.32.29-147.364a637.985,637.985,0,0,0-10.505-81.372.894.894,0,0,0-1.741.406Z" transform="translate(-1177.662 -332.235)" fill="#161616"/></g></g><g transform="translate(416.11 358.965)"><path d="M979.629,951.225c2.612,3.018,7.255,3.6,10.911,4.7,4.991,1.509,10.041,3.018,15.032,4.527,10.1,3.018,20.14,6.21,30.355,8.764a148.7,148.7,0,0,0,60.71,2.38c1.1-.174.638-1.857-.464-1.683a146.187,146.187,0,0,1-59.781-2.38c-9.345-2.264-18.515-5.166-27.685-7.951l-13.93-4.179-6.965-2.089c-2.438-.755-5.166-1.277-6.907-3.308a.883.883,0,0,0-1.277,1.219Z" transform="translate(-979.392 -949.738)" fill="#161616"/></g><g transform="translate(531.739)"><g transform="translate(0)"><path d="M1179.244,332.967c2.147.522,4.3,1.045,6.5,1.567a.873.873,0,0,0,.464-1.683c-2.147-.522-4.3-1.045-6.5-1.567-1.1-.232-1.567,1.451-.464,1.683Z" transform="translate(-1178.614 -331.262)" fill="#161616"/></g></g><g transform="translate(538.72 1.609)"><path d="M1190.676,335.117c5.8,23.448,7.371,47.941,9.054,72.028,1.741,24.609,2.67,49.276,3.076,74,.7,49.044-.987,98.088-3.773,147.074-1.567,27.743-3.54,55.487-5.572,83.23-.058,1.1,1.683,1.1,1.741,0,3.657-49.334,6.965-98.668,8.532-148.119,1.567-49.334,1.451-98.785-1.683-148.119-1.683-26.815-3.192-54.326-9.635-80.5a.894.894,0,0,0-1.741.406Z" transform="translate(-1190.642 -334.035)" fill="#161616"/></g><g transform="translate(534.154 378.671)"><path d="M1183.6,986.134c2.554-.232,5.05-.464,7.6-.7,1.1-.116,1.1-1.857,0-1.741-2.554.232-5.049.464-7.6.7-1.1.116-1.1,1.857,0,1.741Z" transform="translate(-1182.775 -983.69)" fill="#161616"/></g><g transform="translate(140.326 57.583)"><path d="M511.468,431.3q-5.833,60.333-6.965,120.956-1.132,60.855,2.5,121.71c1.335,22.752,3.25,45.446,5.572,68.081.116,1.1,1.857,1.1,1.741,0q-6.268-60.246-7.835-120.9Q504.91,560.3,508.1,499.441q1.828-34.128,5.049-68.139c.174-1.1-1.567-1.1-1.683,0Z" transform="translate(-504.232 -430.475)" fill="#161616"/></g><g transform="translate(29.887 2.387)"><path d="M314.386,337.015a945.1,945.1,0,0,0,116.951,54.906c1.045.406,1.509-1.277.464-1.683a938.665,938.665,0,0,1-116.545-54.732.871.871,0,0,0-.871,1.509Z" transform="translate(-313.952 -335.375)" fill="#161616"/></g><g transform="translate(13.016 2.793)"><path d="M300.39,336.9q-9.664,73.653-13.349,148-3.657,74.263-1.161,148.583,1.393,41.7,4.7,83.346c.116,1.1,1.857,1.1,1.741,0q-5.92-74.089-5.688-148.467.174-74.35,6.5-148.467,3.569-41.615,9-83c.116-1.1-1.625-1.1-1.741,0Z" transform="translate(-284.884 -336.075)" fill="#161616"/></g><g transform="translate(18.232 368.157)"><path d="M294.294,982.073c32.328,17.586,71.041,13.814,103.892-.116a228.913,228.913,0,0,0,28.556-14.742c.929-.58.058-2.089-.871-1.509-30.587,18.515-66.456,31.458-102.615,24.725a94.728,94.728,0,0,1-28.091-9.867c-.929-.522-1.857.987-.871,1.509Z" transform="translate(-293.872 -965.575)" fill="#161616"/></g><g transform="translate(5.356 378.241)"><path d="M272.159,984.546a121.551,121.551,0,0,0,12.479,4.991c1.045.348,1.509-1.335.464-1.683a113.693,113.693,0,0,1-12.072-4.817c-1.045-.464-1.915,1.045-.871,1.509Z" transform="translate(-271.687 -982.949)" fill="#161616"/></g><g transform="translate(0 3.192)"><path d="M281.636,337.6c-6.268,48.638-11.492,97.392-14.916,146.32-3.366,48.7-4.991,97.508-3.947,146.32.58,27.627,1.973,55.254,4.353,82.765.116,1.1,1.857,1.1,1.741,0a1346.385,1346.385,0,0,1-4.237-146.784c1.1-48.812,4.469-97.566,9.286-146.2q4.092-41.267,9.461-82.475c.174-1.045-1.567-1.045-1.741.058Z" transform="translate(-262.459 -336.762)" fill="#161616"/></g><g transform="translate(19.069 2.7)"><path d="M296.408,338.46a40.049,40.049,0,0,1,10.215-.755c1.1.058,1.1-1.683,0-1.741a43.99,43.99,0,0,0-10.679.813c-1.1.232-.638,1.915.464,1.683Z" transform="translate(-295.314 -335.915)" fill="#161616"/></g><g transform="translate(446.758 39.533)"><path d="M1035.623,400.2q3.656,100.99-.464,202.038c-.755,18.863-1.741,37.668-2.96,56.531-.058,1.1,1.683,1.1,1.741,0q6.356-100.816,4.875-201.98-.435-28.295-1.451-56.589c-.058-1.1-1.8-1.1-1.741,0Z" transform="translate(-1032.198 -399.375)" fill="#161616"/></g><g transform="translate(473.283 15.388)"><g transform="translate(0)"><path d="M1082.948,358.6q3.482,70.258,3.424,140.69,0,70.345-3.482,140.69-1.915,39.787-4.991,79.457c-.058,1.1,1.683,1.1,1.741,0q5.4-70.171,7.371-140.516,1.915-70.345.464-140.748-.871-39.787-2.786-79.573c-.058-1.1-1.8-1.1-1.741,0Z" transform="translate(-1077.898 -357.775)" fill="#161616"/></g></g><g transform="translate(510.313 5.006)"><g transform="translate(0)"><path d="M1143.5,340.765q4.876,73.044,5.746,146.378.784,73.566-2.5,147.016-1.828,41.18-5.05,82.3c-.058,1.1,1.683,1.1,1.741,0q5.572-73.044,7.139-146.32,1.48-73.479-1.1-147.074-1.48-41.18-4.237-82.359a.871.871,0,0,0-1.741.058Z" transform="translate(-1141.698 -339.887)" fill="#161616"/></g></g><g transform="translate(436.87 319.867)"><path d="M1022.5,883.2a312.8,312.8,0,0,1-7.313,45.155.873.873,0,0,0,1.683.464,311.241,311.241,0,0,0,7.371-45.62c.116-1.1-1.625-1.1-1.741,0Z" transform="translate(-1015.161 -882.375)" fill="#161616"/></g><g transform="translate(38.917 14.73)"><path d="M339.952,357.256c-6.965,48.7-9.925,97.914-10.389,147.074-.406,49.45,1.625,98.843,4.643,148.177,1.683,27.917,3.657,55.777,5.63,83.694.058,1.1,1.8,1.1,1.741,0-3.482-49.16-6.965-98.32-8.88-147.538-1.915-49.1-2.206-98.32.638-147.422,1.625-27.917,4.295-55.835,8.242-83.52.232-1.045-1.451-1.567-1.625-.464Z" transform="translate(-329.511 -356.642)" fill="#161616"/></g><g transform="translate(74.063 30.776)"><path d="M398.734,385.107c-4.411,47.071-7.371,94.315-8.358,141.618a1389.391,1389.391,0,0,0,4.063,141.618q3.221,39.264,9.112,78.18c.174,1.1,1.857.638,1.683-.464a1200.288,1200.288,0,0,1-12.653-141.328c-1.509-46.664-.638-93.445,1.915-140.051q2.176-39.787,5.978-79.515c.116-1.161-1.625-1.161-1.741-.058Z" transform="translate(-390.066 -384.287)" fill="#161616"/></g><g transform="translate(106.057 44.633)"><path d="M455.294,409a1218.314,1218.314,0,0,0-9.867,132.448,1235.562,1235.562,0,0,0,4.527,132.738q3.308,36.914,8.764,73.537c.174,1.1,1.857.638,1.683-.464A1223.368,1223.368,0,0,1,449.664,483q2.525-37.088,7.313-74.059c.232-1.045-1.509-1.045-1.683.058Z" transform="translate(-445.188 -408.162)" fill="#161616"/></g><path d="M1079.769,342.032a488.559,488.559,0,0,1,13.407,91.646c4.353,87.873-16.309,159.669-34.3,205.753q-19.066,30.558-38.074,61.116a169.847,169.847,0,0,0,53.571,13.407,166.324,166.324,0,0,0,40.164-1.625c.116-2.554,2.031-41.383,2.147-43.937,6.326-130.068,6.733-138.948,6.965-147.887a1238.771,1238.771,0,0,0-5.34-153.807q-3.221-16.629-6.442-33.2C1101.244,336.286,1090.506,339.13,1079.769,342.032Z" transform="translate(-580.657 -332.201)" fill="#3f3f3f" opacity="0.12"/><path d="M365.387,371.924c-1.509,6.326-3.773,15.787-6.442,27.337C347.1,450.8,338.4,488.7,333.755,523.583c-8.242,61.465-16.193,121.014,17.7,169.884a137.635,137.635,0,0,0,27.859,29.484,105.056,105.056,0,0,1-25.712,6.442c-28.091,3.308-50.611-5.8-61.639-11.26-4.179-38.481-7.081-79.689-8.01-123.278a1432.083,1432.083,0,0,1,17.7-257.757Q333.436,354.512,365.387,371.924Z" transform="translate(-271.338 -333.712)" fill="#3f3f3f" opacity="0.13"/></g><g transform="translate(1086.141 2601.199)"><path d="M313.768,283.1c-.754.58-.174,2.844.871,6.733.406,1.509.813,2.67,1.045,3.424-.464,3.134-.871,6.268-1.335,9.4a10.692,10.692,0,0,0-8.648,7.371,32.855,32.855,0,0,1,6.559,1.335,35.407,35.407,0,0,1,8.358,3.889,4.417,4.417,0,0,0,1.045,3.018,4.158,4.158,0,0,0,2.38,1.045c2.089.348,4.585.813,7.777,1.509,1.393.813,3.715,2.147,6.559,3.715,9.635,5.224,13.117,6.094,22.752,11.2,6.21,3.308,5.688,3.424,10.041,5.514a99.325,99.325,0,0,0,16.309,6.268,26.464,26.464,0,0,0,5.688-10.331,25.633,25.633,0,0,0,.871-9.751,7.39,7.39,0,0,0,4.353.871c4.643-.522,7.6-5.8,8.532-9.577.813-3.308.058-5.4-.58-9.286-1.451-8.706-2.728-16.483.871-21.417,3.018-4.121,9.228-6.036,14.22-11.55.464-.522,1.335-1.509,1.045-1.973-.522-.871-4.585.638-6.559,1.509-1.277.58-10.854,4.991-13.756,14.974-.464,1.567-.522,6.094-.58,15.09-.058,6.559.058,10.273-2.554,12.421a6.185,6.185,0,0,1-5.108,1.335c-2.67-.58-3.947-3.192-5.108-4.933-3.018-4.585-7.313-6.5-12.595-9.112-4.121-2.031-7.661-2.786-14.8-4.353-6.733-1.451-8.764-1.277-11.666-3.424a20.953,20.953,0,0,1-5.978-7.777,27.3,27.3,0,0,1-3.018-8.706c-.348-2.38-.29-4.063-.871-4.179-1.045-.232-1.567,4.585-5.108,6.268-2.148,1.045-3.54.058-7.313.174a21.636,21.636,0,0,0-8.358,1.973C318.063,285.016,314.812,282.346,313.768,283.1Z" transform="translate(-304.865 -274.249)"/><g transform="translate(8.778 8.853)"><path d="M321.251,308.6c-1.219-9.577,7.487-18.283,17.122-17.3,9.112.929,15.149,12.014,14.858,20.314-.058,1.1,1.683,1.1,1.741,0,.29-9.17-6.559-21.243-16.6-22.055-10.563-.871-20.2,8.474-18.863,19.037.174,1.045,1.915,1.1,1.741,0Z" transform="translate(-319.386 -289.503)"/></g><g transform="translate(10.361 29.522)"><path d="M322.222,329.575c3.54,6.907,11.144,11.782,19.1,10.737a17.187,17.187,0,0,0,14.51-14.1c.174-1.1-1.509-1.567-1.683-.464a15.393,15.393,0,0,1-13.059,12.827c-7.255.987-14.1-3.54-17.354-9.867-.522-.987-2.031-.116-1.509.871Z" transform="translate(-322.113 -325.114)"/></g><g transform="translate(14.929 36.205)"><path d="M331.792,342.822c-.174-2.206,6.094-3.134,7.661-3.482a39.524,39.524,0,0,1,8.648-.987,28.44,28.44,0,0,1,15.149,4.237c.929.58,1.857-.929.871-1.509a31.59,31.59,0,0,0-19.676-4.295,46.97,46.97,0,0,0-10.563,2.264c-1.857.638-4.063,1.451-3.889,3.773.116,1.1,1.915,1.1,1.8,0Z" transform="translate(-329.983 -336.629)"/></g><g transform="translate(41.486 20.773)"><path d="M375.949,311.584c3.657,4.411,9.577,5.456,14.858,6.617,7.023,1.625,14.278,3.076,20.43,6.965a24.2,24.2,0,0,1,5.049,36.681c-.754.813.464,2.089,1.219,1.219a25.881,25.881,0,0,0-.058-35c-4.875-5.224-11.84-7.951-18.631-9.751-6.907-1.8-16.832-2.089-21.707-8.01-.638-.813-1.857.406-1.161,1.277Z" transform="translate(-375.741 -310.04)"/></g><g transform="translate(64.438 48.535)"><path d="M433.17,362.009a10.523,10.523,0,0,0-12.479-3.308c-5.514,2.264-5.8,9.054-5.166,14.22.116,1.1,1.857,1.1,1.741,0-.522-4.063-.58-10.331,3.6-12.363a8.753,8.753,0,0,1,10.737,2.38c.7.871,2.206,0,1.567-.929Z" transform="translate(-415.285 -357.873)"/></g><g transform="translate(54.957 59.044)"><path d="M410.18,379.706c-3.192-2.438-6.5-4.527-10.621-3.424a.856.856,0,0,0-.58,1.045c1.045,4.063,7.429,5.746,10.8,7.2a156.44,156.44,0,0,0,15.787,5.862c1.045.348,1.509-1.335.464-1.683-4.295-1.335-8.474-2.786-12.653-4.527-2.264-.929-4.469-1.915-6.675-2.96-1.973-.929-5.514-2.031-6.094-4.353-.174.348-.406.7-.58,1.045,3.6-.987,6.559,1.161,9.228,3.25.929.755,1.8-.755.929-1.451Z" transform="translate(-398.949 -375.979)"/></g><g transform="translate(15.04 40.92)"><path d="M330.305,346.057c2.264,3.715,6.849,4.353,10.854,4.933a69.972,69.972,0,0,0,17.76.232c1.1-.116,1.1-1.857,0-1.741a69.072,69.072,0,0,1-14.278.174c-4-.406-10.447-.638-12.885-4.469-.522-.987-2.031-.116-1.451.871Z" transform="translate(-330.175 -344.752)"/></g><g transform="translate(0 28.237)"><path d="M305.909,330.968c.755-4.063,4.3-6.152,8.242-6.326a9.921,9.921,0,0,1-.813-.638,18.949,18.949,0,0,0,1.277,4c.406,1.045,2.089.58,1.683-.464a32.133,32.133,0,0,1-1.277-4,.87.87,0,0,0-.813-.638c-4.643.232-9.054,2.786-9.925,7.6-.232,1.1,1.451,1.567,1.625.464Z" transform="translate(-304.262 -322.9)"/></g><g transform="translate(8.049 7.904)"><path d="M321.827,298.276a32.152,32.152,0,0,1-1.741-7.777c0-.232-.058-.464-.058-.7-.058-.522,0-.464.232.174.522.348,1.045.755,1.567,1.161a18.841,18.841,0,0,1,2.38,2.438c.755.871,1.973-.406,1.219-1.219-.987-1.161-5.108-5.92-6.849-4.063-.871.929-.232,3.076-.058,4.121a33.613,33.613,0,0,0,1.567,6.326c.464,1.045,2.147.638,1.741-.464Z" transform="translate(-318.13 -287.867)"/></g><g transform="translate(29.724 3.077)"><path d="M357.115,286.66c.522-.929,1.045-1.857,1.625-2.786a11.522,11.522,0,0,0,.638-1.161c.348-.58.348-1.1,1.045-.929.813.174.522,2.089.522,2.786,0,1.1.058,2.206.058,3.308a.872.872,0,0,0,1.741,0c0-1.8.058-3.6-.058-5.4a2.855,2.855,0,0,0-1.741-2.844c-1.161-.348-1.973.406-2.554,1.277-.987,1.567-1.857,3.25-2.786,4.817a.886.886,0,0,0,1.509.929Z" transform="translate(-355.475 -279.55)"/></g><g transform="translate(86.965 0.202)"><path d="M454.1,322.54c.348,4.411,5.282,5.862,8.706,3.715,5.049-3.134,6.152-10.215,5.514-15.555-.871-7.313-2.612-14.1-.116-21.359,2.38-6.907,8.3-12.537,15.787-13,1.1-.058,1.1-1.8,0-1.741-10.215.638-17.18,9.345-18.631,18.979-.871,5.746.406,11.086,1.161,16.716a18.274,18.274,0,0,1-1.451,10.679,10.2,10.2,0,0,1-3.192,3.831c-2.147,1.335-5.862.929-6.094-2.206,0-1.161-1.741-1.219-1.683-.058Z" transform="translate(-454.098 -274.598)"/></g><g transform="translate(87.832 32.517)"><path d="M455.655,349.037c1.8,4.817,8.068,2.67,10.8-.116,4.469-4.527,3.482-12.072,3.134-17.818-.058-1.1-1.8-1.1-1.741,0,.232,3.657.58,7.6-.058,11.26a9.785,9.785,0,0,1-2.089,4.759c-1.277,1.567-6.849,5.514-8.358,1.451-.406-1.045-2.089-.58-1.683.464Z" transform="translate(-455.592 -330.275)"/></g><g transform="translate(99.306 0.083)"><path d="M492.969,274.455c-6.617,2.554-13.291,6.152-15.961,13.117-3.076,8.01-.871,16.716-1.045,25.015a.872.872,0,0,0,1.741,0c.174-7.255-1.567-14.684.174-21.881,1.915-7.893,8.474-11.84,15.555-14.568,1.045-.406.58-2.089-.464-1.683Z" transform="translate(-475.36 -274.392)"/></g><g transform="translate(99.78 1.045)"><path d="M491.978,276.137c-6.094,2.786-11.666,7.661-14.51,13.872-1.509,3.25-1.277,6.849-1.277,10.389,0,4.527.174,9.112.522,13.639.058,1.1,1.8,1.1,1.741,0-.232-3.657-.406-7.255-.464-10.912-.058-3.831-.58-8.358.871-11.956,2.5-6.094,8.126-10.8,13.988-13.523,1.045-.464.174-1.973-.871-1.509Z" transform="translate(-476.178 -276.049)"/></g><g transform="translate(14.002 20.452)"><path d="M328.453,311.178a3.3,3.3,0,0,0,6.152-1.277c.058-.58-.813-.522-.871,0a2.426,2.426,0,0,1-4.527.871.428.428,0,1,0-.755.406Z" transform="translate(-328.388 -309.487)" fill="#fff"/></g><g transform="translate(26.307 17.761)"><path d="M349.653,306.968a3.443,3.443,0,0,0,6.443-1.683.435.435,0,0,0-.871,0,2.564,2.564,0,0,1-4.817,1.277.429.429,0,1,0-.755.406Z" transform="translate(-349.588 -304.85)" fill="#fff"/></g><g transform="translate(21.813 23.183)"><path d="M342.922,314.719a5.6,5.6,0,0,1-.987,4.759c-.348.464.406.871.755.464a6.735,6.735,0,0,0,1.1-5.456c-.174-.522-1.045-.29-.871.232Z" transform="translate(-341.846 -314.193)" fill="#fff"/></g><g transform="translate(23.222 23.217)"><path d="M344.288,314.685a5.285,5.285,0,0,0,3.076,5.224c.522.232.929-.522.464-.754a4.5,4.5,0,0,1-2.67-4.469.435.435,0,0,0-.871,0Z" transform="translate(-344.272 -314.25)" fill="#fff"/></g><g transform="translate(8.684 27.869)"><path d="M319.617,323.214c5.108-.406,8.358,3.773,11.782,6.849.406.348,1.045-.232.638-.638-3.6-3.25-7.081-7.487-12.421-7.139-.522.058-.522.929,0,.929Z" transform="translate(-319.225 -322.265)" fill="#fff"/></g><g transform="translate(17.958 33.637)"><path d="M335.839,337.6a28.908,28.908,0,0,1,21.939-3.889c.522.116.755-.7.232-.813a29.971,29.971,0,0,0-22.578,4c-.522.232-.058.987.406.7Z" transform="translate(-335.202 -332.204)" fill="#fff"/></g><g transform="translate(34.687 41.369)"><path d="M364.417,351.141a20.125,20.125,0,0,0,14.626-4.875c.406-.348-.174-.987-.638-.638a19.254,19.254,0,0,1-13.988,4.643.438.438,0,0,0,0,.871Z" transform="translate(-364.025 -345.526)" fill="#fff"/></g><g transform="translate(32.287 5.546)"><path d="M361.115,284.034a8.532,8.532,0,0,0-.813,7.023c.174.522.987.29.813-.232a7.566,7.566,0,0,1,.7-6.326.42.42,0,1,0-.7-.464Z" transform="translate(-359.891 -283.805)" fill="#fff"/></g><g transform="translate(10.322 10.353)"><path d="M322.252,292.907a5.826,5.826,0,0,1,2.612,3.773c.116.522.929.29.813-.232a6.748,6.748,0,0,0-3.018-4.295c-.464-.29-.871.464-.406.755Z" transform="translate(-322.047 -292.088)" fill="#fff"/></g><g transform="translate(41.124 19.691)"><path d="M375.223,308.944a15.09,15.09,0,0,0,3.831,3.366c.464.29.929-.464.464-.755a14.017,14.017,0,0,1-3.657-3.25c-.406-.406-.987.232-.638.638Z" transform="translate(-375.116 -308.176)" fill="#fff"/></g><g transform="translate(63.939 47.357)"><path d="M427.527,357.443c-1.219-3.076-7.081-.987-9,.232a9.062,9.062,0,0,0-3.657,10.389c.174.522.987.29.813-.232a8.23,8.23,0,0,1,2.264-8.648,8.754,8.754,0,0,1,3.831-2.031c.987-.29,4.353-.929,4.875.464.232.58,1.045.348.871-.174Z" transform="translate(-414.425 -355.843)" fill="#fff"/></g><g transform="translate(50.745 58.037)"><path d="M406.033,375.843a20.181,20.181,0,0,0-14.046-.638c-.522.174-.29.987.232.813a19.222,19.222,0,0,1,13.581.638c.522.232.755-.638.232-.813Z" transform="translate(-391.693 -374.243)" fill="#fff"/></g></g><g transform="translate(1234.33 2556.309)"><g transform="translate(71.168 320.471)"><path d="M687.366,774.5c-2.38,5.688-2.38,9.925-2.728,20.836-.406,13.465-1.567,26.873-1.683,40.28-.116,11.318-.29,28.44-.755,50.727a581.669,581.669,0,0,0,61.407.174,585.547,585.547,0,0,0,58.563-5.862c-8.358-28.266-13.872-48.87-17.818-64.831-2.089-8.532-5.166-21.3-13.64-36.217a116.382,116.382,0,0,0-13-18.457c-.929-.813-21.417-18.051-45.1-9.925C711.452,751.695,694.214,757.963,687.366,774.5Z" transform="translate(-682.2 -749.059)" fill="#6d9773"/><g transform="translate(39.243 57.978)"><path d="M749.922,850.257c3.889,6.907,7.777,13.814,11.608,20.72.522.987,2.031.116,1.509-.87-3.889-6.907-7.777-13.814-11.608-20.72-.522-.987-2.031-.116-1.509.87Z" transform="translate(-749.813 -848.952)" fill="#282828"/></g><g transform="translate(38.685 57.392)"><path d="M749.054,849.485c8.938,11.144,14.1,23.855,16.89,37.784a329.764,329.764,0,0,1,5.282,39.932c.058,1.1,1.8,1.1,1.741,0a348.249,348.249,0,0,0-5.456-41.035c-2.786-13.988-8.242-26.756-17.18-37.9-.7-.929-1.973.348-1.277,1.219Z" transform="translate(-748.853 -847.942)" fill="#282828"/></g><path d="M773.3,750.5c2.031,4.063,4.933,10.041,8.184,17.238,9.461,21.011,19.269,43.182,24.493,70.461a199.507,199.507,0,0,1,3.308,46.9c4.875-.232,10.041-.638,15.439-1.219s10.563-1.277,15.439-2.089c-1.509-5.108-3.947-13.233-6.675-23.274-7.6-28.092-8.648-36.856-15.148-55.37-4.817-13.756-9.286-23.1-15.729-32.038-5.8-8.068-11.26-13.117-18.167-16.658A46.442,46.442,0,0,0,773.3,750.5Z" transform="translate(-720.425 -749.664)" fill="#3f3f3f" opacity="0.19"/><path d="M749.4,851.7a169.836,169.836,0,0,1,5.166,29.949,173.133,173.133,0,0,1-3.018,48.986c6.675-.406,13.291-.813,19.966-1.219a278.828,278.828,0,0,0-3.656-32.677c-3.657-21.417-7.487-29.368-10.563-34.476A73.7,73.7,0,0,0,749.4,851.7Z" transform="translate(-710.397 -792.127)" fill="#3f3f3f" opacity="0.11"/></g><g transform="translate(12.862 245.748)"><path d="M605.264,621.583c-1.915,1.277-3.076,3.715-5.34,8.532a77.727,77.727,0,0,0-4.121,11.608c-3.831,13-3.424,10.8-4.759,15.729a219.914,219.914,0,0,0-6.617,33.2,205.95,205.95,0,0,0-1.277,28.73,180.492,180.492,0,0,0,5.688,38.307c3.6,14.8,8.416,27.1,17.992,51.656,2.089,5.282,3.831,9.635,5.05,12.653-.871.116-2.264.29-3.947.522-8.764,1.045-9.983.813-13.523,1.567-4.527.987-8.59,1.973-10.157,5.4-.7,1.567-.987,3.773-.116,4.527,1.1.929,3.25-1.161,6.965-2.38a17.5,17.5,0,0,1,7.835-.638,39.406,39.406,0,0,0-2.9,7.545c-1.277,4.411-2.264,8.01-.638,10.563.813,1.277,2.38,2.438,3.657,2.089.7-.174,1.335-.813,3.076-5.4,1.683-4.585,1.8-6.036,3.192-7.835a10.447,10.447,0,0,1,3.54-2.786,29.17,29.17,0,0,0-1.219,6.21,19.538,19.538,0,0,0,0,4.875c.232,1.683.754,5.282,3.424,7.255.464.348,2.38,1.8,3.54,1.045.987-.58.7-2.206,1.1-7.429.348-4.411.7-5.63.987-6.326a12.23,12.23,0,0,1,2.786-4.353,88.5,88.5,0,0,0-.116,10.215c.232,4.121.638,5.978,1.973,7.139a3.173,3.173,0,0,0,3.076.813c1.045-.464,1.393-1.915,1.683-3.715,1.277-6.791.522-8.764,1.973-12.188a9.153,9.153,0,0,1,2.786-4.121c3.308-2.438,8.01-.987,8.648-.813,2.786.871,3.831,2.38,5.224,1.741,1.161-.522,1.8-2.206,1.857-3.6.058-3.424-3.715-6.036-6.965-8.184a32.318,32.318,0,0,0-7.313-3.715,137.118,137.118,0,0,1-9.4-24.2,155.628,155.628,0,0,1-3.773-17.354c-3.076-17.7-1.973-24.493-5.4-42.079-.812-4.237-1.625-7.6-2.089-9.519.232-2.9.638-7.429,1.219-12.943,1.915-17.992,3.192-29.252,7.081-42.486,3.076-10.389,6.21-18.921,6.21-18.921,3.947-10.621,5.224-12.072,4.759-15.5C629.292,626.226,612.4,616.824,605.264,621.583Z" transform="translate(-582.305 -620.315)" fill="#fff"/><g transform="translate(0 6.324)"><path d="M600.233,631.669a219.569,219.569,0,0,0-18.225,75.336c-1.451,26.524,3.134,52.468,11.724,77.542,4.875,14.336,10.8,28.266,16.832,42.2.464,1.045,1.915.116,1.509-.871-10.447-24.145-20.662-48.638-25.538-74.524-4.817-25.538-3.831-51.946,1.741-77.31A225.9,225.9,0,0,1,601.742,632.6c.406-1.045-1.045-1.973-1.509-.929Z" transform="translate(-581.743 -631.211)" fill="#161616"/></g><g transform="translate(28.589 39.334)"><path d="M642.55,688.674A231.285,231.285,0,0,0,631,757.22a.872.872,0,0,0,1.741,0,230.059,230.059,0,0,1,11.492-68.081c.348-1.045-1.335-1.509-1.683-.464Z" transform="translate(-631 -688.085)" fill="#161616"/></g><g transform="translate(22.34 96.674)"><path d="M620.388,788.11c5.166,7.2,7.255,15.787,8.474,24.377,1.277,8.764,1.857,17.644,3.134,26.408,2.554,17.818,6.733,35.579,15.149,51.54.522.987,2.031.116,1.509-.871-8.764-16.6-12.885-35.114-15.323-53.571-2.148-16.193-1.509-34.94-11.434-48.754-.638-.871-2.147,0-1.509.871Z" transform="translate(-620.234 -786.879)" fill="#161616"/></g><g transform="translate(0.183 201.042)"><path d="M610.464,966.7a123.874,123.874,0,0,0-16.077,1.8c-3.773.754-7.777,1.973-10.389,4.991-1.509,1.8-3.424,6.094-.116,7.313,1.451.522,2.728-.464,3.947-1.161,3.018-1.741,6.152-3.54,9.751-2.554a.873.873,0,0,0,.464-1.683c-2.96-.813-5.63-.116-8.3,1.219-.813.406-1.567.813-2.322,1.277-.464.232-.871.522-1.335.813-.522-.929-1.1-1.857-1.625-2.786.116-1.451,3.018-3.134,4.063-3.715,2.844-1.509,6.152-2.031,9.286-2.5,4.237-.638,8.474-1.045,12.711-1.277a.871.871,0,0,0-.058-1.741Z" transform="translate(-582.059 -966.698)" fill="#161616"/></g><g transform="translate(11.417 206.196)"><path d="M613.826,975.591a13.3,13.3,0,0,0-10.1,8.126c-1.857,4.411-3.424,10.97-1.277,15.5,1.625,3.424,5.63,4.643,7.139.464.929-2.612.755-5.456,1.683-8.068a15.553,15.553,0,0,1,6.036-7.952c.929-.638.058-2.147-.871-1.509a16.69,16.69,0,0,0-6.094,7.2,22.371,22.371,0,0,0-1.567,4.7c-.29,1.335-.464,8.068-3.657,6.094-1.8-1.1-1.973-4.643-1.915-6.442a31.493,31.493,0,0,1,1.683-8.3,11.86,11.86,0,0,1,9.344-8.126c1.161-.174.7-1.857-.406-1.683Z" transform="translate(-601.413 -975.578)" fill="#161616"/></g><g transform="translate(24.004 210.349)"><path d="M628.382,982.889c-3.6,2.322-4.875,7.371-5.224,11.434-.348,4.353.871,9.054,4.121,12.13,1.915,1.8,4.875,2.728,5.4-.638.871-5.63-1.393-13.581,4.759-16.948.987-.522.116-2.031-.871-1.509a9.951,9.951,0,0,0-4.469,5.572c-1.219,3.482-.522,7.023-1.045,10.621-.232,1.625-.7,3.366-2.5,1.683a9.843,9.843,0,0,1-1.683-2.089,12.754,12.754,0,0,1-1.915-5.746c-.406-4.063.638-10.563,4.353-13,.871-.638,0-2.147-.929-1.509Z" transform="translate(-623.101 -982.734)" fill="#161616"/></g><g transform="translate(35.851 214.561)"><path d="M645.188,990.577c-1.1,4.179-2.147,8.532-1.451,12.885.29,2.089,1.509,7.2,4.179,7.719,3.018.58,4.237-4.759,4.527-6.733.638-4.3-.174-9.461,3.192-12.769a.862.862,0,1,0-1.219-1.219c-4.063,4-2.67,9.809-3.889,14.916-.406,1.857-1.567,4.643-3.482,2.5-1.045-1.1-1.335-3.25-1.567-4.7-.58-4.063.406-8.126,1.451-12.072.232-1.1-1.451-1.567-1.741-.522Z" transform="translate(-643.513 -989.991)" fill="#161616"/></g><g transform="translate(45.602 199.429)"><path d="M664.775,965.707c3.424,1.393,6.965,2.9,9.635,5.572a10.921,10.921,0,0,1,3.076,4.817c.871,4.817-2.728,1.741-4.063,1.161-3.656-1.625-10.912-.464-13,3.25-.522.987.987,1.857,1.509.871,1.1-2.031,4.121-2.554,6.21-2.844a10.023,10.023,0,0,1,3.947.058c1.393.406,2.264,1.625,3.6,2.031,1.915.58,3.366-.755,3.657-2.612.522-3.018-2.089-6.384-4.121-8.358-2.844-2.728-6.5-4.237-10.1-5.688-.929-.348-1.335,1.335-.348,1.741Z" transform="translate(-660.313 -963.919)" fill="#161616"/></g><path d="M635.336,656.795c-6.675.406-10.679,17.47-12.885,26.931-2.5,10.621-4.759,25.248-4.3,46.548a270.266,270.266,0,0,0,18.689,92.806c1.857,5.224,3.657,10.447,5.514,15.613-1.045,4.295-2.089,8.706-3.076,13.291-1.277,6.036-2.438,11.956-3.366,17.644a4.413,4.413,0,0,0,3.657-.987c1.335-1.335,1.161-3.482,1.219-5.34.058-1.741.232-10.157,4-13.291,2.322-1.915,6.036-1.915,8.59-.987,2.612.987,3.773,2.9,5.514,2.322a4.152,4.152,0,0,0,2.438-3.308c.58-4.237-7.545-8.59-8.88-9.286-2.612-1.393-3.831-1.567-5.514-3.308a13.144,13.144,0,0,1-3.076-5.978c-4.817-18.341-7.2-17.18-10.447-38.249-2.438-15.9-.871-14.974-3.366-27.627-1.741-8.938-3.192-12.595-3.657-20.314a83.691,83.691,0,0,1,1.509-20.953c4.353-23.971,12.711-52.991,14.742-59.9C640.792,659.523,638.238,656.62,635.336,656.795Z" transform="translate(-596.996 -635.619)" fill="#3f3f3f" opacity="0.13"/></g><g transform="translate(96.829)"><path d="M799.68,225.642c-1.8-.058-3.192,3.192-3.54,4.063a13.182,13.182,0,0,0-.754,7.313s.348,2.438,1.509,17.18a62.042,62.042,0,0,1-.522,14.162c-2.322,6.384-4.527,11.376-6.036,14.626-5.107,10.912-8.532,15.265-15.671,29.078-2.67,5.166-2.9,5.978-6.036,12.363-7.835,15.845-13.581,25.77-19.443,36.391-5.166,9.286-12.421,22.926-20.953,40.454-.406,1.509-2.438,9.577,2.264,16.658,4.991,7.487,15.439,10.854,25.538,7.6a61.246,61.246,0,0,0,5.8-10.1,69.36,69.36,0,0,0,3.541-9.867c.638-2.147,3.192-9.4,8.358-24.029,1.625-4.527,3.6-9.925,7.6-20.488,6.094-16.193,9.112-24.261,11.144-29.31,4.585-11.492,8.068-19.443,14.916-34.882,3.6-8.126,8.01-17.934,13.117-29.078a71.173,71.173,0,0,0,11.376-8.068c6.268-5.4,9.4-9.983,15.439-18.689,3.889-5.688,6.849-10.679,6.036-15.671-.116-.7-.406-2.728-1.509-3.018-1.393-.406-3.134,2.38-5.049,4.817a51.9,51.9,0,0,1-9.344,9.112,96.49,96.49,0,0,1,4.063-9.577c2.38-4.875,4.353-8.01,5.572-13.407,1.335-5.746.116-6.791-.232-7.081-1.567-1.161-4.237,1.045-5.8-.232-1.393-1.219-.174-3.889-1.277-4.527s-3.54,1.277-5.282,3.308c-3.018,3.482-3.715,6.849-4.817,10.1a43.109,43.109,0,0,1-6.558,12.363c-.871.116-2.031.174-2.554-.522-.58-.813.232-2.147.987-4.295.174-.522.058-.232,1.277-5.572.464-2.031,1.335-5.8,2.031-8.822.987-4.353,1.451-6.152.522-8.068-.174-.406-.929-1.973-2.031-2.031-1.277-.058-2.264,1.973-3.018,3.54-3.076,6.326-4.643,9.519-5.049,10.621-2.031,5.514-4.759,13.93-5.166,16.832a14.166,14.166,0,0,1-.755,3.134c-.29.755-.464,1.045-.638,1.509-1.451,3.25-.232,5.4-1.741,6.559-.174.116-1.045.755-1.741.522-.755-.232-1.1-1.219-1.509-4.527-.58-4.527-.232-5.862-1.277-7.835C801.77,227.384,800.9,225.7,799.68,225.642Z" transform="translate(-726.848 -197.322)" fill="#fff"/><g transform="translate(67.783 27.065)"><path d="M845.464,271.665c.406-4.237-.232-8.358-.464-12.595a31.175,31.175,0,0,1,.174-6.152,22.485,22.485,0,0,1,.755-3.424c.58-1.683.638-3.076,2.5-3.134,1.741-.058,1.625.987,1.915,2.438a22.115,22.115,0,0,1,.406,3.889,33.384,33.384,0,0,0,.58,5.4c.406,1.8,1.509,3.308,3.54,2.67,1.045-.348.638-2.031-.464-1.683-2.031.58-1.857-6.268-1.973-7.429a19.725,19.725,0,0,0-1.045-5.514c-.987-2.438-3.25-3.657-5.166-1.393-2.5,2.9-3.018,8.126-3.018,11.724,0,5.108.987,10.1.522,15.207-.058,1.1,1.683,1.1,1.741,0Z" transform="translate(-843.2 -243.538)" fill="#161616"/></g><g transform="translate(78.529)"><path d="M863.331,240.491c2.9-5.63,3.773-12.014,5.456-18.051a79.005,79.005,0,0,1,7.429-18.689c.755-1.277,1.509-3.076,2.612-4.063,2.148-1.973,2.148,1.8,1.973,3.424a86.4,86.4,0,0,1-2.089,10.8c-.755,3.25-1.8,6.384-2.554,9.635-.406,1.8-.406,3.366.871,4.759.754.813,1.973-.406,1.219-1.219-1.451-1.567.058-4.7.522-6.384.522-1.915,1.045-3.831,1.451-5.746.813-3.54,1.625-7.139,2.148-10.8.29-1.915.7-5.282-.987-6.733-1.451-1.219-2.9-.058-3.889,1.1-4.237,5.282-6.849,12.247-8.938,18.631-2.38,7.371-3.134,15.613-6.733,22.52a.858.858,0,0,0,1.509.813Z" transform="translate(-861.714 -196.906)" fill="#161616"/></g><g transform="translate(93.43 2.781)"><path d="M888.207,230.487c1.741.174,2.38-1.1,3.192-2.5,1.277-2.206,2.438-4.527,3.54-6.791,2.147-4.411,3.657-9.228,6.268-13.349a10.165,10.165,0,0,1,2.206-2.786,2.614,2.614,0,0,1,3.018-.755,11.65,11.65,0,0,1,.29,2.438,23.3,23.3,0,0,1-1.857,8.358c-1.973,5.282-4.179,10.505-6.326,15.787-.406,1.045,1.277,1.509,1.683.464,1.219-3.018,13.756-29.484,5.572-29.659-1.625-.058-3.482,1.973-4.411,3.076a27.43,27.43,0,0,0-3.831,6.384c-1.219,2.728-2.322,5.456-3.6,8.126-.755,1.625-1.625,3.308-2.438,4.875-.522,1.045-1.8,4.643-3.25,4.527-1.161-.058-1.161,1.683-.058,1.8Z" transform="translate(-887.387 -201.698)" fill="#161616"/></g><g transform="translate(108.571 6.776)"><path d="M919.7,212.016c.638-3.366,4.3-1.045,4.759,1.1.406,1.8-.29,3.6-.871,5.282-.871,2.554-1.857,5.049-2.9,7.487a114.017,114.017,0,0,1-7.081,13.756.871.871,0,0,0,1.509.871,121.41,121.41,0,0,0,6.675-12.769c1.683-3.773,3.715-7.952,4.353-12.072.406-2.612-.348-5.978-3.25-6.907a3.772,3.772,0,0,0-4.875,2.844c-.174,1.045,1.509,1.509,1.683.406Z" transform="translate(-913.475 -208.581)" fill="#161616"/></g><g transform="translate(92.434 24.608)"><path d="M904.667,254.1c2.206-2.5,4.353-4.991,6.559-7.487a45.7,45.7,0,0,1,3.482-3.947c.406-.348.813-.638,1.161-.987.987.348,1.973.7,3.018,1.045.29.522-.406,2.031-.58,2.5a70.287,70.287,0,0,1-7.487,15.613,74.708,74.708,0,0,1-24.725,24.029c-.987.58-.058,2.089.871,1.509a76.294,76.294,0,0,0,29.078-31.284,60.23,60.23,0,0,0,4.063-9.809c.58-1.973.929-4.643-1.335-5.688-2.206-1.045-4.527.987-5.92,2.438-3.308,3.424-6.326,7.255-9.461,10.854-.7.813.522,2.031,1.277,1.219Z" transform="translate(-885.672 -239.305)" fill="#161616"/></g><g transform="translate(0 52.566)"><path d="M794.951,288.3c.406,5.34.813,10.8-.058,16.135-.871,5.282-3.076,10.157-5.514,14.916-4.933,9.635-10.1,19.153-15.148,28.73q-15.149,28.73-30.3,57.4c-5.8,10.97-11.608,22-17.412,32.967-.522.987.987,1.857,1.509.871C748.867,399.8,770.11,360.446,790.6,320.689c2.438-4.7,4.7-9.519,5.688-14.684,1.161-5.862.755-11.782.29-17.7a.813.813,0,1,0-1.625,0Z" transform="translate(-726.413 -287.475)" fill="#161616"/></g><g transform="translate(30.202 69.327)"><path d="M840.988,316.786a1216.1,1216.1,0,0,0-49.044,120.376c-4.179,11.9-8.358,23.8-13.407,35.347-.464,1.045,1.045,1.915,1.509.871,8.648-19.676,14.974-40.28,22.4-60.362q11.4-30.994,24.609-61.349c4.991-11.434,10.1-22.752,15.439-34.012.464-.987-1.045-1.857-1.509-.871Z" transform="translate(-778.449 -316.352)" fill="#161616"/></g><path d="M857.383,213.293c-2.38-.348-5.572,9.4-7.429,14.278-5.63,14.974-10.389,16.716-22.462,37.03a272.288,272.288,0,0,0-16.832,33.431Q782.8,356.711,755,415.448c4.527,5.514,9,11.086,13.523,16.6,2.264-6.442,5.572-15.9,9.693-27.337,7.487-20.6,17.18-47.129,30.878-79.4,5.456-12.769,13-30.007,22.694-50.263a81.75,81.75,0,0,0,10.447-7.893c5.456-4.759,12.653-11.2,17.586-21.707a53.288,53.288,0,0,0,4.585-14.8,5.079,5.079,0,0,0-3.076-.522c-2.089.406-3.192,2.438-4.063,3.831-3.366,5.166-8.3,8.59-8.938,8.184-.348-.29.638-1.973,3.308-7.429,5.456-11.2,3.192-8.242,5.34-12.014,1.219-2.147,2.438-4,2.031-6.384C859.008,215.267,858.37,213.468,857.383,213.293Z" transform="translate(-738.408 -203.778)" fill="#3f3f3f" opacity="0.1"/><path d="M857.955,281.5c-2.9,1.857-7.023,4.585-11.724,8.184-5.4,4.063-11.2,8.474-16.077,14.046a62.7,62.7,0,0,0-11.26,19.385c-15.961,40.744-34.94,84.971-40.338,97.276-2.96,6.733-7.6,16.89-13.756,29.078,2.786,3.657,5.63,7.313,8.416,10.97,8.01-24.435,17.238-50.031,27.8-76.555,11.376-28.5,23.158-55.138,35-79.921A76.4,76.4,0,0,0,857.955,281.5Z" transform="translate(-742.52 -232.402)" fill="#3f3f3f" opacity="0.13"/></g><g transform="translate(30.506 196.778)"><path d="M640.1,556.524A64.832,64.832,0,0,0,628.2,566.8,74.167,74.167,0,0,0,617.7,582.178c-1.915,3.424-3.308,6.442-4.3,8.648,1.509,2.9,3.947,7.371,7.313,12.711,5.978,9.461,10.621,14.568,18.631,24.841,3.366,4.3,8.242,10.737,14.046,18.863q1.393,6.53,2.438,13.756a195.2,195.2,0,0,1,1.915,27.279,34,34,0,0,0,11.318,8.068c9.054,4,17.3,2.844,21.591,2.148,9.519-1.451,16.019-5.688,20.488-8.648a63.39,63.39,0,0,0,17.3-17.006c-.755-9.054-1.741-18.4-2.96-28.091q-1.567-12.363-3.482-24.029a132.405,132.405,0,0,0-2.67-24.029c-1.625-8.068-3.6-17.47-9.46-28.614A88.419,88.419,0,0,0,689.9,542.71a91.057,91.057,0,0,0-8.068-6.21,129.628,129.628,0,0,1-20.778,10.8C651.765,551.126,647.412,551.707,640.1,556.524Z" transform="translate(-612.67 -536.176)" fill="#fff"/><g transform="translate(0 19.091)"><path d="M613.8,604.625c1.8-6.849,6.791-13.233,11.086-18.805A72.946,72.946,0,0,1,640.615,570.5c.929-.638.058-2.147-.871-1.509a74.349,74.349,0,0,0-16.193,15.729c-4.469,5.746-9.519,12.247-11.376,19.385-.29,1.161,1.393,1.567,1.625.522Z" transform="translate(-612.142 -568.834)" fill="#161616"/></g><g transform="translate(0.251 54.157)"><path d="M612.706,630.557A342.346,342.346,0,0,0,654.9,689c.755.813,1.973-.406,1.219-1.219a341.224,341.224,0,0,1-41.905-58.1.871.871,0,0,0-1.509.871Z" transform="translate(-612.575 -629.252)" fill="#161616"/></g><g transform="translate(48.216)"><path d="M696.484,547.874a71.11,71.11,0,0,1,21.243-10.215.873.873,0,0,0-.464-1.683,73.091,73.091,0,0,0-21.649,10.389c-.929.638-.058,2.148.871,1.509Z" transform="translate(-695.216 -535.942)" fill="#161616"/></g><g transform="translate(68.915 0.518)"><path d="M731.239,538.5c27.743,19.327,39.641,53.223,38.307,86.016-.058,1.1,1.683,1.1,1.741,0,1.393-33.489-10.912-67.849-39.177-87.525-.871-.638-1.741.871-.871,1.509Z" transform="translate(-730.879 -536.834)" fill="#161616"/></g><g transform="translate(38.714 109.123)"><path d="M678.935,725.316c3.018,6.21,3.366,13.93,4,20.662a204.333,204.333,0,0,1,.929,20.662.872.872,0,0,0,1.741,0,188.988,188.988,0,0,0-1.161-22.926c-.7-6.442-1.161-13.407-4-19.327-.522-.987-1.973-.116-1.509.929Z" transform="translate(-678.844 -723.955)" fill="#161616"/></g><g transform="translate(44.632 135.182)"><path d="M689.249,785.828c8.706,10.679,23.564,13.7,36.507,10.389a58.281,58.281,0,0,0,19.85-9.809c5.978-4.411,11.666-9.519,15.032-16.251.522-.987-.987-1.857-1.509-.871-3.25,6.443-8.706,11.376-14.452,15.613a58.142,58.142,0,0,1-18.515,9.4c-12.653,3.54-27.221.813-35.753-9.693-.639-.871-1.857.348-1.161,1.219Z" transform="translate(-689.041 -768.852)" fill="#161616"/></g><g transform="translate(108.208 84.49)"><path d="M798.591,682.609c2.844,17.006,5.63,34.012,6.617,51.192.058,1.1,1.8,1.1,1.741,0-1.045-17.354-3.831-34.534-6.675-51.656-.174-1.1-1.857-.638-1.683.464Z" transform="translate(-798.578 -681.514)" fill="#161616"/></g><path d="M701.2,546.038A155.371,155.371,0,0,1,723.836,581.5c10.8,23.448,12.943,43.7,14.568,60.942a249.686,249.686,0,0,1-.58,53.223,61.19,61.19,0,0,0,27.221-22.636c-1.915-16.193-3.831-32.445-5.746-48.638a109.54,109.54,0,0,0-3.715-31.458,108,108,0,0,0-21.765-41.789A104.247,104.247,0,0,0,719.25,537.1C713.214,540.118,707.236,543.078,701.2,546.038Z" transform="translate(-649.511 -536.428)" fill="#3f3f3f" opacity="0.13"/><path d="M775.52,587.495c-1.045.29,1.393,9.751,3.715,23.739a377.616,377.616,0,0,1,4.295,41.789,207.472,207.472,0,0,1-6.268,58.1,54.811,54.811,0,0,0,9.751-6.268,52.2,52.2,0,0,0,9.461-10.041c-.755-23.39-2.728-35.521-4.585-42.369a89.321,89.321,0,0,1-2.031-8.88c-1.393-8.242-.7-11.782-1.451-18.631-.58-5.456-1.683-9.054-3.715-15.729C781.614,599.161,776.681,587.146,775.52,587.495Z" transform="translate(-680.591 -557.57)" fill="#3f3f3f" opacity="0.14"/></g><g transform="translate(0 108.009)"><path d="M616.8,396.639a54.225,54.225,0,0,0-27.4,38.074,7,7,0,0,0-5.166,1.219c-2.844,2.206-2.9,6.559-1.8,9.112a14.4,14.4,0,0,0,2.206,3.192c1.451,1.8,2.38,2.9,3.889,3.54a6.734,6.734,0,0,0,4.179.232,56.623,56.623,0,0,0,3.25,7.661c2.031,3.947,5.108,9.809,11.26,14.916a39.667,39.667,0,0,0,8.358,5.282,19.451,19.451,0,0,1,4.237,10.679c.58,9-5.978,16.483-12.188,19.792-10.8,5.746-22.52,0-26.815-2.147-2.322-1.161-13.988-7.2-18.863-20.43-5.92-15.961,1.8-31.922,6.384-41.441,4.643-9.577,6.791-8.938,10.331-18.283,4.7-12.363,2.206-16.716,7.6-26.176,2.089-3.715,6.326-11.144,15.207-14.626a27.862,27.862,0,0,1,17.644-.58A24.3,24.3,0,0,1,631.6,383c13.233,0,21.707,12.537,23.738,15.555,6.036,8.88,2.844,11.608,8.242,24.087,6.791,15.729,13.407,14.8,19.5,29.542,2.96,7.2,7.893,19.1,2.438,30.471-5.63,11.724-18.457,15.149-20.082,15.555-2.96.754-10.911,2.728-18.863-1.509-.755-.406-10.737-5.862-11.55-15.207a19.688,19.688,0,0,1,.929-7.313,21.484,21.484,0,0,1,3.947-7.023c2.5-3.076,5.514-8.764,7.6-20.082a9.736,9.736,0,0,0,4.237-1.219,10.432,10.432,0,0,0,4.875-9.461c-.058-.813-.29-5.456-3.656-7.023a5.916,5.916,0,0,0-3.657-.29C638.5,418.172,627.65,407.435,616.8,396.639Z" transform="translate(-559.674 -383)" fill="#6d9773"/><path d="M633.213,406.4a59.858,59.858,0,0,0-13.756,11.028,56.705,56.705,0,0,0-13.117,23.506,32.692,32.692,0,0,0-.813,3.773,4.83,4.83,0,0,0-3.54,0c-2.206.987-2.67,3.657-2.9,4.991a10.091,10.091,0,0,0,1.045,6.442,8.544,8.544,0,0,0,4.179,4.585,7.523,7.523,0,0,0,4.759.406,69.32,69.32,0,0,0,3.773,8.3c2.728,5.224,5.282,10.041,10.215,14.336a32.78,32.78,0,0,0,9.577,5.8,21.45,21.45,0,0,1,2.9,6.675,20.662,20.662,0,0,1,.638,5.8,17.218,17.218,0,0,0,7.893,1.857,18.317,18.317,0,0,0,12.3-5.4,52.438,52.438,0,0,1-2.5-12.072c-.174-2.147-.232-4.179-.232-6.036a34.075,34.075,0,0,0,5.8-8.3,35.83,35.83,0,0,0,3.773-15.613,8.055,8.055,0,0,0,4.179-.406,8.454,8.454,0,0,0,4.179-4.353c.174-.29,2.612-5.282.406-10.215-.522-1.1-1.393-3.134-3.134-3.308a3.683,3.683,0,0,0-2.728,1.277c-2.38-2.844-6.849-8.126-13.117-15.381-5.4-6.326-8.822-10.273-14.568-14.336C636.347,408.257,634.49,407.155,633.213,406.4Z" transform="translate(-576.091 -392.819)" fill="#fff"/><path d="M644.142,507.713c-.58,1.335,2.148,3.715,3.424,4.7a12.336,12.336,0,0,0,6.559,2.322,13.151,13.151,0,0,0,8.88-2.206,10.508,10.508,0,0,0,4.237-5.456c.638-2.264.464-5.4-.754-5.92-.929-.348-1.8.813-3.773,2.206-3.482,2.38-7.081,2.96-10.157,3.424C647.334,507.6,644.723,506.553,644.142,507.713Z" transform="translate(-595.03 -432.551)"/><g transform="translate(30.68 58.78)"><path d="M612.476,487.25c2.089,8.706,5.456,17.238,11.028,24.319,4.933,6.326,12.246,12.421,20.778,11.608,7.893-.755,14.336-6.907,18.515-13.175a42.517,42.517,0,0,0,7.081-24.9c-.058-1.1-1.8-1.1-1.741,0a40.981,40.981,0,0,1-6.094,22.81c-4,6.442-10.621,13.233-18.689,13.581-8.532.348-15.555-6.617-20.082-13.117s-7.313-13.988-9.17-21.649c-.232-1.045-1.915-.58-1.625.522Z" transform="translate(-612.442 -484.275)" fill="#161616"/></g><g transform="translate(55.25 95.565)"><path d="M654.906,548.957a21.817,21.817,0,0,1,3.657,12.247.872.872,0,0,0,1.741,0,23.93,23.93,0,0,0-3.889-13.117.871.871,0,0,0-1.509.871Z" transform="translate(-654.775 -547.652)" fill="#161616"/></g><g transform="translate(59.416 104.17)"><path d="M662.386,568.121a16.322,16.322,0,0,0,21.069-4.411c.7-.871-.813-1.741-1.509-.871a14.5,14.5,0,0,1-18.689,3.773c-.987-.522-1.857.987-.871,1.509Z" transform="translate(-661.952 -562.479)" fill="#161616"/></g><g transform="translate(76.565 88.221)"><path d="M691.5,535.871a50.77,50.77,0,0,0,2.554,15.555c.348,1.045,2.031.58,1.683-.464a51.366,51.366,0,0,1-2.5-15.09.871.871,0,0,0-1.741,0Z" transform="translate(-691.5 -535)" fill="#161616"/></g><g transform="translate(21.956 50.973)"><path d="M607.91,487.119c-.755.813-2.612.522-3.482.058a7.413,7.413,0,0,1-1.857-1.393,11.1,11.1,0,0,1-2.67-3.889c-1.161-2.728-1.683-10.563,3.482-9.17a.873.873,0,0,0,.464-1.683c-6.384-1.683-7.371,6.791-5.746,11.028,1.277,3.424,7.139,10.505,11.086,6.268.7-.813-.522-2.031-1.277-1.219Z" transform="translate(-597.411 -470.824)" fill="#161616"/></g><g transform="translate(86.44 44.726)"><path d="M712.859,462.289c.7-2.322,3.715,2.147,4.063,2.96a11.853,11.853,0,0,1,.638,5.862c-.464,3.947-3.6,7.719-7.952,6.617a.873.873,0,0,0-.464,1.683c7.023,1.8,10.8-5.514,10.157-11.492-.29-2.612-1.335-5.978-3.831-7.371-1.625-.871-3.715-.638-4.295,1.219a.881.881,0,0,0,1.683.522Z" transform="translate(-708.514 -460.061)" fill="#161616"/></g><g transform="translate(37.048 26.338)"><path d="M625.031,436.691a12.352,12.352,0,0,1,9.345-6.617c1.1-.174.638-1.857-.464-1.683a13.963,13.963,0,0,0-10.389,7.429c-.522.987.987,1.857,1.509.871Z" transform="translate(-623.413 -428.378)" fill="#161616"/></g><g transform="translate(64.385 23.688)"><path d="M671.609,425.837a10.616,10.616,0,0,1,11.956,5.688c.522.987,1.973.116,1.509-.871a12.334,12.334,0,0,0-13.93-6.5.873.873,0,0,0,.464,1.683Z" transform="translate(-670.514 -423.812)" fill="#161616"/></g><g transform="translate(52.814 31.768)"><path d="M650.591,438.817a67.591,67.591,0,0,1,.754,18.747c-.232,1.915-1.161,4.643-.29,6.559.929,2.089,3.424,3.889,4.991,5.514.755.813,2.031-.406,1.219-1.219-1.045-1.1-2.089-2.147-3.134-3.25-1.625-1.683-1.8-2.206-1.451-4.643.29-2.206.58-4.469.7-6.733a68.175,68.175,0,0,0-1.1-15.381c-.174-1.161-1.857-.7-1.683.406Z" transform="translate(-650.578 -437.735)" fill="#161616"/></g><g transform="translate(42.713 39.316)"><path d="M635.975,459.19a7.375,7.375,0,0,1-1.161-4.527c0-.348.232-1.857.522-1.915a10.867,10.867,0,0,1,.522,2.264,15.621,15.621,0,0,1,.174,2.322c0,.232-.058,2.148-.058.987-.058-1.683.058-3.366.116-5.049-.58.058-1.161.174-1.683.232a34.035,34.035,0,0,1,.464,5.456h1.741v-.7a.872.872,0,0,0-1.741,0v.7a.872.872,0,0,0,1.741,0,34,34,0,0,0-.522-5.92c-.174-.987-1.683-.7-1.683.232a37.989,37.989,0,0,0-.058,5.746,1.921,1.921,0,0,0,1.509,1.857c2.9.58,2.031-5.108,1.8-6.5-.174-1.1-.348-2.786-1.393-3.424a1.723,1.723,0,0,0-2.322.813c-1.451,2.438-.638,6.036.7,8.242.406.987,1.915.116,1.335-.813Z" transform="translate(-633.175 -450.739)" fill="#161616"/></g><g transform="translate(69.528 36.24)"><path d="M682.175,453.89a7.374,7.374,0,0,1-1.161-4.527c0-.348.232-1.857.522-1.915a10.871,10.871,0,0,1,.522,2.264,15.629,15.629,0,0,1,.174,2.322c0,.232-.058,2.147-.058.987-.058-1.683.058-3.366.116-5.049-.58.058-1.161.174-1.683.232a34.043,34.043,0,0,1,.464,5.456h1.741v-.7a.872.872,0,0,0-1.741,0v.7a.872.872,0,0,0,1.741,0,34,34,0,0,0-.522-5.92c-.174-.987-1.683-.7-1.683.232a37.981,37.981,0,0,0-.058,5.746,1.921,1.921,0,0,0,1.509,1.857c2.9.58,2.031-5.108,1.8-6.5-.174-1.1-.348-2.786-1.393-3.424a1.723,1.723,0,0,0-2.322.813c-1.451,2.438-.638,6.036.7,8.242.406,1.045,1.915.174,1.335-.813Z" transform="translate(-679.375 -445.439)" fill="#161616"/></g><g transform="translate(36.097 51.366)"><path d="M622.6,473.241a.872.872,0,0,0,0-1.741.872.872,0,0,0,0,1.741Z" transform="translate(-621.775 -471.5)" fill="#161616"/></g><g transform="translate(42.902 52.643)"><path d="M634.371,475.441h.232a.871.871,0,0,0,0-1.741h-.232a.893.893,0,0,0-.871.871.855.855,0,0,0,.871.871Z" transform="translate(-633.5 -473.7)" fill="#161616"/></g><g transform="translate(38.861 57.982)"><path d="M627.386,484.641a.872.872,0,0,0,0-1.741.872.872,0,0,0,0,1.741Z" transform="translate(-626.537 -482.9)" fill="#161616"/></g><g transform="translate(71.806 50.495)"><path d="M684.171,471.741h.232a.871.871,0,0,0,0-1.741h-.232a.893.893,0,0,0-.871.871.855.855,0,0,0,.871.871Z" transform="translate(-683.3 -470)" fill="#161616"/></g><g transform="translate(78.234 46.2)"><path d="M695.2,464.341a.872.872,0,0,0,0-1.741.872.872,0,0,0,0,1.741Z" transform="translate(-694.375 -462.6)" fill="#161616"/></g><g transform="translate(77.32 50.901)"><path d="M693.671,472.441h.232a.871.871,0,0,0,0-1.741h-.232a.893.893,0,0,0-.871.871.936.936,0,0,0,.871.871Z" transform="translate(-692.8 -470.7)" fill="#161616"/></g><g transform="translate(46.834 64.629)"><path d="M644,506.22c-.929-1.335-2.438-3.25-1.8-4.991.755-1.973,3.134-1.683,4.7-1.451,1.915.29,3.482.638,5.34.058a24.507,24.507,0,0,0,4.237-2.206c3.308-1.857,7.2-2.031,8.242,2.322,2.96,11.9-18.051,15.265-21.3,4.817-.348-1.045-2.031-.638-1.683.464,4,12.827,28.846,8.068,24.493-6.152a6.345,6.345,0,0,0-5.108-4.7c-4.179-.406-6.907,3.773-10.912,4.063-2.96.232-6.559-2.031-8.938.755-2.148,2.5-.406,5.688,1.161,7.893.7.929,2.206.058,1.567-.871Z" transform="translate(-640.274 -494.352)" fill="#161616"/></g><g transform="translate(47.134 67.212)"><path d="M640.855,504.779c1.277,3.54,7.661,2.438,10.447,2.031a29.284,29.284,0,0,0,14.336-6.559c.871-.7-.348-1.973-1.219-1.219a26.869,26.869,0,0,1-10.331,5.456c-1.683.464-10.563,2.438-11.492-.116-.464-1.1-2.147-.638-1.741.406Z" transform="translate(-640.792 -498.802)" fill="#161616"/></g><g transform="translate(56.898 89.217)"><path d="M658.244,546.167c6.791,1.741,15.845-2.554,19.676-8.184.638-.929-.871-1.8-1.509-.871-3.366,4.933-11.782,8.88-17.7,7.371a.873.873,0,0,0-.464,1.683Z" transform="translate(-657.614 -536.716)" fill="#161616"/></g><g transform="translate(57.733 90.573)"><path d="M659.486,547.67c6.036,3.773,15.961-1.567,18.863-7.313.522-.987-.987-1.857-1.509-.871-2.438,4.875-11.318,9.925-16.483,6.733a.846.846,0,1,0-.871,1.451Z" transform="translate(-659.052 -539.052)" fill="#161616"/></g><path d="M684.181,447.9a93.142,93.142,0,0,1,1.277,9.4c.813,10.679,2.206,28.556-8.59,40.454-2.322,2.554-7.255,7.081-16.367,9.635a48.867,48.867,0,0,0,10.273-1.451A36.833,36.833,0,0,0,676,504.257c.232,5.166.406,10.331.638,15.5,1.973-1.277,3.889-2.5,5.862-3.773a24.667,24.667,0,0,1-2.322-13.407,36.137,36.137,0,0,1,3.54-10.679,48.2,48.2,0,0,1,3.831-6.849,7.81,7.81,0,0,0,1.219,3.715c3.541,5.282,14.626,5.8,21.591,1.277,6.443-4.179,9.577-12.653,7.951-21.359a26.294,26.294,0,0,1,3.366,3.366c.871,1.045,3.134,4.063,6.268,14.684a58.036,58.036,0,0,1,1.741,6.675,29.675,29.675,0,0,1-.232,11.724,27.155,27.155,0,0,1-10.157,14.916,30.743,30.743,0,0,1-11.492,5.34c-2.9.638-11.608,2.728-19.792-2.031-3.076-1.8-4.759-3.134-5.688-4.759a11.272,11.272,0,0,1-1.219-4.759c-.522-7.951-.754-11.956-.232-14.684,1.567-7.893,5.107-8.706,7.081-17.7a43.473,43.473,0,0,0,.929-7.719,7.544,7.544,0,0,0,8.184-4.121c2.089-3.308,3.018-9.228-.232-11.956a6.932,6.932,0,0,0-5.224-1.393C689.23,453.472,686.734,450.686,684.181,447.9Z" transform="translate(-601.927 -410.232)" fill="#3f3f3f" opacity="0.2"/><path d="M653.9,480.3c2.96.871,5.978,1.8,8.938,2.67-.755.7-1.509,1.335-2.322,2.031-.755.638-1.451,1.161-2.206,1.741A12.261,12.261,0,0,1,655,482.97,9.658,9.658,0,0,1,653.9,480.3Z" transform="translate(-599.158 -423.827)" fill="#3f3f3f" opacity="0.13"/><path d="M567.776,490.324c-6.326,22.346-1.625,40.4,7.835,44.343,7.429,3.076,20.837-1.277,23.332-8.88.348-.987.7-2.728-.638-8.068a63.33,63.33,0,0,0-8.88-19.85,13.986,13.986,0,0,1-3.308-2.9,13.169,13.169,0,0,1-2.786-6.442c1.683,1.741,4.121,3.947,5.688,3.25a4.242,4.242,0,0,0,1.915-4.875,72.185,72.185,0,0,0,2.844,10.563c1.973,5.63,3.947,11.086,8.532,16.251a34.205,34.205,0,0,0,13.175,9.054,19.406,19.406,0,0,1,4,9.17,20.135,20.135,0,0,1-.522,7.893,22.525,22.525,0,0,1-6.21,10.331,24.537,24.537,0,0,1-13.814,6.326c-15.729,2.089-27.917-11.666-30.065-14.046a35.137,35.137,0,0,1-7.719-12.769c-3.25-9.983-.754-18.979,1.045-25.538A64.89,64.89,0,0,1,567.776,490.324Z" transform="translate(-559.582 -426.596)" fill="#6d9773" opacity="0.16"/></g></g></g></svg>