<svg xmlns="http://www.w3.org/2000/svg" width="863" height="479.18" viewBox="0 0 863 479.18">
  <g id="pixeltrue-contact-me" transform="translate(-142.486 -342.684)">
    <g id="ground" transform="translate(142.486 603.624)">
      <g id="Group_3258" data-name="Group 3258" transform="translate(13.033 134.147)">
        <g id="Group_3257" data-name="Group 3257">
          <path id="Path_2189" data-name="Path 2189" d="M164.168,974.781h846.888a.942.942,0,0,0,0-1.881H164.168a.942.942,0,0,0,0,1.881Z" transform="translate(-163.275 -972.9)" fill="#e8e8e8"/>
        </g>
      </g>
      <g id="Group_3260" data-name="Group 3260" transform="translate(222.76 27.035)">
        <g id="Group_3259" data-name="Group 3259">
          <path id="Path_2190" data-name="Path 2190" d="M522.758,908.4a34.973,34.973,0,0,1-15.485-13.729,33.118,33.118,0,0,1-3.887-9.216c-.69-3.2.564-6.457,4.326-5.956,2.445.313,4.388,1.943,6.144,3.448l1.128-1.5a24.3,24.3,0,0,1-9.216-10.72c-1.316-3.072-4.388-12.789.878-13.729a.954.954,0,0,0,.564-1.379c-5.015-10.344-6.206-21.879-7.272-33.163-.5-5.391-1-11.911,3.2-16.049,4.953-5.015,11.786-1.5,15.923,2.758,7.711,7.962,11.723,19.309,15.8,29.4a238.951,238.951,0,0,1,10.657,32.411,136.43,136.43,0,0,1,4.012,38.994c-.063,1.191,1.818,1.191,1.881,0,1.379-26.832-6.708-52.848-16.926-77.3-4.2-10.03-8.965-22.945-18.87-28.712-3.824-2.194-8.463-2.821-12.225-.188-3.824,2.7-5.266,7.46-5.517,11.911-.313,6.833.878,14.043,1.943,20.751a70.14,70.14,0,0,0,5.893,20.124c.188-.439.376-.94.564-1.379-5.517,1-4.388,8.965-3.323,12.789a26.186,26.186,0,0,0,11.222,15.108c.878.564,1.943-.815,1.128-1.5-3.009-2.508-6.833-5.329-10.908-3.511-4.326,1.943-3.135,6.959-1.881,10.532a36.906,36.906,0,0,0,19.434,21.378c.94.564,1.943-1.066.815-1.567Z" transform="translate(-497.819 -802.042)" fill="#e8e8e8"/>
        </g>
      </g>
      <g id="Group_3262" data-name="Group 3262" transform="translate(264.719 0)">
        <g id="Group_3261" data-name="Group 3261">
          <path id="Path_2191" data-name="Path 2191" d="M567.727,837.772c-2.006-14.983-1.379-29.653,3.323-44.072,2.257-6.959,4.639-13.855,6.959-20.751,1.881-5.579,5.2-15.923,13.165-11.1,5.7,3.448,6.771,12.6,8.087,18.556a173.728,173.728,0,0,1,3.448,22.067,212.138,212.138,0,0,1-.376,42.316,275.336,275.336,0,0,1-9.905,48.836.944.944,0,0,0,1.818.5c9.09-30.906,13.667-63.568,9.905-95.666a176.781,176.781,0,0,0-4.138-23.008c-1.442-5.642-2.946-12.726-8.651-15.61-4.7-2.32-9.216-.063-11.723,4.2a45.31,45.31,0,0,0-3.2,7.9c-1.379,4.138-2.758,8.212-4.138,12.35-2.758,8.275-5.7,16.425-6.833,25.139a109.965,109.965,0,0,0,.439,28.336c.063,1.191,1.943,1.191,1.818,0Z" transform="translate(-564.748 -758.918)" fill="#e8e8e8"/>
        </g>
      </g>
      <g id="Group_3264" data-name="Group 3264" transform="translate(229.904 28.796)">
        <g id="Group_3263" data-name="Group 3263">
          <path id="Path_2192" data-name="Path 2192" d="M509.33,806.261c18.055,32.16,32.286,67.142,35.546,104.255.125,1.191,2.006,1.191,1.881,0-3.323-37.426-17.553-72.659-35.8-105.2-.564-1.066-2.194-.125-1.63.94Z" transform="translate(-509.213 -804.852)" fill="#e8e8e8"/>
        </g>
      </g>
      <g id="Group_3266" data-name="Group 3266" transform="translate(281.225 0.906)">
        <g id="Group_3265" data-name="Group 3265">
          <path id="Path_2193" data-name="Path 2193" d="M597.423,761.515c1.5,10.971.94,22.067.5,33.1-.439,10.846-.878,21.691-1.317,32.6-.878,22.067-1.442,44.322-5.517,66.076-.188,1.191,1.567,1.693,1.818.5,4.075-21.942,4.7-44.322,5.579-66.578.439-11.284.94-22.569,1.379-33.79.439-10.783.878-21.628-.627-32.348-.125-1.254-1.943-.69-1.818.439Z" transform="translate(-591.078 -760.364)" fill="#e8e8e8"/>
        </g>
      </g>
      <g id="Group_3268" data-name="Group 3268" transform="translate(269.412 32.325)">
        <g id="Group_3267" data-name="Group 3267">
          <path id="Path_2194" data-name="Path 2194" d="M572.4,811.872a96.809,96.809,0,0,1,16.676,35.859c.251,1.191,2.069.69,1.818-.5a97.945,97.945,0,0,0-16.864-36.361c-.69-.94-2.32,0-1.63,1Z" transform="translate(-572.234 -810.481)" fill="#e8e8e8"/>
        </g>
      </g>
      <g id="Group_3270" data-name="Group 3270" transform="translate(287.409 20.22)">
        <g id="Group_3269" data-name="Group 3269">
          <path id="Path_2195" data-name="Path 2195" d="M613.015,791.628a142.272,142.272,0,0,0-12.037,29.089.943.943,0,0,0,1.818.5,143,143,0,0,1,11.849-28.65c.564-1-1.066-2.006-1.63-.94Z" transform="translate(-600.942 -791.172)" fill="#e8e8e8"/>
        </g>
      </g>
      <g id="Group_3272" data-name="Group 3272" transform="translate(230.791 79.937)">
        <g id="Group_3271" data-name="Group 3271">
          <path id="Path_2196" data-name="Path 2196" d="M511.238,888.291A63.037,63.037,0,0,1,542.395,916c.564,1.066,2.194.125,1.63-.94a65.142,65.142,0,0,0-32.286-28.524c-1.128-.564-1.567,1.254-.5,1.755Z" transform="translate(-510.629 -886.429)" fill="#e8e8e8"/>
        </g>
      </g>
      <g id="Group_3274" data-name="Group 3274" transform="translate(248.488 38.59)">
        <g id="Group_3273" data-name="Group 3273">
          <path id="Path_2197" data-name="Path 2197" d="M539.448,821.368a109.837,109.837,0,0,0,1.379,32.035c.251,1.191,2.069.69,1.818-.5a110.809,110.809,0,0,1-1.317-31.533c.125-1.191-1.755-1.191-1.881,0Z" transform="translate(-538.857 -820.475)" fill="#e8e8e8"/>
        </g>
      </g>
      <g id="Group_3276" data-name="Group 3276" transform="translate(20.238 48.899)">
        <g id="Group_3275" data-name="Group 3275">
          <path id="Path_2198" data-name="Path 2198" d="M179.992,921.791a61.557,61.557,0,0,1-3.009-13.04,56.933,56.933,0,0,1-.313-5.7,15.217,15.217,0,0,1,.063-3.385c0-.376.063-.752.063-1.128,1.191-.878,2.194-.752,3.009.313.564.5,1.693.188,1.63-.69a39.628,39.628,0,0,1,.125-7.711,35.036,35.036,0,0,1,.69-3.7A34.169,34.169,0,0,1,184,882.233a.926.926,0,0,0,1.693-.251,110.815,110.815,0,0,1,13.416-31.157c1.5-2.508,3.135-5.015,4.764-7.46,1.818-2.7,4.827-6.959,7.586-2.257,2.821,4.765,3.636,11.723,3.887,17.177.627,11.535-2.006,23.008-5.7,33.853-3.573,10.595-8.024,21.189-15.673,29.527-.815.878.5,2.194,1.316,1.317,6.645-7.209,10.845-16.049,14.293-25.139,3.636-9.717,6.583-19.81,7.46-30.154a64.162,64.162,0,0,0-.376-15.109c-.627-4.326-1.567-9.842-4.263-13.479-5.579-7.4-12.037,6.081-14.356,9.843-6.269,10.156-11.347,20.939-14.168,32.536a15.768,15.768,0,0,0,1.693-.251c-1.567-2.069-3.511,0-4.2,1.755a32.711,32.711,0,0,0-1.881,15.108c.564-.251,1.066-.439,1.63-.69-1.191-1.066-3.135-2.445-4.827-1.63-1.755.878-1.5,3.26-1.5,4.89a61.292,61.292,0,0,0,3.385,21.5c.376,1.254,2.194.752,1.818-.376Z" transform="translate(-174.769 -836.92)" fill="#e8e8e8"/>
        </g>
      </g>
      <g id="Group_3278" data-name="Group 3278" transform="translate(29.279 50.271)">
        <g id="Group_3277" data-name="Group 3277">
          <path id="Path_2199" data-name="Path 2199" d="M214.335,839.792a219.612,219.612,0,0,1-10.783,43.382c-4.7,13.165-12.6,25.891-14.356,39.934-.125,1.191,1.755,1.191,1.881,0,.94-7.46,3.824-14.356,6.833-21.127,2.821-6.394,5.517-12.852,7.836-19.434a223.01,223.01,0,0,0,10.344-42.316c.188-1.128-1.63-1.63-1.755-.439Z" transform="translate(-189.19 -839.107)" fill="#e8e8e8"/>
        </g>
      </g>
      <g id="Group_3280" data-name="Group 3280" transform="translate(37.12 72.42)">
        <g id="Group_3279" data-name="Group 3279">
          <path id="Path_2200" data-name="Path 2200" d="M201.7,875.354c.69,9.968,1.693,19.873,3.009,29.778.188,1.191,1.943.69,1.818-.5-1.316-9.717-2.32-19.5-2.946-29.277-.063-1.191-1.943-1.254-1.881,0Z" transform="translate(-201.698 -874.437)" fill="#e8e8e8"/>
        </g>
      </g>
      <g id="Group_3282" data-name="Group 3282" transform="translate(47.239 66.599)">
        <g id="Group_3281" data-name="Group 3281">
          <path id="Path_2201" data-name="Path 2201" d="M219.444,883.112a84.917,84.917,0,0,0,12.977-16.55.941.941,0,0,0-1.63-.94A85.3,85.3,0,0,1,218.128,881.8c-.878.815.439,2.132,1.317,1.317Z" transform="translate(-217.838 -865.152)" fill="#e8e8e8"/>
        </g>
      </g>
      <g id="Group_3284" data-name="Group 3284" transform="translate(0 41.544)">
        <g id="Group_3283" data-name="Group 3283">
          <path id="Path_2202" data-name="Path 2202" d="M160.989,916.472a95.428,95.428,0,0,1-10.72-19.936,90.114,90.114,0,0,1-3.2-9.842c-.439-1.755-.878-3.511-1.254-5.329-.251-1.066-1.881-8.024.376-7.586a.916.916,0,0,0,1.128-1.128,183.233,183.233,0,0,1-2.884-26.142,48.228,48.228,0,0,1,.69-12.037,14.374,14.374,0,0,1,2.32-5.642c2.884-3.511,5.893-.627,7.774,2.006,9.027,12.664,14.795,27.9,17.553,43.131.188,1.191,2.006.69,1.818-.5A118.437,118.437,0,0,0,166,846.133a107.6,107.6,0,0,0-7.021-12.977c-1.755-2.758-4.012-7.084-7.586-7.836-7.836-1.63-8.839,12.037-8.9,16.864a161.83,161.83,0,0,0,3.009,31.095l1.128-1.128c-7.523-1.317-1.317,15.923-.376,18.87A97.962,97.962,0,0,0,159.3,917.6c.752.815,2.382-.125,1.693-1.128Z" transform="translate(-142.486 -825.186)" fill="#e8e8e8"/>
        </g>
      </g>
      <g id="Group_3286" data-name="Group 3286" transform="translate(6.101 42.484)">
        <g id="Group_3285" data-name="Group 3285">
          <path id="Path_2203" data-name="Path 2203" d="M152.27,827.823c7.021,21.754,12.977,43.883,17.867,66.2.251,1.191,2.069.69,1.818-.5-4.89-22.318-10.845-44.448-17.867-66.2-.376-1.128-2.194-.627-1.818.5Z" transform="translate(-152.219 -826.685)" fill="#e8e8e8"/>
        </g>
      </g>
      <g id="Group_3288" data-name="Group 3288" transform="translate(1.067 71.005)">
        <g id="Group_3287" data-name="Group 3287">
          <path id="Path_2204" data-name="Path 2204" d="M144.7,873.886a35.8,35.8,0,0,1,17.428,15.735c.564,1.066,2.194.125,1.63-.94a37.255,37.255,0,0,0-18.118-16.425c-1.128-.439-2.069,1.191-.94,1.63Z" transform="translate(-144.187 -872.181)" fill="#e8e8e8"/>
        </g>
      </g>
      <g id="Group_3290" data-name="Group 3290" transform="translate(16.056 56.042)">
        <g id="Group_3289" data-name="Group 3289">
          <path id="Path_2205" data-name="Path 2205" d="M171.108,848.995a96.238,96.238,0,0,0-3.009,18.87c-.063,1.191,1.818,1.191,1.881,0a87.007,87.007,0,0,1,2.946-18.368.943.943,0,0,0-1.818-.5Z" transform="translate(-168.098 -848.314)" fill="#e8e8e8"/>
        </g>
      </g>
      <g id="Group_3292" data-name="Group 3292" transform="translate(770.621 35.064)">
        <g id="Group_3291" data-name="Group 3291">
          <path id="Path_2206" data-name="Path 2206" d="M1378.858,914.873a66.028,66.028,0,0,1-3.887-37.928,10.751,10.751,0,0,0-.878.69c1.442-.251,2.508.376,3.26,1.943.313.878,1.943.878,1.818-.251a73.624,73.624,0,0,1,.125-16.613,71.876,71.876,0,0,1,1.567-8.15c.313-1.254.689-2.508,1.066-3.761.251-.69.439-1.442.69-2.131a7.915,7.915,0,0,0,.69-3.2c.5.313,1.066.627,1.567.94a56.362,56.362,0,0,1,15.986-29.966h-1.317c2.884,3.072,3.009,7.46,3.448,11.41q.658,6.206.94,12.413a224.93,224.93,0,0,1,0,24.324,239.663,239.663,0,0,1-7.648,49.463.943.943,0,0,0,1.818.5,246.15,246.15,0,0,0,7.774-52.347,235.947,235.947,0,0,0-.439-26.644c-.439-6.332.063-15.422-4.639-20.437a.908.908,0,0,0-1.316,0A57.956,57.956,0,0,0,1383,845.913a.957.957,0,0,0,1.567.94l.313-.313a.872.872,0,0,0,.251-.94c-.5-1.442-1.818-1.881-2.946-.69a8.9,8.9,0,0,0-1.5,3.323c-.752,2.132-1.379,4.263-1.943,6.457a71.219,71.219,0,0,0-1.63,24.7c.627-.063,1.254-.188,1.818-.251a4.839,4.839,0,0,0-5.078-3.323.872.872,0,0,0-.878.69,68.366,68.366,0,0,0,3.887,38.931c.69,1,2.508.564,2.006-.564Z" transform="translate(-1371.729 -814.85)" fill="#e8e8e8"/>
        </g>
      </g>
      <g id="Group_3294" data-name="Group 3294" transform="translate(803.885 43.032)">
        <g id="Group_3293" data-name="Group 3293">
          <path id="Path_2207" data-name="Path 2207" d="M1426.614,869.024a64.7,64.7,0,0,1,13.1-30.718,60.8,60.8,0,0,1,5.391-5.956c1.254-1.191,4.075-4.576,6.018-1.755.752,1.066.69,2.821.69,4.075A130.188,130.188,0,0,1,1450,853.038a175.173,175.173,0,0,1-24.575,66.327c-.627,1,1,2.006,1.63.94A178.927,178.927,0,0,0,1450.687,860c1-5.141,1.755-10.281,2.257-15.485.439-4.2,1.755-9.905.188-13.98-3.323-8.777-13.165,4.388-15.547,7.46a65.089,65.089,0,0,0-12.789,30.53c-.125,1.191,1.693,1.693,1.818.5Z" transform="translate(-1424.79 -827.561)" fill="#e8e8e8"/>
        </g>
      </g>
      <g id="Group_3296" data-name="Group 3296" transform="translate(800.294 78.9)">
        <g id="Group_3295" data-name="Group 3295">
          <path id="Path_2208" data-name="Path 2208" d="M1423.412,885.668a241.924,241.924,0,0,1-4.326,31.471c-.251,1.191,1.567,1.693,1.818.5a237.61,237.61,0,0,0,4.388-31.972c.063-1.191-1.818-1.191-1.881,0Z" transform="translate(-1419.062 -884.775)" fill="#e8e8e8"/>
        </g>
      </g>
      <g id="Group_3298" data-name="Group 3298" transform="translate(797.885 43.8)">
        <g id="Group_3297" data-name="Group 3297">
          <path id="Path_2209" data-name="Path 2209" d="M1446.176,829.421q-15.986,44.855-30.906,90.024c-.376,1.128,1.442,1.63,1.818.5q14.858-45.231,30.906-90.024c.376-1.128-1.442-1.63-1.818-.5Z" transform="translate(-1415.219 -828.785)" fill="#e8e8e8"/>
        </g>
      </g>
      <g id="Group_3300" data-name="Group 3300" transform="translate(783.378 36.707)">
        <g id="Group_3299" data-name="Group 3299">
          <path id="Path_2210" data-name="Path 2210" d="M1406.824,818.178q-7.335,48.9-14.732,97.735c-.188,1.191,1.63,1.693,1.818.5q7.335-48.9,14.732-97.735c.188-1.191-1.63-1.755-1.818-.5Z" transform="translate(-1392.078 -817.47)" fill="#e8e8e8"/>
        </g>
      </g>
      <g id="Group_3302" data-name="Group 3302" transform="translate(781.685 64.13)">
        <g id="Group_3301" data-name="Group 3301">
          <path id="Path_2211" data-name="Path 2211" d="M1389.392,862.4c2.069,12.664,4.138,25.264,6.206,37.928.188,1.191,2.006.69,1.818-.5-2.069-12.664-4.137-25.264-6.206-37.928-.188-1.191-2.006-.69-1.818.5Z" transform="translate(-1389.378 -861.214)" fill="#e8e8e8"/>
        </g>
      </g>
      <g id="Group_3304" data-name="Group 3304" transform="translate(792.038 55.191)">
        <g id="Group_3303" data-name="Group 3303">
          <path id="Path_2212" data-name="Path 2212" d="M1416.68,847.422a146.72,146.72,0,0,0-10.72,22.381c-.439,1.128,1.379,1.63,1.818.5a140.487,140.487,0,0,1,10.532-21.879.957.957,0,0,0-1.63-1Z" transform="translate(-1405.892 -846.955)" fill="#e8e8e8"/>
        </g>
      </g>
      <g id="Group_3306" data-name="Group 3306" transform="translate(810.725 62.162)">
        <g id="Group_3305" data-name="Group 3305">
          <path id="Path_2213" data-name="Path 2213" d="M1435.7,858.968v32.411a.942.942,0,0,0,1.881,0V858.968a.942.942,0,0,0-1.881,0Z" transform="translate(-1435.7 -858.075)" fill="#e8e8e8"/>
        </g>
      </g>
      <g id="Group_3308" data-name="Group 3308" transform="translate(222.32 155.453)">
        <g id="Group_3307" data-name="Group 3307">
          <path id="Path_2214" data-name="Path 2214" d="M498.485,1011.534a16.511,16.511,0,0,1,13.792-2.006c4.075,1.254,7.46,2.946,11.849,2.758,4.075-.188,8.024-1.254,12.1-1.5a16.458,16.458,0,0,1,6.52.69c2.132.752,3.636,1.881,5.893,2.006,1.191.063,1.191-1.818,0-1.881-2.57-.125-4.764-1.943-7.272-2.445a22.361,22.361,0,0,0-6.144-.188c-4.388.439-8.714,1.693-13.1,1.442-4.576-.251-8.463-3.009-12.977-3.448a18.436,18.436,0,0,0-11.6,2.946c-1,.627-.063,2.257.94,1.63Z" transform="translate(-497.116 -1006.886)" fill="#e8e8e8"/>
        </g>
      </g>
      <g id="Group_3310" data-name="Group 3310" transform="translate(382.17 151.997)">
        <g id="Group_3309" data-name="Group 3309">
          <path id="Path_2215" data-name="Path 2215" d="M752.977,1004.148c6.269-.188,12.538-.439,18.745-.627a77.437,77.437,0,0,1,9.341-.188c2.57.188,4.514,1.63,6.9,2.194a12.854,12.854,0,0,0,5.768-.313,53.907,53.907,0,0,1,10.03-1.567,105.7,105.7,0,0,1,17.8,1.066c1.191.125,1.191-1.755,0-1.881a105.7,105.7,0,0,0-17.8-1.066,47.477,47.477,0,0,0-8.4,1.128c-3.323.752-5.893,1.316-9.09-.125-4.639-2.006-9.529-1.316-14.419-1.128-6.269.188-12.538.439-18.745.627-1.317.063-1.317,1.943-.125,1.881Z" transform="translate(-752.099 -1001.374)" fill="#e8e8e8"/>
        </g>
      </g>
      <g id="Group_3312" data-name="Group 3312" transform="translate(607.674 213.081)">
        <g id="Group_3311" data-name="Group 3311">
          <path id="Path_2216" data-name="Path 2216" d="M1112.492,1103.631c6.332.94,12.538-.251,18.745-1.442a71.748,71.748,0,0,1,11.6-1.63c3.887-.125,7.523.752,11.284,1.63a28.207,28.207,0,0,0,9.717.69c3.323-.439,6.52-1.317,9.842-1.693,7.209-.878,13.98,2.633,21.189,2.194,1.191-.063,1.191-1.943,0-1.881-6.708.376-12.977-2.758-19.685-2.382a82.773,82.773,0,0,0-9.466,1.567,28.752,28.752,0,0,1-12.225-.564,42.8,42.8,0,0,0-18.494-.564c-7.335,1.254-14.607,3.323-22.067,2.257-1.129-.188-1.63,1.63-.439,1.818Z" transform="translate(-1111.807 -1098.811)" fill="#e8e8e8"/>
        </g>
      </g>
      <g id="Group_3314" data-name="Group 3314" transform="translate(780.968 152.208)">
        <g id="Group_3313" data-name="Group 3313">
          <path id="Path_2217" data-name="Path 2217" d="M1389.4,1006.531c12.538-4.2,26.142-.251,39.056-2.006,3.636-.5,7.335-1.128,11.033-.815,3.072.251,5.956,1.442,8.965,1.755,3.135.251,6.206-.627,9.278-.94a40.5,40.5,0,0,1,11.347.564c1.191.251,1.693-1.567.5-1.818a48.51,48.51,0,0,0-9.529-.815c-3.385.125-6.645,1.066-10.031,1.128-3.2.063-6.206-1.317-9.4-1.693a40.91,40.91,0,0,0-10.344.439,114.1,114.1,0,0,1-21.691.564c-6.708-.313-13.353-.376-19.748,1.818-1.066.376-.627,2.194.564,1.818Z" transform="translate(-1388.235 -1001.71)" fill="#e8e8e8"/>
        </g>
      </g>
      <g id="Group_3316" data-name="Group 3316" transform="translate(262.73 203.608)">
        <g id="Group_3315" data-name="Group 3315">
          <path id="Path_2218" data-name="Path 2218" d="M562.468,1085.581H717.69a.942.942,0,0,0,0-1.881H562.468a.942.942,0,0,0,0,1.881Z" transform="translate(-561.575 -1083.7)" fill="#161616"/>
        </g>
      </g>
      <g id="Group_3318" data-name="Group 3318" transform="translate(407.059 213.826)">
        <g id="Group_3317" data-name="Group 3317">
          <path id="Path_2219" data-name="Path 2219" d="M792.74,1101.881h79.68a.942.942,0,0,0,0-1.881H792.74a.94.94,0,1,0,0,1.881Z" transform="translate(-791.8 -1100)" fill="#161616"/>
        </g>
      </g>
      <g id="Group_3320" data-name="Group 3320" transform="translate(609.284 183.86)">
        <g id="Group_3319" data-name="Group 3319">
          <path id="Path_2220" data-name="Path 2220" d="M1115.268,1054.081h83.755a.942.942,0,0,0,0-1.881h-83.755a.942.942,0,0,0,0,1.881Z" transform="translate(-1114.375 -1052.2)" fill="#161616"/>
        </g>
      </g>
      <g id="Group_3322" data-name="Group 3322" transform="translate(725.011 186.619)">
        <g id="Group_3321" data-name="Group 3321">
          <path id="Path_2221" data-name="Path 2221" d="M1299.868,1058.481h49.714a.942.942,0,0,0,0-1.881h-49.714a.942.942,0,0,0,0,1.881Z" transform="translate(-1298.975 -1056.6)" fill="#161616"/>
        </g>
      </g>
      <g id="Group_3324" data-name="Group 3324" transform="translate(43.5 167.561)">
        <g id="Group_3323" data-name="Group 3323">
          <path id="Path_2222" data-name="Path 2222" d="M212.768,1028.081h88.519a.942.942,0,0,0,0-1.881H212.768a.942.942,0,0,0,0,1.881Z" transform="translate(-211.875 -1026.2)" fill="#161616"/>
        </g>
      </g>
      <g id="Group_3326" data-name="Group 3326" transform="translate(127.945 160.727)">
        <g id="Group_3325" data-name="Group 3325">
          <path id="Path_2223" data-name="Path 2223" d="M347.468,1017.181h49.024a.942.942,0,0,0,0-1.881H347.468a.942.942,0,0,0,0,1.881Z" transform="translate(-346.575 -1015.3)" fill="#161616"/>
        </g>
      </g>
      <g id="Group_3328" data-name="Group 3328" transform="translate(409.191 176.024)">
        <g id="Group_3327" data-name="Group 3327">
          <path id="Path_2224" data-name="Path 2224" d="M796.14,1041.581H860.4a.942.942,0,0,0,0-1.881H796.14a.94.94,0,1,0,0,1.881Z" transform="translate(-795.2 -1039.7)" fill="#161616"/>
        </g>
      </g>
    </g>
    <g id="background" transform="translate(157.158 342.684)">
      <g id="Group_3330" data-name="Group 3330" transform="translate(669.976 107.719)">
        <g id="Group_3329" data-name="Group 3329">
          <path id="Path_2225" data-name="Path 2225" d="M1236.414,520.71c.251-4.827,9.4,0,11.974-.439,3.385-.564,4.138-4.326,8.025-3.511,2.382.5,4.639,1.63,7.147,1.379,1.63-.188,2.821-1.128,4.388-1.567a6.853,6.853,0,0,1,6.708,1.818c.878.815,2.194-.5,1.316-1.317a8.876,8.876,0,0,0-9.717-1.881c-2.946,1.128-4.7,1-7.648.125a10.867,10.867,0,0,0-4.451-.69c-1.755.251-2.445,1.128-3.636,2.194-3.573,3.072-6.144.251-9.905-.313-2.884-.439-5.83,1-6.018,4.2-.125,1.254,1.755,1.254,1.818,0Z" transform="translate(-1234.59 -514.51)" fill="#1e1e1e"/>
        </g>
      </g>
      <g id="Group_3332" data-name="Group 3332" transform="translate(680.512 97.446)">
        <g id="Group_3331" data-name="Group 3331">
          <path id="Path_2226" data-name="Path 2226" d="M1253.405,505.067c.5-4.138,7.774-.627,9.905-.439,2.884.251,3.573-1.379,5.642-2.884,3.824-2.821,6.583.752,10.407.564,1.066-.063,1.63-.69,2.508-1.191,2.445-1.379,4.827-1.693,7.021.376.878.815,2.194-.5,1.317-1.316-2.57-2.382-5.642-2.57-8.714-1.191-1.379.627-.564,1.317-2.946,1.317-1.191,0-2.7-.94-3.887-1.254a8.017,8.017,0,0,0-5.141,0c-2.758,1.128-2.884,3.887-6.771,3.573-1.943-.125-3.636-1.317-5.642-1.442-2.7-.188-5.329.94-5.7,3.824-.063,1.254,1.818,1.254,2.006.063Z" transform="translate(-1251.398 -498.124)" fill="#1e1e1e"/>
        </g>
      </g>
      <g id="Group_3334" data-name="Group 3334" transform="translate(86.309 326.231)">
        <g id="Group_3333" data-name="Group 3333">
          <path id="Path_2227" data-name="Path 2227" d="M304.966,867.977c2.57-1.881,4.764-2.758,7.774-1.316a15.174,15.174,0,0,0,3.636,1.442c2.758.439,5.266-.94,7.711-2.006,2.257-1,4.138-1.567,6.52-.313,1.316.69,2.382,1.63,3.887,1.881,3.009.564,7.46-2.32,9.842,0,.878.815,2.194-.5,1.317-1.317-2.32-2.257-5.141-1.191-8.024-.69a6.539,6.539,0,0,1-4.953-.752,12.413,12.413,0,0,0-2.508-1.442,7.2,7.2,0,0,0-3.824-.251,29.4,29.4,0,0,0-4.89,1.943c-2.946,1.254-4.89,1.191-7.9-.125-3.824-1.755-6.269-1.191-9.717,1.317-.752.69.188,2.319,1.128,1.63Z" transform="translate(-303.564 -863.066)" fill="#1e1e1e"/>
        </g>
      </g>
      <g id="Group_3336" data-name="Group 3336" transform="translate(104.193 317.763)">
        <g id="Group_3335" data-name="Group 3335">
          <path id="Path_2228" data-name="Path 2228" d="M333.727,853.22c4.263-4.764,11.535.752,16.8-.376,1.943-.439,3.2-1.066,5.2-.376,1.191.439,2.194,1.254,3.385,1.693a8.456,8.456,0,0,0,6.645-.564c1.066-.5.125-2.131-.94-1.63-4.388,2.132-6.332-1.191-10.156-1.818a6.5,6.5,0,0,0-3.26.5,10.889,10.889,0,0,1-6.018.188c-4.388-.94-9.529-2.821-13.1,1.128-.69.815.627,2.131,1.442,1.254Z" transform="translate(-332.092 -849.558)" fill="#1e1e1e"/>
        </g>
      </g>
      <g id="Group_3338" data-name="Group 3338" transform="translate(236.748 51.441)">
        <g id="Group_3337" data-name="Group 3337">
          <path id="Path_2229" data-name="Path 2229" d="M547.651,437.316c-4.89-3.7-1.63-11.974,4.639-10.595a5.74,5.74,0,0,1,4.764,5.391,6.512,6.512,0,0,1-5.956,6.332c-1.191.063-1.191,1.943,0,1.881a8.378,8.378,0,0,0,7.836-7.4,7.563,7.563,0,0,0-6.144-7.962c-8.463-1.943-12.538,9.153-6.081,14.043.94.69,1.881-.94.94-1.693Z" transform="translate(-543.535 -424.74)" fill="#1e1e1e"/>
        </g>
      </g>
      <g id="Group_3340" data-name="Group 3340" transform="translate(47.874 254.439)">
        <g id="Group_3339" data-name="Group 3339">
          <path id="Path_2230" data-name="Path 2230" d="M245.418,758.924c-3.135-3.448-.188-9.592,4.639-8.275,5.83,1.567,4.326,9.78-1.5,9.717a.942.942,0,0,0,0,1.881,7.335,7.335,0,0,0,7.209-6.144,6.67,6.67,0,0,0-4.7-7.147c-6.833-2.382-11.6,6.206-6.959,11.284.815.878,2.132-.439,1.317-1.317Z" transform="translate(-242.255 -748.548)" fill="#8e8e8e"/>
        </g>
      </g>
      <g id="Group_3342" data-name="Group 3342" transform="translate(361.451 245.027)">
        <g id="Group_3341" data-name="Group 3341">
          <path id="Path_2231" data-name="Path 2231" d="M755.334,733.7a12.371,12.371,0,0,0-4.827,6.708c-.878,3.26,1.379,7.836-.815,10.281-1.379,1.567-3.761,2.633-4.388,4.764a3.3,3.3,0,0,0,.063,2.194c.313,1.066.752,1.254.752,2.382,0,1.881-1.63,2.7-3.2,3.511-1.066.564-.125,2.194.94,1.63,2.006-1.066,4.576-2.821,4.388-5.391-.125-1.63-1.693-2.633-.815-4.388.564-1.066,2.006-1.881,2.821-2.7,1.567-1.442,2.633-2.946,2.382-5.141-.313-2.382-1-4.2-.376-6.645a9.931,9.931,0,0,1,3.949-5.58c1-.69.063-2.32-.878-1.63Z" transform="translate(-742.452 -733.534)" fill="#8e8e8e"/>
        </g>
      </g>
      <g id="Group_3344" data-name="Group 3344" transform="translate(371.222 251.435)">
        <g id="Group_3343" data-name="Group 3343">
          <path id="Path_2232" data-name="Path 2232" d="M770.364,743.784c-5.329-.5-5.956,6.081-5.7,9.905.125,2.131.251,4.263-1.066,6.018-.69.878-1.693,1.567-2.131,2.633a4.412,4.412,0,0,0,.063,2.7c.564,3.072-1.128,5.078-3.2,7.084a.931.931,0,1,0,1.316,1.317c1.63-1.63,3.511-3.511,3.95-5.893.188-1.128-.251-2.006-.251-3.072,0-1.943,1.191-2.633,2.069-4.012,1.379-2.006,1.316-4.451,1.128-6.771-.188-2.7-.376-8.4,3.824-8.024,1.254.125,1.191-1.755,0-1.881Z" transform="translate(-758.038 -743.757)" fill="#8e8e8e"/>
        </g>
      </g>
      <g id="Group_3346" data-name="Group 3346" transform="translate(387.429)">
        <g id="Group_3345" data-name="Group 3345">
          <path id="Path_2233" data-name="Path 2233" d="M785.714,362.316c.251-4.326,7.523-2.7,10.219-4.138,1.943-1.066,3.072-3.009,4.138-4.827a21.066,21.066,0,0,1,2.006-3.2c1.63-1.881,3.511-1.63,5.768-1.818a9.944,9.944,0,0,0,7.147-4.012c.752-.94-.564-2.257-1.317-1.317a8.768,8.768,0,0,1-6.771,3.511,9.8,9.8,0,0,0-4.012.627c-2.382,1.191-3.511,3.761-4.765,5.956-1,1.693-1.943,3.072-3.824,3.761-1.818.69-3.887.313-5.768.752-2.508.564-4.451,2.131-4.639,4.765-.125,1.128,1.755,1.128,1.818-.063Z" transform="translate(-783.89 -342.684)" fill="#8e8e8e"/>
        </g>
      </g>
      <g id="Group_3348" data-name="Group 3348" transform="translate(392.96 7.21)">
        <g id="Group_3347" data-name="Group 3347">
          <path id="Path_2234" data-name="Path 2234" d="M794.523,374.444c1.881-3.072,5.7-3.824,8.714-5.329a8.443,8.443,0,0,0,4.89-5.893c1.191-4.451,4.639-3.887,8.463-4.451,2.32-.376,4.2-1.128,5.141-3.448.439-1.128-1.379-1.63-1.818-.5-1.191,2.821-5.893,2.131-8.4,2.7-2.57.5-4.326,1.693-5.078,4.263-.69,2.32-.94,3.761-3.072,5.078a33.138,33.138,0,0,1-4.263,2.006c-2.508,1.066-4.827,2.257-6.269,4.639-.564,1,1.066,1.943,1.693.94Z" transform="translate(-792.714 -354.185)" fill="#8e8e8e"/>
        </g>
      </g>
      <g id="Group_3350" data-name="Group 3350" transform="translate(675.143 305.892)">
        <g id="Group_3349" data-name="Group 3349">
          <path id="Path_2235" data-name="Path 2235" d="M1245.007,839.824c-1.5-4.639,3.26-9.4,7.774-6.583,4.953,3.072,2.194,10.093-3.323,9.968-1.191-.063-1.191,1.818,0,1.881,7.021.251,10.72-8.714,4.827-13.04-5.768-4.263-13.165,1.755-11.1,8.338a.952.952,0,0,0,1.818-.564Z" transform="translate(-1242.833 -830.622)" fill="#8e8e8e"/>
        </g>
      </g>
      <g id="Group_3352" data-name="Group 3352" transform="translate(379.496 367.628)">
        <g id="Group_3351" data-name="Group 3351">
          <path id="Path_2236" data-name="Path 2236" d="M773.721,938.441c-1.755-3.26.125-8.024,4.326-7.4a3.632,3.632,0,0,1,3.323,3.385,3.686,3.686,0,0,1-3.323,3.7c-1.191.063-1.191,1.943,0,1.881,5.893-.251,6.959-8.589,1.442-10.532-6.081-2.069-10.093,4.827-7.4,9.905a.941.941,0,0,0,1.63-.94Z" transform="translate(-771.237 -929.099)" fill="#8e8e8e"/>
        </g>
      </g>
      <g id="Group_3354" data-name="Group 3354" transform="translate(645.946 3.128)">
        <g id="Group_3353" data-name="Group 3353">
          <path id="Path_2237" data-name="Path 2237" d="M1198.73,353.458c-1.818-2.006.815-4.827,3.072-3.511,2.821,1.693,1.128,5.141-1.5,5.83a.943.943,0,0,0,.5,1.818c4.576-1.128,6.144-7.586,1.254-9.592-4.137-1.693-7.648,3.511-4.7,6.771.878.94,2.194-.376,1.379-1.316Z" transform="translate(-1196.259 -347.673)" fill="#8e8e8e"/>
        </g>
      </g>
      <g id="Group_3356" data-name="Group 3356" transform="translate(0 64.382)">
        <g id="Group_3355" data-name="Group 3355">
          <path id="Path_2238" data-name="Path 2238" d="M169.658,453.919c-3.636-1.881-1.442-7.648,2.633-6.457,4.764,1.379,3.135,7.523-1.066,8.4-1.191.251-.69,2.069.5,1.818,6.269-1.379,7.46-10.657.564-12.162-5.956-1.317-8.965,7.209-3.636,9.968,1.128.627,2.069-1,1-1.567Z" transform="translate(-165.89 -445.381)" fill="#1e1e1e"/>
        </g>
      </g>
    </g>
    <g id="number_board" transform="translate(144.438 455.976)">
      <path id="Path_2239" data-name="Path 2239" d="M149.513,528.063q-.188,37.991-.313,76.044,172.65-.658,345.3-1.254-.47-37.426-1-74.853Q321.505,528,149.513,528.063Z" transform="translate(-146.943 -525.116)" fill="#7f7f7f"/>
      <g id="Group_3358" data-name="Group 3358" transform="translate(0 0.925)">
        <g id="Group_3357" data-name="Group 3357">
          <path id="Path_2240" data-name="Path 2240" d="M145.6,526.709V600.37a1.881,1.881,0,0,0,3.761,0V526.709a1.881,1.881,0,0,0-3.761,0Z" transform="translate(-145.6 -524.875)" fill="#161616"/>
        </g>
      </g>
      <g id="Group_3360" data-name="Group 3360" transform="translate(1.802)">
        <g id="Group_3359" data-name="Group 3359">
          <path id="Path_2241" data-name="Path 2241" d="M150.309,527.161H494.982a1.881,1.881,0,0,0,0-3.761H150.309a1.881,1.881,0,0,0,0,3.761Z" transform="translate(-148.475 -523.4)" fill="#161616"/>
        </g>
      </g>
      <g id="Group_3362" data-name="Group 3362" transform="translate(346.241 0.031)">
        <g id="Group_3361" data-name="Group 3361">
          <path id="Path_2242" data-name="Path 2242" d="M697.9,525.237q.47,38.367.94,76.8a1.881,1.881,0,0,0,3.761,0q-.47-38.367-.94-76.8c0-2.382-3.761-2.382-3.761,0Z" transform="translate(-697.9 -523.45)" fill="#161616"/>
        </g>
      </g>
      <g id="Group_3364" data-name="Group 3364" transform="translate(0.047 76.295)">
        <g id="Group_3363" data-name="Group 3363">
          <path id="Path_2243" data-name="Path 2243" d="M147.509,648.861H494.815a1.881,1.881,0,0,0,0-3.761H147.509a1.881,1.881,0,0,0,0,3.761Z" transform="translate(-145.675 -645.1)" fill="#161616"/>
        </g>
      </g>
      <g id="Group_3366" data-name="Group 3366" transform="translate(29.271 14.152)">
        <g id="Group_3365" data-name="Group 3365">
          <path id="Path_2244" data-name="Path 2244" d="M194.178,566.49a60.217,60.217,0,0,0,4.326-19.622h-1.881q-.376,26.894-.69,53.726a.942.942,0,0,0,1.881,0q.376-26.894.69-53.726a.942.942,0,0,0-1.881,0,57.6,57.6,0,0,1-4.263,19.121c-.439,1.128,1.379,1.567,1.818.5Z" transform="translate(-192.292 -545.975)" fill="#fff"/>
        </g>
      </g>
      <g id="Group_3368" data-name="Group 3368" transform="translate(49.575 17.951)">
        <g id="Group_3367" data-name="Group 3367">
          <path id="Path_2245" data-name="Path 2245" d="M234.284,567.685a10.644,10.644,0,0,1-1.442-8.589c.94-3.448,5.391-7.774,8.338-3.135,2.508,4.012.063,11.034-1.191,15.171A60.218,60.218,0,0,1,224.943,596.4a.948.948,0,0,0,.439,1.567c8.024,3.009,17.365,5.956,25.014.439,1-.69.063-2.32-.94-1.63-7.272,5.2-16.049,2.194-23.572-.627a14.642,14.642,0,0,0,.439,1.567,63.125,63.125,0,0,0,12.35-17.741c2.821-6.144,5.579-13.667,5.329-20.562-.188-4.827-4.451-9.592-9.341-6.269-4.953,3.385-4.89,10.72-2.006,15.422.627,1.066,2.257.125,1.63-.878Z" transform="translate(-224.679 -552.034)" fill="#fff"/>
        </g>
      </g>
      <g id="Group_3370" data-name="Group 3370" transform="translate(87.767 19.013)">
        <g id="Group_3369" data-name="Group 3369">
          <path id="Path_2246" data-name="Path 2246" d="M286.54,555.654a93.576,93.576,0,0,1,19.183,1c-.188-.439-.376-.94-.564-1.379A51.209,51.209,0,0,1,292.5,567a.942.942,0,0,0,.94,1.63c4.7-2.32,9.78.69,11.974,5.078,1.881,3.824,2.006,8.463,1.191,12.538-.815,4.012-2.884,7.962-6.52,10.156-3.887,2.32-9.027,2.32-12.475-.752-.878-.815-2.257.5-1.316,1.317a12.184,12.184,0,0,0,13.165,1.818c5.2-2.257,8.15-7.586,9.09-12.977.878-5.2.313-11.284-3.072-15.547A10.721,10.721,0,0,0,292.5,567c.313.564.627,1.066.94,1.63a53.229,53.229,0,0,0,13.353-12.35.921.921,0,0,0-.564-1.379,98.535,98.535,0,0,0-19.685-1.066.91.91,0,1,0,0,1.818Z" transform="translate(-285.6 -553.728)" fill="#fff"/>
        </g>
      </g>
      <g id="Group_3372" data-name="Group 3372" transform="translate(135.952 17.271)">
        <g id="Group_3371" data-name="Group 3371">
          <path id="Path_2247" data-name="Path 2247" d="M366.059,551.859a90.158,90.158,0,0,1-3.26,14.67c-.752,2.633-.376,3.573,2.445,3.824,4.953.439,9.968.564,14.983.878,1.5.063,7.084,1.567,7.46-1,.188-1.191-1.63-1.693-1.818-.5,0,.125-17.741-1-19.371-1.191a3.677,3.677,0,0,1-1.442-.251c-.815.125-1.066-.125-.627-.752a7.97,7.97,0,0,1,.752-2.257c.439-1.5.878-3.009,1.254-4.576A86.462,86.462,0,0,0,368,551.733c.063-1.066-1.818-1.066-1.943.125Z" transform="translate(-362.461 -550.949)" fill="#fff"/>
        </g>
      </g>
      <g id="Group_3374" data-name="Group 3374" transform="translate(151.208 20.735)">
        <g id="Group_3373" data-name="Group 3373" transform="translate(0)">
          <path id="Path_2248" data-name="Path 2248" d="M386.8,557.368c.439,13.29,1.066,26.644,1.818,39.934.063,1.191,1.943,1.191,1.881,0-.752-13.29-1.316-26.581-1.818-39.934-.063-1.191-1.943-1.191-1.881,0Z" transform="translate(-386.798 -556.475)" fill="#fff"/>
        </g>
      </g>
      <g id="Group_3376" data-name="Group 3376" transform="translate(166.855 16.561)">
        <g id="Group_3375" data-name="Group 3375">
          <path id="Path_2249" data-name="Path 2249" d="M412.912,551.875c3.448-.5,6.771,0,10.219.313a34.745,34.745,0,0,0,4.451.188c.5,0,3.385-.627,3.761-.439a10.035,10.035,0,0,1-.313-1.316c-.063.063-.063.125-.125.188a10.022,10.022,0,0,1,1.317-.313.219.219,0,0,1-.125-.063c-1.066-.5-2.069,1.066-.94,1.63a.219.219,0,0,1,.125.063,1.075,1.075,0,0,0,1.317-.313c.063-.063.063-.125.125-.188a1,1,0,0,0-.313-1.316c-.627-.376-1.066-.188-1.755-.125a41.311,41.311,0,0,1-6.833.188c-3.824-.313-7.46-.878-11.284-.313-1.317.188-.815,2.006.376,1.818Z" transform="translate(-411.755 -549.816)" fill="#fff"/>
        </g>
      </g>
      <g id="Group_3378" data-name="Group 3378" transform="translate(166.414 16.652)">
        <g id="Group_3377" data-name="Group 3377">
          <path id="Path_2250" data-name="Path 2250" d="M411.208,551.115a55.973,55.973,0,0,1,3.824,14.544.922.922,0,0,0,1.191.878c3.887-1.316,7.711-1.254,10.783,1.755,2.884,2.884,3.7,7.021,3.072,10.971-.5,3.511-1.943,8.087-5.517,9.529-4.138,1.693-8.463-.564-12.1-2.508-1.066-.564-2.006,1.066-.94,1.63,4.138,2.194,9.09,4.639,13.792,2.633,4.2-1.755,6.018-6.9,6.645-11.034a14.545,14.545,0,0,0-3.636-12.538c-3.511-3.511-8.024-3.824-12.6-2.257a14.454,14.454,0,0,0,1.191.878,59.065,59.065,0,0,0-3.887-15.046c-.5-1.066-2.32-.564-1.818.564Z" transform="translate(-411.052 -549.963)" fill="#fff"/>
        </g>
      </g>
      <g id="Group_3380" data-name="Group 3380" transform="translate(193.806 16.571)">
        <g id="Group_3379" data-name="Group 3379">
          <path id="Path_2251" data-name="Path 2251" d="M468.07,550a30.515,30.515,0,0,0-12.789,19.685c-1.066,5.893-1.128,16.55,5.517,19.371s11.911-6.206,9.466-11.849c-2.32-5.329-13.228-6.018-14.92.188a.943.943,0,0,0,1.818.5c.878-3.135,5.579-3.385,8.15-2.633,3.887,1.128,4.451,5.7,2.758,8.9-2.069,3.887-6.583,4.639-9.153.815a15.715,15.715,0,0,1-2.257-7.46,28.909,28.909,0,0,1,12.287-25.954c1.066-.627.125-2.257-.878-1.567Z" transform="translate(-454.747 -549.834)" fill="#fff"/>
        </g>
      </g>
      <g id="Group_3382" data-name="Group 3382" transform="translate(240.867 17.553)">
        <g id="Group_3381" data-name="Group 3381">
          <path id="Path_2252" data-name="Path 2252" d="M532.94,557.794c-.188-.439-1.316-2.633-1.066-3.448-.251-.815.188-1,1.191-.627h1.254c2.069-.063,4.075-.063,6.144-.125,4.075-.063,8.15-.188,12.287-.251-.251-.5-.564-.94-.815-1.442a137.886,137.886,0,0,0-13.29,44.51c.627-.063,1.254-.188,1.818-.251l-.188-1.317c-.188-1.191-2.006-.69-1.818.5l.188,1.316c.188,1.128,1.755.69,1.818-.251a136.2,136.2,0,0,1,13.04-43.57.971.971,0,0,0-.815-1.442c-6.708.125-13.479.125-20.249.439-4.2.188-2.382,4.138-1.191,6.9.5,1.129,2.131.125,1.693-.94Z" transform="translate(-529.814 -551.4)" fill="#fff"/>
        </g>
      </g>
      <g id="Group_3384" data-name="Group 3384" transform="translate(245.631 40.51)">
        <g id="Group_3383" data-name="Group 3383">
          <path id="Path_2253" data-name="Path 2253" d="M538.095,590.577a31.233,31.233,0,0,0,16.8-.69c1.128-.376.627-2.194-.5-1.818a29.417,29.417,0,0,1-15.8.69.943.943,0,0,0-.5,1.818Z" transform="translate(-537.414 -588.019)" fill="#fff"/>
        </g>
      </g>
      <g id="Group_3386" data-name="Group 3386" transform="translate(275.108 19.78)">
        <g id="Group_3385" data-name="Group 3385">
          <path id="Path_2254" data-name="Path 2254" d="M602.468,555.421c-3.072,6.833-6.081,13.667-9.153,20.5-1.442,3.26-2.884,6.457-4.326,9.717-1.379,3.072-2.445,7.021-4.388,9.78-.69,1,.94,1.943,1.63.94,1.755-2.57,2.821-6.332,4.138-9.216,1.5-3.448,3.072-6.833,4.576-10.281,3.072-6.833,6.081-13.667,9.153-20.5.5-1.066-1.128-2.006-1.63-.94Z" transform="translate(-584.434 -554.952)" fill="#fff"/>
        </g>
      </g>
      <g id="Group_3388" data-name="Group 3388" transform="translate(273.93 18.039)">
        <g id="Group_3387" data-name="Group 3387">
          <path id="Path_2255" data-name="Path 2255" d="M602.456,554.009c-3.824-3.824-9.905-.878-13.6,1.693-4.388,3.009-7.774,8.338-5.642,13.792,2.382,6.206,9.278,7.9,13.729,12.1,3.573,3.323,5.2,8.651.752,12.037-3.7,2.821-8.589,2.194-12.914,1.379-1.191-.251-1.693,1.567-.5,1.818,5.329,1,11.41,1.567,15.61-2.633,3.636-3.636,2.946-8.839-.188-12.538-4.2-5.078-12.977-6.645-14.92-13.541-1.316-4.576,1.943-8.714,5.517-11.1,2.821-1.881,7.962-4.7,10.971-1.755.69.94,2.006-.376,1.191-1.254Z" transform="translate(-582.555 -552.175)" fill="#fff"/>
        </g>
      </g>
      <g id="Group_3390" data-name="Group 3390" transform="translate(299.458 14.419)">
        <g id="Group_3389" data-name="Group 3389">
          <path id="Path_2256" data-name="Path 2256" d="M642.976,553.923c3.448-3.385-.69-7.523-4.514-7.523-4.639.063-11.472,3.135-12.663,8.024-1.066,4.451,3.072,8.589,7.46,8.714,5.391.125,8.839-5.015,9.4-9.842-.627.063-1.254.188-1.818.251a85.4,85.4,0,0,1,1.128,25.578c-.439,3.761-1.128,9.027-5.454,10.344-5.015,1.5-9.09-2.884-11.472-6.645-.627-1-2.257-.063-1.63.94,2.382,3.7,5.579,7.335,10.219,7.774a8.263,8.263,0,0,0,8.714-5.517c1.881-4.576,1.881-10.281,1.881-15.108a89.872,89.872,0,0,0-1.693-17.867c-.188-1.128-1.755-.69-1.818.251-.376,3.323-2.32,6.708-5.7,7.711-3.135.94-6.959-1.128-7.46-4.514-.5-3.26,2.508-5.391,5.141-6.645a19.517,19.517,0,0,1,4.075-1.379,6.891,6.891,0,0,1,3.2-.063c2.069.69,2.57,2.069,1.567,4.138-.752.878.564,2.257,1.442,1.379Z" transform="translate(-623.275 -546.4)" fill="#fff"/>
        </g>
      </g>
      <path id="Path_2257" data-name="Path 2257" d="M808.019,541.1a37.312,37.312,0,0,0-6.959,7.46,35.4,35.4,0,0,0-4.2,7.962c1.881.878,5.893,3.072,6.708,6.959.94,4.263-2.57,8.15-7.209,13.165a64.466,64.466,0,0,1-14.67,11.66,12.711,12.711,0,0,1-11.41-6.708A40.8,40.8,0,0,0,752.6,592c.878,2.006,3.511,7.523,9.466,9.905,2.32.94,5.266,1.442,10.72.5,5.517-.94,12.977-3.2,21.816-9.216a69.125,69.125,0,0,0,20.625-21.628c4.388-7.46,7.523-12.789,5.7-18.87C818.613,545.112,809.962,541.79,808.019,541.1Z" transform="translate(-372.068 -530.004)" fill="#161616"/>
      <g id="Group_3392" data-name="Group 3392" transform="translate(396.513 25.949)">
        <g id="Group_3391" data-name="Group 3391">
          <path id="Path_2258" data-name="Path 2258" d="M779.915,577.147a29.785,29.785,0,0,1,13.416-10.469c1.128-.439.627-2.257-.5-1.818a31.985,31.985,0,0,0-14.544,11.347c-.752,1,.878,1.943,1.63.94Z" transform="translate(-778.091 -564.792)" fill="#161616"/>
        </g>
      </g>
      <g id="Group_3394" data-name="Group 3394" transform="translate(386.265 15.386)">
        <g id="Group_3393" data-name="Group 3393">
          <path id="Path_2259" data-name="Path 2259" d="M763.472,571.989A39.995,39.995,0,0,1,790.3,549.8a.943.943,0,0,0-.5-1.818,41.942,41.942,0,0,0-27.96,23.008c-.5,1.191,1.066,2.131,1.63,1Z" transform="translate(-761.744 -547.942)" fill="#161616"/>
        </g>
      </g>
      <g id="Group_3396" data-name="Group 3396" transform="translate(377.447 7.256)">
        <g id="Group_3395" data-name="Group 3395">
          <path id="Path_2260" data-name="Path 2260" d="M749.51,569.157a36.856,36.856,0,0,1,12.852-21.942c6.394-5.454,16.237-11.347,24.951-10.219,1.191.125,1.191-1.755,0-1.881-8.9-1.128-18.807,4.7-25.515,10.093a38.718,38.718,0,0,0-14.105,23.384c-.188,1.254,1.63,1.755,1.818.564Z" transform="translate(-747.678 -534.974)" fill="#161616"/>
        </g>
      </g>
    </g>
    <g id="boy" transform="translate(553.806 382.472)">
      <g id="leg_right" transform="translate(39.424 232.525)">
        <path id="Path_2261" data-name="Path 2261" d="M898.982,1032.629c.251,8.15.439,16.3.69,24.449q-38.837,11.472-38.179,15.046.846,4.514,62.252-3.009c-.878-13.917-1.755-27.9-2.7-41.815C913.715,1029.055,906.38,1030.811,898.982,1032.629Z" transform="translate(-861.482 -870.423)" fill="#161616" stroke="#161616" stroke-miterlimit="10" stroke-width="2"/>
        <path id="Path_2262" data-name="Path 2262" d="M993,778.59c-3.761,1.128-2.946,1.567-23.258,17.177-21.5,16.488-32.223,24.763-39.683,28.963-4.326,2.445-7.836,4.2-12.162,8.212-7.147,6.708-10.783,14.356-13.6,21.816-8.777,23.258-10.093,45.513-10.344,55.419a223.118,223.118,0,0,0,2.131,37.552,75.129,75.129,0,0,0,16.425,2.131c6.959.125,16.864.251,27.145-5.015a50.884,50.884,0,0,0,6.771-4.263,187.131,187.131,0,0,1-2.508-39.683,191.344,191.344,0,0,1,4.263-32.536,119.539,119.539,0,0,1,14.983-9.654c7.586-4.075,15.171-7.084,36.11-13.228,25.076-7.335,25.954-6.52,29.653-9.654,9.592-8.024,16.488-24.2,11.1-38.241C1033,779.091,1008.3,774.139,993,778.59Z" transform="translate(-873.564 -777.061)" fill="#fff"/>
        <g id="Group_3398" data-name="Group 3398" transform="translate(19.086 7.694)">
          <g id="Group_3397" data-name="Group 3397">
            <path id="Path_2263" data-name="Path 2263" d="M982.624,789.5c-11.6,8.087-23.133,16.237-34.731,24.324-10.281,7.209-21.315,13.98-30.718,22.443-9.027,8.087-14.043,18.18-17.3,29.715a219.29,219.29,0,0,0-7.084,39.244,222.7,222.7,0,0,0,.69,45.7c.125,1.191,2.006,1.191,1.881,0a220.222,220.222,0,0,1,4.576-77.674c2.947-12.225,6.833-24.01,15.923-33.1,8.777-8.777,19.81-15.422,29.9-22.506l37.8-26.518c1-.69.063-2.32-.94-1.63Z" transform="translate(-891.927 -789.334)" fill="#161616"/>
          </g>
        </g>
        <g id="Group_3400" data-name="Group 3400" transform="translate(74.723 60.986)">
          <g id="Group_3399" data-name="Group 3399">
            <path id="Path_2264" data-name="Path 2264" d="M1051.281,874.379c-13.792,3.949-27.4,8.338-40.812,13.353-5.893,2.194-11.911,4.388-17.679,6.959-4.764,2.132-9.216,4.827-11.974,9.4a.941.941,0,0,0,1.63.94c3.009-5.078,8.4-7.586,13.6-9.717,6.018-2.445,12.1-4.765,18.243-7.021q18.525-6.771,37.426-12.1a.936.936,0,0,0-.439-1.818Z" transform="translate(-980.675 -874.342)" fill="#161616"/>
          </g>
        </g>
        <g id="Group_3402" data-name="Group 3402" transform="translate(69.71 80.653)">
          <g id="Group_3401" data-name="Group 3401">
            <path id="Path_2265" data-name="Path 2265" d="M978.648,906.395a208.43,208.43,0,0,0-3.511,81.435c.188,1.191,2.006.69,1.818-.5a205.689,205.689,0,0,1,3.511-80.432c.251-1.191-1.567-1.693-1.818-.5Z" transform="translate(-972.679 -905.714)" fill="#161616"/>
          </g>
        </g>
        <g id="Group_3404" data-name="Group 3404" transform="translate(21.445 162.42)">
          <g id="Group_3403" data-name="Group 3403">
            <path id="Path_2266" data-name="Path 2266" d="M895.7,1042.949c.313,3.511,5.768,2.946,8.15,3.2a114.654,114.654,0,0,0,17.365.69c9.4-.5,18.619-3.135,26.017-9.153.94-.752-.376-2.069-1.316-1.317-6.332,5.141-14.168,7.648-22.193,8.4a82.032,82.032,0,0,1-12.413.125c-1.5-.063-13.6-.376-13.729-1.943-.125-1.191-2.006-1.191-1.881,0Z" transform="translate(-895.69 -1036.142)" fill="#161616"/>
          </g>
        </g>
        <path id="Path_2267" data-name="Path 2267" d="M1035.271,840.12c-8.651-4.388-18.556,6.833-43.006,17.992-20,9.153-24.951,6.9-32.787,11.66-13.792,8.338-26.017,32.1-17.24,101.12a32.982,32.982,0,0,0,20.813-7.4,191.078,191.078,0,0,1-1.379-50.779,182.508,182.508,0,0,1,3.887-22.882,196.818,196.818,0,0,1,27.145-13.04c28.9-11.347,46.83-10.657,49.714-20.813C1043.922,850.276,1040.412,842.69,1035.271,840.12Z" transform="translate(-890.507 -800.224)" fill="#666" opacity="0.11"/>
        <path id="Path_2268" data-name="Path 2268" d="M1033.981,877.362c-.313-1.693-20.625-.815-41.94,6.332-13.6,4.514-21,7.021-27.459,14.105-10.281,11.159-10.845,25.515-11.66,45.451a164.719,164.719,0,0,0,3.2,39.5c4.138-1.316,8.212-2.57,12.35-3.887a224.83,224.83,0,0,1-1.755-41.564,227.3,227.3,0,0,1,3.887-31.721,52.134,52.134,0,0,1,8.463-7.4c8.463-5.956,15.923-7.46,24.7-9.842C1015.111,885.135,1034.294,878.992,1033.981,877.362Z" transform="translate(-895.549 -814.208)" fill="#666" opacity="0.12"/>
      </g>
      <g id="leg_left" transform="translate(171.345 225.06)">
        <path id="Path_2269" data-name="Path 2269" d="M1250,961.807a249.667,249.667,0,0,1,33.728-8.463c12.1-2.131,14.92-1.693,17.177,0,3.887,2.884,3.072,7.147,4.514,33.728.5,8.714.752,10.908-1,13.6-5.956,9.466-25.766,9.027-27.271,4.89-.564-1.63,1.317-4.639,10.72-10.72-.313-5.956-.627-11.911-1-17.867-10.72,2.57-21.44,5.2-32.1,7.774C1253.26,977.166,1251.63,969.518,1250,961.807Z" transform="translate(-1138.357 -834.829)" fill="#161616" stroke="#161616" stroke-miterlimit="10" stroke-width="2"/>
        <path id="Path_2270" data-name="Path 2270" d="M1074.037,784.177c-4.137,9.717-1.191,20.124.188,25.014,1.567,5.642,3.072,6.394,5.579,13.98,2.7,8.15,3.511,14.043,4.639,21.127,1.63,10.344,3.511,22.13,6.457,33.916,3.636,14.544,5.642,22,11.66,30.091,2.633,3.573,8.839,11.6,19.748,15.861,2.069.815,4.827,1.693,11.66,2.57a128.726,128.726,0,0,0,34.605.627,125.832,125.832,0,0,0,32.348-8.4,41.493,41.493,0,0,0,1.317-14.231c-.376-4.012-1-11.472-6.457-17.8a18.122,18.122,0,0,0-7.774-5.83c-4.263-1.442-8.087-.5-14.858,1.317-7.836,2.069-10.72,4.326-15.861,3.26a14.374,14.374,0,0,1-4.827-1.943,69.793,69.793,0,0,1-5.517-10.344c-5.078-11.786-5.454-21.252-6.144-31.659-1.567-23.446-2.382-35.169-6.144-48.146-3.949-13.6-5.078-20.437-10.971-24.575-6.081-4.263-12.977-3.95-17.24-3.761C1095.979,765.684,1079.8,770.7,1074.037,784.177Z" transform="translate(-1071.914 -765.152)" fill="#fff"/>
        <g id="Group_3406" data-name="Group 3406" transform="translate(54.688 6.71)">
          <g id="Group_3405" data-name="Group 3405">
            <path id="Path_2271" data-name="Path 2271" d="M1159.244,777.325c10.281,21.566,11.1,45.764,13.353,69.085,1.63,16.864,3.072,40,20.186,48.9,1.066.564,2.006-1.066.94-1.63-8.777-4.576-13.165-13.6-15.61-22.819-2.633-10.093-3.323-20.688-4.2-31.095-1.881-21.566-3.573-43.57-12.977-63.443-.564-1.066-2.194-.125-1.693,1Z" transform="translate(-1159.149 -775.855)" fill="#161616"/>
          </g>
        </g>
        <g id="Group_3408" data-name="Group 3408" transform="translate(3.72 49.693)">
          <g id="Group_3407" data-name="Group 3407">
            <path id="Path_2272" data-name="Path 2272" d="M1077.943,845.849c11.034,25.014,8.275,53.538,19,78.614,4.263,10.031,10.657,19.434,19.748,25.641,11.034,7.46,25.39,8.965,38.367,8.777,16.362-.251,32.474-4.012,47.645-9.968,1.129-.439.627-2.257-.5-1.818a136.343,136.343,0,0,1-41.376,9.654c-13.541.878-28.963.188-40.937-6.833-21-12.35-26.581-38.868-29.966-61-2.257-14.983-4.263-30.092-10.469-44.072-.376-1-2.006-.063-1.5,1Z" transform="translate(-1077.849 -844.419)" fill="#161616"/>
          </g>
        </g>
        <g id="Group_3410" data-name="Group 3410" transform="translate(78.889 114.091)">
          <g id="Group_3409" data-name="Group 3409">
            <path id="Path_2273" data-name="Path 2273" d="M1198.221,951.943c11.347,6.645,24.324-6.144,36.3-2.257,6.645,2.194,9.905,9.341,11.723,15.61a43.079,43.079,0,0,1,.878,20.751c-.251,1.191,1.567,1.693,1.818.5a47.342,47.342,0,0,0-.313-19.685c-1.442-5.893-3.949-12.6-8.9-16.488-4.577-3.636-10.657-3.7-16.174-2.633-7.4,1.442-17.115,6.9-24.387,2.633a.914.914,0,1,0-.94,1.567Z" transform="translate(-1197.752 -947.143)" fill="#161616"/>
          </g>
        </g>
        <path id="Path_2274" data-name="Path 2274" d="M1142.758,775.222c-10.532,10.344,10.72,33.1,11.1,71.342.313,29.9-6.771,42.316,2.758,52.347,13.667,14.356,44.573,6.081,47.958,5.141,5.391-1.5,16.926-3.7,17.867-9.529.564-3.824-3.448-8.15-7.523-10.281-12.413-6.583-24.01,7.962-34.919,3.2-8.213-3.636-10.031-15.673-13.479-38.053-2.821-18.368-1.066-22.255-4.388-42.442-2.445-14.858-5.579-33.414-13.1-34.48C1146.018,771.962,1143.26,774.657,1142.758,775.222Z" transform="translate(-1097.254 -767.857)" fill="#666" opacity="0.11"/>
        <path id="Path_2275" data-name="Path 2275" d="M1170.975,816.1c-1,.063-1.066,12.1-1.191,26.957-.313,42.191,2.069,51.156,7.523,59.055,2.257,3.26,6.52,9.278,14.294,12.664,17.177,7.586,40-2.382,40.059-8.714,0-3.2-5.83-5.579-6.771-5.956-5.956-2.382-10.532-.063-22.631,2.006-5.015.878-9.278,1.317-12.287,1.567a56.121,56.121,0,0,1-7.9-13.1c-4.827-11.1-4.451-20.124-4.765-29.715C1176.617,837.164,1172.229,816.037,1170.975,816.1Z" transform="translate(-1108.418 -784.161)" fill="#666" opacity="0.17"/>
      </g>
      <g id="hand_reight" transform="translate(0 114.115)">
        <path id="Path_2276" data-name="Path 2276" d="M800.1,627.278c.125-1.442,3.448-2.194,5.454-2.633,8.213-1.818,15.3-.439,17.177.313,3.511,1.379,7.021,2.758,10.595,4.138a9.05,9.05,0,0,1,2.57-5.015c3.26-2.946,7.9-1.818,9.153-1.442,1.63.439,4.2,1.442,8.589,6.206,4.514,4.89,5.141,7.4,7.711,10.595,5.956,7.4,14.92,9.341,19.434,10.281,3.949.878,11.911,2.57,20.876-1.191a34.332,34.332,0,0,0,14.293-11.786c1.881-2.57,2.508-4.075,6.269-12.664,7.648-17.491,10.093-22.882,15.422-28.273,2.884-2.946,6.395-6.394,10.031-5.579,4.451,1,6.332,7.962,7.147,10.908.878,3.26,2.006,9.466-.564,20.312a78.516,78.516,0,0,1-12.6,27.082c-3.636,5.141-8.714,12.1-17.741,17.992-3.95,2.57-10.407,6.708-19.748,7.962-8.275,1.128-14.607-.564-20-2.069a71.138,71.138,0,0,1-26.33-13.855c-6.708.313-11.849.752-15.422,1.191-6.081.69-8.651,1.254-11.41-.313A7.012,7.012,0,0,0,826.74,658c-1.818.125-2.445,1.128-4.012,1.442a6.426,6.426,0,0,1-6.269-2.069,6.522,6.522,0,0,1-1.128-4.514,11.884,11.884,0,0,1-3.573-5.329,15.518,15.518,0,0,1-.5-5.015c.063-2.006.063-3.009.564-3.824,1.442-2.508,5.579-2.382,6.206-2.32a20.74,20.74,0,0,0-4.953-2.758c-3.887-1.567-5.956-1.066-9.529-3.009C802.1,629.723,799.971,628.532,800.1,627.278Z" transform="translate(-799.154 -588.899)" fill="#fff"/>
        <g id="Group_3412" data-name="Group 3412" transform="translate(103.076)">
          <g id="Group_3411" data-name="Group 3411">
            <path id="Path_2277" data-name="Path 2277" d="M1009.021,588.694c-5.454-2.069-9.529,2.508-12.413,6.583a121.3,121.3,0,0,0-11.159,19.371c-5.893,12.914-9.905,27.96-22,36.611-1,.69-.063,2.32.94,1.63,9.78-7.084,14.67-18.18,19.121-29.026a160.041,160.041,0,0,1,9.09-19c1.755-2.946,3.573-5.893,5.579-8.651,2.382-3.323,5.579-7.46,10.281-5.7,1.191.439,1.693-1.379.564-1.818Z" transform="translate(-963.016 -588.18)" fill="#161616"/>
          </g>
        </g>
        <g id="Group_3414" data-name="Group 3414" transform="translate(34.309 32.062)">
          <g id="Group_3413" data-name="Group 3413">
            <path id="Path_2278" data-name="Path 2278" d="M858.449,648.587c-2.7.878-3.761-2.445-2.946-4.263.627-1.442,2.257-2.194,3.636-2.633a11.684,11.684,0,0,1,8.087.94c4.075,2.006,6.394,6.081,8.9,9.717a41.345,41.345,0,0,0,17.3,14.67,37.352,37.352,0,0,0,41.438-8.024c.878-.878-.5-2.194-1.316-1.317a35.368,35.368,0,0,1-28.4,10.532c-10.783-1-20.562-7.272-26.832-15.986C873.683,645.64,867.853,636.8,858.261,640c-2.7.878-5.329,3.26-4.89,6.332.376,2.758,2.884,4.953,5.642,4.012,1.066-.313.564-2.132-.564-1.755Z" transform="translate(-853.323 -639.323)" fill="#161616"/>
          </g>
        </g>
        <g id="Group_3416" data-name="Group 3416" transform="translate(0 33.532)">
          <g id="Group_3415" data-name="Group 3415">
            <path id="Path_2279" data-name="Path 2279" d="M831.511,646.891a45.971,45.971,0,0,0-15.861-5.015c-4.89-.5-11.723-.313-15.735,3.009-3.636,3.009,1.128,4.953,3.7,6.018,5.893,2.445,12.538,3.2,18.243,6.144,1.066.564,2.006-1.066.94-1.63-3.511-1.818-7.272-2.7-11.034-3.761-2.006-.564-3.95-1.191-5.893-1.943-1.066-.376-3.2-.815-4.012-1.693-1.442-1.5.376-2.445,1.755-2.947,8.714-3.573,19-.564,27.02,3.448,1,.5,1.943-1.128.878-1.63Z" transform="translate(-798.596 -641.667)" fill="#161616"/>
          </g>
        </g>
        <g id="Group_3418" data-name="Group 3418" transform="translate(10.753 46.409)">
          <g id="Group_3417" data-name="Group 3417">
            <path id="Path_2280" data-name="Path 2280" d="M827.817,663.52a8.353,8.353,0,0,0-8.777-.125c-2.194,1.316-4.012,4.2-3.009,6.771,1.128,2.947,5.517,3.26,8.087,3.761,3.95.69,7.711.69,11.347-1.128,1.066-.564.125-2.194-.94-1.63-4.075,2.069-8.589,1.317-12.914.313-1.693-.376-1.755-.313-2.821-2.131-1.379-1.128-1.316-2.32.063-3.448.376-.313.752-.564,1.128-.878a6.652,6.652,0,0,1,6.9.125c1,.627,1.943-1,.94-1.63Z" transform="translate(-815.748 -662.208)" fill="#161616"/>
          </g>
        </g>
        <g id="Group_3420" data-name="Group 3420" transform="translate(11.615 54.795)">
          <g id="Group_3419" data-name="Group 3419">
            <path id="Path_2281" data-name="Path 2281" d="M817.548,676.221a7.077,7.077,0,0,0,3.573,8.714c4.138,2.194,8.839.564,12.789-1,1.128-.439.627-2.257-.5-1.818-2.633,1.066-5.517,2.194-8.4,1.943-3.761-.313-7.084-3.385-5.642-7.335.376-1.128-1.442-1.63-1.818-.5Z" transform="translate(-817.124 -675.585)" fill="#161616"/>
          </g>
        </g>
        <g id="Group_3422" data-name="Group 3422" transform="translate(14.732 62.694)">
          <g id="Group_3421" data-name="Group 3421">
            <path id="Path_2282" data-name="Path 2282" d="M822.349,688.821c-1.128,3.511,1.693,6.457,4.89,7.4,4.7,1.316,8.463-1.316,11.849-4.263.94-.815-.439-2.132-1.316-1.316-2.132,1.818-4.326,3.761-7.209,4.012s-7.648-1.5-6.394-5.329c.376-1.128-1.442-1.63-1.818-.5Z" transform="translate(-822.096 -688.185)" fill="#161616"/>
          </g>
        </g>
        <g id="Group_3424" data-name="Group 3424" transform="translate(25.208 49.174)">
          <g id="Group_3423" data-name="Group 3423">
            <path id="Path_2283" data-name="Path 2283" d="M839.492,668.488c1.881.627,4.764,2.32,3.26,4.639-.627,1,1,1.943,1.63.94a4.185,4.185,0,0,0-.125-4.576,7.339,7.339,0,0,0-4.326-2.821c-1.128-.376-1.63,1.442-.439,1.818Z" transform="translate(-838.807 -666.619)" fill="#161616"/>
          </g>
        </g>
        <g id="Group_3426" data-name="Group 3426" transform="translate(26.807 55.802)">
          <g id="Group_3425" data-name="Group 3425">
            <path id="Path_2284" data-name="Path 2284" d="M843.139,678.827a2.577,2.577,0,0,1-1.128,4.263.944.944,0,0,0,.5,1.818,4.519,4.519,0,0,0,2.006-7.46.979.979,0,0,0-1.379,1.379Z" transform="translate(-841.357 -677.192)" fill="#161616"/>
          </g>
        </g>
        <g id="Group_3428" data-name="Group 3428" transform="translate(29.01 60.329)">
          <g id="Group_3427" data-name="Group 3427">
            <path id="Path_2285" data-name="Path 2285" d="M845.328,686.16a2.263,2.263,0,0,1,.439,3.511c-.878.815.439,2.194,1.317,1.316a4.126,4.126,0,0,0-.815-6.457c-1-.564-2.006,1.066-.94,1.63Z" transform="translate(-844.872 -684.413)" fill="#161616"/>
          </g>
        </g>
        <g id="Group_3430" data-name="Group 3430" transform="translate(31.192 38.535)">
          <g id="Group_3429" data-name="Group 3429">
            <path id="Path_2286" data-name="Path 2286" d="M848.821,651.374c1.379.627,2.758,1.317,4.138,1.943,1.066.5,2.069-1.128.94-1.63-1.379-.627-2.758-1.316-4.138-1.943-1.066-.5-2.006,1.128-.94,1.63Z" transform="translate(-848.352 -649.649)" fill="#161616"/>
          </g>
        </g>
        <g id="Group_3432" data-name="Group 3432" transform="translate(38.547 39.87)">
          <g id="Group_3431" data-name="Group 3431">
            <path id="Path_2287" data-name="Path 2287" d="M861.724,655.052A5.72,5.72,0,0,1,866.8,653.8c1.191.251,1.693-1.567.5-1.818a7.692,7.692,0,0,0-6.9,1.755c-.94.815.376,2.131,1.317,1.317Z" transform="translate(-860.084 -651.777)" fill="#161616"/>
          </g>
        </g>
        <g id="Group_3434" data-name="Group 3434" transform="translate(40.633 44.72)">
          <g id="Group_3433" data-name="Group 3433">
            <path id="Path_2288" data-name="Path 2288" d="M864.031,660.195a11.721,11.721,0,0,0,5.015,13.792.941.941,0,0,0,.94-1.63,9.821,9.821,0,0,1-4.138-11.66.943.943,0,0,0-1.818-.5Z" transform="translate(-863.412 -659.514)" fill="#161616"/>
          </g>
        </g>
        <g id="Group_3436" data-name="Group 3436" transform="translate(27.596 67.615)">
          <g id="Group_3435" data-name="Group 3435">
            <path id="Path_2289" data-name="Path 2289" d="M843.045,697.831a15.031,15.031,0,0,0,12.287,2.382,63.093,63.093,0,0,1,18.494-1c1.191.125,1.191-1.755,0-1.881a54.754,54.754,0,0,0-14.67.251c-5.579.878-10.156,2.194-15.171-1.379-1-.69-1.943.94-.94,1.63Z" transform="translate(-842.616 -696.034)" fill="#161616"/>
          </g>
        </g>
        <g id="Group_3438" data-name="Group 3438" transform="translate(56.705 13.726)">
          <g id="Group_3437" data-name="Group 3437">
            <path id="Path_2290" data-name="Path 2290" d="M889.52,666.324c8.965,4.263,17.24,9.968,26.518,13.479a45.375,45.375,0,0,0,26.769,1.63c9.153-2.257,16.55-7.648,23.007-14.356A91.973,91.973,0,0,0,982.8,643.693a59.252,59.252,0,0,0,6.206-32.725c-.125-1.191-2.006-1.191-1.881,0,1.379,12.413-1.818,24.763-7.962,35.546-5.7,10.03-13.792,20.061-23.258,26.832a42.012,42.012,0,0,1-33.289,6.457c-11.661-2.633-21.5-10.093-32.223-15.171-1-.439-1.943,1.191-.878,1.693Z" transform="translate(-889.049 -610.075)" fill="#161616"/>
          </g>
        </g>
        <path id="Path_2291" data-name="Path 2291" d="M958.5,600.6c-2.445.125-2.131,10.532-5.078,21.189-4.326,15.422-16.738,35.671-34.981,41.877-12.914,4.388-25.954.752-46.7-5.078-6.583-1.818-18.18-5.642-34.229-6.645-13.228-.815-16.488,1.066-16.613,2.069-.063.627,1.128,1.066,1.818,3.072.564,1.693-.063,2.257.5,3.323,1,1.943,4.012,2.194,5.078,2.32a10.831,10.831,0,0,0,5.893-1.254,25.287,25.287,0,0,0,5.391,1.818c4.514.94,7.084.063,12.789-.5,5.893-.564,9.78-.94,14.043.251,4.075,1.128,5.956,3.009,9.466,5.391,1.066.69,11.1,7.4,23.509,9.466,3.887.627,12.789,2.006,22.694-1.818,5.642-2.132,9.216-5.078,13.29-8.4,2.57-2.131,14.043-11.911,22.443-30.154,3.7-7.962,6.708-14.67,5.893-23.509C963.018,607.558,960.573,600.474,958.5,600.6Z" transform="translate(-806.916 -592.813)" fill="#666" opacity="0.16"/>
        <path id="Path_2292" data-name="Path 2292" d="M847.157,688.515c3.009-1.5,6.52-.251,7.9.251,7.836,2.7,8.589.815,20.437,2.57,9.78,1.442,10.156,4.263,23.008,8.4,12.35,4.012,22.318,7.209,32.16,4.075,13.98-4.451,20.437-18.556,20.939-18.118.5.376-5.141,14.043-18.619,20.437-12.225,5.83-24.951,2.884-28.587,2.069-5.893-1.379-10.657-3.636-15.861-6.144a117.269,117.269,0,0,1-14.293-8.15,57.113,57.113,0,0,0-10.219.5c-5.83.878-8.275,2.194-13.04,1.5-1.254-.188-6.457-.94-6.9-3.323C843.834,691.023,845.527,689.33,847.157,688.515Z" transform="translate(-815.559 -624.558)" fill="#666" opacity="0.17"/>
      </g>
      <g id="torso" transform="translate(135.871 105.246)">
        <path id="Path_2293" data-name="Path 2293" d="M1021.956,585.8c-1.693,2.069-3.887,5.517-5.517,32.913a432.575,432.575,0,0,0-.439,54.478c.564,9.529,1.63,22.569,3.824,37.991a84.388,84.388,0,0,0,36.737,10.971c27.145,1.63,46.955-10.657,53.6-15.171a129.512,129.512,0,0,1-10.971-30.4c-3.636-16.3-1.881-23.509-3.824-43.507-2.57-26.455-3.824-39.683-11.849-47.708C1068.159,569.938,1034.432,570.439,1021.956,585.8Z" transform="translate(-1015.329 -574.033)" fill="#6d9773"/>
        <path id="Path_2294" data-name="Path 2294" d="M1080.4,574.8a130.974,130.974,0,0,1,14.67,29.277c1.943,5.579,11.6,34.292,4.576,71.217a145.258,145.258,0,0,1-17.8,47.081,85.681,85.681,0,0,0,16.676-.564A84.584,84.584,0,0,0,1134.69,707.7a109.8,109.8,0,0,1-7.774-17.8,122.475,122.475,0,0,1-4.577-20.375c-1.128-7.774-.94-10.344-1.693-23.007-.188-2.946-.94-14.92-2.57-28.712-2.382-20.186-4.2-24.575-7.209-28.462a37.553,37.553,0,0,0-12.037-9.78A43.4,43.4,0,0,0,1080.4,574.8Z" transform="translate(-1039.607 -574.319)" fill="#666" opacity="0.22"/>
        <path id="Path_2295" data-name="Path 2295" d="M1130.526,649.9c-.94,10.156-2.194,20.625-3.7,31.408a658.5,658.5,0,0,1-13.228,67.706,66.772,66.772,0,0,0,33.226-14.168c-8.338-14.67-11.222-26.957-12.287-35.734-1.066-8.839-.69-17.365-2.758-38.179C1131.279,656.294,1130.84,652.47,1130.526,649.9Z" transform="translate(-1051.993 -602.339)" fill="#666" opacity="0.22"/>
      </g>
      <g id="head" transform="translate(111.598 0)">
        <path id="Path_2296" data-name="Path 2296" d="M984.391,464.156c-1.254,3.072-1.191,6.708-1.191,14.043a66.64,66.64,0,0,0,2.758,21.064c2.069,6.645,4.075,13.29,10.281,19.183,1.755,1.693,9.341,8.9,20.061,8.9a23.614,23.614,0,0,0,4.953-.5,21.7,21.7,0,0,0,3.573,7.209,22.517,22.517,0,0,0,3.072,3.26,17.627,17.627,0,0,0,9.278-2.758,16.925,16.925,0,0,0,6.144-7.021,13.377,13.377,0,0,1-3.95-12.726,49.409,49.409,0,0,0,6.144-10.281c.94-2.069,1.63-4.012,2.257-5.83a6.806,6.806,0,0,0,4.639-.313c1.943-1,2.633-2.946,3.448-5.329,1.191-3.511,2.508-7.46.878-10.971-1.567-3.323-4.012-2.57-6.144-5.642-3.26-4.576-.063-9.216-1.379-14.231-2.006-7.711-13.165-11.034-17.491-12.35C1013.981,444.6,989.908,450.49,984.391,464.156Z" transform="translate(-979.068 -421.747)" fill="#fff"/>
        <path id="Path_2297" data-name="Path 2297" d="M980.517,458.015c1.567.251,2.57-2.194,5.015-4.639,2.508-2.445,6.708-5.015,14.231-5.7,6.144-.627,12.287-1.317,18.431-1.943a21.474,21.474,0,0,1,10.846,3.7,22.123,22.123,0,0,1,6.457,7.147c1.943.063,3.824.188,5.767.251.376,2.32.815,4.639,1.191,6.959.251-.251,3.636-3.26,7.147-2.132,2.821.878,4.012,3.887,4.514,5.266,1.567,3.824.5,6.9,1.442,7.147,1.129.376,3.323-3.761,3.573-4.326a27.878,27.878,0,0,0,2.884-10.532c.376-4.7.627-7.836-1.191-10.783a6.959,6.959,0,0,1-1.442-2.884c-.313-2.382,1.567-3.7,2.633-5.956.564-1.191.69-2.32-.94-10.971-1.755-9.278-2.382-10.532-3.323-10.783-1.254-.251-2.382,1.442-3.824,2.884-2.508,2.57-6.833,5.391-14.858,6.457a34.463,34.463,0,0,0-.69-6.708c-.564-2.508-.878-2.508-2.884-8.4-1.128-3.323-1.379-4.7-2.131-4.765-1.254-.125-1.693,3.072-4.639,4.2-1.317.5-1.818.063-3.573.313a11.653,11.653,0,0,0-6.144,2.946,100.2,100.2,0,0,1-10.031,5.768c-6.959,3.511-9.278-.313-16.488,2.884A25.079,25.079,0,0,0,982.461,432a26.661,26.661,0,0,0-5.266,15.359C977.069,451.808,978.323,457.7,980.517,458.015Z" transform="translate(-976.825 -406.578)" fill="#353535"/>
        <g id="Group_3440" data-name="Group 3440" transform="translate(3.453 53.051)">
          <g id="Group_3439" data-name="Group 3439">
            <path id="Path_2298" data-name="Path 2298" d="M982.42,491.668a60.077,60.077,0,0,0,5.2,31.22c3.824,8.212,9.905,16.362,18.682,19.622,8.965,3.323,19.246.878,26.706-4.765,7.586-5.768,12.35-14.356,15.171-23.321.376-1.128-1.442-1.63-1.818-.5-2.7,8.526-7.209,16.738-14.419,22.255-7.46,5.642-17.93,8.024-26.644,3.887-7.836-3.7-13.1-11.41-16.488-19.121a57.944,57.944,0,0,1-4.514-29.277c.125-1.191-1.755-1.191-1.881,0Z" transform="translate(-982.118 -490.775)" fill="#161616"/>
          </g>
        </g>
        <g id="Group_3442" data-name="Group 3442" transform="translate(65.106 53.771)">
          <g id="Group_3441" data-name="Group 3441">
            <path id="Path_2299" data-name="Path 2299" d="M1082.3,496.8c.878-3.824,5.329-3.7,7.586-1.254,1.943,2.006,2.382,4.953,2.445,7.648.125,4.514-1.5,12.852-7.962,10.783-1.128-.376-1.63,1.442-.5,1.818,9.153,2.947,11.159-9.78,10.031-15.923-.69-3.573-3.009-7.4-6.959-7.9a5.819,5.819,0,0,0-6.457,4.451c-.251,1,1.567,1.5,1.818.376Z" transform="translate(-1080.462 -491.924)" fill="#161616"/>
          </g>
        </g>
        <g id="Group_3444" data-name="Group 3444" transform="translate(21.42 54.228)">
          <g id="Group_3443" data-name="Group 3443">
            <path id="Path_2300" data-name="Path 2300" d="M1016.371,493.121c-1.442,3.009-2.884,5.956-4.263,8.965a10.434,10.434,0,0,0-1.316,4.953c.313,3.7,3.573,6.144,6.959,6.959a.943.943,0,0,0,.5-1.818c-4.075-1-6.583-4.263-4.827-8.4,1.379-3.26,3.009-6.457,4.576-9.717.5-1.066-1.128-2.006-1.63-.94Z" transform="translate(-1010.778 -492.652)" fill="#161616"/>
          </g>
        </g>
        <g id="Group_3446" data-name="Group 3446" transform="translate(15.353 57.641)">
          <g id="Group_3445" data-name="Group 3445">
            <path id="Path_2301" data-name="Path 2301" d="M1003.608,503.365a2.96,2.96,0,0,1-.69-1.567,1.79,1.79,0,0,1,0-.815c0-.188.313-.752.313-.878-.125,0-.188.063-.313.063a1.736,1.736,0,0,1,.063.564v.94a7.4,7.4,0,0,1-.564,2.32,14.624,14.624,0,0,0,1.567-.439,2.207,2.207,0,0,1-.815-2.006c.125-1.191-1.755-1.191-1.881,0a3.791,3.791,0,0,0,1.379,3.323.948.948,0,0,0,1.567-.439,8.833,8.833,0,0,0,.564-4.576c-.188-1.066-1.066-2.131-2.194-1.63-1.066.439-1.5,1.943-1.5,3.072a4.9,4.9,0,0,0,1.317,3.385c.69.94,2.006-.439,1.191-1.316Z" transform="translate(-1001.1 -498.096)" fill="#161616"/>
          </g>
        </g>
        <g id="Group_3448" data-name="Group 3448" transform="translate(39.425 57.252)">
          <g id="Group_3447" data-name="Group 3447">
            <path id="Path_2302" data-name="Path 2302" d="M1041.882,502.193a3.981,3.981,0,0,1-.313-1.442,3.15,3.15,0,0,1,.125-.752c0-.063.063-.188.063-.251.125-.188.063-.188-.251,0,0,.063.125.376.125.5a3.061,3.061,0,0,1-.062.752,4.133,4.133,0,0,1-.69,1.5l1.5.188a2.736,2.736,0,0,1,.125-3.385l-1.5.188a1.53,1.53,0,0,1-.564,2.257c.439.188.94.376,1.379.564a5.879,5.879,0,0,1-.376-1.5c0-.313.063-.627.063-.94,0-.125.063-.188.063-.313-.188-.251-.251-.313-.125-.125a2.818,2.818,0,0,1,.251,1.442c0,.251-.125.627-.125.815,0,.125-.063.188-.063.313.439-.063.5-.188.251-.439-.69-1-2.32-.063-1.63.94s2.194,1.881,3.009.439a5.355,5.355,0,0,0,0-4.388,1.784,1.784,0,0,0-3.135-.251,5.5,5.5,0,0,0-.063,4.451.969.969,0,0,0,1.379.564,3.39,3.39,0,0,0,.94-5.2.991.991,0,0,0-1.5.188,4.625,4.625,0,0,0-.125,5.266.986.986,0,0,0,1.5.188c1.128-1.442,2.32-4.827.063-5.893A1.605,1.605,0,0,0,1040,499a4.86,4.86,0,0,0,.063,3.636c.5,1.128,2.32.69,1.818-.439Z" transform="translate(-1039.498 -497.477)" fill="#161616"/>
          </g>
        </g>
        <g id="Group_3450" data-name="Group 3450" transform="translate(12.015 50.309)">
          <g id="Group_3449" data-name="Group 3449">
            <path id="Path_2303" data-name="Path 2303" d="M1005.508,487.529a6.9,6.9,0,0,0-9.592,2.069c-.627,1,1,1.943,1.63.94a5.046,5.046,0,0,1,7.021-1.442c1,.69,1.943-.94.94-1.567Z" transform="translate(-995.775 -486.402)" fill="#161616"/>
          </g>
        </g>
        <g id="Group_3452" data-name="Group 3452" transform="translate(37.444 48.659)">
          <g id="Group_3451" data-name="Group 3451">
            <path id="Path_2304" data-name="Path 2304" d="M1037.944,487.049c2.884-2.445,7.335-1.693,8.651,2.006.376,1.128,2.194.627,1.818-.5-1.818-5.078-7.836-6.269-11.786-2.821-.878.752.439,2.069,1.317,1.316Z" transform="translate(-1036.338 -483.77)" fill="#161616"/>
          </g>
        </g>
        <g id="Group_3454" data-name="Group 3454" transform="translate(41.319 104.607)">
          <g id="Group_3453" data-name="Group 3453">
            <path id="Path_2305" data-name="Path 2305" d="M1042.57,574.2a20.4,20.4,0,0,0,5.768,9.654c.878.815,2.194-.5,1.316-1.316a18.3,18.3,0,0,1-5.266-8.839.943.943,0,0,0-1.818.5Z" transform="translate(-1042.519 -573.014)" fill="#161616"/>
          </g>
        </g>
        <g id="Group_3456" data-name="Group 3456" transform="translate(58.666 93.322)">
          <g id="Group_3455" data-name="Group 3455">
            <path id="Path_2306" data-name="Path 2306" d="M1070.2,555.882a25.817,25.817,0,0,0,4.451,11.535c.69,1,2.32.063,1.63-.94a23.311,23.311,0,0,1-4.2-10.595c-.125-1.128-2.006-1.191-1.881,0Z" transform="translate(-1070.19 -555.012)" fill="#161616"/>
          </g>
        </g>
        <g id="Group_3458" data-name="Group 3458" transform="translate(46.626 105.279)">
          <g id="Group_3457" data-name="Group 3457">
            <path id="Path_2307" data-name="Path 2307" d="M1051.621,584.564c6.771,2.32,14.544-3.135,17.052-9.341.439-1.128-1.379-1.63-1.818-.5-2.131,5.266-9.09,9.968-14.732,8.024-1.128-.376-1.63,1.442-.5,1.818Z" transform="translate(-1050.985 -574.085)" fill="#161616"/>
          </g>
        </g>
        <g id="Group_3460" data-name="Group 3460" transform="translate(41.315 99.043)">
          <g id="Group_3459" data-name="Group 3459">
            <path id="Path_2308" data-name="Path 2308" d="M1043.7,571.888a21.149,21.149,0,0,0,11.723-6.144c.815-.878-.5-2.194-1.317-1.317a19.86,19.86,0,0,1-10.908,5.7c-1.191.188-.69,1.943.5,1.755Z" transform="translate(-1042.514 -564.138)" fill="#161616"/>
          </g>
        </g>
        <g id="Group_3462" data-name="Group 3462" transform="translate(42.367 95.952)">
          <g id="Group_3461" data-name="Group 3461">
            <path id="Path_2309" data-name="Path 2309" d="M1045.388,571.3c5.266-1.5,11.222-5.642,13.6-10.657.5-1.066-1.128-2.069-1.63-.94-2.194,4.576-7.648,8.463-12.538,9.842a.922.922,0,0,0,.564,1.755Z" transform="translate(-1044.191 -559.208)" fill="#161616"/>
          </g>
        </g>
        <g id="Group_3464" data-name="Group 3464" transform="translate(0 5.146)">
          <g id="Group_3463" data-name="Group 3463">
            <path id="Path_2310" data-name="Path 2310" d="M980.679,456.012c-3.573-4.2-2.131-11.723-.376-16.488,2.132-5.83,6.332-10.219,12.413-11.911,5.329-1.5,11.034-1.317,16.237-3.323,5.768-2.257,9.968-8.463,16.613-8.024,1.191.063,1.191-1.818,0-1.881-7.586-.5-12.225,6.771-19.058,8.714-6.583,1.943-13.917,1.254-19.873,5.078-4.7,3.009-7.648,8.087-8.965,13.416-1.317,5.078-2.006,11.535,1.63,15.735.815.94,2.194-.376,1.379-1.317Z" transform="translate(-976.61 -414.361)" fill="#383838"/>
          </g>
        </g>
        <g id="Group_3466" data-name="Group 3466" transform="translate(21.985)">
          <g id="Group_3465" data-name="Group 3465">
            <path id="Path_2311" data-name="Path 2311" d="M1013.824,445.865a18.338,18.338,0,0,1,3.2-12.852c3.009-4.2,7.586-6.081,12.1-8.213a28.073,28.073,0,0,0,9.905-7.147c2.633-3.009,3.949-7.46,7.272-9.78a10.007,10.007,0,0,0-1.316-.313c3.135,7.335,9.4,16.3,3.761,24.073-.69,1,.94,1.943,1.63.94,6.081-8.4-.376-17.992-3.761-25.954a.92.92,0,0,0-1.316-.313c-3.636,2.445-4.89,6.833-7.711,10.03-3.7,4.326-8.526,6.269-13.479,8.651-8.15,3.95-13.353,11.6-12.287,20.876.251,1.191,2.194,1.191,2.006,0Z" transform="translate(-1011.68 -406.152)" fill="#383838"/>
          </g>
        </g>
        <g id="Group_3468" data-name="Group 3468" transform="translate(40.042 10.337)">
          <g id="Group_3467" data-name="Group 3467">
            <path id="Path_2312" data-name="Path 2312" d="M1042.311,451.139a34.1,34.1,0,0,1,18.619-16.112c3.761-1.316,7.711-2.069,11.284-3.887a30.1,30.1,0,0,0,8.965-6.9l-1.5-.188c2.32,4.953,4.514,10.532,4.953,15.986.439,5.893-2.821,10.407-6.394,14.732-.752.94.564,2.257,1.317,1.317,3.573-4.388,7.084-9.027,6.959-14.92-.125-6.206-2.7-12.538-5.266-18.055a.943.943,0,0,0-1.5-.188,29.677,29.677,0,0,1-11.66,7.9c-3.824,1.379-7.836,2.132-11.535,3.95a36.206,36.206,0,0,0-15.986,15.422c-.439,1.066,1.191,2.006,1.755.94Z" transform="translate(-1040.482 -422.641)" fill="#383838"/>
          </g>
        </g>
        <g id="Group_3470" data-name="Group 3470" transform="translate(79.131 37.803)">
          <g id="Group_3469" data-name="Group 3469">
            <path id="Path_2313" data-name="Path 2313" d="M1105.07,467.861A25.887,25.887,0,0,1,1103,495.006c-.689,1,.94,1.943,1.63.94a27.587,27.587,0,0,0,2.069-29.026c-.564-1.066-2.194-.125-1.63.94Z" transform="translate(-1102.834 -466.452)" fill="#383838"/>
          </g>
        </g>
        <path id="Path_2314" data-name="Path 2314" d="M1053.94,484.9a107.98,107.98,0,0,1,0,12.852c-.627,9.529-1.128,17.741-5.329,25.452-5.266,9.592-14.294,14.607-20.312,17.115a34.322,34.322,0,0,0,12.852-1.693,33.589,33.589,0,0,0,9.842-5.141c1.191,4.7,2.445,9.4,3.636,14.105,1.881-2.257,3.7-4.576,5.579-6.833-1.63-3.26-3.26-6.583-4.89-9.842,1.316-2.132,2.57-4.388,3.824-6.833a113.919,113.919,0,0,0,5.579-12.225,6.628,6.628,0,0,0,5.329,0c2.382-1.254,2.946-4.075,3.448-6.645.5-2.7,1.881-9.905-2.382-13.04-1.755-1.316-4.827-2.194-7.272-.878a6.319,6.319,0,0,0-2.382,2.57c-.313-2.57-.564-5.141-.878-7.711C1058.391,485.778,1056.135,485.339,1053.94,484.9Z" transform="translate(-995.895 -435.532)" fill="#666" opacity="0.14"/>
        <path id="Path_2315" data-name="Path 2315" d="M1046.3,449.8a73.817,73.817,0,0,0,16.676-30.4,17.834,17.834,0,0,1,2.382,10.908c-1.066,8.024-8.338,13.04-12.413,15.861A41.146,41.146,0,0,1,1046.3,449.8Z" transform="translate(-1002.611 -411.095)" fill="#212121" opacity="0.2"/>
        <path id="Path_2316" data-name="Path 2316" d="M1066.8,466.639a65.294,65.294,0,0,0,12.225-5.768,63.907,63.907,0,0,0,16.927-15.171c.439,2.633.878,7.836-1.943,12.6C1089.494,466.074,1078.4,469.836,1066.8,466.639Z" transform="translate(-1010.259 -420.907)" fill="#212121" opacity="0.16"/>
        <path id="Path_2317" data-name="Path 2317" d="M1001.28,457.374a34.6,34.6,0,0,1,1.254-10.72c2.821-9.905,9.842-17.3,10.908-16.676C1014.32,430.479,1012.188,436.372,1001.28,457.374Z" transform="translate(-985.802 -415.027)" fill="#212121" opacity="0.22"/>
        <g id="Group_3472" data-name="Group 3472" transform="translate(17.876 75.857)">
          <g id="Group_3471" data-name="Group 3471">
            <path id="Path_2318" data-name="Path 2318" d="M1005.8,534.016a54.461,54.461,0,0,0,26.832-5.579c.815-.376.125-1.63-.69-1.191a52.96,52.96,0,0,1-26.079,5.391.691.691,0,1,0-.063,1.379Z" transform="translate(-1005.125 -527.153)" fill="#161616"/>
          </g>
        </g>
        <g id="Group_3474" data-name="Group 3474" transform="translate(19.399 81.906)">
          <g id="Group_3473" data-name="Group 3473">
            <path id="Path_2319" data-name="Path 2319" d="M1007.645,537.867a24.919,24.919,0,0,1,2.633,7.209c.188.878,1.5.5,1.379-.376a25.66,25.66,0,0,0-2.758-7.586c-.439-.752-1.693,0-1.254.752Z" transform="translate(-1007.554 -536.803)" fill="#161616"/>
          </g>
        </g>
        <g id="Group_3476" data-name="Group 3476" transform="translate(22.05 76.264)">
          <g id="Group_3475" data-name="Group 3475">
            <path id="Path_2320" data-name="Path 2320" d="M1011.982,541.781c3.761,3.636,9.842,1.818,13.855-.5a19.23,19.23,0,0,0,9.529-12.6c.188-.878-1.191-1.254-1.379-.376a17.916,17.916,0,0,1-7.335,10.845c-3.573,2.445-10.031,5.2-13.667,1.63-.627-.627-1.63.376-1,1Z" transform="translate(-1011.783 -527.803)" fill="#161616"/>
          </g>
        </g>
        <g id="Group_3478" data-name="Group 3478" transform="translate(20.872 76.657)">
          <g id="Group_3477" data-name="Group 3477">
            <path id="Path_2321" data-name="Path 2321" d="M1010.4,537.313c4.263,1.128,9.153-.125,13.228-1.379a21.821,21.821,0,0,0,10.344-6.269c.627-.69-.376-1.693-1-1a20.521,20.521,0,0,1-9.717,5.893c-3.824,1.128-8.526,2.445-12.475,1.379-.878-.188-1.254,1.191-.376,1.379Z" transform="translate(-1009.903 -528.43)" fill="#161616"/>
          </g>
        </g>
        <g id="Group_3480" data-name="Group 3480" transform="translate(21.928 81.686)">
          <g id="Group_3479" data-name="Group 3479">
            <path id="Path_2322" data-name="Path 2322" d="M1011.659,541l1.5,3.573c.313.752,1.567.188,1.316-.564a21,21,0,0,1-1-3.385l-.878.878a27.6,27.6,0,0,0,4.576.376c.752,0,1-1.254.188-1.379a7.955,7.955,0,0,0-4.012.251.727.727,0,0,0-.439,1.066c.376.564.815,1.191,1.191,1.755a.688.688,0,0,0,1.191-.69c-.188-.564-.376-1.128-.564-1.63l-1.317.564a2.93,2.93,0,0,1,.627,2.633l1.317-.376c-.878-1.442-1.63.251-1.818.69-.188.564.564,1.191,1.066.815,5.141-3.887,11.159-5.83,17.24-7.711a.715.715,0,0,0-.376-1.379c-6.206,1.881-12.35,3.887-17.553,7.836a12.055,12.055,0,0,1,1.066.815c.251-.564,1-.69,1.128-1.567a1.937,1.937,0,0,0-1-2.132c-2.257-.752-1.442,2.445-.878,3.323a.716.716,0,0,0,1.316-.376,4.742,4.742,0,0,0-.815-3.323.73.73,0,0,0-1.316.564,7.6,7.6,0,0,0,.69,2.006,11.628,11.628,0,0,1,1.191-.69c-.376-.564-.815-1.191-1.191-1.755a7.659,7.659,0,0,1-.439,1.066,5.276,5.276,0,0,1,3.26-.251c.063-.439.125-.94.188-1.379a24.142,24.142,0,0,1-4.2-.313.709.709,0,0,0-.878.878,21.015,21.015,0,0,0,1,3.385l1.316-.564-1.5-3.573c-.313-1-1.567-.251-1.191.564Z" transform="translate(-1011.589 -536.452)" fill="#161616"/>
          </g>
        </g>
        <g id="Group_3482" data-name="Group 3482" transform="translate(24.746 78.743)">
          <g id="Group_3481" data-name="Group 3481">
            <path id="Path_2323" data-name="Path 2323" d="M1017.348,541.5a38.341,38.341,0,0,1,6.9-3.2l-.564-1.316c-2.194,1-4.388,2.006-6.52,2.946-.69.313-.188,1.567.564,1.316,5.893-2.32,11.723-4.7,17.052-8.212a12.052,12.052,0,0,1-1.066-.815c-.815,2.194-4.451,2.445-6.332,3.135-1.567.564-3.072,1.316-4.639,1.881-2.194.752-4.764.627-6.457,2.508-.627.69.376,1.693,1,1,1.379-1.567,3.95-1.5,5.83-2.131s3.7-1.567,5.642-2.194c2.633-.815,5.266-.878,6.332-3.761a.747.747,0,0,0-1.066-.815c-5.2,3.385-10.971,5.768-16.738,8.024l.564,1.317c2.194-1,4.388-2.006,6.52-2.947.752-.313.188-1.567-.564-1.316a44.106,44.106,0,0,0-7.209,3.323c-.752.5,0,1.755.752,1.254Z" transform="translate(-1016.083 -531.757)" fill="#161616"/>
          </g>
        </g>
        <g id="Group_3484" data-name="Group 3484" transform="translate(41.505 80.462)">
          <g id="Group_3483" data-name="Group 3483">
            <path id="Path_2324" data-name="Path 2324" d="M1044.248,535.628c0-.063-.063-.125-.063-.188v.125l-.251.251H1044c-.188,0-.376.063-.564.063-.313-.063-.313-.627-.376-.251a.565.565,0,0,0,.063.313.942.942,0,0,0,.439.564.643.643,0,0,0,.94-.251.692.692,0,0,0-.251-.94.061.061,0,0,1-.063-.063l.251.251c.063.188.063.188.063.063v-.125a1.18,1.18,0,0,0-.125-.5.956.956,0,0,0-.752-.439c-.815,0-.94.94-.69,1.5a.687.687,0,0,0,.878.5c.313-.125.627-.564.439-.878Z" transform="translate(-1042.815 -534.5)" fill="#161616"/>
          </g>
        </g>
        <g id="Group_3486" data-name="Group 3486" transform="translate(42.563 74.505)">
          <g id="Group_3485" data-name="Group 3485">
            <path id="Path_2325" data-name="Path 2325" d="M1045,526.378a6.087,6.087,0,0,1,2.884,2.445c.439.752,1.693.063,1.191-.69a7.115,7.115,0,0,0-3.7-3.072c-.878-.376-1.254,1-.376,1.317Z" transform="translate(-1044.503 -524.997)" fill="#161616"/>
          </g>
        </g>
        <g id="Group_3488" data-name="Group 3488" transform="translate(24.911 82.576)">
          <g id="Group_3487" data-name="Group 3487">
            <path id="Path_2326" data-name="Path 2326" d="M1017.383,546.541a44.931,44.931,0,0,1,16.3-7.272c.878-.188.5-1.567-.376-1.379a45.38,45.38,0,0,0-16.676,7.4c-.69.564,0,1.818.752,1.254Z" transform="translate(-1016.347 -537.872)" fill="#161616"/>
          </g>
        </g>
        <g id="Group_3490" data-name="Group 3490" transform="translate(23.989 83.141)">
          <g id="Group_3489" data-name="Group 3489">
            <path id="Path_2327" data-name="Path 2327" d="M1015.58,545.748a32.672,32.672,0,0,0,16.927-5.642c.752-.5.063-1.755-.69-1.191a30.871,30.871,0,0,1-16.237,5.454c-.94.063-.94,1.442,0,1.379Z" transform="translate(-1014.875 -538.772)" fill="#161616"/>
          </g>
        </g>
        <g id="Group_3492" data-name="Group 3492" transform="translate(29.536 83.288)">
          <g id="Group_3491" data-name="Group 3491">
            <path id="Path_2328" data-name="Path 2328" d="M1024.587,544.269a30.189,30.189,0,0,0,9.654-3.95c.752-.5.063-1.693-.69-1.191a29.343,29.343,0,0,1-9.278,3.824c-.94.125-.564,1.5.313,1.317Z" transform="translate(-1023.724 -539.007)" fill="#161616"/>
          </g>
        </g>
        <g id="Group_3494" data-name="Group 3494" transform="translate(25.415 85.272)">
          <g id="Group_3493" data-name="Group 3493">
            <path id="Path_2329" data-name="Path 2329" d="M1017.808,547.894a25.161,25.161,0,0,0,13.792-4.388c.752-.5.063-1.755-.69-1.191a23.909,23.909,0,0,1-13.1,4.2c-.878,0-.878,1.442,0,1.379Z" transform="translate(-1017.15 -542.172)" fill="#161616"/>
          </g>
        </g>
        <g id="Group_3496" data-name="Group 3496" transform="translate(26.07 89.409)">
          <g id="Group_3495" data-name="Group 3495">
            <path id="Path_2330" data-name="Path 2330" d="M1018.2,550.231c-.063,1.066.94,1.191,1.755,1.066a53.742,53.742,0,0,0,5.517-1.128.716.716,0,0,0-.376-1.379c-.94.251-1.881.439-2.884.627-.439.063-2.57.188-2.633.752.125-.815-1.317-.815-1.379.063Z" transform="translate(-1018.196 -548.771)" fill="#161616"/>
          </g>
        </g>
      </g>
      <g id="hand_left" transform="translate(148.547 67.571)">
        <path id="Path_2331" data-name="Path 2331" d="M1037.274,545.388c.627-1.755,6.269-1.379,11.159-.752a11.286,11.286,0,0,1,.752-3.824c.439-1.191,1.128-2.382,3.636-5.141,2.7-2.946,4.075-4.388,5.83-5.454a17.987,17.987,0,0,1,6.583-2.382c1.254.439,2.57.878,3.824,1.254.376-1.191,1.128-3.448,2.57-7.836.94-2.946,1.5-4.451,2.758-4.953a3.679,3.679,0,0,1,3.824,1.066c1.254,1.567.125,3.824-.564,7.648-.376,2.194-.063,1.818-.188,10.031-.125,8.4-.439,8.338-.376,11.849a56.189,56.189,0,0,0,2.006,13.479,14.4,14.4,0,0,1,6.206-1.254c6.144.063,10.469,4.075,13.667,7.147,6.269,5.956,8.965,12.538,10.783,17.177a57.247,57.247,0,0,1,4.012,19.685c.063,5.078.188,9.842-2.382,15.359a24.511,24.511,0,0,1-8.213,10.031c-2.131,1.5-6.144,4.263-11.347,3.824a15.5,15.5,0,0,1-8.589-3.824c-9.654-7.836-14.105-22.067-15.484-27.02A154.07,154.07,0,0,1,1061.723,563a15.011,15.011,0,0,1-4.765-1.066c-6.457-2.7-8.965-9.153-9.466-10.783-1.317.063-6.018,0-8.965-3.26C1037.9,547.143,1037.023,546.2,1037.274,545.388Z" transform="translate(-1036.176 -514.756)" fill="#fff"/>
        <g id="Group_3498" data-name="Group 3498" transform="translate(0 28.823)">
          <g id="Group_3497" data-name="Group 3497">
            <path id="Path_2332" data-name="Path 2332" d="M1045.361,566.111c-3.323-.251-7.147-1.5-8.024-5.141-.188.376-.439.752-.627,1.128,4.827-1,9.654.439,14.481-.251,1.191-.188.69-2.006-.5-1.818-4.827.69-9.654-.752-14.482.251a.924.924,0,0,0-.627,1.128c1.066,4.514,5.642,6.206,9.842,6.52,1.191.125,1.191-1.755-.063-1.818Z" transform="translate(-1035.549 -559.913)" fill="#161616"/>
          </g>
        </g>
        <g id="Group_3500" data-name="Group 3500" transform="translate(11.479 22.553)">
          <g id="Group_3499" data-name="Group 3499">
            <path id="Path_2333" data-name="Path 2333" d="M1055.765,555.672c-.752-4.451,6.081-4.2,8.651-3.511a.943.943,0,0,0,.5-1.818c-4.2-1.128-11.974-.313-10.971,5.768.188,1.254,2.006.752,1.818-.439Z" transform="translate(-1053.859 -549.913)" fill="#161616"/>
          </g>
        </g>
        <g id="Group_3502" data-name="Group 3502" transform="translate(14.239 16.386)">
          <g id="Group_3501" data-name="Group 3501">
            <path id="Path_2334" data-name="Path 2334" d="M1060.1,547.676a7.512,7.512,0,0,1,3.887-5.2c2.508-1.128,5.015,0,7.335,1,1.066.5,2.069-1.128.94-1.63-2.884-1.316-5.956-2.57-9.027-1.128a9.312,9.312,0,0,0-4.953,6.457c-.251,1.191,1.567,1.693,1.818.5Z" transform="translate(-1058.262 -540.075)" fill="#161616"/>
          </g>
        </g>
        <g id="Group_3504" data-name="Group 3504" transform="translate(20.769 11.853)">
          <g id="Group_3503" data-name="Group 3503">
            <path id="Path_2335" data-name="Path 2335" d="M1070.573,537.456a13.07,13.07,0,0,1,2.319-2.069,6.513,6.513,0,0,1,2.884-.69,12.428,12.428,0,0,1,6.583,2.445c1,.627,1.943-.94.94-1.63-3.135-2.006-6.959-3.573-10.657-2.069-1.567.627-5.329,3.448-3.448,5.391a.979.979,0,0,0,1.379-1.379Z" transform="translate(-1068.679 -532.844)" fill="#161616"/>
          </g>
        </g>
        <g id="Group_3506" data-name="Group 3506" transform="translate(32.643)">
          <g id="Group_3505" data-name="Group 3505">
            <path id="Path_2336" data-name="Path 2336" d="M1096.258,546.262a75.72,75.72,0,0,0,.627-15.986,25.794,25.794,0,0,1,.878-8.463,9.476,9.476,0,0,0,.251-4.764c-.69-2.132-3.072-3.887-5.329-2.758-1.442.752-1.818,2.445-2.32,3.887-.94,2.7-1.818,5.454-2.7,8.15-.376,1.128,1.442,1.63,1.818.5.5-1.567,1-3.135,1.567-4.639.313-.94.815-4.075,1.567-4.639,3.135-.376,4.388.5,3.636,2.758-.188.752-.376,1.442-.627,2.194a23.426,23.426,0,0,0-.752,3.511c-.251,3.009.313,6.144.313,9.216a74.611,74.611,0,0,1-.752,10.595c-.125,1.128,1.692,1.63,1.818.439Z" transform="translate(-1087.619 -513.937)" fill="#161616"/>
          </g>
        </g>
        <g id="Group_3508" data-name="Group 3508" transform="translate(7.892 35.203)">
          <g id="Group_3507" data-name="Group 3507">
            <path id="Path_2337" data-name="Path 2337" d="M1049.054,571.914c3.26.251,4.075,3.636,5.579,5.893a12.208,12.208,0,0,0,2.821,3.135,13.853,13.853,0,0,0,7.586,2.946c1.191.125,1.191-1.755,0-1.881-4.764-.439-7.774-3.2-9.968-7.209-1.379-2.508-3.009-4.514-6.018-4.7-1.254-.125-1.191,1.755,0,1.818Z" transform="translate(-1048.137 -570.09)" fill="#161616"/>
          </g>
        </g>
        <g id="Group_3510" data-name="Group 3510" transform="translate(24.43 47.048)">
          <g id="Group_3509" data-name="Group 3509">
            <path id="Path_2338" data-name="Path 2338" d="M1074.57,590.123c1.943,6.708,2.132,13.6,2.7,20.5a88.724,88.724,0,0,0,3.072,17.24,68,68,0,0,0,16.676,28.775c.878.878,2.194-.5,1.316-1.317a66,66,0,0,1-16.738-29.9c-3.135-11.786-1.818-24.136-5.2-35.8-.376-1.128-2.194-.627-1.818.5Z" transform="translate(-1074.519 -588.985)" fill="#161616"/>
          </g>
        </g>
        <g id="Group_3512" data-name="Group 3512" transform="translate(39.458 30.687)">
          <g id="Group_3511" data-name="Group 3511">
            <path id="Path_2339" data-name="Path 2339" d="M1098.5,563.773a74.607,74.607,0,0,0,9.153,29.841c5.015,8.9,12.726,16.613,14.482,27.02.188,1.191,2.006.69,1.818-.5-1.567-9.466-8.025-16.676-12.977-24.575a73.3,73.3,0,0,1-10.595-31.721c-.125-1.254-2.006-1.254-1.881-.063Z" transform="translate(-1098.49 -562.887)" fill="#161616"/>
          </g>
        </g>
        <g id="Group_3514" data-name="Group 3514" transform="translate(42.648 43.508)">
          <g id="Group_3513" data-name="Group 3513">
            <path id="Path_2340" data-name="Path 2340" d="M1104.72,585.947c9.341-3.009,18.557,4.514,23.446,11.786,5.141,7.648,7.46,17.052,8.526,26.142,1,8.9.313,18.619-5.642,25.766-5.517,6.645-15.735,9.278-22.694,3.26-.94-.815-2.257.564-1.316,1.316,6.583,5.7,16.3,4.89,22.757-.627,7.9-6.708,9.843-17.616,9.028-27.458-.878-10.72-3.573-22.193-10.093-30.969-5.454-7.272-14.983-14.105-24.449-11.1-1.191.439-.752,2.257.439,1.881Z" transform="translate(-1103.578 -583.339)" fill="#161616"/>
          </g>
        </g>
        <path id="Path_2341" data-name="Path 2341" d="M1097.142,519.793c-3.323,1.254-3.072,9.78-2.821,15.923.878,18.243,1.317,27.4,4.89,41.438,5.141,20,9.842,25.2,12.413,27.647,3.7,3.511,10.783,8.589,13.792,6.583,4.765-3.2-2.821-22.255-4.7-26.894-6.332-15.8-7.711-21.064-12.413-22.694a12.729,12.729,0,0,0-7.523,0,30.081,30.081,0,0,1-3.072-13.6c.063-2.7.5-2.7.69-6.771.376-7.4-.94-7.836-.251-12.664.69-4.7,2.508-7.523,1.191-8.651C1098.9,519.48,1097.832,519.543,1097.142,519.793Z" transform="translate(-1057.427 -516.055)" fill="#666" opacity="0.15"/>
        <path id="Path_2342" data-name="Path 2342" d="M1107.5,592a66.413,66.413,0,0,1,17.553,29.277,66.546,66.546,0,0,1,1.881,9.592,59.99,59.99,0,0,0-6.583-13.6c-2.821-4.388-4.639-5.893-7.021-9.842A48.29,48.29,0,0,1,1107.5,592Z" transform="translate(-1062.393 -543.062)" fill="#666" opacity="0.15"/>
      </g>
    </g>
  </g>
</svg>
