<svg xmlns="http://www.w3.org/2000/svg" width="1048.908" height="795" viewBox="0 0 1048.908 795">
  <g id="Group_3259"  transform="translate(-480 -335)">
    <ellipse id="Ellipse_128" cx="397" cy="397.5" rx="397" ry="397.5" transform="translate(563 335)" fill="#f7f7e8"/>
    <g id="pixeltrue-time-management-1" transform="translate(329.3 267.979)">
      <g id="backfround" transform="translate(150.7 67.2)">
        <g id="Group_2424"  transform="translate(42.083 537.157)">
          <g id="Group_2423" >
            <path id="Path_1886" d="M208.932,794.915c2,5.916-.148,11.833-1.035,17.675-.74,4.955-.148,9.318,2.588,13.608,1.479,2.293,3.55,4.659,4.141,7.4.74,3.4-1.775,5.768-2.884,8.727s-.37,7.174,3.328,7.691a17.265,17.265,0,0,0-.518-1.849,5.278,5.278,0,0,0-.666,6.73c1.183,1.627,3.7,1.775,4.363,3.92s-.444,4.881-.813,6.952c-1.405,8.653,3.846,16.2,10.058,21.595,7.247,6.36,15.235,11.537,21.742,18.71a98.824,98.824,0,0,1,16.64,25.218c.592,1.257,2.514.148,1.923-1.109a102.223,102.223,0,0,0-31.283-38.53c-7.469-5.62-16.788-12.276-17.157-22.63-.074-3.328,1.553-6.656,1.109-9.984a5.248,5.248,0,0,0-1.183-2.884c-1.627-1.923-6.434-3.106-3.254-6.508a1.118,1.118,0,0,0-.518-1.849c-5.029-.74-.444-7.1.37-9.1a8.949,8.949,0,0,0,.887-4.585c-.37-4.215-3.772-7.4-5.621-11.019-4.733-9.17,3.032-19.376-.222-28.916-.3-1.183-2.44-.592-2,.74Z" transform="translate(-207.604 -793.539)" fill="#6d9773"/>
          </g>
        </g>
        <g id="Group_2426"  transform="translate(44.378 538.643)">
          <g id="Group_2425"  transform="translate(0 0)">
            <path id="Path_1887" d="M211.294,797.583c50.954,22.556,63.453,82.385,72.327,131.638.222,1.405,2.367.813,2.145-.592-7.321-40.9-15.826-84.973-46.961-115.072a89.133,89.133,0,0,0-26.4-17.9c-1.257-.592-2.44,1.331-1.109,1.923Z" transform="translate(-210.708 -795.549)" fill="#6d9773"/>
          </g>
        </g>
        <g id="Group_2428" transform="translate(48.397 543.857)">
          <g id="Group_2427">
            <path id="Path_1888" d="M216.407,804.6a300.2,300.2,0,0,1,56.5,117.809c.3,1.405,2.44.813,2.145-.592a302.929,302.929,0,0,0-57.019-118.844c-.961-1.109-2.514.518-1.627,1.627Z" transform="translate(-216.143 -802.598)" fill="#6d9773"/>
          </g>
        </g>
        <g id="Group_2430" transform="translate(54.053 580.871)">
          <g id="Group_2429">
            <path id="Path_1889" d="M224.389,854.684A73.687,73.687,0,0,1,260.7,890.921c.592,1.331,2.514.148,1.923-1.109a75.274,75.274,0,0,0-37.051-37.051c-1.405-.592-2.514,1.331-1.183,1.923Z" transform="translate(-223.791 -852.649)" fill="#6d9773"/>
          </g>
        </g>
        <g id="Group_2432"  transform="translate(106.953 518.594)">
          <g id="Group_2431"  transform="translate(0 0)">
            <path id="Path_1890" d="M298.264,873.277c-4.881-21.077,11.833-38.086,22.186-54.356A128.847,128.847,0,0,0,332.874,793.7c1.553-4.289,2.662-8.727,3.994-13.09,1.257-4.141,2.958-8.8,7.469-10.058-.444-.148-.814-.37-1.257-.518A19.272,19.272,0,0,1,345.3,780.76c-.222,2.367-2,4.955-1.775,7.174.148,1.331,1.331,3.4,1.775,4.733a31.5,31.5,0,0,1,1.109,5.1,43.875,43.875,0,0,1,.444,6.212c0,1.553-1.035,5.768-.518,6.952-.592-1.257-2.219-.3-2,.887,2.071,12.572,5.029,25.366,5.768,38.012.74,12.72-4.363,23.517-10.8,34.167-11.389,18.858-23.517,38.974-21.225,61.974.148,1.405,2.367,1.405,2.219,0-2.514-25.218,12.572-45.482,24.183-66.337,5.473-9.836,8.653-19.894,7.765-31.209-.961-12.424-3.772-24.849-5.768-37.2l-2,.887.222.444a1,1,0,0,0,.961.518c2.736.074,3.032-3.032,3.254-5.1a40.212,40.212,0,0,0-1.183-15.161c-.518-1.849-1.775-3.92-1.553-5.842.222-1.775,1.183-3.624,1.405-5.547A21.3,21.3,0,0,0,345.151,769a1.094,1.094,0,0,0-1.257-.518c-7.617,2.219-8.8,11.241-10.723,17.749a125.151,125.151,0,0,1-14.5,31.652c-10.8,16.935-27.511,34.167-22.408,56.057.222,1.331,2.367.739,2-.666Z" transform="translate(-295.322 -768.438)" fill="#6d9773"/>
          </g>
        </g>
        <g id="Group_2434"  transform="translate(119.73 537.701)">
          <g id="Group_2433" >
            <path id="Path_1891" d="M343.882,795.329c-1.257,22.334-10.28,42.967-17.6,63.748a251.455,251.455,0,0,0-13.682,65.08c-.074,1.405,2.145,1.405,2.219,0a256.429,256.429,0,0,1,14.495-67c7.174-20.189,15.53-40.231,16.788-61.826.074-1.405-2.145-1.405-2.219,0Z" transform="translate(-312.598 -794.275)" fill="#6d9773"/>
          </g>
        </g>
        <g id="Group_2436"  transform="translate(119.651 588.517)">
          <g id="Group_2435" >
            <path id="Path_1892" d="M312.5,864.032A85.1,85.1,0,0,0,320.78,893.1c.666,1.257,2.514.148,1.923-1.109a82.063,82.063,0,0,1-7.987-27.881c-.148-1.479-2.367-1.479-2.219-.074Z" transform="translate(-312.49 -862.987)" fill="#6d9773"/>
          </g>
        </g>
        <g id="Group_2438" transform="translate(135.35 580.477)">
          <g id="Group_2437" transform="translate(0 0)">
            <path id="Path_1893" d="M335.406,871.776a64.5,64.5,0,0,0,19.376-18.045c.813-1.183-1.109-2.293-1.923-1.109a61.034,61.034,0,0,1-18.636,17.231,1.13,1.13,0,0,0,1.183,1.923Z" transform="translate(-333.719 -852.116)" fill="#6d9773"/>
          </g>
        </g>
        <g id="Group_2440"  transform="translate(97.407 667.326)">
          <g id="Group_2439"  transform="translate(0 0)">
            <path id="Path_1894" d="M282.551,971.215a77.354,77.354,0,0,1,8.8,28.176c.148,1.405,2.367,1.405,2.219,0a81.927,81.927,0,0,0-9.1-29.286c-.666-1.257-2.588-.148-1.923,1.109Z" transform="translate(-282.413 -969.552)" fill="#6d9773"/>
          </g>
        </g>
        <g id="Group_2442"  transform="translate(116.08 666.188)">
          <g id="Group_2441"  transform="translate(0 0)">
            <path id="Path_1895" d="M307.69,969.409a150.8,150.8,0,0,1,3.032,27.659,1.111,1.111,0,0,0,2.219,0,150.876,150.876,0,0,0-3.106-28.25c-.3-1.405-2.44-.814-2.145.592Z" transform="translate(-307.662 -968.014)" fill="#6d9773"/>
          </g>
        </g>
        <g id="Group_2444"  transform="translate(856.165 604.21)">
          <g id="Group_2443"  transform="translate(0 0)">
            <path id="Path_1896" d="M1311.284,885.015c-.887,2.958-2.293,6.138-2.736,9.244a4.093,4.093,0,0,0,.518,3.476c1.035,1.257,2.81,1.405,4.289,1.627q4.992.887,9.984,1.553a311.626,311.626,0,0,0,36.163,2.514c12.5.222,25-.148,37.569-.592,3.254-.148,6.952.222,10.058-.37.887-.148,1.849-.148,2.441-.961,1.331-1.7-.518-3.18-2.219-2.293a1.2,1.2,0,0,0-.518,1.257c.074.074.074.222.148.3.518,1.331,2.662.74,2.145-.592-.074-.074-.074-.222-.148-.3-.148.444-.37.813-.518,1.257l-1.331-.887c-.74,0-1.405.074-2.145.074-1.183.074-2.367.074-3.624.148l-6.508.222c-4.363.148-8.653.3-13.016.37-9.17.222-18.267.3-27.437,0-8.875-.222-17.749-.813-26.55-1.849q-6.989-.777-13.977-2c-3.032-.518-3.4-1.849-2.588-4.733.666-2.293,1.405-4.659,2.071-6.952.443-1.331-1.7-1.923-2.071-.518Z" transform="translate(-1308.4 -884.207)" fill="#6d9773"/>
          </g>
        </g>
        <g id="Group_2446"  transform="translate(858.8 600.737)">
          <g id="Group_2445" >
            <path id="Path_1897" d="M1314.283,884.976c1.183-3.624,9.318-2.736,12.2-2.81,4.068-.148,8.209-.3,12.276-.37,8.653-.148,17.305-.148,26.032.148,8.431.222,16.861.666,25.218,1.331,3.993.3,8.357.222,12.2,1.109,3.993.961,3.993,2.884,4.585,6.064l1.331,6.878c.3,1.405,2.44.813,2.145-.592-.518-2.736-1.109-5.547-1.627-8.283-.3-1.627-.518-3.476-1.775-4.733-2.366-2.367-7.469-1.775-10.5-2.071-10.8-.961-21.595-1.627-32.466-1.923-10.575-.3-21.225-.3-31.8.074-4.659.148-9.466.074-14.125.666-2.662.37-5.1,1.257-5.99,3.994-.3,1.331,1.849,1.849,2.292.518Z" transform="translate(-1311.962 -879.511)" fill="#6d9773"/>
          </g>
        </g>
        <g id="Group_2448"  transform="translate(863.237 617.082)">
          <g id="Group_2447"  transform="translate(0 0)">
            <path id="Path_1898" d="M1317.99,903.009a532.2,532.2,0,0,1,6.952,54.06,1.137,1.137,0,0,0,1.109,1.109,481.465,481.465,0,0,0,65.3,1.553c1.405-.074,1.405-2.293,0-2.219a480.9,480.9,0,0,1-65.3-1.553l1.109,1.109a523.273,523.273,0,0,0-7.026-54.652c-.3-1.405-2.441-.813-2.145.592Z" transform="translate(-1317.962 -901.614)" fill="#6d9773"/>
          </g>
        </g>
        <g id="Group_2450"  transform="translate(937.694 622.111)">
          <g id="Group_2449"  transform="translate(0 0)">
            <path id="Path_1899" d="M1429.63,909.217c-2.958,16.862-6.582,33.649-10.945,50.215a1.113,1.113,0,0,0,2.145.592c4.289-16.566,7.987-33.353,10.945-50.215.222-1.405-1.923-2-2.145-.592Z" transform="translate(-1418.642 -908.414)" fill="#6d9773"/>
          </g>
        </g>
        <g id="Group_2452"  transform="translate(813.36 484.108)">
          <g id="Group_2451" >
            <path id="Path_1900" d="M1250.579,723.133a222.767,222.767,0,0,1,10.723,40.675,1.063,1.063,0,0,0,.74.74c2.366.666,4.733,1.331,7.026,2-.222-.444-.518-.887-.74-1.331-1.331,6.064-1.923,12.646,3.772,16.492,1.849,1.257,3.772,2,4.215,4.437.3,1.775.148,3.55.518,5.325a27.158,27.158,0,0,0,4.511,10.5c4.955,6.878,12.72,9.836,19.672,14.2a49.249,49.249,0,0,1,17.675,20.042c.592,1.257,2.514.148,1.923-1.109a50.916,50.916,0,0,0-13.608-17.305c-6.36-5.177-14.569-7.839-20.559-13.386a25.145,25.145,0,0,1-6.8-10.8,23.439,23.439,0,0,1-1.109-6.36c-.074-1.183.148-2.145-.37-3.18-1.257-2.81-4.881-3.624-6.8-5.842-2.884-3.328-1.775-8.5-.961-12.424a1.058,1.058,0,0,0-.74-1.331c-1.479-.444-4.437-.666-5.62-1.553-1.479-1.109-1.405-4.068-1.7-5.842-.74-3.92-1.627-7.765-2.588-11.685a219.26,219.26,0,0,0-7.026-22.778c-.444-1.405-2.588-.814-2.145.518Z" transform="translate(-1250.519 -721.807)" fill="#6d9773"/>
          </g>
        </g>
        <g id="Group_2454"  transform="translate(814.983 483.303)">
          <g id="Group_2453" >
            <path id="Path_1901" d="M1253.517,722.924a102.828,102.828,0,0,1,60.273,47.922c.666,1.257,2.588.148,1.923-1.109a104.685,104.685,0,0,0-61.6-48.958,1.112,1.112,0,0,0-.592,2.145Z" transform="translate(-1252.714 -720.719)" fill="#6d9773"/>
          </g>
        </g>
        <g id="Group_2456"  transform="translate(873.2 528.635)">
          <g id="Group_2455"  transform="translate(0 0)">
            <path id="Path_1902" d="M1331.631,783.631a173.282,173.282,0,0,1,26.993,67.52c.222,1.405,2.366.813,2.145-.592a174.8,174.8,0,0,0-27.215-68.038c-.813-1.183-2.736-.074-1.923,1.109Z" transform="translate(-1331.434 -782.016)" fill="#6d9773"/>
          </g>
        </g>
        <g id="Group_2458"  transform="translate(820.327 489.865)">
          <g id="Group_2457" >
            <path id="Path_1903" d="M1260.28,731.446a384.77,384.77,0,0,1,70.256,98.285c.666,1.257,2.589.148,1.923-1.109a386.352,386.352,0,0,0-70.552-98.729c-1.109-.961-2.662.592-1.627,1.553Z" transform="translate(-1259.94 -729.591)" fill="#6d9773"/>
          </g>
        </g>
        <g id="Group_2460"  transform="translate(825.413 515.515)">
          <g id="Group_2459" >
            <path id="Path_1904" d="M1267.322,766.364a175.544,175.544,0,0,1,48.81,43.707c.887,1.109,2.81,0,1.923-1.109a176.144,176.144,0,0,0-49.623-44.52c-1.183-.74-2.292,1.183-1.109,1.923Z" transform="translate(-1266.816 -764.275)" fill="#6d9773"/>
          </g>
        </g>
        <g id="Group_2462"  transform="translate(844.588 496.37)">
          <g id="Group_2461" >
            <path id="Path_1905" d="M1292.859,740.1a108.416,108.416,0,0,1,9.17,32.983c.148,1.405,2.366,1.405,2.219,0a112.018,112.018,0,0,0-9.466-34.093c-.666-1.331-2.514-.222-1.923,1.109Z" transform="translate(-1292.744 -738.388)" fill="#6d9773"/>
          </g>
        </g>
        <g id="Group_2464"  transform="translate(893.885 446.376)">
          <g id="Group_2463" >
            <path id="Path_1906" d="M1361.842,792.895c-2.071-49.253,44.742-80.758,66.041-120.323-.666-.222-1.405-.37-2.071-.592,0,6.212-.074,12.424-.074,18.636,0,2.884,0,5.768-.074,8.579,0,2.958,1.109,13.016-4.807,11.167a1.123,1.123,0,0,0-1.257,1.627,17.717,17.717,0,0,1,1.849,15.974c-.961,2.588-2,3.55-2.292,6.36-.3,3.106-.592,6.286-.887,9.392-.592,6.286-1.257,12.5-1.849,18.784-.592,5.916-.518,12.424-2.219,18.119-1.627,5.62-6.286,8.8-11.167,11.537a115.541,115.541,0,0,0-12.5,7.987c-7.4,5.842-13.09,14.051-12.868,23.739a1.111,1.111,0,0,0,2.219,0c-.3-12.868,10.058-21.521,20.189-27.511,4.068-2.44,8.5-4.511,11.907-7.913,3.328-3.328,4.585-7.4,5.177-11.981,1.627-12.868,2.515-25.81,3.772-38.678a23.167,23.167,0,0,1,2.071-8.061,22.873,22.873,0,0,0,1.627-5.842,19.543,19.543,0,0,0-3.18-13.09c-.444.518-.813,1.109-1.257,1.627,7.248,2.367,7.543-7.321,7.543-11.833.074-9.54.074-19.08.148-28.694a1.125,1.125,0,0,0-2.071-.592c-21.521,39.935-68.481,71.588-66.337,121.433.148,1.553,2.367,1.553,2.367.148Z" transform="translate(-1359.404 -670.786)" fill="#6d9773"/>
          </g>
        </g>
        <g id="Group_2466"  transform="translate(904.752 467.574)">
          <g id="Group_2465" >
            <path id="Path_1907" d="M1425.424,700c-11.241,18.932-22.482,37.865-32.244,57.61-4.733,9.54-9.022,19.228-12.868,29.138-3.772,9.91-6.73,20.189-6.138,30.839.074,1.405,2.292,1.405,2.219,0-.666-10.945,2.588-21.447,6.508-31.578s8.431-20.116,13.312-29.8c9.466-18.858,20.263-37.051,30.987-55.17.887-1.183-1.035-2.293-1.775-1.035Z" transform="translate(-1374.098 -699.449)" fill="#6d9773"/>
          </g>
        </g>
        <g id="Group_2468"  transform="translate(911.003 522.125)">
          <g id="Group_2467" >
            <path id="Path_1908" d="M1384.214,774.017a64.168,64.168,0,0,0-1.035,23.443c.222,1.405,2.366.813,2.145-.592a60.92,60.92,0,0,1,1.035-22.26c.3-1.405-1.849-2-2.145-.592Z" transform="translate(-1382.551 -773.214)" fill="#6d9773"/>
          </g>
        </g>
        <g id="Group_2470"  transform="translate(933.749 484.187)">
          <g id="Group_2469" >
            <path id="Path_1909" d="M1414.042,722.717a48.367,48.367,0,0,0,.444,19.006c.3,1.405,2.441.813,2.145-.592a45.2,45.2,0,0,1-.444-17.823c.222-1.405-1.849-2-2.145-.592Z" transform="translate(-1413.307 -721.914)" fill="#6d9773"/>
          </g>
        </g>
        <g id="Group_2472"  transform="translate(936.333 489.663)">
          <g id="Group_2471" >
            <path id="Path_1910" d="M1434.624,777.3a242.381,242.381,0,0,0,30.913-46.221,18.553,18.553,0,0,1-2-.3c3.994,13.829,3.18,28.1.148,42.006-1.479,6.73-3.4,13.386-5.473,19.968-.961,3.032-2,6.064-3.032,9.17-1.109,3.328-2.145,8.061-6.212,8.8a1.028,1.028,0,0,0-.813,1.035c-.148,3.772-.37,7.839-2.071,11.315-2.145,4.437-6.434,5.62-10.871,6.878-6.656,1.849-13.46,3.772-18.119,9.17-.961,1.035.666,2.662,1.553,1.553,3.254-3.772,7.543-5.694,12.2-7.174,3.92-1.257,8.357-1.775,11.98-3.846,6.36-3.55,7.174-11.389,7.469-17.9a12.65,12.65,0,0,1-.813,1.035c5.768-.961,7.1-8.357,8.653-12.942a243.9,243.9,0,0,0,7.026-23.813c3.55-15.087,4.807-30.839.444-45.925a1.113,1.113,0,0,0-2-.3A234.07,234.07,0,0,1,1433.07,775.6c-.961,1.257.592,2.81,1.553,1.7Z" transform="translate(-1416.802 -729.318)" fill="#6d9773"/>
          </g>
        </g>
        <g id="Group_2474"  transform="translate(923.087 513.452)">
          <g id="Group_2473"  transform="translate(0 0)">
            <path id="Path_1911" d="M1454.511,762.236a134.083,134.083,0,0,1-27.881,49.105c-10.28,11.389-26.032,21.3-27.733,37.938-.148,1.405,2.071,1.405,2.219,0,.887-9.1,6.8-16.122,13.016-22.334,6.138-6.138,12.5-11.907,17.971-18.636a135.638,135.638,0,0,0,24.479-45.482c.518-1.331-1.627-1.923-2.071-.592Z" transform="translate(-1398.891 -761.485)" fill="#6d9773"/>
          </g>
        </g>
        <g id="Group_2476"  transform="translate(688.389 144.608)">
          <g id="Group_2475" >
            <path id="Path_1912" d="M1121.518,263.819a232.011,232.011,0,0,1-39.787,104.349c-.813,1.183,1.109,2.293,1.923,1.109a234.65,234.65,0,0,0,40.083-105.458c.148-1.479-2.071-1.405-2.219,0Z" transform="translate(-1081.534 -262.737)" fill="#6d9773"/>
          </g>
        </g>
        <g id="Group_2478"  transform="translate(727.689 144.055)">
          <g id="Group_2477" >
            <path id="Path_1913" d="M1135.729,264.216a405.973,405.973,0,0,0,97.989.518c1.405-.148,1.405-2.367,0-2.219a405.97,405.97,0,0,1-97.989-.518c-1.405-.148-1.405,2.071,0,2.219Z" transform="translate(-1134.675 -261.99)" fill="#6d9773"/>
          </g>
        </g>
        <g id="Group_2480"  transform="translate(812.247 146.735)">
          <g id="Group_2479" >
            <path id="Path_1914" d="M1263.572,267.009a179.6,179.6,0,0,1-14.421,116.182c-.666,1.257,1.257,2.367,1.923,1.109a181.747,181.747,0,0,0,14.643-117.883c-.3-1.405-2.44-.814-2.145.592Z" transform="translate(-1249.013 -265.614)" fill="#6d9773"/>
          </g>
        </g>
        <g id="Group_2482"  transform="translate(689.241 249.811)">
          <g id="Group_2481" >
            <path id="Path_1915" d="M1083.436,407.217c39.122,14.495,81.423,13.829,122.542,13.016a1.111,1.111,0,0,0,0-2.219c-40.9.814-82.976,1.479-121.95-12.942-1.331-.518-1.923,1.627-.592,2.145Z" transform="translate(-1082.685 -404.992)" fill="#6d9773"/>
          </g>
        </g>
        <g id="Group_2484"  transform="translate(831.528 176.818)">
          <g id="Group_2483" >
            <path id="Path_1916" d="M1276.427,322.864a208.822,208.822,0,0,1,58.35-14.347l-1.109-1.109a114.062,114.062,0,0,0,32.1,76.69c.961,1.035,2.588-.518,1.553-1.553a111.462,111.462,0,0,1-31.431-75.137,1.089,1.089,0,0,0-1.109-1.109,212.938,212.938,0,0,0-58.941,14.421c-1.331.592-.74,2.736.592,2.145Z" transform="translate(-1275.085 -306.292)" fill="#6d9773"/>
          </g>
        </g>
        <g id="Group_2486"  transform="translate(792.373 265.278)">
          <g id="Group_2485" >
            <path id="Path_1917" d="M1222.185,427.233c2.958,10.132,6.138,20.263,9.91,30.1,3.032,7.913,6.952,15.6,13.534,21.151,1.109.887,2.662-.666,1.553-1.553-6.878-5.842-10.723-13.977-13.755-22.334-3.328-9.17-6.286-18.488-9.1-27.881a1.1,1.1,0,0,0-2.145.518Z" transform="translate(-1222.141 -425.907)" fill="#6d9773"/>
          </g>
        </g>
        <g id="Group_2488"  transform="translate(816.686 256.139)">
          <g id="Group_2487" >
            <path id="Path_1918" d="M1256.631,475.412a670.655,670.655,0,0,1,106.05-59.829c1.331-.592.148-2.514-1.109-1.923a661.662,661.662,0,0,0-106.05,59.829c-1.183.813-.074,2.736,1.109,1.923Z" transform="translate(-1255.016 -413.549)" fill="#6d9773"/>
          </g>
        </g>
        <g id="Group_2490"  transform="translate(734.345 153.669)">
          <g id="Group_2489" >
            <path id="Path_1919" d="M1144.729,277.216q41.045,5.1,82.385,7.247c1.405.074,1.405-2.145,0-2.219q-41.377-2.108-82.385-7.247c-1.405-.148-1.405,2.071,0,2.219Z" transform="translate(-1143.675 -274.99)" fill="#6d9773"/>
          </g>
        </g>
        <g id="Group_2492"  transform="translate(734.301 164.751)">
          <g id="Group_2491" >
            <path id="Path_1920" d="M1144.122,292.064c3.772,2.293,8.874,1.923,13.09,2.219l18.193,1.331c1.405.074,1.405-2.145,0-2.219l-15.308-1.109c-4.585-.37-10.871.3-14.865-2.145-1.183-.74-2.293,1.183-1.109,1.923Z" transform="translate(-1143.616 -289.975)" fill="#6d9773"/>
          </g>
        </g>
        <g id="Group_2494"  transform="translate(729.908 175.639)">
          <g id="Group_2493" >
            <path id="Path_1921" d="M1138.729,306.918c13.755.961,27.511,1.923,41.192,2.884,13.164.887,26.845,2.958,40.009,1.627,1.405-.148,1.405-2.367,0-2.219-13.164,1.331-26.845-.666-40.009-1.627-13.755-.961-27.511-1.923-41.192-2.884-1.405-.074-1.405,2.145,0,2.219Z" transform="translate(-1137.675 -304.698)" fill="#6d9773"/>
          </g>
        </g>
        <g id="Group_2496"  transform="translate(727.718 194.235)">
          <g id="Group_2495" >
            <path id="Path_1922" d="M1135.517,332.1c11.98,3.993,24.627,4.215,37.2,4.067,13.829-.074,27.585-.222,41.414-.37a1.111,1.111,0,0,0,0-2.219c-13.386.074-26.7.222-40.083.3-12.794.074-25.662.074-37.938-3.993a1.149,1.149,0,0,0-.592,2.219Z" transform="translate(-1134.714 -329.842)" fill="#6d9773"/>
          </g>
        </g>
        <g id="Group_2498"  transform="translate(713.188 228.943)">
          <g id="Group_2497" >
            <path id="Path_1923" d="M1115.165,377.829c0,2.367-.222,4.881,0,7.321.148,1.183.666,2.367,2.071,2.44,1.7.074,3.032-1.849,4.067-2.884,1.7-1.775,3.254-3.624,4.807-5.473.887-1.109-.666-2.662-1.553-1.553a64.045,64.045,0,0,1-5.99,6.656,6.654,6.654,0,0,1-.74.666c-.444.444-.592.37-.444-.3a6.482,6.482,0,0,1,0-2.071v-4.807a1.111,1.111,0,0,0-2.219,0Z" transform="translate(-1115.067 -376.775)" fill="#6d9773"/>
          </g>
        </g>
        <g id="Group_2500"  transform="translate(730.38 210.815)">
          <g id="Group_2499" >
            <path id="Path_1924" d="M1139.117,354.435a265.149,265.149,0,0,0,72.475,5.325c1.405-.074,1.405-2.293,0-2.219a263.516,263.516,0,0,1-71.883-5.251c-1.405-.3-2,1.849-.592,2.145Z" transform="translate(-1138.314 -352.262)" fill="#6d9773"/>
          </g>
        </g>
        <g id="Group_2502"  transform="translate(817.477 246.514)">
          <g id="Group_2501" >
            <path id="Path_1925" d="M1257.427,445.1a413.544,413.544,0,0,0,84.825-42.45c1.183-.813.074-2.736-1.109-1.923a405.017,405.017,0,0,1-84.308,42.228c-1.331.518-.74,2.662.592,2.145Z" transform="translate(-1256.085 -400.534)" fill="#6d9773"/>
          </g>
        </g>
        <g id="Group_2504"  transform="translate(810.578 251.871)">
          <g id="Group_2503" >
            <path id="Path_1926" d="M1248.12,433.16a563.594,563.594,0,0,0,65.08-23.369c1.331-.592.148-2.44-1.109-1.923a541.189,541.189,0,0,1-64.562,23.148c-1.331.444-.813,2.588.592,2.145Z" transform="translate(-1246.757 -407.778)" fill="#6d9773"/>
          </g>
        </g>
        <g id="Group_2506"  transform="translate(820.266 225.585)">
          <g id="Group_2505" >
            <path id="Path_1927" d="M1261.146,406.154c12.646-5.251,25.292-10.575,37.938-15.826,11.093-4.659,22.482-8.874,32.318-15.974,1.109-.814.074-2.736-1.109-1.923-10.058,7.247-21.816,11.611-33.131,16.344l-36.607,15.309c-1.257.518-.666,2.662.592,2.071Z" transform="translate(-1259.857 -372.234)" fill="#6d9773"/>
          </g>
        </g>
        <g id="Group_2508"  transform="translate(830.493 227.846)">
          <g id="Group_2507" >
            <path id="Path_1928" d="M1275.027,384.32c5.473-2.293,11.019-4.511,16.492-6.8,1.331-.518.74-2.662-.592-2.145-5.473,2.293-11.019,4.511-16.492,6.8-1.331.518-.74,2.662.592,2.145Z" transform="translate(-1273.685 -375.292)" fill="#6d9773"/>
          </g>
        </g>
        <g id="Group_2510"  transform="translate(833.758 190.811)">
          <g id="Group_2509" >
            <path id="Path_1929" d="M1279.209,342.583c7.321.222,14.717-3.328,21.447-5.99q10.538-4.215,20.633-9.318c1.257-.666.148-2.588-1.109-1.923-6.582,3.328-13.238,6.36-20.115,9.1-6.434,2.588-13.755,6.138-20.855,5.916-1.479-.074-1.479,2.145,0,2.219Z" transform="translate(-1278.1 -325.213)" fill="#6d9773"/>
          </g>
        </g>
        <g id="Group_2512"  transform="translate(701.952 263.788)">
          <g id="Group_2511" >
            <path id="Path_1930" d="M1140.938,424.637a188.259,188.259,0,0,1-40.749,69.517,1.138,1.138,0,0,0,.813,1.923c34.167,1.109,65.819,15.456,96.214,29.951,1.257.592,2.441-1.331,1.109-1.923-30.765-14.643-62.713-29.064-97.323-30.247.3.666.518,1.257.813,1.923a190.271,190.271,0,0,0,41.34-70.478,1.162,1.162,0,0,0-2.219-.666Z" transform="translate(-1099.874 -423.891)" fill="#6d9773"/>
          </g>
        </g>
        <g id="Group_2514"  transform="translate(799.749 306.666)">
          <g id="Group_2513" >
            <path id="Path_1931" d="M1234.174,540.39q14.975-29.064,32.318-56.871c.74-1.183-1.183-2.367-1.923-1.109q-17.305,27.733-32.318,56.871c-.666,1.257,1.257,2.44,1.923,1.109Z" transform="translate(-1232.114 -481.872)" fill="#6d9773"/>
          </g>
        </g>
        <g id="Group_2516"  transform="translate(797.446 337.378)">
          <g id="Group_2515" >
            <path id="Path_1932" d="M1230.109,525.619a1.111,1.111,0,0,0,0-2.219,1.111,1.111,0,1,0,0,2.219Z" transform="translate(-1229 -523.4)" fill="#6d9773"/>
          </g>
        </g>
        <g id="Group_2518"  transform="translate(720.756 321.475)">
          <g id="Group_2517" >
            <path id="Path_1933" d="M1126.409,504.118c11.537-.814,21.3,6.138,31.874,9.614,5.768,1.849,11.759,2.81,17.527,4.733a62.537,62.537,0,0,1,16.344,8.135c1.183.813,2.293-1.109,1.109-1.923a64.01,64.01,0,0,0-15.013-7.691c-6.286-2.219-13.016-3.254-19.376-5.325-10.8-3.55-20.633-10.575-32.466-9.688a1.073,1.073,0,1,0,0,2.145Z" transform="translate(-1125.3 -501.896)" fill="#6d9773"/>
          </g>
        </g>
        <g id="Group_2520"  transform="translate(732.746 312.057)">
          <g id="Group_2519" >
            <path id="Path_1934" d="M1142.317,491.335A185.136,185.136,0,0,1,1191.5,511.82a1.11,1.11,0,0,0,1.109-1.923,183.229,183.229,0,0,0-49.7-20.707,1.113,1.113,0,0,0-.592,2.145Z" transform="translate(-1141.514 -489.161)" fill="#6d9773"/>
          </g>
        </g>
        <g id="Group_2522"  transform="translate(738.367 299.116)">
          <g id="Group_2521" >
            <path id="Path_1935" d="M1149.917,473.835a59.358,59.358,0,0,1,21.3,9.17c1.183.813,2.292-1.109,1.109-1.923a62.249,62.249,0,0,0-21.816-9.392c-1.405-.3-2,1.849-.592,2.145Z" transform="translate(-1149.114 -471.662)" fill="#6d9773"/>
          </g>
        </g>
        <g id="Group_2524"  transform="translate(742.984 287.251)">
          <g id="Group_2523" >
            <path id="Path_1936" d="M1156.128,457.824q18.747,6.989,37.125,14.865c1.331.592,2.441-1.331,1.109-1.923-12.424-5.325-25-10.428-37.643-15.087-1.405-.444-1.923,1.7-.592,2.145Z" transform="translate(-1155.357 -455.619)" fill="#6d9773"/>
          </g>
        </g>
        <g id="Group_2526"  transform="translate(81.786 173.995)">
          <g id="Group_2525" >
            <path id="Path_1937" d="M294.281,303.529c-1.183,17.6-1.479,35.35-7.1,52.285a111.1,111.1,0,0,1-25.588,42.08c-.961,1.035.592,2.588,1.553,1.553a113.525,113.525,0,0,0,25.81-41.932c5.99-17.379,6.286-35.794,7.543-53.986.074-1.405-2.145-1.405-2.219,0Z" transform="translate(-261.291 -302.475)" fill="#6d9773"/>
          </g>
        </g>
        <g id="Group_2528"  transform="translate(115.276 173.345)">
          <g id="Group_2527" >
            <path id="Path_1938" d="M307.629,303.965c28.99-.37,58.054-.3,87.044.3,7.4.148,14.791.37,22.112.592,3.772.148,9.54-.961,11.537,3.032,1.405,2.81,1.331,7.321,1.775,10.428a191.192,191.192,0,0,1,1.257,41.118,195.805,195.805,0,0,1-9.1,45.63c-.444,1.331,1.7,1.923,2.145.592a195.9,195.9,0,0,0,8.061-86.23c-.37-3.032-.887-6.064-1.405-9.022-.37-2.145-.592-4.881-2.514-6.286-1.849-1.405-4.437-1.183-6.582-1.257-4.215-.148-8.357-.3-12.572-.37q-23.961-.666-47.922-.813-26.956-.222-53.839.148c-1.405,0-1.405,2.219,0,2.145Z" transform="translate(-306.575 -301.596)" fill="#6d9773"/>
          </g>
        </g>
        <g id="Group_2530"  transform="translate(81.803 269.962)">
          <g id="Group_2529" >
            <path id="Path_1939" d="M262.117,434.429a241.023,241.023,0,0,0,115.442,3.4c1.405-.3.813-2.44-.592-2.145a237.118,237.118,0,0,1-114.259-3.4,1.112,1.112,0,0,0-.592,2.145Z" transform="translate(-261.314 -432.241)" fill="#6d9773"/>
          </g>
        </g>
        <g id="Group_2532"  transform="translate(207.007 179.986)">
          <g id="Group_2531" >
            <path id="Path_1940" d="M456.709,311.629a217.964,217.964,0,0,1-25.958,92.295c-.666,1.257,1.257,2.367,1.923,1.109a221,221,0,0,0,26.254-93.4c.074-1.405-2.145-1.405-2.219,0Z" transform="translate(-430.613 -310.575)" fill="#6d9773"/>
          </g>
        </g>
        <g id="Group_2534"  transform="translate(208.65 185.783)">
          <g id="Group_2533" >
            <path id="Path_1941" d="M457.288,319.809c2.071,9.836,1.183,19.746-.518,29.508q-2.219,12.757-5.1,25.514c-3.772,16.64-8.874,33.057-18.636,47.183-.814,1.183,1.109,2.293,1.923,1.109,10.132-14.643,15.309-31.726,19.154-48.958,3.92-17.6,9.17-36.9,5.325-54.948-.3-1.405-2.44-.813-2.145.592Z" transform="translate(-432.834 -318.414)" fill="#6d9773"/>
          </g>
        </g>
        <g id="Group_2536"  transform="translate(218.676 193.223)">
          <g id="Group_2535" >
            <path id="Path_1942" d="M462.446,329.529a211.732,211.732,0,0,1-15.974,98.433c-.518,1.331,1.627,1.923,2.145.592a214.079,214.079,0,0,0,16.048-99.024c-.074-1.405-2.293-1.405-2.219,0Z" transform="translate(-446.392 -328.475)" fill="#6d9773"/>
          </g>
        </g>
        <g id="Group_2538"  transform="translate(95.928 287.739)">
          <g id="Group_2537" >
            <path id="Path_1943" d="M281.217,459.031a321.278,321.278,0,0,0,111.892-.592c1.405-.222.814-2.367-.592-2.145a318.111,318.111,0,0,1-110.709.592c-1.405-.222-2,1.923-.592,2.145Z" transform="translate(-280.414 -456.278)" fill="#6d9773"/>
          </g>
        </g>
        <g id="Group_2540"  transform="translate(94.525 277.415)">
          <g id="Group_2539" >
            <path id="Path_1944" d="M285.6,442.823a24.123,24.123,0,0,1-6.582,7.1c-1.183.814-.074,2.736,1.109,1.923a26.419,26.419,0,0,0,7.321-7.839,1.1,1.1,0,0,0-1.849-1.183Z" transform="translate(-278.516 -442.319)" fill="#6d9773"/>
          </g>
        </g>
        <g id="Group_2542"  transform="translate(103.123 293.529)">
          <g id="Group_2541" >
            <path id="Path_1945" d="M293.809,464.694a30.359,30.359,0,0,1-3.4,5.251c-.887,1.109.666,2.662,1.553,1.553a25.924,25.924,0,0,0,3.7-5.694c.666-1.257-1.183-2.44-1.849-1.109Z" transform="translate(-290.142 -464.108)" fill="#6d9773"/>
          </g>
        </g>
        <g id="Group_2544"  transform="translate(103.591 293.185)">
          <g id="Group_2543" >
            <path id="Path_1946" d="M291.829,472.855A312.069,312.069,0,0,0,403.2,465.83a1.113,1.113,0,0,0-.592-2.145,310.325,310.325,0,0,1-110.783,6.878c-1.405-.074-1.405,2.145,0,2.293Z" transform="translate(-290.775 -463.642)" fill="#6d9773"/>
          </g>
        </g>
        <g id="Group_2546"  transform="translate(121.369 200.014)">
          <g id="Group_2545" >
            <path id="Path_1947" d="M316.209,342.422c31.948-4.363,64.192-2.293,96.214-.074,1.405.074,1.405-2.145,0-2.219-32.244-2.219-64.636-4.289-96.806.148-1.405.148-.814,2.293.592,2.145Z" transform="translate(-314.814 -337.658)" fill="#6d9773"/>
          </g>
        </g>
        <g id="Group_2548"  transform="translate(112.484 235.691)">
          <g id="Group_2547" >
            <path id="Path_1948" d="M303.909,388.119q44.927.666,89.632,4.215c1.405.148,1.405-2.071,0-2.219q-44.705-3.661-89.632-4.215a1.109,1.109,0,1,0,0,2.219Z" transform="translate(-302.8 -385.9)" fill="#6d9773"/>
          </g>
        </g>
        <g id="Group_2550"  transform="translate(103.591 252.847)">
          <g id="Group_2549" >
            <path id="Path_1949" d="M291.829,411.318q49.7,2.33,99.394,4.733c1.405.074,1.405-2.145,0-2.219q-49.7-2.33-99.394-4.733c-1.405-.074-1.405,2.145,0,2.219Z" transform="translate(-290.775 -409.098)" fill="#6d9773"/>
          </g>
        </g>
        <g id="Group_2552"  transform="translate(114.105 224.311)">
          <g id="Group_2551" >
            <path id="Path_1950" d="M322.895,371.094c-6.286,14.939-12.276,29.951-17.823,45.186-.518,1.331,1.627,1.923,2.145.592q8.32-22.519,17.6-44.594c.518-1.331-1.405-2.514-1.923-1.183Z" transform="translate(-304.992 -370.511)" fill="#6d9773"/>
          </g>
        </g>
        <g id="Group_2554"  transform="translate(138.382 226.93)">
          <g id="Group_2553"  transform="translate(0)">
            <path id="Path_1951" d="M356.515,374.605a368.059,368.059,0,0,0-18.636,45.556c-.444,1.331,1.7,1.923,2.145.592a355.168,355.168,0,0,1,18.415-45.038c.666-1.257-1.257-2.367-1.923-1.109Z" transform="translate(-337.819 -374.052)" fill="#6d9773"/>
          </g>
        </g>
        <g id="Group_2556"  transform="translate(166.502 228.752)">
          <g id="Group_2555" >
            <path id="Path_1952" d="M394.521,377.022a157.028,157.028,0,0,0-18.636,44.151,1.113,1.113,0,0,0,2.145.592,153.381,153.381,0,0,1,18.415-43.633c.74-1.183-1.183-2.293-1.923-1.109Z" transform="translate(-375.842 -376.516)" fill="#6d9773"/>
          </g>
        </g>
        <g id="Group_2558"  transform="translate(189.558 229.742)">
          <g id="Group_2557" >
            <path id="Path_1953" d="M424.828,378.406a302.408,302.408,0,0,0-17.749,41.858c-.444,1.331,1.7,1.923,2.145.592a297.836,297.836,0,0,1,17.527-41.266c.592-1.331-1.257-2.44-1.923-1.183Z" transform="translate(-407.019 -377.855)" fill="#6d9773"/>
          </g>
        </g>
        <g id="Group_2560"  transform="translate(109.886 241.296)">
          <g id="Group_2559" >
            <path id="Path_1954" d="M299.888,395.491a26.393,26.393,0,0,1,8.431,6.064c.961,1.035,2.514-.518,1.553-1.553A27.359,27.359,0,0,0,301,393.568c-1.331-.518-2.44,1.331-1.109,1.923Z" transform="translate(-299.287 -393.478)" fill="#6d9773"/>
          </g>
        </g>
        <g id="Group_2562"  transform="translate(107.93 239.371)">
          <g id="Group_2561" >
            <path id="Path_1955" d="M309.257,391.041a47.1,47.1,0,0,0-12.35,10.575c-.887,1.109.666,2.662,1.553,1.553a43.656,43.656,0,0,1,11.907-10.206,1.11,1.11,0,0,0-1.109-1.923Z" transform="translate(-296.642 -390.875)" fill="#6d9773"/>
          </g>
        </g>
        <g id="Group_2564"  transform="translate(149.695 260.669)">
          <g id="Group_2563" >
            <path id="Path_1956" d="M353.622,421.764a42.56,42.56,0,0,1,10.8,9.1c.887,1.109,2.514-.518,1.553-1.553a43.26,43.26,0,0,0-11.241-9.466c-1.183-.74-2.293,1.183-1.109,1.923Z" transform="translate(-353.116 -419.675)" fill="#6d9773"/>
          </g>
        </g>
        <g id="Group_2566"  transform="translate(149.38 259.456)">
          <g id="Group_2565" >
            <path id="Path_1957" d="M366.083,418.231a95.143,95.143,0,0,0-13.09,11.907c-.961,1.035.592,2.662,1.553,1.553a89.574,89.574,0,0,1,12.646-11.611c1.109-.74,0-2.662-1.109-1.849Z" transform="translate(-352.691 -418.034)" fill="#6d9773"/>
          </g>
        </g>
        <g id="Group_2568"  transform="translate(129.226 238.086)">
          <g id="Group_2567" >
            <path id="Path_1958" d="M325.78,391.033c3.846,3.55,7.691,7.026,11.537,10.575,1.035.961,2.588-.592,1.553-1.553-3.846-3.55-7.691-7.026-11.537-10.575a1.1,1.1,0,1,0-1.553,1.553Z" transform="translate(-325.438 -389.138)" fill="#6d9773"/>
          </g>
        </g>
        <g id="Group_2570"  transform="translate(127.971 238.04)">
          <g id="Group_2569" >
            <path id="Path_1959" d="M337.984,389.241a48.344,48.344,0,0,0-13.977,11.981c-.887,1.109.666,2.662,1.553,1.553a47.446,47.446,0,0,1,13.534-11.611c1.257-.74.074-2.662-1.109-1.923Z" transform="translate(-323.742 -389.075)" fill="#6d9773"/>
          </g>
        </g>
        <g id="Group_2572"  transform="translate(150.832 235.715)">
          <g id="Group_2571" >
            <path id="Path_1960" d="M361.344,404.988a8.021,8.021,0,0,1-.961-13.755c3.846-2.736,11.685-5.029,14.643,0,2.588,4.511-.518,9.984-4.215,12.72-5.768,4.215-9.836-.444-12.5-5.251-.666-1.257-2.588-.148-1.923,1.109,3.4,6.138,8.874,10.945,15.678,5.99,5.029-3.624,8.5-11.315,4.215-16.788-4.437-5.62-14.569-2.662-18.858,1.775-4.807,5.029-3.032,12.794,2.81,15.974a1.048,1.048,0,1,0,1.109-1.775Z" transform="translate(-354.654 -385.932)" fill="#6d9773"/>
          </g>
        </g>
        <g id="Group_2574"  transform="translate(124.702 180.141)">
          <g id="Group_2573" >
            <path id="Path_1961" d="M320.785,311.536a38.257,38.257,0,0,0-1.109,15.6c.148,1.405,2.44,1.405,2.219,0a36.75,36.75,0,0,1,1.035-15.013,1.115,1.115,0,0,0-2.145-.592Z" transform="translate(-319.322 -310.785)" fill="#6d9773"/>
          </g>
        </g>
        <g id="Group_2576"  transform="translate(126.517 176.967)">
          <g id="Group_2575" >
            <path id="Path_1962" d="M322.829,311.749a487.835,487.835,0,0,1,83.79-2.145l-1.109-1.109a50.51,50.51,0,0,1-.444,12.942c-.222,1.405,1.923,2,2.145.592a51.809,51.809,0,0,0,.518-13.534,1.192,1.192,0,0,0-1.109-1.109,487.841,487.841,0,0,0-83.79,2.145c-1.405.148-1.405,2.367,0,2.219Z" transform="translate(-321.775 -306.493)" fill="#6d9773"/>
          </g>
        </g>
        <g id="Group_2578"  transform="translate(128.662 191.763)">
          <g id="Group_2577" >
            <path id="Path_1963" d="M325.729,330.494l79.87-1.775a1.111,1.111,0,0,0,0-2.219l-79.87,1.775c-1.405.074-1.405,2.293,0,2.219Z" transform="translate(-324.675 -326.5)" fill="#6d9773"/>
          </g>
        </g>
        <g id="Group_2580"  transform="translate(572.589 626.021)">
          <g id="Group_2579" >
            <path id="Path_1964" d="M928.167,920.356H1052.78c4.289,0,4.289-6.656,0-6.656H928.167c-4.289,0-4.289,6.656,0,6.656Z" transform="translate(-924.95 -913.7)" fill="#6d9773"/>
          </g>
        </g>
        <g id="Group_2582"  transform="translate(712.288 626.021)">
          <g id="Group_2581" >
            <path id="Path_1965" d="M1117.067,920.356h26.771c4.289,0,4.289-6.656,0-6.656h-26.771c-4.289,0-4.289,6.656,0,6.656Z" transform="translate(-1113.85 -913.7)" fill="#6d9773"/>
          </g>
        </g>
        <g id="Group_2584"  transform="translate(765.905 621.362)">
          <g id="Group_2583"  transform="translate(0 0)">
            <path id="Path_1966" d="M1189.567,914.056h16.27c4.289,0,4.289-6.656,0-6.656h-16.27c-4.289,0-4.289,6.656,0,6.656Z" transform="translate(-1186.35 -907.4)" fill="#6d9773"/>
          </g>
        </g>
        <g id="Group_2586"  transform="translate(713.471 681.93)">
          <g id="Group_2585"  transform="translate(0 0)">
            <path id="Path_1967" d="M1118.667,995.956h149.091c4.289,0,4.289-6.656,0-6.656H1118.667c-4.289,0-4.289,6.656,0,6.656Z" transform="translate(-1115.45 -989.3)" fill="#6d9773"/>
          </g>
        </g>
        <g id="Group_2588"  transform="translate(871.881 681.93)">
          <g id="Group_2587"  transform="translate(0 0)">
            <path id="Path_1968" d="M1332.867,995.956h37.273c4.289,0,4.289-6.656,0-6.656h-37.273c-4.289,0-4.289,6.656,0,6.656Z" transform="translate(-1329.65 -989.3)" fill="#6d9773"/>
          </g>
        </g>
        <g id="Group_2590"  transform="translate(932.449 680.821)">
          <g id="Group_2589"  transform="translate(0 0)">
            <path id="Path_1969" d="M1414.767,994.456h54.726c4.29,0,4.29-6.656,0-6.656h-54.726c-4.289,0-4.289,6.656,0,6.656Z" transform="translate(-1411.55 -987.8)" fill="#6d9773"/>
          </g>
        </g>
        <g id="Group_2592"  transform="translate(1009.287 677.271)">
          <g id="Group_2591" >
            <path id="Path_1970" d="M1518.667,989.656h11.611c4.289,0,4.289-6.656,0-6.656h-11.611c-4.289,0-4.289,6.656,0,6.656Z" transform="translate(-1515.45 -983)" fill="#6d9773"/>
          </g>
        </g>
        <g id="Group_2594"  transform="translate(0 696.795)">
          <g id="Group_2593" >
            <path id="Path_1971" d="M151.809,1015.39q89.854-2.219,179.708-3.254c17.157-.222,34.389-.37,51.546-.518a1.111,1.111,0,0,0,0-2.219q-89.854.665-179.708,2.588c-17.157.37-34.389.74-51.546,1.183-1.479.074-1.479,2.293,0,2.219Z" transform="translate(-150.7 -1009.4)" fill="#6d9773"/>
          </g>
        </g>
        <g id="Group_2596"  transform="translate(161.737 711.667)">
          <g id="Group_2595" >
            <path id="Path_1972" d="M370.509,1032.978q68.112-2.884,136.223.887c1.405.074,1.405-2.145,0-2.219q-68-3.772-136.223-.887c-1.479.074-1.479,2.293,0,2.219Z" transform="translate(-369.4 -1029.51)" fill="#6d9773"/>
          </g>
        </g>
        <g id="Group_2598"  transform="translate(869.212 622.016)">
          <g id="Group_2597"  transform="translate(0 0)">
            <path id="Path_1973" d="M1337.622,909.036a78.848,78.848,0,0,1-11.315,18.858c-.887,1.109.666,2.662,1.553,1.553a80.7,80.7,0,0,0,11.907-19.82c.518-1.331-1.627-1.923-2.145-.592Z" transform="translate(-1326.042 -908.285)" fill="#6d9773"/>
          </g>
        </g>
        <g id="Group_2600"  transform="translate(869.802 620.587)">
          <g id="Group_2599"  transform="translate(0 0)">
            <path id="Path_1974" d="M1351.806,906.905a106.518,106.518,0,0,1-24.627,34.241c-1.035.961.518,2.514,1.553,1.553a107.8,107.8,0,0,0,25-34.684c.592-1.257-1.331-2.366-1.923-1.109Z" transform="translate(-1326.838 -906.352)" fill="#6d9773"/>
          </g>
        </g>
        <g id="Group_2602"  transform="translate(869.909 621.324)">
          <g id="Group_2601"  transform="translate(0 0)">
            <path id="Path_1975" d="M1366.339,907.9a139.131,139.131,0,0,1-38.974,48.144c-1.109.887.444,2.44,1.553,1.553a141.754,141.754,0,0,0,39.27-48.662c.666-1.183-1.257-2.292-1.849-1.035Z" transform="translate(-1326.984 -907.349)" fill="#6d9773"/>
          </g>
        </g>
        <g id="Group_2604"  transform="translate(885.119 621.918)">
          <g id="Group_2603" >
            <path id="Path_1976" d="M1385.23,908.705a218.433,218.433,0,0,1-37.347,49.623c-1.035,1.035.592,2.588,1.553,1.553a218.394,218.394,0,0,0,37.643-50.067,1.078,1.078,0,1,0-1.849-1.109Z" transform="translate(-1347.551 -908.152)" fill="#6d9773"/>
          </g>
        </g>
        <g id="Group_2606"  transform="translate(898.904 621.4)">
          <g id="Group_2605"  transform="translate(0 0)">
            <path id="Path_1977" d="M1402.139,908.005a239.6,239.6,0,0,1-35.646,51.472c-.962,1.035.592,2.662,1.553,1.553a242.157,242.157,0,0,0,36.016-51.916c.666-1.257-1.257-2.366-1.923-1.109Z" transform="translate(-1366.191 -907.452)" fill="#6d9773"/>
          </g>
        </g>
        <g id="Group_2608"  transform="translate(910.219 621.439)">
          <g id="Group_2607"  transform="translate(0 0)">
            <path id="Path_1978" d="M1415.886,908.093a213.091,213.091,0,0,1-34.093,51.694c-.961,1.035.592,2.662,1.553,1.553a215.288,215.288,0,0,0,34.463-52.211c.666-1.183-1.257-2.367-1.923-1.035Z" transform="translate(-1381.491 -907.505)" fill="#6d9773"/>
          </g>
        </g>
        <g id="Group_2610"  transform="translate(920.389 635.821)">
          <g id="Group_2609"  transform="translate(0 0)">
            <path id="Path_1979" d="M1420.651,927.505a200.118,200.118,0,0,1-25.144,38.456c-.887,1.109.666,2.662,1.553,1.553a201.614,201.614,0,0,0,25.514-38.9c.666-1.257-1.257-2.367-1.923-1.109Z" transform="translate(-1395.242 -926.952)" fill="#6d9773"/>
          </g>
        </g>
        <g id="Group_2612"  transform="translate(299.588)">
          <g id="Group_2611" >
            <path id="Path_1980" d="M555.8,68.309v37.643a1.111,1.111,0,0,0,2.219,0V68.309a1.109,1.109,0,0,0-2.219,0Z" transform="translate(-555.8 -67.2)" fill="#6d9773"/>
          </g>
        </g>
        <g id="Group_2614"  transform="translate(258.1 38.604)">
          <g id="Group_2613" >
            <path id="Path_1981" d="M500.809,121.619H611.888a1.111,1.111,0,0,0,0-2.219H500.809a1.109,1.109,0,0,0,0,2.219Z" transform="translate(-499.7 -119.4)" fill="#6d9773"/>
          </g>
        </g>
        <g id="Group_2616"  transform="translate(337.304 42.505)">
          <g id="Group_2615" >
            <path id="Path_1982" d="M606.8,125.729v34.758a1.111,1.111,0,0,0,2.219,0V125.729a1.111,1.111,0,0,0-2.219,0Z" transform="translate(-606.8 -124.675)" fill="#6d9773"/>
          </g>
        </g>
        <g id="Group_2618"  transform="translate(278.418 80.166)">
          <g id="Group_2617" >
            <path id="Path_1983" d="M528.229,177.819H636.424a1.111,1.111,0,0,0,0-2.219H528.229a1.111,1.111,0,0,0,0,2.219Z" transform="translate(-527.175 -175.6)" fill="#6d9773"/>
          </g>
        </g>
        <g id="Group_2620"  transform="translate(277.402 82.117)">
          <g id="Group_2619" >
            <path id="Path_1984" d="M525.8,179.319v26.106a1.111,1.111,0,0,0,2.219,0V179.319a1.11,1.11,0,0,0-2.219,0Z" transform="translate(-525.8 -178.237)" fill="#6d9773"/>
          </g>
        </g>
        <g id="Group_2622"  transform="translate(812.903 388.924)">
          <g id="Group_2621" >
            <path id="Path_1985" d="M1251.009,595.319h67.15a1.111,1.111,0,0,0,0-2.219h-67.15a1.109,1.109,0,0,0,0,2.219Z" transform="translate(-1249.9 -593.1)" fill="#6d9773"/>
          </g>
        </g>
        <g id="Group_2624"  transform="translate(849.51 390.976)">
          <g id="Group_2623" >
            <path id="Path_1986" d="M1299.4,596.929V623.4a1.111,1.111,0,0,0,2.219,0V596.929a1.111,1.111,0,0,0-2.219,0Z" transform="translate(-1299.4 -595.875)" fill="#6d9773"/>
          </g>
        </g>
        <g id="Group_2626"  transform="translate(807.855 417.396)">
          <g id="Group_2625" >
            <path id="Path_1987" d="M1244.129,633.819h77.356a1.111,1.111,0,0,0,0-2.219h-77.356a1.111,1.111,0,0,0,0,2.219Z" transform="translate(-1243.075 -631.6)" fill="#6d9773"/>
          </g>
        </g>
        <g id="Group_2628"  transform="translate(829.172 418.432)">
          <g id="Group_2627" >
            <path id="Path_1988" d="M1271.9,634.109v22.408a1.111,1.111,0,0,0,2.219,0V634.109a1.109,1.109,0,1,0-2.219,0Z" transform="translate(-1271.9 -633)" fill="#6d9773"/>
          </g>
        </g>
        <g id="Group_2630"  transform="translate(877.982 419.449)">
          <g id="Group_2629" >
            <path id="Path_1989" d="M1337.9,635.429v22.408a1.111,1.111,0,0,0,2.219,0V635.429a1.111,1.111,0,0,0-2.219,0Z" transform="translate(-1337.9 -634.375)" fill="#6d9773"/>
          </g>
        </g>
        <g id="Group_2632"  transform="translate(154.638 631.345)">
          <g id="Group_2631"  transform="translate(0 0)">
            <path id="Path_1990" d="M360.909,923.119H461.635a1.111,1.111,0,0,0,0-2.219H360.909a1.109,1.109,0,0,0,0,2.219Z" transform="translate(-359.8 -920.9)" fill="#6d9773"/>
          </g>
        </g>
        <g id="Group_2634"  transform="translate(0 632.751)">
          <g id="Group_2633"  transform="translate(0 0)">
            <path id="Path_1991" d="M151.809,925.019h63.453a1.111,1.111,0,0,0,0-2.219H151.809a1.109,1.109,0,0,0,0,2.219Z" transform="translate(-150.7 -922.8)" fill="#6d9773"/>
          </g>
        </g>
        <g id="Group_2636"  transform="translate(133.487 457.184)">
          <g id="Group_2635" >
            <path id="Path_1992" d="M332.309,687.619H433.035a1.111,1.111,0,0,0,0-2.219H332.309a1.109,1.109,0,0,0,0,2.219Z" transform="translate(-331.2 -685.4)" fill="#6d9773"/>
          </g>
        </g>
        <g id="Group_2638"  transform="translate(190.875 459.236)">
          <g id="Group_2637" >
            <path id="Path_1993" d="M408.8,689.229v23.148a1.111,1.111,0,0,0,2.219,0V689.229a1.111,1.111,0,0,0-2.219,0Z" transform="translate(-408.8 -688.175)" fill="#6d9773"/>
          </g>
        </g>
        <g id="Group_2640"  transform="translate(170.76 482.328)">
          <g id="Group_2639" >
            <path id="Path_1994" d="M382.709,721.619h78.539a1.111,1.111,0,0,0,0-2.219H382.709a1.109,1.109,0,1,0,0,2.219Z" transform="translate(-381.6 -719.4)" fill="#6d9773"/>
          </g>
        </g>
        <g id="Group_2642"  transform="translate(231.18 484.38)">
          <g id="Group_2641" >
            <path id="Path_1995" d="M463.3,723.229v25.144a1.111,1.111,0,0,0,2.219,0V723.229a1.111,1.111,0,0,0-2.219,0Z" transform="translate(-463.3 -722.175)" fill="#6d9773"/>
          </g>
        </g>
        <g id="Group_2644"  transform="translate(773.411 639.259)">
          <g id="Group_2643" >
            <path id="Path_1996" d="M1197.609,933.819h85.343a1.111,1.111,0,0,0,0-2.219h-85.343a1.109,1.109,0,1,0,0,2.219Z" transform="translate(-1196.5 -931.6)" fill="#6d9773"/>
          </g>
        </g>
        <g id="Group_2646"  transform="translate(956.133 631.198)">
          <g id="Group_2645"  transform="translate(0 0)">
            <path id="Path_1997" d="M1444.629,922.919H1535.3a1.111,1.111,0,0,0,0-2.219h-90.668a1.111,1.111,0,0,0,0,2.219Z" transform="translate(-1443.575 -920.7)" fill="#6d9773"/>
          </g>
        </g>
        <g id="Group_2648"  transform="translate(666.695 421.908)">
          <g id="Group_2647" >
            <path id="Path_1998" d="M1052.2,638.809v42.672a1.111,1.111,0,0,0,2.219,0V638.809a1.109,1.109,0,0,0-2.219,0Z" transform="translate(-1052.2 -637.7)" fill="#6d9773"/>
          </g>
        </g>
        <g id="Group_2650"  transform="translate(668.082 441.875)">
          <g id="Group_2649" >
            <path id="Path_1999" d="M1055.129,666.919h40.009a1.111,1.111,0,0,0,0-2.219h-40.009a1.111,1.111,0,0,0,0,2.219Z" transform="translate(-1054.075 -664.7)" fill="#6d9773"/>
          </g>
        </g>
        <g id="Group_2652"  transform="translate(706.705 427.232)">
          <g id="Group_2651" >
            <path id="Path_2000" d="M1106.3,646.009v40.009a1.111,1.111,0,0,0,2.219,0V646.009a1.109,1.109,0,0,0-2.219,0Z" transform="translate(-1106.3 -644.9)" fill="#6d9773"/>
          </g>
        </g>
        <g id="Group_2654"  transform="translate(680.081 469.904)">
          <g id="Group_2653" >
            <path id="Path_2001" d="M1071.409,704.819h62.639a1.111,1.111,0,0,0,0-2.219h-62.639a1.109,1.109,0,1,0,0,2.219Z" transform="translate(-1070.3 -702.6)" fill="#6d9773"/>
          </g>
        </g>
        <g id="Group_2656"  transform="translate(724.084 473.897)">
          <g id="Group_2655" >
            <path id="Path_2002" d="M1129.8,709.109V739.8a1.111,1.111,0,0,0,2.219,0V709.109a1.109,1.109,0,1,0-2.219,0Z" transform="translate(-1129.8 -708)" fill="#6d9773"/>
          </g>
        </g>
        <g id="Group_2658"  transform="translate(555.321 56.334)">
          <g id="Group_2657" >
            <path id="Path_2003" d="M901.6,144.429v69.443a1.111,1.111,0,0,0,2.219,0V144.429a1.111,1.111,0,0,0-2.219,0Z" transform="translate(-901.6 -143.375)" fill="#6d9773"/>
          </g>
        </g>
        <g id="Group_2660"  transform="translate(556.559 55.022)">
          <g id="Group_2659" >
            <path id="Path_2004" d="M904.329,143.819h109.082a1.111,1.111,0,0,0,0-2.219H904.329a1.111,1.111,0,0,0,0,2.219Z" transform="translate(-903.275 -141.6)" fill="#6d9773"/>
          </g>
        </g>
        <g id="Group_2662"  transform="translate(665.734 55.965)">
          <g id="Group_2661" >
            <path id="Path_2005" d="M1050.9,143.929v68.7a1.111,1.111,0,0,0,2.219,0v-68.7a1.111,1.111,0,0,0-2.219,0Z" transform="translate(-1050.9 -142.875)" fill="#6d9773"/>
          </g>
        </g>
        <g id="Group_2664"  transform="translate(556.338 126.461)">
          <g id="Group_2663" >
            <path id="Path_2006" d="M904.029,240.419h110.339a1.111,1.111,0,0,0,0-2.219H904.029a1.111,1.111,0,0,0,0,2.219Z" transform="translate(-902.975 -238.2)" fill="#6d9773"/>
          </g>
        </g>
        <g id="Group_2666"  transform="translate(602.239 42.374)">
          <g id="Group_2665" >
            <path id="Path_2007" d="M967.6,137.071a16.317,16.317,0,0,1-.074-5.99c.37-1.775,1.257-5.325,3.328-3.106,1.035,1.109,1.109,3.55,1.405,4.955.37,1.849.74,3.772,1.109,5.621.3,1.405,2.44.814,2.145-.592-.666-3.254-.961-6.878-2.219-9.984-.666-1.627-1.923-3.55-3.92-3.476-2.219.074-3.106,2.44-3.624,4.289a17.469,17.469,0,0,0-.3,8.727c.222,1.553,2.367.961,2.145-.444Z" transform="translate(-965.043 -124.497)" fill="#6d9773"/>
          </g>
        </g>
        <g id="Group_2668"  transform="translate(561.755 64.266)">
          <g id="Group_2667" >
            <path id="Path_2008" d="M910.3,155.209v53.912a1.111,1.111,0,0,0,2.219,0V155.209a1.109,1.109,0,0,0-2.219,0Z" transform="translate(-910.3 -154.1)" fill="#6d9773"/>
          </g>
        </g>
        <g id="Group_2670"  transform="translate(562.402 63.009)">
          <g id="Group_2669" >
            <path id="Path_2009" d="M912.229,154.619H1008a1.111,1.111,0,0,0,0-2.219H912.229a1.111,1.111,0,0,0,0,2.219Z" transform="translate(-911.175 -152.4)" fill="#6d9773"/>
          </g>
        </g>
        <g id="Group_2672"  transform="translate(659.374 62.473)">
          <g id="Group_2671" >
            <path id="Path_2010" d="M1042.3,152.729v57.462a1.111,1.111,0,0,0,2.219,0V152.729a1.111,1.111,0,0,0-2.219,0Z" transform="translate(-1042.3 -151.675)" fill="#6d9773"/>
          </g>
        </g>
        <g id="Group_2674"  transform="translate(563.585 118.696)">
          <g id="Group_2673" >
            <path id="Path_2011" d="M913.829,229.919h95.179a1.111,1.111,0,0,0,0-2.219H913.829a1.111,1.111,0,0,0,0,2.219Z" transform="translate(-912.775 -227.7)" fill="#6d9773"/>
          </g>
        </g>
        <g id="Group_2676"  transform="translate(562.002 94.29)">
          <g id="Group_2675" >
            <path id="Path_2012" d="M912.014,202.021c14.495-3.92,28.99-7.321,43.855-3.106,12.276,3.55,23.517,10.132,36.237,12.276,1.405.222,2-1.923.592-2.145-13.534-2.293-25.366-9.614-38.6-12.868-14.421-3.55-28.694-.074-42.6,3.7a1.1,1.1,0,1,0,.518,2.145Z" transform="translate(-910.635 -194.699)" fill="#6d9773"/>
          </g>
        </g>
        <g id="Group_2678"  transform="translate(613.208 94.373)">
          <g id="Group_2677" >
            <path id="Path_2013" d="M980.929,201.9c13.682-1.553,27.289-6.952,41.119-4.067,1.405.3,2-1.849.592-2.145-14.125-2.958-27.807,2.367-41.71,3.92-1.405.222-1.405,2.514,0,2.293Z" transform="translate(-979.875 -194.811)" fill="#6d9773"/>
          </g>
        </g>
        <g id="Group_2680"  transform="translate(613.012 76.314)">
          <g id="Group_2679" >
            <path id="Path_2014" d="M983.226,179.79a4.266,4.266,0,0,1-.074-6.138,4.732,4.732,0,0,1,6.878.813,5.429,5.429,0,0,1-.813,7.1c-2.44,2.071-5.694.444-7.4-1.7-.813-1.109-2.81,0-1.923,1.109,2.367,3.18,6.73,5.251,10.28,2.662a7.713,7.713,0,0,0,1.331-10.723A7.041,7.041,0,0,0,981.9,171.8a6.564,6.564,0,0,0-.3,9.688c1.109.813,2.662-.74,1.627-1.7Z" transform="translate(-979.61 -170.391)" fill="#6d9773"/>
          </g>
        </g>
      </g>
      <g id="feet" transform="translate(830.116 611.882)">
        <path id="Path_2015" d="M1103.549,845.68c2.366-4.881,6.286-10.871,12.646-12.646,9.762-2.736,16.714,7.026,31.283,14.125,26.328,12.868,49.253,3.254,51.4,10.427,1.7,5.694-11.981,14.939-20.855,19.376-17.823,8.874-51.472,16.048-67-2.958C1108.726,871.194,1102.366,862.394,1103.549,845.68Z" transform="translate(-1078.257 -811.228)" fill="#161616" stroke="#161616" stroke-miterlimit="10" stroke-width="3"/>
        <path id="Path_2016" d="M1074.577,847.78a18.706,18.706,0,0,1-5.177-9.688c5.547-18.562,17.083-32.688,30.543-34.241,8.653-.961,17.157,3.328,23.813,6.73,10.871,5.473,11.093,9.1,21.595,15.6,17.675,11.019,30.247,9.022,31.283,14.865.961,5.473-8.948,13.016-18.636,16.418-19.45,6.8-25.588-7.321-55.835-5.99C1091.438,852,1081.454,854.288,1074.577,847.78Z" transform="translate(-1069.4 -803.715)" fill="#161616" stroke="#161616" stroke-miterlimit="10" stroke-width="3"/>
      </g>
      <g id="legs" transform="translate(663.758 487.481)">
        <path id="Path_2017" d="M882.574,683.274c1.479,9.17,3.772,24.035,6.138,42.376,9.022,68.925,5.4,78.983,16.2,93.33,24.923,33.131,80.462,27.511,84.825,26.993,31.652-3.624,53.1-20.263,61.678-27.733-4.881-8.5-9.762-16.935-14.643-25.44-24.4.222-48.81.518-73.288.74A223.177,223.177,0,0,0,948.763,635.5a372.976,372.976,0,0,0-68.629,11.537c-12.2,3.254-23.517,6.952-33.945,10.8-.518,13.977-1.183,33.871-1.553,57.832-1.257,90.668,3.92,109.3,16.935,118.77,6.36,4.585,17.453,4.955,39.344,5.4,38.086.813,70.33-9.17,107.973-20.855,8.5-2.662,15.383-4.955,19.6-6.36-2.145-16.935-4.363-33.8-6.508-50.732q-22.519,6.1-46.961,11.611-23.406,5.214-45.482,9.244" transform="translate(-844.453 -635.5)" fill="#6d9773"/>
        <g id="Group_2682"  transform="translate(29.31 57.308)">
          <g id="Group_2681" >
            <path id="Path_2018" d="M884.836,715.143c7.691,2.884,9.022,12.572,9.762,19.672,1.035,9.54,1.627,19.08,2.219,28.694,1.183,18.71,2.44,37.495,7.1,55.687a1.113,1.113,0,0,0,2.145-.592c-5.325-20.781-6.138-42.228-7.543-63.453-.592-9.1-.813-18.489-2.736-27.437-1.331-6.212-4.067-12.276-10.354-14.643-1.331-.518-1.923,1.627-.592,2.071Z" transform="translate(-884.085 -712.992)" fill="#6d9773"/>
          </g>
        </g>
        <g id="Group_2684"  transform="translate(64.817 185.552)">
          <g id="Group_2683" >
            <path id="Path_2019" d="M932.469,888.249c5.694,4.955,11.241,10.723,17.6,14.939,6.138,4.067,13.534,5.547,20.707,6.878,1.405.3,2-1.849.592-2.145-6.952-1.331-14.125-2.662-20.189-6.656-6.138-4.067-11.537-9.688-17.157-14.569-1.035-.961-2.662.666-1.553,1.553Z" transform="translate(-932.097 -886.402)" fill="#6d9773"/>
          </g>
        </g>
        <g id="Group_2686"  transform="translate(119.175 148.202)">
          <g id="Group_2685" >
            <path id="Path_2020" d="M1006.709,838.118a72.307,72.307,0,0,1,23.443,4.363c1.331.518,1.923-1.627.592-2.145a74.29,74.29,0,0,0-24.035-4.437c-1.479-.074-1.479,2.145,0,2.219Z" transform="translate(-1005.6 -835.898)" fill="#6d9773"/>
          </g>
        </g>
        <path id="Path_2021" d="M845.685,728.14c.444-6.878,5.177-13.016,11.537-15.826,6.656-2.884,14.939-.961,20.042,3.106,8.875,6.952,8.135,20.042,8.5,35.868.666,28.916,1.479,63.6,18.489,86.748,3.92,5.325,11.019,13.238,23.887,20.042a69.2,69.2,0,0,1-33.575,6.952c-6.508-.37-24.035-1.479-36.607-14.273-6.138-6.212-11.463-15.678-13.09-61.308C844.354,773.844,844.206,752.915,845.685,728.14Z" transform="translate(-844.467 -655.147)" fill="#474747" opacity="0.58"/>
        <path id="Path_2022" d="M1008.919,820.4l55.244-14.2c1.109,10.206,2.145,20.485,3.254,30.691a278.646,278.646,0,0,0-28.1-6.138A268.241,268.241,0,0,0,1006.7,827.5Z" transform="translate(-886.712 -679.961)" fill="#474747" opacity="0.59"/>
      </g>
      <g id="torso" transform="translate(601.948 313.137)">
        <path id="Path_2023" d="M829,413.248c-.222-5.177.37-10.871,3.772-12.794,12.2-6.8,56.8,37.051,78.687,85.639,8.579,19.08,19.08,50.954,16.788,94.661q-50.806,9.318-101.539,18.71a217.654,217.654,0,0,0-30.543-39.935C781.156,544,775.462,542.815,769.028,531.5c-13.755-24.257-6.36-51.842-4.511-58.793,2.44-9.022,7.765-28.4,26.254-43.411A75.033,75.033,0,0,1,829,413.248Z" transform="translate(-760.873 -399.754)" fill="#fff" stroke="#161616" stroke-miterlimit="10" stroke-width="3"/>
        <path id="Path_2024" d="M851.3,426.968c8.8,6.064,39.492,28.62,51.916,71.735,13.534,47.183-4.437,85.713-8.875,94.513,19.376-3.254,38.826-6.434,58.2-9.688A208.329,208.329,0,0,0,874.3,407C866.609,413.656,858.991,420.312,851.3,426.968Z" transform="translate(-784.426 -401.641)" fill="#828181" opacity="0.36"/>
        <path id="Path_2025" d="M946.533,502.8a241.77,241.77,0,0,1,3.328,30.543c1.035,22.7,1.849,38.9-6.138,55.466-3.106,6.508-9.984,18.045-24.922,28.546,16.935-3.106,33.8-6.138,50.732-9.244a202.377,202.377,0,0,0-23-105.31Z" transform="translate(-802.007 -426.593)" fill="#828181" opacity="0.4"/>
      </g>
      <g id="head" transform="translate(507.647 227.264)">
        <path id="Path_2026" d="M658.7,393.056c5.177,7.543,9.836,13.755,13.608,18.489,9.244,11.759,12.794,14.791,17.749,15.826a25.282,25.282,0,0,0,10.575-.37c6.582-1.331,9.244-3.994,13.608-6.064,5.768-2.662,8.061-1.331,26.771-1.109,13.534.148,12.055-.592,24.183-.37,10.649.222,19.45.887,25.662,1.479-1.775-1.405-3.55-2.736-5.251-4.141a28.738,28.738,0,0,1-21.151-24.183,11.021,11.021,0,0,0,6.064-4.141c3.7-5.473-.148-12.942-1.479-15.456-1.627-3.106-4.585-8.727-8.653-8.283-3.032.3-5.916,3.846-6.8,8.653-6.952,2.219-17.453,4.289-28.324.74-20.485-6.73-24.7-28.029-35.868-28.324C682.143,345.726,671.864,354.157,658.7,393.056Z" transform="translate(-639.961 -299.828)" fill="#fff"/>
        <g id="Group_2688"  transform="translate(16.631 88.164)">
          <g id="Group_2687" >
            <path id="Path_2027" d="M655.961,404.515a94.793,94.793,0,0,0,25.884,34.61c1.109.887,2.662-.666,1.553-1.553a93.924,93.924,0,0,1-25.588-34.167c-.518-1.257-2.44-.148-1.849,1.109Z" transform="translate(-655.849 -402.852)" fill="#161616"/>
          </g>
        </g>
        <g id="Group_2690"  transform="translate(52.213 104.422)">
          <g id="Group_2689" >
            <path id="Path_2028" d="M703.99,426.214c.666,3.772,1.479,7.469,2.44,11.167.887,3.18,1.553,7.026,3.18,9.91,2.293,4.067,9.614-.961,11.981-2.81,1.109-.887-.444-2.44-1.553-1.553-1.627,1.257-4.881,3.772-7.1,3.476-2.44-.3-3.032-5.1-3.624-6.952a123.664,123.664,0,0,1-3.18-13.755c-.3-1.479-2.441-.887-2.145.518Z" transform="translate(-703.962 -424.835)" fill="#161616"/>
          </g>
        </g>
        <g id="Group_2692"  transform="translate(34.423 95.432)">
          <g id="Group_2691" >
            <path id="Path_2029" d="M687.593,423.492c-2.81-2.367-6.434-5.4-5.1-9.54a17.262,17.262,0,0,0-1.849.518,26.89,26.89,0,0,1,6.508,9.91c.222-.444.518-.887.74-1.331a17.057,17.057,0,0,0-1.405-1.035,1.113,1.113,0,0,0-2.145.592,3.426,3.426,0,0,0,4.141,2.588,1.034,1.034,0,0,0,.74-1.331,29.5,29.5,0,0,0-7.1-10.871,1.118,1.118,0,0,0-1.849.518c-1.553,4.955,2.145,8.8,5.694,11.685,1.109.74,2.736-.814,1.627-1.7Z" transform="translate(-679.907 -412.679)" fill="#161616"/>
          </g>
        </g>
        <g id="Group_2694"  transform="translate(34.991 96.373)">
          <g id="Group_2693" >
            <path id="Path_2030" d="M680.841,415.615l5.325,8.209c.74,1.183,2.662.074,1.923-1.109l-5.325-8.209a1.11,1.11,0,0,0-1.923,1.109Z" transform="translate(-680.675 -413.952)" fill="#161616"/>
          </g>
        </g>
        <g id="Group_2696"  transform="translate(62.531 84.42)">
          <g id="Group_2695" >
            <path id="Path_2031" d="M723.968,408.3a16.79,16.79,0,0,1-3.4-5.325,5.376,5.376,0,0,1-.3-1.849c.148-.961.37-1.035.813-.3.74.3,1.405,1.7,1.849,2.367a19.565,19.565,0,0,1,2.514,4.955c.3.961.666,1.109-.37.666a9.055,9.055,0,0,1-2.514-2.219c-.961-1.109-2.514.518-1.553,1.553,1.183,1.331,5.029,5.251,6.582,2.219,1.405-2.736-2.071-7.543-3.624-9.54-1.331-1.7-4.511-5.1-5.768-1.331s1.923,7.691,4.141,10.28c.961,1.183,2.514-.37,1.627-1.479Z" transform="translate(-717.915 -397.789)" fill="#161616"/>
          </g>
        </g>
        <g id="Group_2698"  transform="translate(63.537 86.215)">
          <g id="Group_2697" >
            <path id="Path_2032" d="M719.441,401.831l5.1,8.209c.74,1.183,2.662.074,1.923-1.109a77,77,0,0,1-4.141-7.691l-1.775,1.331a15.046,15.046,0,0,1,3.772,5.768c.518,1.331,2.662.74,2.145-.592a17.652,17.652,0,0,0-4.363-6.73,1.126,1.126,0,0,0-1.775,1.331,69.647,69.647,0,0,0,4.141,7.691c.666-.37,1.257-.74,1.923-1.109l-5.1-8.209c-.666-1.183-2.588-.074-1.849,1.109Z" transform="translate(-719.275 -400.216)" fill="#161616"/>
          </g>
        </g>
        <g id="Group_2700"  transform="translate(121.915 98.279)">
          <g id="Group_2699" >
            <path id="Path_2033" d="M799.239,417.839a22.015,22.015,0,0,1-.887,18.193c-.666,1.257,1.257,2.367,1.923,1.109a24.276,24.276,0,0,0,1.109-19.894c-.518-1.257-2.662-.74-2.145.592Z" transform="translate(-798.213 -416.529)" fill="#161616"/>
          </g>
        </g>
        <path id="Path_2034" d="M641.229,329.091c-1.183,1.627-11.907,16.64-6.212,35.5,5.62,18.636,22.408,25.292,24.331,26.032a49.979,49.979,0,0,1,3.328-28.472,50.679,50.679,0,0,1,22.334-24.331,52.385,52.385,0,0,0,62.343,19.45c.813-1.331,3.92-5.916,7.839-5.768,5.62.222,11.167,10.427,7.839,17.379-2.071,4.363-6.952,5.842-8.283,6.212a35.421,35.421,0,0,0,6.212,12.794c6.212,8.209,14.347,11.389,19.006,13.238,4.585,1.775,42.08,16.048,64.414-7.469,12.054-12.646,17.823-34.315,9.91-49.179-6.434-11.981-17.749-12.054-48.292-25.588-36.607-16.27-31.578-21.225-53.247-28.1-11.315-3.624-52.951-16.862-85.491,5.768C652.4,306.831,644.853,320.735,641.229,329.091Z" transform="translate(-633.361 -283.637)" fill="#6d9773"/>
      </g>
      <g id="hand_l" transform="translate(499.295 352.577)">
        <path id="Path_2035" d="M622.165,498.8c-.3-4.289-.444-16.64,7.617-27.955,12.35-17.305,33.649-17.675,37.273-17.749,6.434-.148,14.939.961,34.61,11.759A248.278,248.278,0,0,1,750.7,500.131a46.687,46.687,0,0,1,20.633,5.99c8.579,4.881,24.479,17.749,21.077,31.578-1.923,7.839-9.836,15.456-17.379,15.087-12.128-.592-19.968-21.447-22.482-20.189-2,.961,4.067,13.386,1.405,15.087-2.44,1.553-12.055-5.916-16.492-16.048a35.1,35.1,0,0,1-2.293-20.189c-17.749-8.357-47.035-18.858-83.272-17.009A173.4,173.4,0,0,0,622.165,498.8Z" transform="translate(-622.067 -453.084)" fill="#fff" stroke="#161616" stroke-miterlimit="10" stroke-width="3"/>
        <path id="Path_2036" d="M622.4,502c2.662-14.347,8.948-20.929,12.572-23.813,22.7-18.341,65.745,3.772,78.539,10.28a157.621,157.621,0,0,1,31.874,21.89c10.945,9.688,8.209,10.28,23.148,24.479,10.28,9.762,17.6,15.309,16.122,19.3-1.257,3.254-7.469,3.55-8.061,3.55-14.421.518-24.331-21.816-24.775-22.852,3.55,12.942,2.884,16.862,1.257,17.675-3.106,1.627-12.276-6.952-16.122-17.083A35.179,35.179,0,0,1,735.7,515.76,192.1,192.1,0,0,0,694.209,502.6,197.471,197.471,0,0,0,622.4,502Z" transform="translate(-622.154 -457.769)" fill="#828181" opacity="0.34"/>
      </g>
      <g id="sand_clock" transform="translate(367.233 394.151)">
        <path id="Path_2037" d="M534.373,523.1c-2.367,12.646-5.325,39.344,6.73,68.481,22.63,54.8,78.761,70.922,86.3,72.919.222,8.653.518,17.379.74,26.032a207.128,207.128,0,0,0-54.356,37.2c-15.013,14.347-41.192,39.935-51.324,81.867a150.755,150.755,0,0,0-.74,66.263L789.663,880.3c2.884-16.862,6.064-50.437-8.209-87.783-25.514-66.781-86.526-92.738-98.211-97.471-.222-11.685-.518-23.3-.74-34.98,11.463-2.514,38.012-9.91,60.273-33.5,37.125-39.27,31.5-90.668,30.543-98.211Q653.735,525.688,534.373,523.1Z" transform="translate(-463.003 -512.894)" fill="#fff" stroke="#161616" stroke-miterlimit="10" stroke-width="3"/>
        <g id="Group_2702"  transform="translate(85.093 79.194)">
          <g id="Group_2701" >
            <path id="Path_2038" d="M559.106,629.56a69.626,69.626,0,0,0,23.517,8.209c6.064.813,11.833.3,17.9-.37,7.691-.887,15.308-1.553,22.926-2.884,7.765-1.331,15.161-3.624,22.852-5.325a14.006,14.006,0,0,1,6.064-.222c4.067.813,6.434,3.328,9.54,5.694,4.289,3.254,9.836,3.032,14.273.37,2.367-1.479,4.511-3.328,6.878-4.733a25.535,25.535,0,0,1,11.389-3.4,51.78,51.78,0,0,1,13.09.813c5.1.961,9.614,3.032,14.495,4.585,9.614,3.106,12.572-7.174,20.042-10.649,8.948-4.215,21.3-3.772,30.691-1.775,1.405.3,2-1.849.592-2.145a62.646,62.646,0,0,0-24.331-.3,27.09,27.09,0,0,0-9.836,3.254c-3.476,2.145-5.473,5.4-8.431,8.061-4.289,3.846-9.244.887-13.755-.813a56.846,56.846,0,0,0-12.72-2.958c-7.247-.887-14.939-.592-21.521,2.958-5.4,2.958-10.058,8.875-16.861,6.36-2.958-1.109-4.807-3.846-7.469-5.4a16.79,16.79,0,0,0-7.247-2.367c-4.807-.37-9.762,1.7-14.421,2.884a193.2,193.2,0,0,1-26.919,4.659c-7.1.74-14.421,2.071-21.595,1.849-9.91-.3-19.376-3.624-27.955-8.357-1.331-.666-2.441,1.257-1.183,2Z" transform="translate(-558.555 -616.385)" fill="#161616"/>
          </g>
        </g>
        <g id="Group_2704"  transform="translate(165.434 167.421)">
          <g id="Group_2703" >
            <path id="Path_2039" d="M667.272,737.027c1.183,2.81,2.367,5.768,4.363,8.135,1.257,1.553,3.18,2.736,3.994,4.733.813,2.071.813,4.807,1.109,7.026.961,7.617,2,15.234,5.177,22.334.592,1.331,2.514.148,1.923-1.109-3.476-7.617-4.141-15.9-5.251-24.109-.37-2.662-.518-5.4-2.44-7.469a32.776,32.776,0,0,1-6.73-10.132c-.518-1.331-2.662-.74-2.145.592Z" transform="translate(-667.192 -735.685)" fill="#161616"/>
          </g>
        </g>
        <g id="Group_2706"  transform="translate(191.382 174.475)">
          <g id="Group_2705" >
            <path id="Path_2040" d="M724.776,745.946c-3.254-2.514-5.768,2.145-6.952,4.659a33.465,33.465,0,0,0-2.662,7.321c-.666,2.884-.518,6.212-1.849,8.875-1.257,2.736-3.328,5.029-4.511,7.839a57.523,57.523,0,0,0-2.662,7.839c-1.7,6.656-2.662,13.534-3.846,20.263-.222,1.405,1.923,2,2.145.592,1.775-10.132,2.662-21.447,7.765-30.543,1.183-2.071,2.736-3.846,3.55-6.064a21.333,21.333,0,0,0,.888-4.733c.222-1.627,4.363-16.2,6.582-14.495,1.035.887,2.662-.666,1.553-1.553Z" transform="translate(-702.278 -745.223)" fill="#161616"/>
          </g>
        </g>
        <g id="Group_2708"  transform="translate(186.813 254.404)">
          <g id="Group_2707" >
            <path id="Path_2041" d="M699.428,861.214a5.843,5.843,0,0,1-1.035-3.92c.444-2.071,2.736-2.367,3.476-.37.887,2.367-.518,5.1-2.145,6.656a8.153,8.153,0,0,1,1.331-.148c-.888-.666-1.775-1.331-2.588-1.923-1.183-.887-2.219,1.109-1.109,1.923.888.666,1.775,1.331,2.588,1.923a1.115,1.115,0,0,0,1.331-.148c2.662-2.588,5.1-9.54.444-11.611a4.026,4.026,0,0,0-4.955,1.849c-1.331,2.219-.444,4.881.74,6.952.666,1.183,2.589.074,1.923-1.183Z" transform="translate(-696.101 -853.303)" fill="#161616"/>
          </g>
        </g>
        <g id="Group_2710"  transform="translate(180.985 280.635)">
          <g id="Group_2709" >
            <path id="Path_2042" d="M691.533,895.892c-.518-1.035-1.331-2.441-1.109-3.7.148-.74,1.109-1.775,1.849-1.109.74.592.813,2.366.592,3.18-.222.74-1.479,2-2.145,1.035-.813-1.109-2.736,0-1.923,1.109a3.406,3.406,0,0,0,5.177.37c1.7-1.627,1.553-4.881.3-6.73s-3.7-1.553-5.029,0c-1.923,2.071-.74,4.955.37,7.1.666,1.109,2.588,0,1.923-1.257Z" transform="translate(-688.219 -888.772)" fill="#161616"/>
          </g>
        </g>
        <g id="Group_2712"  transform="translate(192.477 291.795)">
          <g id="Group_2711" >
            <path id="Path_2043" d="M706.3,908.623c-.961-.74,0-3.18,1.331-2.44a1.8,1.8,0,0,1,.813,1.849c-.222.961-1.479.813-2,.3-1.035-1.035-2.588.592-1.553,1.553,1.553,1.479,4.437,1.479,5.473-.592a4.05,4.05,0,0,0-1.405-4.881,3.23,3.23,0,0,0-4.659,1.257,3.606,3.606,0,0,0,.961,4.881c1.035.813,2.145-1.109,1.035-1.923Z" transform="translate(-703.76 -903.863)" fill="#161616"/>
          </g>
        </g>
        <g id="Group_2714"  transform="translate(120.357 320.79)">
          <g id="Group_2713" >
            <path id="Path_2044" d="M608.207,986.5l18.415-14.865c2.958-2.367,5.768-4.881,8.948-6.952s6.656-3.032,10.206-4.363c11.093-4.289,20.855-22.7,33.575-11.167,4.141,3.7,7.543,6.952,12.942,8.727,6.138,2,12.2,3.18,18.045,6.064a62.324,62.324,0,0,1,26.549,25.366c.666,1.257,2.588.148,1.923-1.109a64.179,64.179,0,0,0-19.228-21.373,61.462,61.462,0,0,0-12.424-6.8c-5.029-2.071-10.28-2.884-15.382-4.733-9.17-3.328-13.9-15.013-25.07-11.611-4.511,1.405-8.135,4.437-11.611,7.543a48.781,48.781,0,0,1-6.508,5.177c-3.032,1.923-6.508,2.588-9.762,3.994-5.177,2.219-9.466,6.138-13.829,9.614L606.58,984.876c-1.035.961.518,2.515,1.627,1.627Z" transform="translate(-606.24 -943.069)" fill="#161616"/>
          </g>
        </g>
        <g id="Group_2716"  transform="translate(210.826 163.009)">
          <g id="Group_2715" >
            <path id="Path_2045" d="M735.914,730.519c-.813,5.99-1.7,11.907-2.514,17.9-.74,5.4-.813,11.759-3.254,16.788a11.81,11.81,0,0,1,1.553-.37c-2.071-1.405-.666-8.357-.666-10.428.074-3.624.148-7.174.222-10.8a1.111,1.111,0,0,0-2.219,0c-.148,5.251-.222,10.5-.37,15.826-.074,2.662-.592,5.62,1.849,7.321a1.183,1.183,0,0,0,1.553-.37c2.367-4.881,2.588-10.575,3.328-15.9.887-6.434,1.849-12.868,2.736-19.3.074-1.479-2.071-2.071-2.219-.666Z" transform="translate(-728.57 -729.72)" fill="#161616"/>
          </g>
        </g>
        <g id="Group_2718"  transform="translate(163.968 153.613)">
          <g id="Group_2717" >
            <path id="Path_2046" d="M665.72,717.817a28.165,28.165,0,0,0,2.514,18.045c.666,1.257,2.514.148,1.923-1.109a26.053,26.053,0,0,1-2.293-16.344c.222-1.405-1.923-2-2.145-.592Z" transform="translate(-665.21 -717.014)" fill="#161616"/>
          </g>
        </g>
        <g id="Group_2720"  transform="translate(123.298 120.908)">
          <g id="Group_2719" >
            <path id="Path_2047" d="M610.722,674.942c13.46,9.836,30.1,13.608,44.151,22.26,1.183.74,2.367-1.183,1.109-1.923-14.125-8.653-30.765-12.424-44.151-22.26-1.183-.887-2.293,1.035-1.109,1.923Z" transform="translate(-610.216 -672.791)" fill="#161616"/>
          </g>
        </g>
        <g id="Group_2722"  transform="translate(166.415 132.433)">
          <g id="Group_2721" >
            <path id="Path_2048" d="M669.023,690.464a29.412,29.412,0,0,1,13.312,17.9,1.113,1.113,0,0,0,2.145-.592,31.313,31.313,0,0,0-14.273-19.228,1.13,1.13,0,0,0-1.183,1.923Z" transform="translate(-668.519 -688.375)" fill="#161616"/>
          </g>
        </g>
        <g id="Group_2724"  transform="translate(203.096 134.548)">
          <g id="Group_2723" >
            <path id="Path_2049" d="M720.323,719.164c3.55-9.762,8.209-19.6,16.862-25.81,1.183-.813.074-2.736-1.109-1.923-9.17,6.656-14.125,16.714-17.9,27.141-.444,1.405,1.7,1.923,2.145.592Z" transform="translate(-718.119 -691.234)" fill="#161616"/>
          </g>
        </g>
        <g id="Group_2726"  transform="translate(136.739 340.234)">
          <g id="Group_2725" >
            <path id="Path_2050" d="M630.247,988.174a55.657,55.657,0,0,1,28.1-16.64c1.405-.3.813-2.44-.592-2.145a57.128,57.128,0,0,0-29.064,17.157c-.961,1.183.592,2.736,1.553,1.627Z" transform="translate(-628.391 -969.362)" fill="#161616"/>
          </g>
        </g>
        <g id="Group_2728"  transform="translate(153.942 342.961)">
          <g id="Group_2727" >
            <path id="Path_2051" d="M653.315,982.183l15.974-7.1c1.331-.592.148-2.514-1.109-1.923l-15.974,7.1c-1.257.592-.148,2.514,1.109,1.923Z" transform="translate(-651.652 -973.049)" fill="#161616"/>
          </g>
        </g>
        <g id="Group_2730"  transform="translate(199.413 322.625)">
          <g id="Group_2729" >
            <path id="Path_2052" d="M713.48,947.436c6.508,5.99,17.009,3.92,23,10.427.961,1.035,2.514-.518,1.553-1.553-6.138-6.656-16.492-4.511-23-10.427-1.035-1.035-2.588.592-1.553,1.553Z" transform="translate(-713.138 -945.55)" fill="#161616"/>
          </g>
        </g>
        <g id="Group_2732"  transform="translate(52.364 357.494)">
          <g id="Group_2731" >
            <path id="Path_2053" d="M520.734,1006.012H789.557c8.579,0,8.579-13.312,0-13.312H520.734c-8.579,0-8.579,13.312,0,13.312Z" transform="translate(-514.3 -992.7)" fill="#161616"/>
          </g>
        </g>
        <g id="Group_2734"  transform="translate(62.866 1.479)">
          <g id="Group_2733" >
            <path id="Path_2054" d="M534.934,524.612h242.2c8.579,0,8.579-13.312,0-13.312h-242.2c-8.579,0-8.579,13.312,0,13.312Z" transform="translate(-528.5 -511.3)" fill="#161616"/>
          </g>
        </g>
        <g id="Group_2736"  transform="translate(29.291 1.479)">
          <g id="Group_2735" >
            <path id="Path_2055" d="M505.064,511.3h-15.53c-8.579,0-8.579,13.312,0,13.312h15.53c8.579,0,8.579-13.312,0-13.312Z" transform="translate(-483.1 -511.3)" fill="#161616"/>
          </g>
        </g>
        <g id="Group_2738" >
          <g id="Group_2737" >
            <path id="Path_2056" d="M450.154,522.612h5.99a6.656,6.656,0,1,0,0-13.312h-5.99a6.656,6.656,0,1,0,0,13.312Z" transform="translate(-443.494 -509.3)" fill="#161616"/>
          </g>
        </g>
        <g id="Group_2740"  transform="translate(336.643 356.532)">
          <g id="Group_2739" >
            <path id="Path_2057" d="M905.134,1004.712h31.578c8.579,0,8.579-13.312,0-13.312H905.134c-8.579,0-8.579,13.312,0,13.312Z" transform="translate(-898.7 -991.4)" fill="#161616"/>
          </g>
        </g>
        <g id="Group_2742"  transform="translate(390.625 358.011)">
          <g id="Group_2741" >
            <path id="Path_2058" d="M978.354,1006.712H983.9a6.656,6.656,0,1,0,0-13.312h-5.547a6.656,6.656,0,1,0,0,13.312Z" transform="translate(-971.694 -993.4)" fill="#161616"/>
          </g>
        </g>
        <g id="Group_2744"  transform="translate(163.851 150.016)">
          <g id="Group_2743" >
            <path id="Path_2059" d="M665.605,714.258c-.518,5.1-.961,10.28.074,15.309,1.109,5.325,4.437,9.1,6.878,13.829,2.81,5.325,3.624,11.759,4.955,17.527l4.215,18.415c.666,2.81,4.881,1.627,4.289-1.183-1.331-5.916-2.736-11.833-4.068-17.749-1.257-5.473-2.145-11.241-4.215-16.418-1.849-4.659-5.62-8.431-7.174-13.238-1.7-5.325-1.035-11.093-.518-16.492.3-2.81-4.141-2.81-4.437,0Z" transform="translate(-665.052 -712.15)" fill="#161616"/>
          </g>
        </g>
        <g id="Group_2746"  transform="translate(153.193 145.81)">
          <g id="Group_2745" >
            <path id="Path_2060" d="M651.794,710.558a20.728,20.728,0,0,0,12.646,1.775c2.81-.444,1.627-4.733-1.183-4.289a15.311,15.311,0,0,1-9.244-1.331c-2.588-1.257-4.807,2.588-2.219,3.846Z" transform="translate(-650.64 -706.463)" fill="#161616"/>
          </g>
        </g>
        <g id="Group_2748"  transform="translate(189.233 174.994)">
          <g id="Group_2747" >
            <path id="Path_2061" d="M719.286,746.35c-3.55,2.514-5.325,6.138-6.138,10.28-.592,2.81-.74,5.695-1.553,8.5a48.207,48.207,0,0,1-3.476,8.061c-4.955,9.984-9.91,20.559-8.5,31.948.37,2.81,4.807,2.81,4.437,0-1.331-10.723,3.254-20.411,7.913-29.73,2-3.994,3.846-7.913,4.585-12.276.813-4.511.887-10.058,4.955-12.942,2.366-1.7.148-5.547-2.219-3.846Z" transform="translate(-699.373 -745.926)" fill="#161616"/>
          </g>
        </g>
        <g id="Group_2750"  transform="translate(163.85 270.08)">
          <g id="Group_2749" >
            <path id="Path_2062" d="M667.158,878.937c2.884,0,2.884-4.437,0-4.437-2.81,0-2.81,4.437,0,4.437Z" transform="translate(-665.05 -874.5)" fill="#161616"/>
          </g>
        </g>
        <g id="Group_2752"  transform="translate(155.807 306.687)">
          <g id="Group_2751" >
            <path id="Path_2063" d="M656.338,928.437c2.884,0,2.884-4.437,0-4.437s-2.884,4.437,0,4.437Z" transform="translate(-654.175 -924)" fill="#161616"/>
          </g>
        </g>
        <g id="Group_2754"  transform="translate(180.795 223.493)">
          <g id="Group_2753" >
            <path id="Path_2064" d="M687.99,814.312c.222,1.479.444,3.032.666,4.511a2.237,2.237,0,0,0,2.736,1.553,2.337,2.337,0,0,0,1.553-2.736c-.222-1.479-.444-3.032-.666-4.511a2.237,2.237,0,0,0-2.736-1.553,2.337,2.337,0,0,0-1.553,2.736Z" transform="translate(-687.963 -811.505)" fill="#161616"/>
          </g>
        </g>
        <g id="Group_2756"  transform="translate(192.359 243.009)">
          <g id="Group_2755" >
            <path id="Path_2065" d="M703.6,840.117v.518a2.225,2.225,0,0,0,2.219,2.219,2.275,2.275,0,0,0,2.219-2.219v-.518a2.225,2.225,0,0,0-2.219-2.219,2.275,2.275,0,0,0-2.219,2.219Z" transform="translate(-703.6 -837.895)" fill="#161616"/>
          </g>
        </g>
        <g id="Group_2758"  transform="translate(250.703 78.675)">
          <g id="Group_2757" >
            <path id="Path_2066" d="M785.16,633.519c7.1-2.662,12.72-7.839,19.524-11.019,8.357-3.846,17.157.813,25.44-2.367,2.662-1.035,1.479-5.325-1.183-4.289-4.511,1.7-9.1.74-13.829.444a24.283,24.283,0,0,0-11.241,1.7c-7.1,2.884-12.794,8.5-19.968,11.241-2.514,1.035-1.405,5.325,1.257,4.289Z" transform="translate(-782.492 -615.684)" fill="#161616"/>
          </g>
        </g>
        <g id="Group_2760"  transform="translate(263.759 227.371)">
          <g id="Group_2759" >
            <path id="Path_2067" d="M803.292,816.861c-6.73,2.884-1.035,9.984,2.071,13.09a135.207,135.207,0,0,1,17.009,20.855,138.594,138.594,0,0,1,20.042,48c.3,1.405,2.44.813,2.145-.592a143.239,143.239,0,0,0-15.826-41.34A131.214,131.214,0,0,0,816.6,839.195c-2.293-2.81-4.659-5.547-7.174-8.209-2.219-2.293-11.093-9.614-5.029-12.2,1.331-.592.148-2.515-1.109-1.923Z" transform="translate(-800.146 -816.749)" fill="#161616"/>
          </g>
        </g>
        <g id="Group_2762"  transform="translate(274.732 231.286)">
          <g id="Group_2761" >
            <path id="Path_2068" d="M815.366,823.934c22.408,18.636,31.5,47.109,39.713,74.028.444,1.331,2.588.813,2.145-.592-8.357-27.289-17.6-56.131-40.3-75.063-1.109-.887-2.662.666-1.553,1.627Z" transform="translate(-814.984 -822.043)" fill="#161616"/>
          </g>
        </g>
        <g id="Group_2764"  transform="translate(306.791 315.204)">
          <g id="Group_2763" >
            <path id="Path_2069" d="M858.531,937.131c1.405,2,3.106,4.363,5.768,4.585,2.071.148,4.289-1.035,4.585-3.254.222-1.405-1.923-2-2.145-.592a2.119,2.119,0,0,1-2.958,1.479c-1.479-.518-2.514-2.071-3.328-3.328-.813-1.183-2.736-.074-1.923,1.109Z" transform="translate(-858.334 -935.516)" fill="#161616"/>
          </g>
        </g>
        <g id="Group_2766"  transform="translate(307.618 335.013)">
          <g id="Group_2765" >
            <path id="Path_2070" d="M863.185,975.317a7.135,7.135,0,0,0,9.244-2.884,6.936,6.936,0,1,0-9.688,2.662c1.183.813,2.293-1.109,1.109-1.923a4.707,4.707,0,0,1,4.733-8.135,4.7,4.7,0,0,1-4.289,8.357c-1.257-.592-2.44,1.331-1.109,1.923Z" transform="translate(-859.452 -962.302)" fill="#161616"/>
          </g>
        </g>
        <g id="Group_2768"  transform="translate(84.828 25.052)">
          <g id="Group_2767" >
            <path id="Path_2071" d="M558.2,544.229a132.854,132.854,0,0,0,39.417,91.407c1.035,1.035,2.588-.592,1.553-1.553a130.226,130.226,0,0,1-38.752-89.854c-.074-1.405-2.293-1.405-2.219,0Z" transform="translate(-558.198 -543.175)" fill="#161616"/>
          </g>
        </g>
        <g id="Group_2770"  transform="translate(78.137 23.711)">
          <g id="Group_2769" >
            <path id="Path_2072" d="M558.209,542.8a4.845,4.845,0,0,0-6.73-.148c-2.736,2.293-2.44,6.434-2.145,9.688a128.484,128.484,0,0,0,5.547,28.472,135.4,135.4,0,0,0,28.25,49.623c.961,1.035,2.514-.518,1.553-1.553a131.352,131.352,0,0,1-30.765-60.494c-.813-3.92-1.479-7.839-1.923-11.759-.222-1.849-.444-3.624-.518-5.473a12.862,12.862,0,0,1-.074-2.367c.074-1.775,2-7.691,5.251-4.363,1.035.961,2.588-.666,1.553-1.627Z" transform="translate(-549.15 -541.362)" fill="#161616"/>
          </g>
        </g>
        <path id="Path_2073" d="M775.2,529.955q.111,3.55-191.171,11.685a86.186,86.186,0,0,0,0,39.048c11.833,49.179,65.227,68.112,70.552,69.887.666,18.932,1.405,37.938,2.071,56.871A129.882,129.882,0,0,0,635.275,717.8a128.442,128.442,0,0,0-29.36,24.553c-6.582,7.543-27.733,31.8-29.434,68.555a105.252,105.252,0,0,0,10.28,49.993q90.076,5.1,180.226,10.28-122.69,1-245.306,2.071a166.314,166.314,0,0,1,8.209-83.568c2.44-6.434,22.7-58.35,76.764-87.709a163.338,163.338,0,0,1,21.225-9.614c-.222-9.17-.444-18.267-.666-27.437a128.687,128.687,0,0,1-30.839-12.35c-7.174-3.994-54.8-31.652-63.748-85.639a110.512,110.512,0,0,1,.666-39.048Q775.122,526,775.2,529.955Z" transform="translate(-463.327 -513.98)" fill="#474747" opacity="0.25"/>
        <path id="Path_2074" d="M667.568,528.4Q610,536.5,552.422,544.522a137.287,137.287,0,0,0,87.709,117.217c.666,14.051,1.405,28.1,2.071,42.154-25.07,4.881-41.562,15.087-50.585,21.743-5.99,4.437-60.125,44.077-54.06,101.1,1.035,9.836,4.585,26.7,18.193,45.334-11.685.148-23.3.3-34.98.37-2.367-18.119-4.511-55.466,14.865-94,14.791-29.286,35.942-47.257,48.218-57.462a213.887,213.887,0,0,1,43.781-28.1c.37-9.1.813-18.193,1.183-27.289-14.717-3.106-44.077-11.611-66.707-37.79a112.828,112.828,0,0,1-12.868-18.488c-16.418-29.138-17.527-59.607-15.974-79.5Q600.6,529.029,667.568,528.4Z" transform="translate(-463.229 -514.275)" fill="#474747" opacity="0.3"/>
      </g>
      <g id="hand_r" transform="translate(490.554 342.579)">
        <path id="Path_2075" d="M649.63,473.536c-23.148,16.862-40.971,37.643-39.27,39.713.813,1.035,5.325-.3,22.038-11.019-2.884,1.7-9.688,6.064-13.238,14.569-1.035,2.514-4.437,9.54-1.331,14.125,3.328,4.807,12.128,4.363,17.823,2.44,11.019-3.7,16.27-15.161,16.862-14.717.887.592-11.389,18.119-9.614,19.524,1.849,1.553,21.077-14.791,35.794-37.717a143.283,143.283,0,0,0,9.688-17.675,338.771,338.771,0,0,1,47.626,4.437c33.131,5.4,45.778,12.5,68.333,8.8,13.829-2.219,36.238-9.318,37.051-19.82,1.035-13.016-31.357-25-38.382-27.585-53.395-19.746-103.462-1.479-111.6,1.627A176.152,176.152,0,0,0,649.63,473.536Z" transform="translate(-610.248 -439.565)" fill="#fff" stroke="#161616" stroke-miterlimit="10" stroke-width="3"/>
        <g id="Group_2772"  transform="translate(5.595 65.041)">
          <g id="Group_2771" >
            <path id="Path_2076" d="M617.951,552.648a2.751,2.751,0,0,0,1.257,1.331,1.115,1.115,0,0,0,1.331-.148c7.321-8.727,13.682-18.858,24.109-24.257,1.257-.666.148-2.588-1.109-1.923-10.649,5.473-17.083,15.678-24.553,24.627a8.153,8.153,0,0,1,1.331-.148c-.148-.222-.3-.37-.444-.592-.666-1.257-2.588-.148-1.923,1.109Z" transform="translate(-617.813 -527.513)" fill="#161616"/>
          </g>
        </g>
        <g id="Group_2774"  transform="translate(11.881 73.098)">
          <g id="Group_2773" >
            <path id="Path_2077" d="M627.117,561.18c4.511,1.035,8.653-5.1,11.315-7.987,4.363-4.733,8.5-9.466,14.2-12.72a1.11,1.11,0,0,0-1.109-1.923,47.633,47.633,0,0,0-11.093,9.244c-1.7,1.849-3.328,3.7-5.1,5.547-1.627,1.775-5.029,6.286-7.617,5.694-1.405-.3-2,1.849-.592,2.145Z" transform="translate(-626.314 -538.408)" fill="#161616"/>
          </g>
        </g>
        <path id="Path_2078" d="M618.141,530.866c17.749-12.5,22.038-15.382,22.112-15.234a64.177,64.177,0,0,0-13.09,12.646,55.346,55.346,0,0,0-6.36,11.167,5.612,5.612,0,0,0,2.219,2.367,5.765,5.765,0,0,0,3.772.666,14.982,14.982,0,0,0,1.849-1.109A21.963,21.963,0,0,0,633.376,537c.3-.37,4.955-6.212,7.1-8.5a26.11,26.11,0,0,1,10.5-6.656c-4.363,6.656-8.8,13.386-13.164,20.042a32.922,32.922,0,0,0,9.318-6.656c1.849-1.849,2.44-2.958,5.768-7.1,3.106-3.846,5.4-6.286,6.286-7.321,7.765-8.874,19.376-30.025,26.771-37.125,15.826-15.309,41.34-2.81,91.7-2.44a298.524,298.524,0,0,0,61.012-5.842,11.4,11.4,0,0,1,4.511,6.138s1.109,4.068-1.7,9.17c-3.106,5.768-18.636,16.122-51.694,15.234-26.993-.74-35.2-8.135-71.366-12.2-12.128-1.331-22.112-1.7-28.472-1.849a142.873,142.873,0,0,1-18.267,31.652c-11.907,15.6-25.366,26.476-27.363,25a2.081,2.081,0,0,1-.74-1.109c-.518-1.479.592-3.18,1.183-4.067,1.109-1.775,2.514-4.141,4.289-7.543A22.564,22.564,0,0,1,643.138,541c-7.617,4.659-20.042,6.138-24.257.074C618.289,540.332,616.366,537.226,618.141,530.866Z" transform="translate(-612.113 -448.899)" fill="#828181" opacity="0.33"/>
        <path id="Path_2079" d="M729.5,492.521c.074-.666,17.009-.222,35.72.74,48.588,2.514,61.308,6.064,80.092-.74A82.769,82.769,0,0,0,870.16,478.1c1.405,2.736,2.884,6.8,1.775,10.871-2.736,9.91-18.636,13.164-28.916,15.235-5.695,1.183-15.382,2.588-30.691,1.257-13.608-1.109-19.006-3.328-33.427-6.36C750.059,493.113,729.426,493.187,729.5,492.521Z" transform="translate(-641.308 -449.602)" fill="#828181" opacity="0.51"/>
      </g>
    </g>
  </g>
</svg>
