<svg xmlns="http://www.w3.org/2000/svg" width="600" height="700" viewBox="0 0 600 700"><g transform="translate(0)"><rect width="200" height="200" transform="translate(0 0)" fill="#eaf1ea"/><rect width="100" height="100" transform="translate(0 0)" fill="#f7f7e8"/><path d="M0,100A100,100,0,0,0,100,0H0" transform="translate(0 0)" fill="#f7f7e8"/><rect width="100" height="100" transform="translate(100 0)" fill="#6d9773"/><path d="M100,0A100,100,0,0,1,200,100L100,0A100,100,0,0,0,200,100" transform="translate(0 0)" fill="#f7f7e8"/><rect width="100" height="100" transform="translate(0 100)" fill="#6d9773"/><path d="M0,200A100,100,0,0,1,100,100V200" transform="translate(0 0)" fill="#6d9773"/><rect width="100" height="100" transform="translate(100 100)" fill="#6d9773"/><path d="M100,200A100,100,0,0,0,200,100H100" transform="translate(0 0)" fill="#6d9773"/><rect width="200" height="200" transform="translate(200 0)" fill="#eaf1ea"/><rect width="100" height="100" transform="translate(200 0)" fill="#f7f7e8"/><path d="M200,0A100,100,0,0,0,300,100V0" transform="translate(0 0)" fill="#6d9773"/><rect width="100" height="100" transform="translate(300 0)" fill="#f7f7e8"/><path d="M300,100A100,100,0,0,1,400,0V100" transform="translate(0 0)" fill="#f7f7e8"/><rect width="100" height="100" transform="translate(200 100)" fill="#6d9773"/><path d="M200,100A100,100,0,0,1,300,200H200" transform="translate(0 0)" fill="#6d9773"/><rect width="100" height="100" transform="translate(300 100)" fill="#f7f7e8"/><path d="M300,200A100,100,0,0,0,400,100H300" transform="translate(0 0)" fill="#6d9773"/><rect width="200" height="200" transform="translate(400 0)" fill="#f7f7e8"/><rect width="200" height="200" transform="translate(400 0)" fill="#f7f7e8"/><path d="M400,200C400,89.543,489.543,0,600,0L400,200c110.457,0,200-89.543,200-200" transform="translate(0 0)" fill="#6d9773"/><rect width="200" height="200" transform="translate(0 200)" fill="#f7f7e8"/><path d="M0,200c110.457,0,200,89.543,200,200H0" transform="translate(0 0)" fill="#f7f7e8"/><rect width="200" height="200" transform="translate(200 200)" fill="#eaf1ea"/><rect width="100" height="100" transform="translate(200 200)" fill="#6d9773"/><path d="M200,300A100,100,0,0,1,300,200V300" transform="translate(0 0)" fill="#6d9773"/><rect width="100" height="100" transform="translate(300 200)" fill="#6d9773"/><path d="M300,200A100,100,0,0,1,400,300H300" transform="translate(0 0)" fill="#f7f7e8"/><rect width="100" height="100" transform="translate(200 300)" fill="#6d9773"/><path d="M200,400A100,100,0,0,1,300,300L200,400A100,100,0,0,0,300,300" transform="translate(0 0)" fill="#6d9773"/><rect width="100" height="100" transform="translate(300 300)" fill="#6d9773"/><path d="M300,300A100,100,0,0,1,400,400H300" transform="translate(0 0)" fill="#6d9773"/><path d="M0,0H200V200H0Z" transform="translate(0 400)" fill="#6d9773"/><path d="M0,400c110.457,0,200,89.543,200,200L0,400C0,510.457,89.543,600,200,600" transform="translate(0 0)" fill="#f7f7e8"/><rect width="100" height="100" transform="translate(0 600)" fill="#6d9773"/><path d="M0,700A100,100,0,0,1,100,600V700" transform="translate(0 0)" fill="#f7f7e8"/><rect width="100" height="100" transform="translate(100 600)" fill="#f7f7e8"/></g></svg>