<svg xmlns="http://www.w3.org/2000/svg" width="162.401" height="129.91" viewBox="0 0 162.401 129.91"><path d="M123.835,48.716H85.265v14.21a18.27,18.27,0,1,1-36.54,0V32.07l-16.468,9.9a16.2,16.2,0,0,0-7.892,13.906v12L4.064,79.6A8.1,8.1,0,0,0,1.1,90.687l20.3,35.17a8.123,8.123,0,0,0,11.089,2.969l26.238-15.149H93.385a16.255,16.255,0,0,0,16.24-16.24h4.06a8.111,8.111,0,0,0,8.12-8.12V73.076h2.03a6.075,6.075,0,0,0,6.09-6.09V54.806A6.075,6.075,0,0,0,123.835,48.716Zm37.479-9.49-20.3-35.17a8.123,8.123,0,0,0-11.089-2.969L103.687,16.236H77.754a16.362,16.362,0,0,0-8.6,2.461l-8.5,5.3a8.065,8.065,0,0,0-3.806,6.877V62.926a10.15,10.15,0,1,0,20.3,0V40.6h46.69a14.219,14.219,0,0,1,14.21,14.21v7.232l20.3-11.723a8.129,8.129,0,0,0,2.969-11.089Z" transform="translate(0.002 -0.001)" fill="#6d9773"/></svg>