<svg xmlns="http://www.w3.org/2000/svg" width="922.667" height="772" viewBox="0 0 922.667 772"><g transform="translate(-857.333 -217)"><circle cx="386" cy="386" r="386" transform="translate(934 217)" fill="#f7f7e8"/><g transform="translate(857.333 598.057)"><g transform="translate(806.916 112.383)"><path d="M1343.609,883.8a80.379,80.379,0,0,1-2.623-51.318c-.471.2-1.009.4-1.48.605,1.211.807,2.354,1.681,3.565,2.489a1.024,1.024,0,0,0,1.48-.605,171.492,171.492,0,0,1,37.665-85.216,15.717,15.717,0,0,1-1.682-.471c11.03,46.206-2.623,93.623-19.3,136.669-.471,1.211,1.48,1.749,1.951.538,16.815-43.449,30.4-91.135,19.3-137.745a1.045,1.045,0,0,0-1.682-.471,174.446,174.446,0,0,0-38.135,86.158c.471-.2,1.009-.4,1.48-.605-1.211-.807-2.354-1.681-3.565-2.489a.988.988,0,0,0-1.48.605,82.265,82.265,0,0,0,2.623,52.394c.4,1.211,2.354.673,1.883-.538Z" transform="translate(-1336.026 -748.003)" fill="#6d9773"/></g><g transform="translate(843.448 101.129)"><path d="M1403.362,790.276a164.479,164.479,0,0,1,15.806-29.324,10.741,10.741,0,0,1-1.412.336c.807.605,1.682,1.211,2.489,1.749a1.06,1.06,0,0,0,1.412-.336,176.843,176.843,0,0,1,20.581-29.661l-1.614-.2c10.358,17.823,2.488,39.817-3.834,57.64a307.458,307.458,0,0,1-26.029,56.3,246.19,246.19,0,0,1-20.177,28.854c-.807,1.009.605,2.421,1.412,1.412a260.473,260.473,0,0,0,33.831-54.479c4.506-9.618,8.475-19.438,12.106-29.392,3.565-9.887,7.062-19.976,8.676-30.4,1.682-10.627,1.143-21.523-4.3-31.006a1.058,1.058,0,0,0-1.614-.2,189.154,189.154,0,0,0-20.917,30.064,10.749,10.749,0,0,1,1.412-.336c-.807-.605-1.681-1.211-2.489-1.749a1.076,1.076,0,0,0-1.412.336,169.216,169.216,0,0,0-16.008,29.8c-.336,1.278,1.614,1.816,2.085.605Z" transform="translate(-1390.342 -731.272)" fill="#6d9773"/></g><g transform="translate(821.546 114.071)"><path d="M1386.579,751.244c-8.878,41.095-22.4,81.113-28.786,122.679-.2,1.278,1.749,1.816,1.95.538,6.39-41.633,19.908-81.652,28.786-122.679.269-1.278-1.681-1.816-1.95-.538Z" transform="translate(-1357.778 -750.514)" fill="#6d9773"/></g><g transform="translate(846.321 102.435)"><path d="M1442.559,733.944c-6.928,42.238-27.509,80.239-47.821,117.3-.605,1.143,1.143,2.152,1.749,1.009,20.379-37.261,41.028-75.4,48.022-117.769.2-1.278-1.749-1.816-1.951-.538Z" transform="translate(-1394.613 -733.214)" fill="#6d9773"/></g><g transform="translate(822.593 162.767)"><path d="M1359.513,824.385a62.116,62.116,0,0,1,9.282,24.348c.2,1.278,2.152.74,1.95-.538a62.471,62.471,0,0,0-9.483-24.818c-.74-1.076-2.489-.067-1.749,1.009Z" transform="translate(-1359.334 -822.916)" fill="#6d9773"/></g><g transform="translate(834.968 143.666)"><path d="M1379.662,827.327c6.793-10.425,13.586-20.917,20.379-31.342.74-1.076-1.009-2.085-1.749-1.009-6.793,10.425-13.586,20.917-20.379,31.342-.74,1.076,1.009,2.085,1.749,1.009Z" transform="translate(-1377.734 -794.516)" fill="#6d9773"/></g><g transform="translate(863.891 140.023)"><path d="M1420.779,790.109a240.179,240.179,0,0,0,2.892,41.7c.2,1.278,2.152.74,1.95-.538a234.466,234.466,0,0,1-2.825-41.162c.067-1.345-1.951-1.345-2.018,0Z" transform="translate(-1420.737 -789.1)" fill="#6d9773"/></g><g transform="translate(881.716 130.596)"><path d="M1448.961,794.263c5.515-5.582,10.9-11.434,16.007-17.42.807-1.009-.605-2.421-1.412-1.412-5.112,5.986-10.425,11.77-16.008,17.42a1,1,0,0,0,1.412,1.412Z" transform="translate(-1447.238 -775.084)" fill="#6d9773"/></g><g transform="translate(46.814 73.689)"><path d="M244.708,830.052a70.462,70.462,0,0,1-28.248-43.92c-.2.4-.471.807-.673,1.211a4.149,4.149,0,0,1,4.3,1.143c.874.874,2.018-.2,1.614-1.211a159.512,159.512,0,0,1-13.721-64.1,11.485,11.485,0,0,1-.74.942c.673.336,1.412.74,2.085,1.076a1.02,1.02,0,0,0,1.883-.538L209.8,707.1c-.4-5.179-1.009-10.627,2.354-15a10.761,10.761,0,0,1-1.412.336c4.708,3.363,7.466,8.811,10.223,13.721,2.69,4.843,5.246,9.82,7.667,14.8a254.207,254.207,0,0,1,12.914,32.419,269.493,269.493,0,0,1,12.712,66.855c.067,1.278,2.085,1.278,2.018,0a273.764,273.764,0,0,0-13.519-69.68,263.165,263.165,0,0,0-13.183-32.217c-2.623-5.381-5.381-10.627-8.34-15.806-2.556-4.506-5.179-8.811-9.483-11.9a1.076,1.076,0,0,0-1.412.336c-3.027,3.968-3.094,8.945-2.825,13.788.471,6.591,1.076,13.183,1.614,19.841.605-.2,1.278-.336,1.883-.538a3.888,3.888,0,0,0-4.372-2.018,1.009,1.009,0,0,0-.74.942,163.168,163.168,0,0,0,13.99,65.106l1.614-1.211a5.942,5.942,0,0,0-6.255-1.681.962.962,0,0,0-.673,1.211,72.7,72.7,0,0,0,29.123,45.13c1.076,1.009,2.085-.74,1.009-1.48Z" transform="translate(-205.9 -690.474)" fill="#6d9773"/></g><g transform="translate(75.899 50.068)"><path d="M252.814,726.544a111.365,111.365,0,0,1-1.278-11.5c-.2-3.565-1.211-8.878,1.48-11.7,1.547-1.547,2.287-2.287,2.623-4.641.471-3.766.471-7.6.874-11.367a227.247,227.247,0,0,1,3.565-23.339c.269-1.278.4-3.7,1.076-4.843,1.614-2.623,4.1.135,5.381,1.412a33.982,33.982,0,0,1,5.65,7.8c6.457,11.837,8.206,26.432,9.954,39.615a278.113,278.113,0,0,1,2.354,44.256c-.4,16.815-2.69,33.562-8.475,49.435-.471,1.211,1.48,1.749,1.95.538,11.232-31.006,10.223-66.182,5.582-98.331-1.951-13.653-4.035-29.19-12.308-40.758-1.816-2.489-7.331-10.425-10.9-6.86-1.883,1.816-2.018,6.053-2.489,8.407-.874,4.439-1.681,8.878-2.287,13.384-.605,4.372-1.076,8.744-1.48,13.115-.2,2.354,0,5.044-.538,7.331-.538,2.219-2.152,2.892-3.228,4.641-1.749,2.69-1.076,6.928-.942,9.954a122.226,122.226,0,0,0,1.48,13.922c.2,1.345,2.152.807,1.951-.471Z" transform="translate(-249.144 -655.353)" fill="#6d9773"/></g><g transform="translate(87.668 51.233)"><path d="M266.681,658.306a354.452,354.452,0,0,1,8.945,128.665c-.135,1.278,1.883,1.278,2.018,0a357.306,357.306,0,0,0-9.013-129.2,1.014,1.014,0,0,0-1.95.538Z" transform="translate(-266.642 -657.085)" fill="#6d9773"/></g><g transform="translate(50.151 74.033)"><path d="M210.955,692.206a772.981,772.981,0,0,1,36.925,124.63c.269,1.278,2.22.74,1.95-.538a766.233,766.233,0,0,0-36.925-124.629c-.538-1.211-2.489-.673-1.951.538Z" transform="translate(-210.862 -690.985)" fill="#6d9773"/></g><g transform="translate(49.849 135.193)"><path d="M211.144,783.857a42.458,42.458,0,0,1,25.76,20.379c.605,1.143,2.354.135,1.749-1.009a44.862,44.862,0,0,0-26.971-21.254.979.979,0,1,0-.538,1.883Z" transform="translate(-210.414 -781.919)" fill="#6d9773"/></g><g transform="translate(71.82 110.077)"><path d="M244.17,745.533a162.056,162.056,0,0,0-.605,31.275c.067,1.278,2.085,1.278,2.018,0a162.058,162.058,0,0,1,.605-31.275c.135-1.278-1.883-1.278-2.018,0Z" transform="translate(-243.08 -744.575)" fill="#6d9773"/></g><g transform="translate(79.861 96.115)"><path d="M255.213,725.285a102.059,102.059,0,0,1,18.765,40.288c.269,1.278,2.22.74,1.951-.538a103.452,103.452,0,0,0-18.967-40.759c-.74-1.076-2.489-.067-1.749,1.009Z" transform="translate(-255.034 -723.816)" fill="#6d9773"/></g><g transform="translate(96.436 72.838)"><path d="M286.688,689.741a98.431,98.431,0,0,0-6.995,24.28c-.2,1.278,1.749,1.816,1.951.538a95.331,95.331,0,0,1,6.793-23.809c.538-1.143-1.211-2.22-1.749-1.009Z" transform="translate(-279.678 -689.208)" fill="#6d9773"/></g><g transform="translate(13.915 253.229)"><path d="M158.206,965.543c36.454-12.846,75.329-2.623,111.918,3.9A969.368,969.368,0,0,0,388.229,983.03q33.6,1.816,67.258,1.211a1.01,1.01,0,0,0,0-2.018,971.829,971.829,0,0,1-121.132-5.582q-30.67-3.329-61.07-8.676c-18.092-3.161-36.118-7.062-54.345-9.214-20.514-2.354-41.566-2.085-61.272,4.843-1.211.471-.673,2.421.538,1.95Z" transform="translate(-156.985 -957.415)" fill="#6d9773"/></g><g transform="translate(225.667 253.958)"><path d="M472.546,964.216c60.331,14.8,122.814,10.9,184.018,5.246,31.477-2.892,62.886-6.322,94.43-8a621.785,621.785,0,0,1,94.3,1.951c36.521,3.632,72.639,10.291,108.555,17.823,1.278.269,1.816-1.681.538-1.951-62.416-13.115-125.437-22.733-189.332-20.447-62.55,2.219-124.562,12.51-187.18,13.653-35.176.673-70.487-1.816-104.721-10.223a1.021,1.021,0,0,0-.605,1.951Z" transform="translate(-471.82 -958.498)" fill="#6d9773"/></g><g transform="translate(488.694 291.316)"><path d="M864.175,1025.112c49.5-10.223,99.878-.538,149.179,5.986,49.031,6.457,98.4,7.533,147.5,1.278a551.807,551.807,0,0,0,80.306-16.344,1.012,1.012,0,0,0-.538-1.951,549.08,549.08,0,0,1-146.69,20.648,571.628,571.628,0,0,1-73.513-4.708c-24.953-3.161-49.771-7.264-74.791-9.618-27.374-2.556-55.017-2.825-82.055,2.825-1.211.2-.672,2.152.605,1.883Z" transform="translate(-862.891 -1014.042)" fill="#6d9773"/></g><g transform="translate(711.315 232.254)"><path d="M1194.568,944.84c25.155,9.349,52.192,3.834,77.414-2.219,27.912-6.659,55.69-12.174,84.409-13.788a406.261,406.261,0,0,1,47.888.269c1.278.067,1.278-1.951,0-2.018a398.409,398.409,0,0,0-83,3.228c-13.721,2.018-27.307,4.843-40.758,8.138-13.384,3.228-26.836,6.659-40.557,8.34-15.133,1.883-30.468,1.412-44.861-3.968-1.211-.336-1.749,1.614-.538,2.018Z" transform="translate(-1193.885 -926.229)" fill="#6d9773"/></g><g transform="translate(682.037 34.773)"><path d="M1159.936,633.344c-1.951,6.053-3.968,12.039-5.919,18.092a7.862,7.862,0,0,0-.471,4.641c.673,2.152,2.959,3.43,3.027,5.852a15.537,15.537,0,0,1,1.278-.942c-7.936-2.354-7.667,10.291-7.4,14.73a51.089,51.089,0,0,0,8,24.684c.673,1.076,2.421.067,1.749-1.009a49.533,49.533,0,0,1-6.928-17.151c-.672-3.3-3.027-21.455,4.036-19.37a1.022,1.022,0,0,0,1.278-.942,6.237,6.237,0,0,0-1.547-3.968c-1.749-2.489-1.614-4.3-.672-7.2,1.816-5.65,3.7-11.232,5.515-16.882a1.012,1.012,0,0,0-1.95-.538Z" transform="translate(-1150.355 -632.614)" fill="#6d9773"/></g><g transform="translate(691.981 34.019)"><path d="M1165.449,633.246c7.6,7.735,9.483,20.312,10.089,30.67a86.629,86.629,0,0,1-4.506,32.889c-.4,1.211,1.547,1.749,1.95.538a87.69,87.69,0,0,0,4.439-35.849c-.875-10.291-3.027-22.061-10.492-29.728-1.009-.874-2.421.538-1.48,1.48Z" transform="translate(-1165.14 -631.492)" fill="#6d9773"/></g><g transform="translate(702.421)"><path d="M1182.571,646.615a131.427,131.427,0,0,1,6.793-26.3c-.471.2-1.009.4-1.48.605,1.412.942,2.825,1.951,4.237,2.892a1.032,1.032,0,0,0,1.547-.874c.605-15,12.308-26.5,15.469-40.758h-1.951a135.848,135.848,0,0,1-18.9,94.027c-.673,1.076,1.076,2.085,1.749,1.009a138.246,138.246,0,0,0,19.1-95.574c-.135-1.009-1.749-.942-1.951,0-3.228,14.528-14.931,26.029-15.537,41.3.538-.269,1.009-.605,1.547-.874-1.412-.942-2.825-1.951-4.237-2.892a1.024,1.024,0,0,0-1.479.605,131.437,131.437,0,0,0-6.793,26.3c-.269,1.278,1.681,1.816,1.883.538Z" transform="translate(-1180.662 -580.912)" fill="#6d9773"/></g><g transform="translate(708.799 4.456)"><path d="M1210.09,588.521a201.457,201.457,0,0,1-19.841,71.361c-.538,1.143,1.143,2.152,1.749,1.009a204.673,204.673,0,0,0,20.11-72.37c.067-1.345-1.95-1.278-2.018,0Z" transform="translate(-1190.144 -587.537)" fill="#6d9773"/></g><g transform="translate(691.342 36.119)"><path d="M1164.2,635.882c2.758,20.043,5.381,40.489,1.143,60.465-.269,1.278,1.681,1.816,1.95.538,4.372-20.379,1.682-41.162-1.143-61.541-.135-1.278-2.085-.74-1.951.538Z" transform="translate(-1164.19 -634.614)" fill="#6d9773"/></g><g transform="translate(592.656 102.356)"><path d="M1018.429,735.52a97.288,97.288,0,0,1,30.872,2.421c8.542,2.085,17.016,6.39,25.962,5.044,9.214-1.412,16.949-7.533,26.432-7.869,9.147-.336,18.16,2.825,27.172.2a1.012,1.012,0,0,0-.538-1.95c-9.416,2.69-18.9-1.009-28.383-.135-8.609.807-15.806,5.986-24.146,7.667-9.618,1.883-19.169-3.363-28.45-5.381a97.716,97.716,0,0,0-28.988-1.883c-1.211-.067-1.211,1.95.067,1.883Z" transform="translate(-1017.462 -733.096)" fill="#6d9773"/></g><g transform="translate(0 197.356)"><path d="M136.635,876.063c18.563,17.353,45.467-1.412,66.787,5.515,1.211.4,1.749-1.547.538-1.951-11.367-3.7-23-.807-34.436.942-10.694,1.614-23,1.883-31.477-5.986-.942-.807-2.421.605-1.412,1.48Z" transform="translate(-136.297 -874.343)" fill="#6d9773"/></g></g><g transform="translate(962.325 587.969)"><path d="M988.052,858.557c-109.564,6.928-225.248,11.165-346.582,11.77-122.208.605-238.767-2.556-349.07-8.407q16.243-28.551,32.688-56.9c8.811-15.268,17.756-30.468,26.7-45.6,94.834,5.381,197.336,7.533,306.5,4.843,102.838-2.556,199.555-9.147,289.345-18.362a220.979,220.979,0,0,1,25.625,47.215A223.852,223.852,0,0,1,988.052,858.557Z" transform="translate(-292.4 -624.844)" fill="#eaf1ea" stroke="#161616" stroke-miterlimit="10" stroke-width="3"/><g transform="translate(49.822 221.331)"><path d="M367.433,897.015a783.387,783.387,0,0,0,115.146,3.834c1.278-.067,1.278-2.085,0-2.018A784.007,784.007,0,0,1,367.433,895c-1.278-.135-1.278,1.883,0,2.018Z" transform="translate(-366.475 -894.99)" fill="#161616"/></g><g transform="translate(117.82 211.651)"><path d="M468.533,882.617c18.631.74,37.328.269,55.959.269,18.9-.067,37.732-.067,56.631-.135a1.01,1.01,0,0,0,0-2.018c-18.9.067-37.732.067-56.631.135-18.63.067-37.328.471-55.959-.269-1.278-.067-1.278,1.95,0,2.018Z" transform="translate(-467.575 -880.598)" fill="#161616"/></g><g transform="translate(366.473 193.823)"><path d="M838.233,869.028Q923.685,863.58,1009,856.115c1.278-.135,1.278-2.152,0-2.018q-85.25,7.466-170.769,12.914c-1.278.067-1.278,2.085,0,2.018Z" transform="translate(-837.275 -854.09)" fill="#161616"/></g><g transform="translate(514.979 163.691)"><path d="M1059.033,819.789q66.182-2.421,132.162-8.475c1.278-.134,1.278-2.152,0-2.018q-65.98,6.053-132.162,8.475a1.01,1.01,0,0,0,0,2.018Z" transform="translate(-1058.075 -809.29)" fill="#161616"/></g><g transform="translate(553.586 210.44)"><path d="M1116.433,885.727q55.589-2.421,111.178-4.91c1.278-.067,1.278-2.085,0-2.018q-55.589,2.421-111.178,4.91c-1.278.067-1.278,2.085,0,2.018Z" transform="translate(-1115.475 -878.798)" fill="#161616"/></g><path d="M389.9,761.286c1.681,3.161,3.363,6.322,5.112,9.551a18.849,18.849,0,0,0,13.384,2.892,17.7,17.7,0,0,0,6.322-2.421l5.65-9.887a50.444,50.444,0,0,0-30.468-.135Z" transform="translate(-324.323 -629.132)" fill="#fff" stroke="#161616" stroke-miterlimit="10" stroke-width="3"/><g transform="translate(66.26 131.397)"><path d="M391.376,763.175c6.053,3.766,14.73,2.892,21.523,2.489,1.278-.067,1.278-2.085,0-2.018-6.39.336-14.8,1.345-20.514-2.22-1.076-.672-2.085,1.076-1.009,1.749Z" transform="translate(-390.916 -761.275)" fill="#161616"/></g><g transform="translate(50.976 86.725)"><path d="M368.265,696.1q8.575,22.2,17.084,44.39c.471,1.211,2.421.673,1.95-.538q-8.575-22.2-17.084-44.39c-.471-1.211-2.421-.74-1.95.538Z" transform="translate(-368.192 -694.857)" fill="#161616"/></g><g transform="translate(59.633 87.032)"><path d="M381.088,696.582q4.439,22.7,10.425,45.13a1.012,1.012,0,0,0,1.951-.538q-6.053-22.4-10.425-45.13c-.269-1.278-2.22-.74-1.951.538Z" transform="translate(-381.062 -695.314)" fill="#161616"/></g><g transform="translate(41.863)"><path d="M364.232,646.345c-1.009-3.228,1.681-6.255.942-9.618-.874-3.565-4.372-5.044-3.968-9.147.269-2.825,1.681-5.515,1.211-8.407-.336-1.816-1.48-2.892-2.287-4.506-.942-2.018-.538-3.9,0-5.986.538-2.354,1.412-4.91.471-7.331-.471-1.278-1.412-1.883-2.22-2.892-1.883-2.22-1.614-4.506-1.143-7.2a56.321,56.321,0,0,0-.605-24.617,1.012,1.012,0,0,0-1.95.538,51.626,51.626,0,0,1,1.749,14.326c-.135,4.1-1.211,7.936-1.547,11.972-.269,3.3.807,4.708,2.825,7.062,2.623,3.161.4,6.793-.067,10.358a8.791,8.791,0,0,0,.2,3.5c.538,1.883,2.22,3.161,2.556,5.179.538,3.228-1.48,6.39-1.278,9.618.269,3.5,3.9,5.313,4.17,8.676.269,3.161-2.018,5.717-1.009,9.013.4,1.211,2.354.673,1.95-.538Z" transform="translate(-354.642 -565.914)" fill="#e8e8e8"/></g><g transform="translate(55.819 16.34)"><path d="M380.778,652.753c-2.085-1.951.538-3.968-.2-6.255-.4-1.278-1.749-2.219-1.816-3.632-.067-1.278.807-2.69,1.009-3.968.336-2.421-.942-3.565-1.547-5.784-.807-3.027,1.009-6.389,1.547-9.349a11.5,11.5,0,0,0-.605-6.39c-.673-1.749-1.345-3.228-1.211-5.112a33.054,33.054,0,0,1,1.143-4.439c1.345-5.381-3.43-11.1-1.143-16.075.538-1.143-1.211-2.22-1.749-1.009-2.69,5.717,2.287,11.165.807,17.084-.74,2.959-1.614,5.112-.605,8.138.605,1.681,1.48,3.3,1.547,5.179a16.628,16.628,0,0,1-1.009,5.448c-.605,2.287-1.278,4.708-.673,7.062.538,1.951,1.816,3.43,1.345,5.582a17.446,17.446,0,0,0-.807,3.228,4.6,4.6,0,0,0,.605,2.825c.269.471,1.076,1.211,1.143,1.547a5.545,5.545,0,0,1-.471,2.085c-.471,2.085-.336,3.632,1.278,5.179.942.942,2.354-.471,1.412-1.345Z" transform="translate(-375.392 -590.208)" fill="#e8e8e8"/></g></g><g transform="translate(932.188 236.126)"><path d="M248.27,169.31c13.317,4.17,27.441,3.9,41.229,3.632,13.183-.269,26.3-1.143,39.346-2.489a500.444,500.444,0,0,0,77.078-14.461c51.184-13.721,100.215-34.974,146.018-61.474a720.9,720.9,0,0,0,74.724-49.771c1.009-.807,0-2.556-1.009-1.749-41.767,31.679-86.83,59.12-134.718,80.508-48.022,21.455-99,36.925-151.264,43.651-14.326,1.883-28.786,3.094-43.247,3.565-15.738.538-32.351,1.412-47.552-3.363a1.022,1.022,0,0,0-.605,1.95Z" transform="translate(-247.591 -42.791)" fill="#6d9773"/><g transform="translate(348.663 21.792)"><path d="M766.332,76.878c17.958,15.537,39.144,26.634,60.936,35.849A515.493,515.493,0,0,0,899.5,137.142a530.74,530.74,0,0,0,149.448,16.747c28.652-.874,58.582-2.825,85.956-11.972,1.211-.4.672-2.354-.538-1.95-24.347,8.205-50.645,10.291-76.136,11.568a522.271,522.271,0,0,1-73.984-1.614A526.1,526.1,0,0,1,839.105,115.35c-25.356-10.021-50.444-21.926-71.226-39.884-1.143-.874-2.556.538-1.547,1.412Z" transform="translate(-765.987 -75.191)" fill="#6d9773"/></g><g transform="translate(78.843 8.557)"><path d="M365.276,104.8c24.684,14.259,54.076,17.756,81.921,20.716a579.194,579.194,0,0,0,86.427,2.556A594.055,594.055,0,0,0,700.962,96.128a588.286,588.286,0,0,0,87.906-38.741c1.143-.605.135-2.354-1.009-1.749a585.786,585.786,0,0,1-158.326,58.246,588.332,588.332,0,0,1-168.885,10.9,477.549,477.549,0,0,1-47.888-5.986c-16.209-2.959-32.149-7.4-46.475-15.671-1.076-.673-2.085,1.076-1.009,1.681Z" transform="translate(-364.816 -55.513)" fill="#6d9773"/></g><g transform="translate(162.165 100.49)"><path d="M488.7,193.209V218.3a1.01,1.01,0,0,0,2.018,0V193.209a1.009,1.009,0,0,0-2.018,0Z" transform="translate(-488.7 -192.2)" fill="#6d9773"/></g><g transform="translate(162.771 142.148)"><path d="M489.6,255.121v29.392a1.01,1.01,0,0,0,2.018,0V255.121a1.009,1.009,0,0,0-2.018,0Z" transform="translate(-489.6 -254.137)" fill="#6d9773"/></g><g transform="translate(197.072 169.699)"><g transform="translate(0 0)"><path d="M540.6,296.109v36.723a1.01,1.01,0,0,0,2.018,0V296.109a1.009,1.009,0,1,0-2.018,0Z" transform="translate(-540.6 -295.1)" fill="#6d9773"/></g></g><g transform="translate(195.862 235.864)"><path d="M538.8,394.433V412.19a1.01,1.01,0,0,0,2.018,0V394.433a1.01,1.01,0,0,0-2.018,0Z" transform="translate(-538.8 -393.475)" fill="#6d9773"/></g><g transform="translate(265.676 55.208)"><g transform="translate(0)"><path d="M642.6,125.833v32.486a1.01,1.01,0,0,0,2.018,0V125.833a1.01,1.01,0,0,0-2.018,0Z" transform="translate(-642.6 -124.875)" fill="#6d9773"/></g></g><g transform="translate(265.676 99.262)"><g transform="translate(0)"><path d="M642.6,191.333v24.482a1.01,1.01,0,0,0,2.018,0V191.333a1.01,1.01,0,0,0-2.018,0Z" transform="translate(-642.6 -190.375)" fill="#6d9773"/></g></g><g transform="translate(554.684 67.449)"><path d="M1072.3,144.033v42.238a1.01,1.01,0,0,0,2.018,0V144.033a1.01,1.01,0,0,0-2.018,0Z" transform="translate(-1072.3 -143.075)" fill="#6d9773"/></g><g transform="translate(554.079 126.233)"><path d="M1071.4,231.433v22.061a1.01,1.01,0,0,0,2.018,0V231.433a1.01,1.01,0,0,0-2.018,0Z" transform="translate(-1071.4 -230.475)" fill="#6d9773"/></g><g transform="translate(434.023 42.942)"><path d="M892.9,107.621v26.971a1.01,1.01,0,0,0,2.018,0V107.621a1.009,1.009,0,0,0-2.018,0Z" transform="translate(-892.9 -106.637)" fill="#6d9773"/></g><g transform="translate(434.696 95.63)"><path d="M893.9,185.933v24.482a1.01,1.01,0,0,0,2.018,0V185.933a1.01,1.01,0,0,0-2.018,0Z" transform="translate(-893.9 -184.975)" fill="#6d9773"/></g><g transform="translate(622.077 139.685)"><path d="M1172.5,251.433V275.31a1.01,1.01,0,0,0,2.018,0V251.433a1.01,1.01,0,0,0-2.018,0Z" transform="translate(-1172.5 -250.475)" fill="#6d9773"/></g><g transform="translate(622.682 180.107)"><path d="M1173.4,311.533V330.5a1.01,1.01,0,0,0,2.018,0V311.533a1.01,1.01,0,0,0-2.018,0Z" transform="translate(-1173.4 -310.575)" fill="#6d9773"/></g><circle cx="11.165" cy="11.165" r="11.165" transform="translate(152.547 124.703)" fill="#6d9773"/><circle cx="7.667" cy="7.667" r="7.667" transform="translate(189.741 252.292)" fill="#6d9773"/><circle cx="3.632" cy="3.632" r="3.632" transform="translate(263.927 131.765)" fill="#6d9773"/><circle cx="5.112" cy="5.112" r="5.112" transform="translate(432.476 139.029)" fill="#6d9773"/><circle cx="4.708" cy="4.708" r="4.708" transform="translate(432.543 76.411)" fill="#6d9773"/><path d="M5.246,0A5.246,5.246,0,1,1,0,5.246,5.246,5.246,0,0,1,5.246,0Z" transform="translate(191.49 221.286)" fill="#6d9773"/><path d="M5.179,0A5.179,5.179,0,1,1,0,5.179,5.179,5.179,0,0,1,5.179,0Z" transform="translate(260.833 48.028)" fill="#6d9773"/><path d="M5.179,0A5.179,5.179,0,1,1,0,5.179,5.179,5.179,0,0,1,5.179,0Z" transform="translate(260.833 93.831)" fill="#6d9773"/><circle cx="2.556" cy="2.556" r="2.556" transform="translate(432.476 124.77)" fill="#6d9773"/><circle cx="10.694" cy="10.694" r="10.694" transform="translate(545.066 149.252)" fill="#6d9773"/><path d="M5.112,0A5.112,5.112,0,1,1,0,5.112,5.112,5.112,0,0,1,5.112,0Z" transform="translate(619.723 210.591)" fill="#6d9773"/><path d="M4.708,0A4.708,4.708,0,1,1,0,4.708,4.708,4.708,0,0,1,4.708,0Z" transform="translate(550.985 76.411)" fill="#6d9773"/><circle cx="3.632" cy="3.632" r="3.632" transform="translate(552.128 97.867)" fill="#6d9773"/><circle cx="3.632" cy="3.632" r="3.632" transform="translate(620.059 167.479)" fill="#6d9773"/><g transform="translate(98.04 222.907)"><path d="M408.923,374.674c-3.161,4.977-6.322,9.887-9.483,14.864-2.489,3.9-4.977,8-5.852,12.645-1.412,8,3.968,13.384,8.542,19.169,2.623,3.3,5.044,7.062,3.9,11.367-1.009,3.9-4.237,7.264-3.766,11.568a13.52,13.52,0,0,0,1.95,4.775,25.7,25.7,0,0,1,2.623,8.542,24.857,24.857,0,0,1-3.565,15.738,1.01,1.01,0,0,0,1.749,1.009,26.944,26.944,0,0,0,1.883-24.482c-1.211-2.825-3.228-5.112-2.354-8.475.605-2.22,1.883-4.17,2.758-6.255a11.921,11.921,0,0,0,.067-9.483c-3.027-7.129-11.434-11.77-11.972-20.043-.336-5.582,2.959-10.694,5.784-15.2,3.161-4.977,6.322-9.954,9.483-14.864.673-.942-1.076-1.951-1.749-.874Z" transform="translate(-393.359 -374.21)" fill="#6d9773"/></g><g transform="translate(231.022 299.264)"><path d="M597.886,488.049a23.554,23.554,0,0,0-6.659,19.169c.4,3.7,1.883,6.793,3.632,10.089,2.623,4.977,3.228,8.744,1.211,13.99-1.211,3.094-2.758,6.255-2.354,9.618.4,3.834,3.363,5.852,5.179,9.013,3.834,6.86-3.9,14.057-2.085,21.388a1.012,1.012,0,0,0,1.951-.538c-1.682-6.591,4.641-12.443,3.026-19.1-.807-3.228-3.43-5.246-5.044-8-2.287-3.9-.135-8,1.278-11.837,1.143-3.027,1.95-6.053,1.278-9.282-.874-3.968-3.565-7.2-4.977-10.963a21.38,21.38,0,0,1,4.977-22.128,1,1,0,0,0-1.413-1.412Z" transform="translate(-591.077 -487.738)" fill="#6d9773"/></g><g transform="translate(661.846 313.927)"><path d="M1244.254,509.849c-6.726,7.869-13.25,18.025-12.577,28.854.336,5.179,2.623,9.349,5.448,13.586,3.3,4.91,6.12,9.551,4.506,15.671-2.152,8-10.089,16.007-7.331,24.818,1.682,5.381,7.062,8.34,8.34,13.99,1.48,6.726-1.614,13.788-4.372,19.774-.538,1.143,1.211,2.22,1.749,1.009,2.287-4.977,4.506-10.156,4.91-15.671.4-5.246-1.345-9.416-4.574-13.452-3.834-4.641-5.583-8.609-3.565-14.461,1.547-4.506,4.3-8.542,5.986-12.981,1.614-4.17,2.018-8.475.269-12.712-1.816-4.439-5.179-7.869-7.331-12.107-6.053-12.106,2.085-25.693,9.954-34.84.875-1.009-.538-2.421-1.412-1.48Z" transform="translate(-1231.629 -509.54)" fill="#6d9773"/></g><g transform="translate(686.9 385.591)"><path d="M1275.35,616.366a20.427,20.427,0,0,0-6.322,12.376c-.74,5.717,1.412,9.685,3.7,14.662,2.825,6.12-2.69,11.636-1.211,17.823.807,3.363,2.623,5.919,2.556,9.483a14.486,14.486,0,0,1-4.17,9.685c-.874.942.538,2.354,1.412,1.412a16.029,16.029,0,0,0,4.641-13.183c-.336-2.825-1.883-5.246-2.489-8-.874-3.7,1.143-7.062,1.883-10.56,1.278-5.919-2.758-9.416-4.036-14.8a18.261,18.261,0,0,1,5.448-17.554c1.009-.807-.4-2.219-1.413-1.345Z" transform="translate(-1268.879 -616.09)" fill="#6d9773"/></g><g transform="translate(499.861 197.778)"><g transform="translate(0 0)"><path d="M997.253,337.354c-3.834,5.919-8.071,12.914-5.851,20.245,1.076,3.565,4.035,5.044,5.65,8.138,1.547,3.094.067,6.726-1.009,9.685-1.547,4.237-3.7,9.416.2,13.048,1.547,1.412,3.43,2.22,4.1,4.439.538,1.816.067,3.968-.269,5.717-.673,3.228-1.614,6.457-1.211,9.752.134,1.278,2.152,1.278,2.018,0-.605-5.515,3.43-11.7,1.076-17.016-1.345-3.094-5.515-3.968-5.919-7.466-.336-2.623,1.076-5.515,1.951-7.936,1.681-4.641,2.892-9.282-.74-13.317-3.363-3.7-5.112-7.264-4.036-12.376.874-4.372,3.43-8.273,5.852-11.972.673-1.076-1.076-2.085-1.816-.942Z" transform="translate(-990.789 -336.849)" fill="#6d9773"/></g></g><g transform="translate(226.272 127.079)"><path d="M587.57,231.913a7.924,7.924,0,0,0-1.883,11.5c2.489,3.363-1.345,4.91-.605,8.071.269,1.143,1.211,1.816,1.749,2.825,1.345,2.489-.2,5.112-1.48,7.331a1.01,1.01,0,0,0,1.749,1.009c1.211-2.085,2.556-4.506,2.354-6.995a7.431,7.431,0,0,0-1.009-2.892c-.336-.605-.74-.807-1.009-1.547-.336-1.278.135-1.547.74-2.758.874-1.681,1.211-3.094.269-4.843-.874-1.614-2.287-2.556-2.421-4.574a6.184,6.184,0,0,1,2.623-5.448c1.009-.673,0-2.421-1.076-1.681Z" transform="translate(-584.015 -231.734)" fill="#6d9773"/></g><g transform="translate(130.477 177.364)"><g transform="translate(0 0)"><path d="M444.689,306.835a7.887,7.887,0,0,0-2.219,4.843c-.135,2.152,1.614,4.372.673,6.322-.673,1.412-1.412,1.951-1.278,3.7.135,1.816,3.161,6.793.4,7.869-1.211.471-.673,2.421.538,1.951,3.363-1.278,2.69-4.843,1.749-7.6-.74-2.152-.135-3.228.807-5.246a4.855,4.855,0,0,0,.605-1.345c.135-1.076-.471-1.681-.874-2.556a5.6,5.6,0,0,1,.942-6.524c.942-.942-.538-2.421-1.345-1.412Z" transform="translate(-441.585 -306.497)" fill="#6d9773"/></g></g><g transform="translate(643.12 198.606)"><g transform="translate(0 0)"><path d="M1208.907,338.093c-2.69-.2-4.641,1.816-5.044,4.439-.605,3.834,2.556,6.524,4.17,9.618,1.076,2.152.673,3.834,0,5.919-.336,1.076-.74.74-.807,1.951a3.2,3.2,0,0,0,1.009,2.489c1.816,2.085,3.3,3.027,3.094,6.12a20.8,20.8,0,0,1-2.69,7.735c-.605,1.143,1.143,2.152,1.749,1.009,1.412-2.69,2.825-5.65,2.959-8.744.2-3.027-1.009-4.372-2.623-6.659a1.557,1.557,0,0,1-.673-1.614,1.431,1.431,0,0,1,.269-2.085c.135-.605.471-1.076.605-1.749a7.742,7.742,0,0,0-.538-4.237,18.166,18.166,0,0,0-2.354-3.968,12.291,12.291,0,0,1-1.95-3.565c-.538-1.951,0-4.91,2.892-4.708,1.211.2,1.211-1.816-.067-1.951Z" transform="translate(-1203.787 -338.079)" fill="#6d9773"/></g></g></g><g transform="translate(1115.136 405.746)"><g transform="translate(185.737 280.88)"><path d="M884.9,879.645a215.045,215.045,0,0,1-32.149,2.489q-6.356,92.514,1.883,93.825,6.961,1.11,24.348-62.55c15.94-3.968,31.948-7.937,47.888-11.9,1.614-15.6-2.018-21.657-5.65-24.415C914.492,872.044,905.076,876.483,884.9,879.645Z" transform="translate(-813.507 -765.708)" fill="#fff" stroke="#161616" stroke-miterlimit="10" stroke-width="3"/><path d="M802.107,717.24c-11.165,10.156-7.331,37.732,9.282,66.586a87.2,87.2,0,0,1,17.353-.269c3.027.269,12.51,1.211,36.723,10.022,5.044,1.883,12.039,4.506,20.379,8.071-6.524,1.749-13.048,3.5-19.639,5.246a173.291,173.291,0,0,0,4.506,26.365,175.957,175.957,0,0,0,17.084,42.978c15.133-4.439,27.509-8.811,36.454-12.039,21.455-7.869,32.822-13.519,43.718-21.119,11.636-8.138,17.756-15,19.639-23.608a31.169,31.169,0,0,0,.269-10.829c-1.345-8.34-5.986-13.99-10.829-19.37-10.627-11.9-15.94-17.823-24.616-24.415-19.841-15-37.934-22.868-58.044-31.41-15.537-6.591-25.894-10.963-40.96-14.6C829.347,713.272,811.255,708.9,802.107,717.24Z" transform="translate(-795.755 -712.598)" fill="#6d9773"/><path d="M813.9,755.4c6.255,1.412,15.4,3.766,26.231,7.331,8,2.623,23.137,7.936,57.909,25.491,11.7,5.919,27.1,13.922,44.928,23.944q-33.8,15.234-67.662,30.468a90,90,0,0,1-2.152-13.586c-.2-2.354-.269-4.641-.269-6.726,6.053-2.22,12.106-4.372,18.16-6.591a303.929,303.929,0,0,0-37.463-14.124,87.615,87.615,0,0,0-16.545-3.632,85.3,85.3,0,0,0-19.5-.067C816.321,783.648,815.111,769.524,813.9,755.4Z" transform="translate(-801.696 -726.612)" fill="#3d3d3d" opacity="0.11"/><path d="M818.9,815.939a136.964,136.964,0,0,1,89.117,16.815c-10.761,6.39-21.455,12.779-32.217,19.169-.538-3.43-1.076-6.793-1.614-10.223,6.121-2.287,12.241-4.574,18.294-6.86A326.022,326.022,0,0,0,860.4,822.732a147.732,147.732,0,0,0-15.469-4.3A120.759,120.759,0,0,0,818.9,815.939Z" transform="translate(-803.333 -745.921)" fill="#3d3d3d" opacity="0.11"/></g><g transform="translate(0 273.768)"><path d="M689.4,899.861q15.032,5.246,30,10.492,3.127,64.871,9.013,65.106,7.163.3,18.429-93.691c-15.94-3.834-31.813-7.735-47.753-11.568Q694.344,885.03,689.4,899.861Z" transform="translate(-575.196 -757.088)" fill="#fff" stroke="#161616" stroke-miterlimit="10" stroke-width="3"/><path d="M721.106,780.162a314.649,314.649,0,0,0-4.977-47.013c-4.506-24.684-8.407-28.585-11.837-30.2-7.466-3.43-15.066,3.161-34.033,11.837-15.537,7.129-13.519,4.1-40.153,14.124a438.915,438.915,0,0,0-68.065,32.082,122.38,122.38,0,0,0-30.2,24.482c-11.434,12.846-12.241,19.639-12.241,22.935,0,3.363.807,10.9,11.837,22.2,12.981,13.25,27.643,18.967,69.949,32.486,11.636,3.7,22.262,7.062,31.746,9.954,5.112-9.753,9.013-18.227,11.837-24.818,7.936-18.563,9.618-27.307,10.291-31.746a98.787,98.787,0,0,0,1.143-11.837c-6.86-1.816-13.788-3.565-20.648-5.381a148.826,148.826,0,0,1,29.056-12.645A152.086,152.086,0,0,1,721.106,780.162Z" transform="translate(-519.6 -702.025)" fill="#6d9773"/><path d="M738.808,761.177c-28.921,14.057-47.955,23.944-56.5,28.047q-33.7,15.94-65.711,29.392a40.175,40.175,0,0,1,40.422,19.3c8.811,15.133,6.39,34.772-6.053,47.888,4.574,1.614,9.08,3.228,13.653,4.91,4.035-7.6,7.062-13.99,9.214-18.63,5.313-11.636,8.744-19.169,11.367-29.459A108.744,108.744,0,0,0,688.365,824c-7.129-2.354-14.259-4.775-21.388-7.129a160.746,160.746,0,0,1,85.754-19.438c-.135-4.439-.269-8.945-.605-13.653-.605-9.752-1.614-18.967-2.825-27.576C746.879,757.276,743.247,759.092,738.808,761.177Z" transform="translate(-551.359 -719.763)" fill="#3d3d3d" opacity="0.13"/><path d="M770.78,815.947c0-.605-16.882-2.489-38.27.538a171.389,171.389,0,0,0-54.21,17.285c6.12,4.574,12.241,9.214,18.362,13.788-3.3,20.11-6.524,40.22-9.82,60.331a142.569,142.569,0,0,0,18.9-46.475,131.649,131.649,0,0,0,2.623-19.707q-3.43-1.009-7.062-2.018c-4.641-1.278-9.214-2.489-13.653-3.5a141.429,141.429,0,0,1,16.613-7.936C739.438,813.795,770.78,816.754,770.78,815.947Z" transform="translate(-571.561 -738.953)" fill="#3d3d3d" opacity="0.15"/><path d="M811.9,828.8" transform="translate(-615.304 -743.533)" fill="#3d3d3d"/></g><g transform="translate(243.811 128.652)"><path d="M890.238,486.423c3.43-1.143,8.609,4.17,11.7,7.264a43.315,43.315,0,0,1,8.206,11.7c9.147,18.967,7.533,11.434,15.268,29.056,9.483,21.724,15.94,42.238,15.94,42.238,3.161,10.021,5.112,17.487,11.232,26.7,6.928,10.358,12.645,13.115,15,14.057a29.259,29.259,0,0,0,18.5.942c3.565-3.5,6.322-6.524,8.206-8.676,3.834-4.372,5.448-6.726,8.474-7.062.673-.067,3.766-.4,5.381,1.412.74.807.874,1.681,1.614,1.883.942.269,1.883-.807,3.027-1.883a25.219,25.219,0,0,1,6.793-4.708c1.682-.74,4.91-1.681,5.851-.471s-1.143,3.766-.2,4.708,3.228-1.211,5.65-.2a4.43,4.43,0,0,1,2.556,3.5c.134,1.749-1.345,2.152-1.614,4.439-.269,1.883.605,2.22.471,3.766-.269,2.354-2.421,2.69-5.381,6.12-1.681,1.951-1.211,2.085-4.237,6.591a57.568,57.568,0,0,1-3.766,5.179c-4.439,4.977-11.972,5.381-15.94,5.65a35.792,35.792,0,0,1-17.151-3.5,41.346,41.346,0,0,1-10.29,5.179c-11.636,3.834-21.859,1.143-26.029,0-16.613-4.641-26.365-17.218-32.822-25.827-9.618-12.779-13.115-23.877-19.438-44.054a243.947,243.947,0,0,1-10.089-51.587C886.2,507,884.656,488.306,890.238,486.423Z" transform="translate(-883.445 -486.264)" fill="#fff"/><g transform="translate(7.994 0.575)"><path d="M894.668,489.124c5.919,1.95,10.021,6.726,13.452,11.77a178.384,178.384,0,0,1,9.752,16.209,340.991,340.991,0,0,1,16.008,35.378c4.843,12.106,9.282,24.347,13.788,36.521,3.632,9.685,8,19.976,16.411,26.432,7.8,5.986,18.9,8.475,27.643,3.027,1.076-.673.067-2.421-1.009-1.749-9.282,5.784-21.254,1.749-28.45-5.582-8.206-8.475-11.7-20.245-15.671-31.006-8.407-23-17.016-46.408-29.056-67.864-5.246-9.349-11.434-21.455-22.33-25.087-1.211-.4-1.749,1.547-.538,1.951Z" transform="translate(-893.985 -487.119)" fill="#161616"/></g><g transform="translate(7.965 66.547)"><path d="M893.981,586.413c5.986,20.716,11.031,42.373,23.339,60.4,10.156,14.931,25.222,26.836,43.718,28.316,10.021.807,20.177-1.614,28.248-7.667,1.009-.74,0-2.556-1.009-1.749-9.416,7.129-21.59,8.945-33.024,6.591-11.3-2.354-21.052-8.878-28.786-17.218-17.554-19.034-23.406-45-30.4-69.141-.471-1.278-2.421-.74-2.085.471Z" transform="translate(-893.942 -585.207)" fill="#161616"/></g><g transform="translate(104.042 115.296)"><path d="M1038.68,674.578c2.825-3.968,5.448-8.542,8.878-11.972,2.018-2.018,5.313-4.036,8.206-2.421,2.488,1.412,2.69,4.641,1.211,6.793-.74,1.076,1.009,2.085,1.749,1.009a6.5,6.5,0,0,0-5.65-10.29c-3.3.2-5.986,2.287-8,4.775-2.892,3.5-5.381,7.4-8.071,11.1-.807,1.009.942,2.018,1.682,1.009Z" transform="translate(-1036.79 -657.687)" fill="#161616"/></g><g transform="translate(114.76 122.712)"><path d="M1053.246,669.377a4.813,4.813,0,0,0,3.632,6.928c3.968.605,6.86-2.758,7.533-6.322.269-1.278-1.681-1.816-1.95-.538-.4,2.152-1.547,4.372-3.9,4.843-2.219.471-4.708-1.48-3.565-3.834.538-1.211-1.211-2.22-1.749-1.076Z" transform="translate(-1052.725 -668.714)" fill="#161616"/></g><g transform="translate(101.228 140.604)"><path d="M1033.342,704.116c7.735,1.547,15.066,5.112,23.069,3.43a24.662,24.662,0,0,0,15.537-10.761c.74-1.076-1.009-2.085-1.749-1.009a22.692,22.692,0,0,1-15.335,10.022c-7.264,1.143-14.057-2.219-21.052-3.632-1.211-.2-1.749,1.749-.471,1.951Z" transform="translate(-1032.607 -695.316)" fill="#161616"/></g><g transform="translate(119.475 128.134)"><path d="M1061.259,676.926c-2.152,1.278-1.883,4.237-.067,5.784,1.547,1.278,3.632,1.076,5.515,1.076a15.9,15.9,0,0,1,8.744,2.085,1.01,1.01,0,0,0,1.009-1.749,17.014,17.014,0,0,0-6.726-2.287,30.057,30.057,0,0,0-3.5-.067,11.344,11.344,0,0,1-2.152-.067c-.807-.2-3.43-2.018-1.816-2.959,1.076-.74.067-2.489-1.009-1.816Z" transform="translate(-1059.736 -676.775)" fill="#161616"/></g><g transform="translate(120.831 125.35)"><path d="M1063.264,676.445a13.091,13.091,0,0,1,15.537,1.681c.942.874,2.354-.538,1.412-1.412a15.13,15.13,0,0,0-17.958-2.018,1.01,1.01,0,0,0,1.009,1.749Z" transform="translate(-1061.752 -672.635)" fill="#161616"/></g><g transform="translate(125.268 110.885)"><path d="M1069.8,661.2c2.22-1.614,4.372-3.161,6.591-4.775.942-.673,1.816-1.345,2.825-1.951a12.236,12.236,0,0,1,2.085-1.076c3.161-1.076,3.9.471,2.152,4.641-1.211.4-.672,2.354.538,1.951,3.632-1.278,4.91-6.188,1.143-8.273-2.085-1.211-4.574-.336-6.457.74-3.43,1.951-6.591,4.708-9.82,6.995-1.143.807-.135,2.556.942,1.749Z" transform="translate(-1068.349 -651.129)" fill="#161616"/></g><g transform="translate(129.507 116.277)"><path d="M1076.164,669.2c2.69-1.681,5.381-3.43,8.071-5.112a34.611,34.611,0,0,1,3.766-2.219,6.7,6.7,0,0,1,3.228-.74c2.354,0,3.229,1.412,2.623,4.17-.807,1.009.605,2.421,1.412,1.412,2.556-3.228.269-7.2-3.632-7.533-2.556-.269-4.843,1.009-6.928,2.287-3.228,1.951-6.39,4.035-9.551,6.053-1.143.605-.135,2.354,1.009,1.681Z" transform="translate(-1074.652 -659.146)" fill="#161616"/></g><g transform="translate(137.366 123.177)"><path d="M1087.859,675.724q2.724-1.513,5.448-2.825c.605-.336,2.623-1.547,3.229-1.412,1.682.336.538,2.018.135,2.69-.673,1.076,1.076,2.152,1.749,1.009,1.076-1.749,2.018-5.179-.874-5.717-1.547-.336-3.228.74-4.574,1.412-2.085,1.009-4.17,2.018-6.188,3.161-1.076.605,0,2.354,1.076,1.681Z" transform="translate(-1086.337 -669.406)" fill="#161616"/></g><g transform="translate(135.574 127.151)"><path d="M1084.162,677.188a7.926,7.926,0,0,1,1.95,12.712c-.874.942.538,2.354,1.412,1.412a9.964,9.964,0,0,0-2.354-15.873c-1.076-.605-2.152,1.143-1.009,1.749Z" transform="translate(-1083.672 -675.313)" fill="#161616"/></g><g transform="translate(140.61 127.938)"><path d="M1098.989,676.831a37.462,37.462,0,0,1-7.4,7.2c-1.009.74-.067,2.489,1.009,1.749a39.759,39.759,0,0,0,7.869-7.533c.74-1.009-.672-2.421-1.48-1.412Z" transform="translate(-1091.16 -676.484)" fill="#161616"/></g><g transform="translate(114.793 134.135)"><path d="M1053.733,687.717a24.665,24.665,0,0,1,11.77,4.036c1.076.74,2.085-1.009,1.009-1.749a27.815,27.815,0,0,0-12.779-4.3c-1.278-.067-1.278,1.95,0,2.018Z" transform="translate(-1052.775 -685.698)" fill="#161616"/></g><path d="M882.1,510.7c1.211,8.609,3.161,20.715,6.053,35.243,1.883,9.416,3.228,16.344,5.717,25.558,3.766,13.99,6.86,25.76,14.124,39.413,4.775,8.945,8,15.066,14.73,21.657,4.775,4.641,17.285,16.882,36.118,17.151a48.321,48.321,0,0,0,25.894-7.533,33.788,33.788,0,0,0,15.671,4.237c3.3.067,9.483.135,15.335-3.9,2.018-1.412,7.4-5.044,7.8-11.165.067-.942.336-6.053-3.3-8.744-4.035-2.959-10.627-1.211-11.165.874-.471,1.95,4.372,3.565,4.237,6.322-.2,3.5-8.138,5.65-9.618,6.053-47.35,12.779-72.841-8.407-72.841-8.407-7.735-6.457-11.837-13.452-21.388-37.328C901.6,570.492,891.718,543.657,882.1,510.7Z" transform="translate(-882.1 -494.265)" fill="#3d3d3d" opacity="0.09"/></g><g transform="translate(7.05 126.802)"><path d="M575.036,631.644a38.188,38.188,0,0,0,22.531,7.533c10.492-.067,17.891-4.843,22.061-7.533,6.927-4.439,10.9-9.349,14.528-14.057,11.3-14.326,15.806-29.257,19.034-40.086,2.892-9.685,1.749-9.147,4.506-17.554,5.179-15.738,9.618-19.3,14.057-30.535,7.331-18.563,7.8-40.691,2.018-43.113-2.69-1.076-6.659,2.085-14.528,8.542a76.2,76.2,0,0,0-10.9,10.694c-3.5,4.3-9.618,12.779-16.411,33.024-5.515,16.546-4.3,19.236-10.828,37.53-4.036,11.367-6.591,16.008-9.685,20.245-3.5,4.708-9.282,12.375-19.774,16.411A38.731,38.731,0,0,1,572.48,614.9c-.538-2.69-2.354-10.089-8.609-13.721-1.547-.942-5.313-3.094-8-1.48a5.529,5.529,0,0,0-2.287,3.632,19.56,19.56,0,0,0-8-6.793c-1.749-.74-5.313-2.354-6.793-.874-1.345,1.345-.135,4.439,0,4.843a5.209,5.209,0,0,0-5.582.269c-1.143.874-2.421,2.623-1.951,4.506a4.124,4.124,0,0,0,1.681,2.287,7.317,7.317,0,0,0-.135,4.708c.336.942.74,1.547,3.161,4.237,3.094,3.5,3.161,3.363,3.766,4.237,1.681,2.489,1.345,3.834,2.421,6.053,1.883,4.1,5.919,6.053,7.264,6.659,4.3,2.085,8.273,1.547,14.8.605A52.9,52.9,0,0,0,575.036,631.644Z" transform="translate(-530.431 -484.358)" fill="#fff"/><g transform="translate(40.956)"><path d="M693.157,483.639a79.533,79.533,0,0,0-26.769,21.388c-7.2,9.08-12.174,19.572-15.94,30.468-3.766,11.03-6.457,22.4-9.349,33.629-2.758,10.9-7.4,22.2-14.662,30.872-8.474,10.156-21.657,14.057-34.5,12.577-1.278-.135-1.278,1.883,0,2.018,10.156,1.143,20.716-.807,29.123-6.793,8.878-6.322,14.46-16.882,18.429-26.836,4.237-10.56,6.12-22.061,9.214-32.957,3.3-11.77,7.331-23.473,13.788-33.9a77.529,77.529,0,0,1,31.679-28.652c1.211-.673.134-2.421-1.009-1.816Z" transform="translate(-590.975 -483.514)" fill="#161616"/></g><g transform="translate(43.182 65.442)"><path d="M679.78,581.544c-6.12,23.271-11.1,48.359-26.432,67.662-6.659,8.34-15.335,15.469-25.827,18.294-10.9,2.959-22.666,1.278-31.477-5.986-1.009-.807-2.421.605-1.412,1.412,13.384,11.03,32.486,9.887,46.475.471,15.335-10.291,24.415-27.643,30.334-44.66,4.17-11.972,7.062-24.415,10.29-36.656a1.012,1.012,0,0,0-1.951-.538Z" transform="translate(-594.284 -580.814)" fill="#161616"/></g><g transform="translate(21.914 114.182)"><path d="M583.74,669.167c-2.354-3.632-4.574-7.466-7.2-10.9-1.816-2.421-4.237-4.708-7.466-4.977-5.582-.336-8,6.053-5.313,10.291.673,1.076,2.421.067,1.749-1.009-1.278-2.018-1.211-5.381,1.076-6.793,3.228-2.018,6.524,1.278,8.273,3.565,2.623,3.43,4.775,7.2,7.129,10.829.673,1.076,2.421.067,1.749-1.009Z" transform="translate(-562.664 -653.281)" fill="#161616"/></g><g transform="translate(22.529 121.603)"><path d="M572.2,666.053a2.773,2.773,0,0,1-3.5,3.766c-1.951-.673-2.825-2.892-3.161-4.775-.2-1.278-2.152-.74-1.951.538.605,3.363,3.027,6.86,6.86,6.39,3.3-.4,4.775-4.1,3.5-6.928-.538-1.211-2.287-.2-1.749,1.009Z" transform="translate(-563.578 -664.314)" fill="#161616"/></g><g transform="translate(9.479 139.533)"><path d="M579.1,697.851c-6.188,1.345-12.241,4.641-18.7,3.632a20.544,20.544,0,0,1-14.326-10.021c-.673-1.143-2.421-.067-1.749,1.009a22.642,22.642,0,0,0,14.259,10.761c7.4,1.681,13.99-1.883,21.052-3.43,1.278-.269.74-2.22-.538-1.951Z" transform="translate(-544.175 -690.972)" fill="#161616"/></g><g transform="translate(13.206 127.025)"><path d="M563.157,674.275a1.248,1.248,0,0,1,.336,1.48c-.4,1.345-1.883,1.48-3.094,1.614-1.278.067-2.556-.135-3.9,0a15.257,15.257,0,0,0-6.322,2.287c-1.076.673-.067,2.421,1.009,1.749a13.668,13.668,0,0,1,7.936-2.085c1.749.067,3.565.2,4.977-1.009,1.816-1.48,2.018-4.506,0-5.784-1.009-.673-2.018,1.076-.942,1.749Z" transform="translate(-549.716 -672.375)" fill="#161616"/></g><g transform="translate(10.606 124.299)"><path d="M562.631,670.392a13,13,0,0,0-16.478,2.018c-.942.942.538,2.354,1.412,1.412a11.049,11.049,0,0,1,14.057-1.681c1.076.673,2.085-1.076,1.009-1.749Z" transform="translate(-545.85 -668.322)" fill="#161616"/></g><g transform="translate(6.335 109.831)"><path d="M556.785,655.278c-2.758-2.22-5.448-4.573-8.34-6.591-1.749-1.211-3.968-2.421-6.12-1.614-4.237,1.547-3.363,7.2.336,8.609,1.211.471,1.749-1.48.538-1.951q-3.733-4.439.605-4.035a2.4,2.4,0,0,1,2.825.2,22.453,22.453,0,0,1,3.228,2.421c1.816,1.48,3.7,2.959,5.515,4.439.942.74,2.421-.672,1.412-1.48Z" transform="translate(-539.499 -646.811)" fill="#161616"/></g><g transform="translate(0 115.182)"><path d="M549.531,663.129c-2.892-2.018-5.784-4.1-8.676-6.053-1.883-1.278-3.968-2.489-6.255-2.287a4.713,4.713,0,0,0-3.632,7.4c.74,1.009,2.489,0,1.749-1.009-1.48-2.69-.269-4.1,3.5-4.237a9.838,9.838,0,0,1,2.421,1.076c.942.538,1.816,1.211,2.69,1.816l7.264,5.044c1.009.74,2.018-1.009.942-1.749Z" transform="translate(-530.081 -654.767)" fill="#161616"/></g><g transform="translate(0.496 122.065)"><path d="M542.576,669.641a57.815,57.815,0,0,0-5.65-3.161c-1.278-.673-3.027-1.883-4.573-1.345-2.421.874-1.48,4.1-.538,5.717.605,1.143,2.354.135,1.749-1.009-.2-.4-.942-1.614-.74-2.085.269-.673,1.345-.269,1.816-.135a9.042,9.042,0,0,1,1.614.807c1.816.942,3.565,1.95,5.313,3.027a1.042,1.042,0,0,0,1.009-1.816Z" transform="translate(-530.818 -665.001)" fill="#161616"/></g><g transform="translate(8.063 126.083)"><path d="M546.933,671.126A10.436,10.436,0,0,0,544.78,687c.874,1.009,2.287-.471,1.412-1.412a8.393,8.393,0,0,1,1.749-12.712c1.076-.673.067-2.421-1.009-1.749Z" transform="translate(-542.07 -670.975)" fill="#161616"/></g><g transform="translate(0.881 126.985)"><path d="M531.6,673.785a38.129,38.129,0,0,0,7.129,7.6c1.009.807,2.421-.605,1.412-1.412a34.511,34.511,0,0,1-6.793-7.2c-.807-1.076-2.556-.067-1.749,1.009Z" transform="translate(-531.391 -672.316)" fill="#161616"/></g><g transform="translate(20.201 133.088)"><path d="M572.279,681.4a23.843,23.843,0,0,0-11.7,4.3c-1.076.74-.067,2.489,1.009,1.749a21.267,21.267,0,0,1,10.694-4.036c1.345-.135,1.345-2.152,0-2.018Z" transform="translate(-560.116 -681.39)" fill="#161616"/></g><path d="M673.993,523.5c-8.407,20.446-14.864,36.925-18.967,47.686-9.618,25.02-12.308,33.764-21.388,45.265-7.735,9.752-16.882,21.926-32.351,24.28-9.685,1.48-17.891-1.48-22.666-3.632-1.211.942-10.425,7.533-19.37,4.036-4.977-1.951-9.887-6.995-8.878-10.089,1.009-3.161,7.735-2.959,7.667-4.439-.067-1.211-4.708-2.892-8.878-1.614-.605.2-4.708,1.547-6.053,5.246-1.749,4.91,2.825,9.954,4.036,11.3,6.188,6.86,15.671,6.524,17.353,6.457a26.385,26.385,0,0,0,14.124-4.843,33.884,33.884,0,0,0,15.738,7.667c13.653,2.556,24.684-5.112,30.737-8.878,17.285-10.963,23.809-28.45,29.123-41.633,2.556-6.39,3.7-10.56,9.954-36.05C668.074,548.117,671.437,534.261,673.993,523.5Z" transform="translate(-534.218 -496.606)" fill="#3d3d3d" opacity="0.17"/><path d="M534.775,656.891c2.287-.4,5.246,5.65,7.264,10.492-1.009,5.179-2.287,6.322-3.228,6.457-2.69.471-7.264-6.121-6.457-12.106C532.421,661.262,532.96,657.227,534.775,656.891Z" transform="translate(-530.795 -540.274)" fill="#3d3d3d" opacity="0.17"/></g><g transform="translate(136.399 105.63)"><path d="M735.448,473.8c-12.712,14.6-12.981,32.62-13.048,64.232a321.314,321.314,0,0,0,14.124,94.5A162.545,162.545,0,0,0,783,639.326a159.555,159.555,0,0,0,45.937-6.793c2.489-10.291,5.784-25.424,8.34-43.852,8.811-62.483,14.6-103.578-8.34-123.755C805.8,444.613,757.172,448.85,735.448,473.8Z" transform="translate(-722.399 -452.035)" fill="#fff" stroke="#161616" stroke-miterlimit="10" stroke-width="3"/><path d="M820.439,453.9a113.739,113.739,0,0,1,9.147,26.7c2.22,10.627,5.65,34.234-13.788,93.018a536.479,536.479,0,0,1-26.3,65.039,152.43,152.43,0,0,0,17.084.807,164.923,164.923,0,0,0,44.189-6.255c5.112-25.02,8.744-46.341,11.232-62.55,3.094-19.908,5.246-36.723,4.574-57.977-.807-26.9-5.381-34.705-7.936-38.337C847.678,458.339,827.9,454.842,820.439,453.9Z" transform="translate(-744.369 -452.646)" fill="#3d3d3d" opacity="0.1"/><path d="M876.929,513.4c-3.027,9.147-7.4,23.271-11.7,40.893-5.381,21.993-6.188,31.208-9.147,42.978-3.968,15.335-12.241,36.992-31.679,61.743a84.044,84.044,0,0,0,24.616-2.892,83.047,83.047,0,0,0,13.317-4.977c3.43-18.7,6.457-36.252,9.147-52.529,4.775-28.518,6.457-40.288,6.659-55.892A257.427,257.427,0,0,0,876.929,513.4Z" transform="translate(-755.796 -472.127)" fill="#3d3d3d" opacity="0.13"/></g><g transform="translate(125.981 0)"><path d="M789.528,427.754c-2.219,3.027-1.143,5.784-1.614,17.084-.336,7.4-1.076,13.317-1.614,17.084a30.769,30.769,0,0,0,37.8-1.614,72.617,72.617,0,0,1-2.825-10.56c-2.489-12.846.067-16.815-2.825-21.186C813.271,420.827,794.842,420.491,789.528,427.754Z" transform="translate(-732.903 -336.743)" fill="#fff" stroke="#161616" stroke-miterlimit="10" stroke-width="3"/><path d="M750.589,353.69c-.269,9.551,1.883,16.68,3.632,22.4,2.623,8.407,5.515,17.823,13.855,26.432a51.883,51.883,0,0,0,22.4,13.452,59.086,59.086,0,0,0,21.186-14.662c8.34-9.08,11.5-18.294,13.855-25.222a71.3,71.3,0,0,0,4.035-30.939c-1.009-9.887-2.085-20.581-10.56-28.854-12.51-12.174-30.8-9.013-33.36-8.542-17.756,3.3-26.7,17.353-28.854,21.186C750.992,338.758,750.723,348.376,750.589,353.69Z" transform="translate(-721.203 -298.93)" fill="#fff" stroke="#161616" stroke-miterlimit="10" stroke-width="3"/><g transform="translate(64.596 61.14)"><path d="M803.051,386.837a87.83,87.83,0,0,0,2.489,25.491,1.052,1.052,0,0,0,1.681.471,13.142,13.142,0,0,0,3.027-6.121c.269-1.278-1.681-1.816-1.951-.538a10.874,10.874,0,0,1-2.489,5.246,15.7,15.7,0,0,1,1.681.471,89.119,89.119,0,0,1-2.421-24.953,1.01,1.01,0,0,0-2.018-.067Z" transform="translate(-802.95 -385.887)" fill="#161616"/></g><g transform="translate(78.511 62.148)"><path d="M823.949,390.287c4.775,5.044,14.393,6.457,16.949-1.681.4-1.211-1.547-1.749-1.951-.538-2.085,6.659-9.887,4.574-13.519.74-1.009-.874-2.421.538-1.48,1.48Z" transform="translate(-823.64 -387.385)" fill="#161616"/></g><g transform="translate(43.161 76.236)"><path d="M773.044,410.194c0-.2-.067.067-.134.067a.5.5,0,0,1-.336.067c-.2-.4-.471-.807-.673-1.211.067-.067.067-.135.135-.2a.917.917,0,0,0-.673,1.211.941.941,0,0,0,1.211.673,2.068,2.068,0,0,0,1.278-1.211.962.962,0,0,0-.672-1.211,1.709,1.709,0,0,0-2.085,1.211c-.067.538.135,1.143.673,1.211a.858.858,0,0,0,1.278-.605Z" transform="translate(-771.081 -408.332)" fill="#161616"/></g><g transform="translate(52.951 74.333)"><path d="M787.764,406.644q-.2,1.513-.807.2c-.74-.605-.605-.874.4-.74a1.076,1.076,0,0,0-1.412.336,1.06,1.06,0,0,0,.336,1.412,1.3,1.3,0,0,0,1.681-1.883,1.319,1.319,0,0,0-2.287,1.143.94.94,0,0,0,1.211.673.867.867,0,0,0,.874-1.143Z" transform="translate(-785.637 -405.502)" fill="#161616"/></g><g transform="translate(49.294 80.937)"><path d="M782.352,416.854a.582.582,0,0,1-.2.4c.134-.135-.135.067-.067,0s-.2.067,0,0h-.269c-.067,0-.067-.067-.134-.067.067.067.067,0-.067-.067a.72.72,0,0,1-.067-.942.575.575,0,0,1,.874.135,1.044,1.044,0,0,0-1.412-.336,1,1,0,0,0-.336,1.412,1.418,1.418,0,0,0,1.95.471,1.346,1.346,0,0,0,.538-1.883,1.657,1.657,0,0,0-2.959.874,1.078,1.078,0,0,0,2.152,0Z" transform="translate(-780.2 -415.321)" fill="#161616"/></g><g transform="translate(84.149 73.457)"><path d="M833.554,404.671a.872.872,0,0,1,.807.673c.067.4-.2.673-.807.874-.2-.067-.336-.067-.538-.135a.52.52,0,0,1-.2-.807c.336-.538,1.345-.336,1.143.4a.935.935,0,0,0-.673-1.211.962.962,0,0,0-1.211.673,1.417,1.417,0,1,0,2.69-.067,1.231,1.231,0,0,0-1.143-.874,1.25,1.25,0,0,0-1.009.605,1.294,1.294,0,0,0,1.076,1.883,1.034,1.034,0,0,0,1.009-1.009c-.135-.471-.538-1.076-1.143-1.009Z" transform="translate(-832.022 -404.2)" fill="#161616"/></g><g transform="translate(91.428 73.091)"><path d="M844.7,405.232c.067,0,.067-.067,0,0l-.336.336a8.209,8.209,0,0,1-1.143-.471v-.538c0-.067.067-.067.067-.135l.336-.336a8.209,8.209,0,0,1,1.143.471v.471a.935.935,0,0,0-.673-1.211.962.962,0,0,0-1.211.673,1.222,1.222,0,0,0,2.287.807,1.131,1.131,0,0,0-.538-1.48,1.181,1.181,0,0,0-1.614.4.982.982,0,1,0,1.681,1.009Z" transform="translate(-842.844 -403.656)" fill="#161616"/></g><g transform="translate(87.225 79.693)"><path d="M838.953,415.105c-.067-.2,0,0-.067.067,0,.067-.2.2,0,.067l-1.614-.2c-.4-.605.336-1.143.874-.874a1.076,1.076,0,0,0-1.412.336,1.06,1.06,0,0,0,.336,1.412,1.328,1.328,0,0,0,1.614-.269,1.414,1.414,0,0,0,.2-1.681,1.058,1.058,0,0,0-1.614-.2,1.841,1.841,0,0,0-.471,1.816.94.94,0,0,0,1.211.673.881.881,0,0,0,.942-1.143Z" transform="translate(-836.596 -413.472)" fill="#161616"/></g><g transform="translate(59.982 90.933)"><path d="M796.366,432.414a11.166,11.166,0,0,0,16.882-.471c.807-1.009-.605-2.421-1.412-1.412a9.222,9.222,0,0,1-14.057.471c-.874-.942-2.287.471-1.412,1.412Z" transform="translate(-796.091 -430.184)" fill="#161616"/></g><g transform="translate(46.194 47.671)"><path d="M777.279,370.6a8.1,8.1,0,0,1,7.8-2.556c1.278.269,1.816-1.681.538-1.95a10.173,10.173,0,0,0-9.752,3.094c-.874.942.538,2.354,1.412,1.412Z" transform="translate(-775.591 -365.862)" fill="#161616"/></g><g transform="translate(78.535 46.188)"><path d="M824.633,365.771a11.693,11.693,0,0,1,8.407,2.219c1.076.74,2.085-1.009,1.009-1.749a13.138,13.138,0,0,0-9.416-2.489c-1.278.135-1.278,2.152,0,2.018Z" transform="translate(-823.675 -363.657)" fill="#161616"/></g><g transform="translate(43.948 62.753)"><path d="M772.553,391.187c4.775,5.044,14.393,6.457,16.949-1.681.4-1.211-1.547-1.749-1.951-.538-2.085,6.659-9.887,4.574-13.519.74a1.047,1.047,0,0,0-1.48,1.48Z" transform="translate(-772.252 -388.285)" fill="#161616"/></g><path d="M773.374,318.4a163.079,163.079,0,0,0,15.94,16.613,171.819,171.819,0,0,0,24.347,18.429,76.081,76.081,0,0,1-20.85,47.686,25.99,25.99,0,0,0,2.085,14.259c6.12,12.846,23.742,18.631,37.261,14.259,1.614-.538,12.981-4.372,16.68-14.6,1.009-2.825,1.547-6.255,0-15.335a126.943,126.943,0,0,0-7.264-25.693,272.031,272.031,0,0,1-11.165-35.512c-1.211-5.381-6.188-24.684-23.675-35.849-4.574-2.959-14.393-9.214-26.769-7.331a32.518,32.518,0,0,0-12.174,4.506,50.292,50.292,0,0,0-25.424,9.08c-21.926,15.738-21.321,44.121-21.254,47.013a131.637,131.637,0,0,1-3.834,15.335c-4.977,15.6-9.147,17.554-10.089,27.172-.269,2.421-1.48,14.662,6.591,24.684,1.681,2.085,6.86,8.34,15.671,10.089,11.7,2.354,24.28-4.237,29.459-14.6a26.707,26.707,0,0,0,2.556-14.326c-1.951-1.749-19.908-18.025-17.756-43.382C746.134,332.054,772.163,319.006,773.374,318.4Z" transform="translate(-706.929 -294.984)" fill="#6d9773"/><path d="M831.8,366.1a57.292,57.292,0,0,1,1.816,19.841c-.942,10.627-4.708,18.092-8.609,25.76a110,110,0,0,1-15.6,23,21.83,21.83,0,0,0,4.036-1.143,25.1,25.1,0,0,0,7.466-4.3c-.538,6.322-1.076,12.645-1.547,18.967,3.834-1.681,7.667-3.3,11.5-4.977-.807-6.726-1.681-13.384-2.489-20.11a95.621,95.621,0,0,0,6.322-8.811c3.363-5.313,8.138-12.981,10.627-23.675a61.615,61.615,0,0,0,1.547-14.662C841.886,372.759,836.841,369.4,831.8,366.1Z" transform="translate(-740.466 -318.269)" fill="#3d3d3d" opacity="0.11"/><path d="M846.865,382.6c-.538-.135-2.018,6.793-6.524,17.151a157.422,157.422,0,0,1-7.2,14.191c-3.565,6.053-10.627,16.209-23.944,26.836,1.48.673,3.027,1.345,4.506,2.018,4.372-.471,8.744-.874,13.115-1.345-.2-3.7-.471-7.4-.673-11.03A74.054,74.054,0,0,0,843.1,403.584C846.73,393.024,847.537,382.734,846.865,382.6Z" transform="translate(-740.401 -323.67)" fill="#3d3d3d" opacity="0.16"/><path d="M712.687,426.343A22.077,22.077,0,0,0,714.5,436.5c2.623,5.851,8.743,12.241,15.335,12.174,8-.067,16.882-9.752,16.478-23.473a56.391,56.391,0,0,0,6.12,11.3,59.526,59.526,0,0,0,9.685,10.829,29.077,29.077,0,0,1-1.345,9.483,28.558,28.558,0,0,1-6.12,10.627c-1.614,1.749-6.86,7.4-15.335,8.811-12.308,2.018-21.59-6.524-23.271-8.138-11.03-10.56-9.147-25.491-8.811-27.778A33.593,33.593,0,0,1,712.687,426.343Z" transform="translate(-706.909 -337.619)" fill="#0a0a0a" opacity="0.29"/><path d="M855.48,382.2c.538,3.3,1.278,8.542,1.816,15.133,1.143,14.124,0,17.891,2.287,25.087.336,1.143,5.515,17.016,13.115,17.151,5.919.135,12.51-9.147,15.133-22.8a85.169,85.169,0,0,1,3.363,16.68c.673,6.659.067,8.878-.2,9.954-1.883,6.121-6.86,9.483-9.483,11.3a31.9,31.9,0,0,1-20.783,5.179c-2.354-.269-13.25-1.681-20.514-10.829a28.226,28.226,0,0,1-5.851-13.317,25.771,25.771,0,0,1-.2-5.851,71.8,71.8,0,0,0,13.99-19.438A75.923,75.923,0,0,0,855.48,382.2Z" transform="translate(-748.545 -323.54)" fill="#0a0a0a" opacity="0.12"/></g></g></g></svg>