<svg xmlns="http://www.w3.org/2000/svg" width="24.208" height="24.202" viewBox="0 0 24.208 24.202"><path d="M12.1,8.134a6.205,6.205,0,1,0,6.205,6.205A6.2,6.2,0,0,0,12.1,8.134Zm0,10.239a4.034,4.034,0,1,1,4.034-4.034A4.041,4.041,0,0,1,12.1,18.373ZM20.008,7.88A1.447,1.447,0,1,1,18.56,6.433,1.444,1.444,0,0,1,20.008,7.88Zm4.11,1.469a7.162,7.162,0,0,0-1.955-5.071,7.21,7.21,0,0,0-5.071-1.955c-2-.113-7.987-.113-9.985,0a7.2,7.2,0,0,0-5.071,1.95A7.186,7.186,0,0,0,.08,9.343c-.113,2-.113,7.987,0,9.985A7.162,7.162,0,0,0,2.035,24.4a7.219,7.219,0,0,0,5.071,1.955c2,.113,7.987.113,9.985,0A7.162,7.162,0,0,0,22.162,24.4a7.21,7.21,0,0,0,1.955-5.071c.113-2,.113-7.982,0-9.98ZM21.536,21.473a4.084,4.084,0,0,1-2.3,2.3c-1.593.632-5.373.486-7.134.486s-5.546.14-7.134-.486a4.084,4.084,0,0,1-2.3-2.3c-.632-1.593-.486-5.373-.486-7.134S2.04,8.793,2.667,7.2a4.084,4.084,0,0,1,2.3-2.3c1.593-.632,5.373-.486,7.134-.486s5.546-.14,7.134.486a4.084,4.084,0,0,1,2.3,2.3c.632,1.593.486,5.373.486,7.134S22.168,19.885,21.536,21.473Z" transform="translate(0.005 -2.238)" fill="#fff"/></svg>