<svg xmlns="http://www.w3.org/2000/svg" width="24.194" height="24.194" viewBox="0 0 24.194 24.194"><path d="M21.6,2.25H2.592A2.593,2.593,0,0,0,0,4.842v19.01a2.593,2.593,0,0,0,2.592,2.592H21.6a2.593,2.593,0,0,0,2.592-2.592V4.842A2.593,2.593,0,0,0,21.6,2.25Zm-2.641,8.576c.011.151.011.308.011.459A10.009,10.009,0,0,1,8.895,21.362a10.031,10.031,0,0,1-5.438-1.588,7.462,7.462,0,0,0,.853.043,7.1,7.1,0,0,0,4.4-1.512A3.547,3.547,0,0,1,5.4,15.848a3.817,3.817,0,0,0,1.6-.065,3.542,3.542,0,0,1-2.835-3.478v-.043a3.54,3.54,0,0,0,1.6.448A3.534,3.534,0,0,1,4.18,9.762a3.5,3.5,0,0,1,.481-1.788,10.057,10.057,0,0,0,7.3,3.7,3.549,3.549,0,0,1,6.043-3.235,6.941,6.941,0,0,0,2.247-.853A3.533,3.533,0,0,1,18.7,9.541a7.048,7.048,0,0,0,2.041-.551A7.455,7.455,0,0,1,18.961,10.826Z" transform="translate(0 -2.25)" fill="#fff"/></svg>